<?xml version="1.0" encoding="utf-8"?>
<!-- Generator: Adobe Illustrator 25.4.0, SVG Export Plug-In . SVG Version: 6.00 Build 0)  -->
<svg version="1.1" id="레이어_1" xmlns="http://www.w3.org/2000/svg" xmlns:xlink="http://www.w3.org/1999/xlink" x="0px"
	 y="0px" width="21px" height="21px" viewBox="0 0 21 21" style="enable-background:new 0 0 21 21;" xml:space="preserve">
<g id="레이어_1_00000067232858115142313930000012040222997225238931_" style="display:none;">
	<path style="display:inline;fill:#FFFFFF;" d="M1.86,2l0.55,18.68L18.08,21l1.06-19H1.86z M9.56,16.61H7.92v1.31H6.03l-0.1-1.58
		l-1.45,0.09v-1.49h1.55v-1.27h1.84v1.27h1.69C9.56,14.94,9.56,16.61,9.56,16.61z M13.51,18.2L13.51,18.2
		c-0.24,0.52-0.89,0.76-1.45,0.54c-0.56-0.22-0.82-0.83-0.58-1.35s0.89-0.76,1.45-0.54C13.5,17.07,13.75,17.68,13.51,18.2z
		 M16.42,16.35c-0.24,0.52-0.89,0.76-1.45,0.54s-0.82-0.83-0.58-1.35s0.89-0.76,1.45-0.54C16.4,15.22,16.66,15.82,16.42,16.35z
		 M16.34,11.91H4.44L4.15,3.95h12.58L16.34,11.91z"/>
</g>
<g id="레이어_2_00000139254003780919738000000005069320511867850650_">
	<g>
		<polygon style="fill:#FFFFFF;" points="1.39,15.95 0,2.68 14.6,1.88 13.34,15.11 		"/>
		<polygon style="fill:#FFFFFF;" points="15.76,3.54 14.6,16.16 3.62,16.92 3.57,18.64 16.65,17.49 17.9,3.38 		"/>
		<polygon style="fill:#FFFFFF;" points="19,5.27 17.86,18.54 5.84,19.37 5.67,21 20.14,19.88 21,5.27 		"/>
	</g>
</g>
<g id="레이어_3">
</g>
</svg>
