<?xml version="1.0" encoding="utf-8"?>
<!-- Generator: Adobe Illustrator 25.4.0, SVG Export Plug-In . SVG Version: 6.00 Build 0)  -->
<svg version="1.1" id="레이어_1" xmlns="http://www.w3.org/2000/svg" xmlns:xlink="http://www.w3.org/1999/xlink" x="0px"
	 y="0px" width="21px" height="21px" viewBox="0 0 21 21" style="enable-background:new 0 0 21 21;" xml:space="preserve">
<g id="레이어_1_00000117657316692917074840000000445487753190971564_" style="display:none;">
	<path style="display:inline;fill:#FFFFFF;" d="M1.86,2l0.55,18.68L18.08,21l1.06-19H1.86z M9.56,16.61H7.92v1.31H6.03l-0.1-1.58
		l-1.45,0.09v-1.49h1.55v-1.27h1.84v1.27h1.69C9.56,14.94,9.56,16.61,9.56,16.61z M13.51,18.2L13.51,18.2
		c-0.24,0.52-0.89,0.76-1.45,0.54c-0.56-0.22-0.82-0.83-0.58-1.35s0.89-0.76,1.45-0.54C13.5,17.07,13.75,17.68,13.51,18.2z
		 M16.42,16.35c-0.24,0.52-0.89,0.76-1.45,0.54s-0.82-0.83-0.58-1.35s0.89-0.76,1.45-0.54C16.4,15.22,16.66,15.82,16.42,16.35z
		 M16.34,11.91H4.44L4.15,3.95h12.58L16.34,11.91z"/>
</g>
<g id="레이어_2_00000057836906811093105350000005060301327006633104_" style="display:none;">
	<g style="display:inline;">
		<polygon style="fill:#FFFFFF;" points="2.21,15.95 0.94,2.68 14.23,1.88 13.09,15.11 		"/>
		<polygon style="fill:#FFFFFF;" points="15.29,3.54 14.23,16.16 4.24,16.92 4.19,18.64 16.1,17.49 17.24,3.38 		"/>
		<polygon style="fill:#FFFFFF;" points="18.24,5.27 17.2,18.54 6.26,19.37 6.1,21 19.28,19.88 20.06,5.27 		"/>
	</g>
</g>
<g id="레이어_4" style="display:none;">
	<g style="display:inline;">
		<polygon style="fill:#FFFFFF;" points="5.58,3.5 5.63,2 2.15,2 2.31,3.58 0,3.64 0.24,6.3 2.56,6.26 2.69,7.61 5.43,7.61 
			5.48,6.2 21,5.91 21,3.11 		"/>
		<polygon style="fill:#FFFFFF;" points="10.5,13.89 6.95,13.65 7.08,15.64 0,15.49 0,18.73 7.28,18.63 7.44,21 10.5,21 10.5,18.59 
			21,18.44 21,15.93 10.5,15.71 		"/>
		<polygon style="fill:#FFFFFF;" points="18.06,7.36 14.98,7.7 15.06,9.25 0,9.25 0,11.81 15.22,12.2 15.32,13.94 18.06,13.94 
			18.06,12.27 21,12.35 21,9.25 18.06,9.25 		"/>
	</g>
</g>
<g id="레이어_5">
	<g>
		<path style="fill:#FFFFFF;" d="M7.8,9.27H3.7l0.13,4.55h4.01l1.72-2.35L7.8,9.27z"/>
		<path style="fill:#FFFFFF;" d="M12.88,8.9l0.09-4.04H8.46v3.89l2.26,1.88L12.88,8.9z"/>
		<path style="fill:#FFFFFF;" d="M8.46,14.38v4.01h4.42v-3.95l-2.16-1.76L8.46,14.38z"/>
		<path style="fill:#FFFFFF;" d="M20.53,6.33l-4.11-0.31l-0.28-3.54L5.36,2L4.95,6.01H0.84L0.47,17.36l4.7-0.28L4.92,21h11
			l-0.03-3.67l4.64-0.25V6.33z M19.18,15.95h-4.67v3.57l-8.12,0.44v-3.92h-4.1L1.88,7.3h4.51V3.38l8.62,0.47V7.3l4.61,0.06
			L19.18,15.95z"/>
		<path style="fill:#FFFFFF;" d="M11.82,11.56l1.72,2.38h4.04V9.27h-3.95L11.82,11.56z"/>
	</g>
</g>
<g id="레이어_3">
</g>
</svg>
