<?xml version="1.0" encoding="utf-8"?>
<!-- Generator: Adobe Illustrator 25.4.0, SVG Export Plug-In . SVG Version: 6.00 Build 0)  -->
<svg version="1.1" xmlns="http://www.w3.org/2000/svg" xmlns:xlink="http://www.w3.org/1999/xlink" x="0px" y="0px" width="21px"
	 height="21px" viewBox="0 0 21 21" style="enable-background:new 0 0 21 21;" xml:space="preserve">
<g id="레이어_1" style="display:none;">
	<path style="display:inline;fill:#FFFFFF;" d="M1.86,2l0.55,18.68L18.08,21l1.06-19H1.86z M9.56,16.61H7.92v1.31H6.03l-0.1-1.58
		l-1.45,0.09v-1.49h1.55v-1.27h1.84v1.27h1.69V16.61z M13.51,18.2L13.51,18.2c-0.24,0.52-0.89,0.76-1.45,0.54
		c-0.56-0.22-0.82-0.83-0.58-1.35s0.89-0.76,1.45-0.54C13.5,17.07,13.75,17.68,13.51,18.2z M16.42,16.35
		c-0.24,0.52-0.89,0.76-1.45,0.54s-0.82-0.83-0.58-1.35c0.24-0.52,0.89-0.76,1.45-0.54C16.4,15.22,16.66,15.82,16.42,16.35z
		 M16.34,11.91H4.44L4.15,3.95h12.58L16.34,11.91z"/>
</g>
<g id="레이어_2" style="display:none;">
	<g style="display:inline;">
		<polygon style="fill:#FFFFFF;" points="2.21,15.95 0.94,2.68 14.23,1.88 13.09,15.11 		"/>
		<polygon style="fill:#FFFFFF;" points="15.29,3.54 14.23,16.16 4.24,16.92 4.19,18.64 16.1,17.49 17.24,3.38 		"/>
		<polygon style="fill:#FFFFFF;" points="18.24,5.27 17.2,18.54 6.26,19.37 6.1,21 19.28,19.88 20.06,5.27 		"/>
	</g>
</g>
<g id="레이어_4" style="display:none;">
	<g style="display:inline;">
		<polygon style="fill:#FFFFFF;" points="5.58,3.5 5.63,2 2.15,2 2.31,3.58 0,3.64 0.24,6.3 2.56,6.26 2.69,7.61 5.43,7.61 
			5.48,6.2 21,5.91 21,3.11 		"/>
		<polygon style="fill:#FFFFFF;" points="10.5,13.89 6.95,13.65 7.08,15.64 0,15.49 0,18.73 7.28,18.63 7.44,21 10.5,21 10.5,18.59 
			21,18.44 21,15.93 10.5,15.71 		"/>
		<polygon style="fill:#FFFFFF;" points="18.06,7.36 14.98,7.7 15.06,9.25 0,9.25 0,11.81 15.22,12.2 15.32,13.94 18.06,13.94 
			18.06,12.27 21,12.35 21,9.25 18.06,9.25 		"/>
	</g>
</g>
<g id="레이어_5" style="display:none;">
	<g style="display:inline;">
		<path style="fill:#FFFFFF;" d="M7.8,9.27H3.7l0.13,4.55h4.01l1.72-2.35L7.8,9.27z M7.36,12.88h-2.6L4.7,10.21h2.67l1,1.29
			L7.36,12.88z"/>
		<path style="fill:#FFFFFF;" d="M12.88,8.9l0.09-4.04H8.46v3.89l2.26,1.88L12.88,8.9z M9.4,5.79H12l-0.06,2.63L10.72,9.4L9.4,8.3
			V5.79z"/>
		<path style="fill:#FFFFFF;" d="M8.46,14.38v4.01h4.42v-3.95l-2.16-1.76L8.46,14.38z M11.94,17.46H9.4v-2.63l1.29-0.94l1.25,1
			V17.46z"/>
		<path style="fill:#FFFFFF;" d="M20.53,6.33l-4.11-0.31l-0.28-3.54L5.36,2L4.95,6.01H0.84L0.47,17.36l4.7-0.28L4.92,21h11
			l-0.03-3.67l4.64-0.25V6.33z M19.18,15.95h-4.67v3.57l-8.12,0.44v-3.92H2.29L1.88,7.3h4.51V3.38l8.62,0.47V7.3l4.61,0.06
			L19.18,15.95z"/>
		<path style="fill:#FFFFFF;" d="M11.82,11.56l1.72,2.38h4.04V9.27h-3.95L11.82,11.56z M16.61,10.18v2.79h-2.63l-1-1.41l1.1-1.38
			H16.61z"/>
	</g>
</g>
<g id="레이어_6" style="display:none;">
	<g style="display:inline;">
		<path style="fill:#FFFFFF;" d="M0.13,2.3l0.12,3.44L21,5.24V1.58L0.13,2.3z M2.46,4.9C1.97,4.9,1.57,4.5,1.57,4
			c0-0.5,0.4-0.9,0.89-0.9c0.49,0,0.89,0.4,0.89,0.9C3.35,4.5,2.95,4.9,2.46,4.9z M5.65,4.82c-0.49,0-0.89-0.4-0.89-0.9
			c0-0.5,0.4-0.9,0.89-0.9c0.49,0,0.89,0.4,0.89,0.9C6.54,4.42,6.15,4.82,5.65,4.82z M8.7,4.69c-0.49,0-0.89-0.4-0.89-0.9
			c0-0.5,0.4-0.9,0.89-0.9C9.2,2.9,9.6,3.3,9.6,3.8C9.6,4.29,9.2,4.69,8.7,4.69z"/>
		<polygon style="fill:#FFFFFF;" points="0.13,7.26 0.6,21 20.49,20.82 21,6.88 		"/>
	</g>
</g>
<g id="레이어_7" style="display:none;">
	<g style="display:inline;">
		<polygon style="fill:#FFFFFF;" points="3.95,9.49 0.04,9.74 0.46,16.21 4.49,15.66 12.43,21 10.91,2.02 		"/>
		<path style="fill:#FFFFFF;" d="M13.19,7.47l0.76,8.21c0,0,3.23-0.91,2.86-5.19C16.46,6.44,13.19,7.47,13.19,7.47z"/>
		<path style="fill:#FFFFFF;" d="M12.43,2.02l0.29,2.37c0,0,4.79,0,5.8,5.19c1.15,5.88-4.22,8.08-4.22,8.08L14.42,21
			c0,0,8.17-3.65,6.31-12.18C19.08,1.31,12.43,2.02,12.43,2.02z"/>
	</g>
</g>
<g id="레이어_9" style="display:none;">
	<g style="display:inline;">
		<path style="fill:#FFFFFF;" d="M10.72,13.54c-1.57,0.21-2.91,1.8-3.64,2.83l4.06,3.33l3.7-3.86
			C13.75,14.72,12.12,13.36,10.72,13.54z"/>
		<path style="fill:#FFFFFF;" d="M10.36,5.76c4.23-0.04,7.48,3.43,8.98,5.38L21,9.42c0,0-3.08-6.24-10.09-6.24
			C3.12,3.17,0,10.56,0,10.56l1.78,1.46C2.97,9.97,5.93,5.8,10.36,5.76z"/>
		<path style="fill:#FFFFFF;" d="M10.5,8.53c-3.32,0.37-5.76,3.34-6.88,4.99l1.52,1.25c0.86-1.36,2.55-3.25,5.36-3.33
			c2.72-0.09,4.69,1.58,5.81,2.87l1.61-1.68C16.53,10.92,13.73,8.17,10.5,8.53z"/>
	</g>
</g>
<g id="레이어_8" style="display:none;">
</g>
<g id="레이어_10" style="display:none;">
	<path style="display:inline;fill:#FFFFFF;" d="M16.9,14.12l-1.08,0.56L15,13.88c0,0,3.23-3.9-0.19-7.32
		c-3.26-3.25-7.1-0.38-7.1-0.38S4.07,8.96,6.28,13.2c2.21,4.23,7.65,1.57,7.65,1.57l0.77,0.89l-0.55,0.95l4.38,4.4L21,19.09
		L16.9,14.12z M13.85,12.78c-0.48,0.52-3.98,2.79-5.74-0.01c-1.76-2.8,0.63-5.24,0.63-5.24c1.37-1.13,3.6-1.16,5.36,0.77
		C15.87,10.24,14.34,12.26,13.85,12.78z"/>
	<g style="display:inline;">
		<path style="fill:#FFFFFF;" d="M16.36,2.6L0,2l1.31,19l14.4-0.28l-0.04-1.19l-2.76-2.77l0.38-0.66c-2.4,0.8-6.09,1.01-7.9-2.44
			C3.34,9.72,5.62,6.52,7.11,5.38c1.4-1.05,5.93-3.88,9.11,1.59L16.36,2.6z"/>
		<rect x="8.75" y="8.31" style="fill:#FFFFFF;" width="4.99" height="1.09"/>
		<rect x="8.75" y="9.97" style="fill:#FFFFFF;" width="3.58" height="1.09"/>
		<rect x="8.75" y="11.6" style="fill:#FFFFFF;" width="4.53" height="0.94"/>
	</g>
</g>
<g id="레이어_11" style="display:none;">
	<polygon style="display:inline;fill:#FFFFFF;" points="14.21,7.77 14.66,2 7.65,2.15 7.65,7.74 3.21,7.72 11.24,16.45 17.79,7.74 	
		"/>
	<polygon style="display:inline;fill:#FFFFFF;" points="0,13 0.64,21 20.39,20.24 21,13 18.14,13 17.89,17.72 3.12,18.56 2.69,13 	
		"/>
</g>
<g id="레이어_12" style="display:none;">
	<g style="display:inline;">
		<polygon style="fill:#FFFFFF;" points="13.77,13.59 6.91,13.62 6.55,9.04 13.77,9.11 13.77,6.66 21,11.1 13.77,16 		"/>
		<polygon style="fill:#FFFFFF;" points="18.98,21 0.8,20.04 0,2.66 18.4,2 18.4,7.53 15.69,6.12 15.69,4.18 2.57,4.5 3.46,18.18 
			15.76,18.88 15.8,16.51 18.6,15.05 		"/>
	</g>
</g>
<g id="레이어_13">
	<path style="fill:#FFFFFF;" d="M14.59,2.79C7.97,0.25,4.05,4.65,4.05,4.65L2.06,2.97L0.58,9.66l7.93,0.05L6.62,7.4
		c0,0,1.94-3.2,5.87-1.76c3.94,1.44,5.07,4.81,4.09,8.08c-0.98,3.27-3.79,4.34-6.6,3.61c-2.81-0.72-4.35-3.05-4.3-5l-3.8,0.2
		c0,0-0.27,5.98,6.87,8.02s10.81-3.54,11.41-6.75S20.82,5.19,14.59,2.79z"/>
</g>
<g id="레이어_3">
</g>
</svg>
