<?xml version="1.0" encoding="utf-8"?>
<!-- Generator: Adobe Illustrator 25.4.0, SVG Export Plug-In . SVG Version: 6.00 Build 0)  -->
<svg version="1.1" id="레이어_1" xmlns="http://www.w3.org/2000/svg" xmlns:xlink="http://www.w3.org/1999/xlink" x="0px"
	 y="0px" width="21px" height="21px" viewBox="0 0 21 21" style="enable-background:new 0 0 21 21;" xml:space="preserve">
<path style="fill:#FFFFFF;" d="M0,2l0.67,18.68L19.71,21L21,2H0z M8.46,18.19H6.82v1.31H4.93l-0.1-1.58l-1.45,0.09v-1.49h1.55v-1.27
	h1.84v1.27h1.69C8.46,16.52,8.46,18.19,8.46,18.19z M13.78,18.38L13.78,18.38c-0.24,0.52-0.89,0.76-1.45,0.54
	c-0.56-0.22-0.82-0.83-0.58-1.35s0.89-0.76,1.45-0.54C13.77,17.25,14.02,17.86,13.78,18.38z M17.09,17.35
	c-0.24,0.52-0.89,0.76-1.45,0.54c-0.56-0.22-0.82-0.83-0.58-1.35s0.89-0.76,1.45-0.54S17.33,16.82,17.09,17.35z M17.58,13.12H3.18
	L2.83,3.95h15.22L17.58,13.12z"/>
</svg>
