<svg id="Original" xmlns="http://www.w3.org/2000/svg" width="159" height="55" viewBox="0 0 159 55">
  <g id="Daphne">
    <path d="M137.3,68a32.8,32.8,0,0,0-4.7.3,31.6,31.6,0,0,0-5.3,1.3,40.7,40.7,0,0,0-5.6,2.7,56.3,56.3,0,0,0-6.1,4.2,8,8,0,0,0-2.3,9.8,7.6,7.6,0,0,0,2.4,2.9v1.2c.1,1.6.2,3.7.4,5.7s.1,3.8.2,5.6v.7c0,2,.1,3.8.2,5a3.1,3.1,0,0,0,.1,1,8.2,8.2,0,0,0-1.8,7.8,8,8,0,0,0,7.5,5.6h.6a40.8,40.8,0,0,0,10.5-1.3,38.1,38.1,0,0,0,9.4-3.6,33.3,33.3,0,0,0,6.4-4.5q1,1.8,2.1,3.3a33.2,33.2,0,0,0,3.6,3.8,13,13,0,0,0,6.1,2.8h1.3a7.7,7.7,0,0,0,5.8-2.6h6.9a6.4,6.4,0,0,0,2-.3h8.1a8,8,0,0,0,7.7-5.7,5.9,5.9,0,0,0,.2-1.3,8.1,8.1,0,0,0,8,7.5h8.3a8.6,8.6,0,0,0,2.4-.4,10,10,0,0,0,2.4.4h8.6a5.8,5.8,0,0,0,1.9-.3l2.1.2h2.6a5.5,5.5,0,0,0,1.8-.2c.2.1.3.3.4.4a8.1,8.1,0,0,0,10.2,0,20.9,20.9,0,0,0,2.5-2.6l1.1-1.4.3.3a25.2,25.2,0,0,0,4.9,3.7,24.4,24.4,0,0,0,4.4,1.9l3.1.7h1.3a8,8,0,0,0,3.8-15,11.2,11.2,0,0,1-2.2-1.6,12,12,0,0,1-1.7-2.1,4.1,4.1,0,0,1-.5-.9,9.9,9.9,0,0,0,2.7-1.4l1.6-1.4,1.3-1.4a18.8,18.8,0,0,0,1.2-1.8h0a8.7,8.7,0,0,0,2.3-2.7l.9-1.5a5.2,5.2,0,0,1,.7-1.1h0a5.7,5.7,0,0,0,.8-1.3,8.9,8.9,0,0,0,1.2-4.7h0a6.9,6.9,0,0,0-.5-2.4h0a8.9,8.9,0,0,0-1.9-3.1.2.2,0,0,1-.2-.2,8.9,8.9,0,0,0-3.3-1.8h0a9.3,9.3,0,0,0-2.3-.4l-1.9.2h-.8L259,78l-2.3-.2-2.7-.3-2-.3-1.7-.2h-3.1a6.4,6.4,0,0,0-2-.3h-5.5a7.8,7.8,0,0,0-3.7.9l-1.3-.8-.4-.2-.9-.5-1.2-.5h0a8,8,0,0,0-1.5-.3l-1.7-.2a7.3,7.3,0,0,0-2.5.4l-1.9-.4H214a10.2,10.2,0,0,0-2.5-.6l-9.9-.4h-.4a6.6,6.6,0,0,0-2.8.5l-2.4-.7a20.4,20.4,0,0,0-4.4-.5h-.5a26.3,26.3,0,0,0-4.1.3,37.3,37.3,0,0,0-4.6.9l-3.6,1.3a9,9,0,0,0-4.8-1.4h-3.7l-3.4.2-5.5.3-3.5.2a6.7,6.7,0,0,0-.9-1.4,13.4,13.4,0,0,0-3.4-2.8,18,18,0,0,0-4.9-2,31.4,31.4,0,0,0-6.4-.7h-5Z" transform="translate(-112.5 -68)"/>
    <path d="M150.9,82.4l-.3-1.1c0-.4-.1-.7,0-.9s0-.5.1-.6l.5-.6c-.1,0-.2-.2-.4-.5a3.8,3.8,0,0,0-1.3-1.1,13,13,0,0,0-2.7-1,18.9,18.9,0,0,0-4.6-.5h-4.9a21.7,21.7,0,0,0-3.6.2l-3.7.9a27.4,27.4,0,0,0-4.2,2.1,50.1,50.1,0,0,0-5.3,3.6h.8l.8.2a2.3,2.3,0,0,1,.7.7,6.6,6.6,0,0,1,.4,1.1,6.1,6.1,0,0,1,.2,1.5c.1.7.2,2,.3,3.7s.2,3.7.3,5.9.2,4.3.3,6.2.2,3.8.3,5,.1,2.2.1,2.9a16.4,16.4,0,0,1-.3,1.8,4.7,4.7,0,0,1-.7,1.2l-1.1.9h.4a39.5,39.5,0,0,0,8.5-1,31.7,31.7,0,0,0,7.6-3,24.7,24.7,0,0,0,6.1-4.5,21.1,21.1,0,0,0,4.1-5.8,30.1,30.1,0,0,0,2-6,24.3,24.3,0,0,0,.5-5.1,34.6,34.6,0,0,0-.3-3.7A14.6,14.6,0,0,0,150.9,82.4Zm-5.8,13.7a20.4,20.4,0,0,1-1.7,4.7,43.9,43.9,0,0,1-3.6,5.5,15,15,0,0,1-3.1,3.1,11.2,11.2,0,0,1-3.2,1.4,18.6,18.6,0,0,1-3.4.5,25.1,25.1,0,0,1-.3-3.6c-.1-1.9-.3-4.5-.4-7.1s-.3-5.4-.5-7.6-.2-4.1-.2-4.9V85.2a10.7,10.7,0,0,1,.6-3.1,5.3,5.3,0,0,1,2-2.5,9.1,9.1,0,0,1,4.2-1.2h1.6a7.8,7.8,0,0,1,2.2.2,6,6,0,0,1,1.9.6,7,7,0,0,1,1.6,1.4,8.9,8.9,0,0,1,1.3,2.4,29,29,0,0,1,1.1,3.8,34.2,34.2,0,0,1,.4,4.5A26.1,26.1,0,0,1,145.1,96.1Zm118.4-10h-5.3l-2.4-.3-2.8-.3-2-.3h-4.4l.7.6a2.4,2.4,0,0,1,.2.9,2.3,2.3,0,0,1-.2,1.1,6.4,6.4,0,0,1-.6,1.6,11.9,11.9,0,0,0-.9,2.7,24.7,24.7,0,0,0-.6,4.3,23.2,23.2,0,0,0,.5,5.1,20.1,20.1,0,0,0,2.1,5.4,25.7,25.7,0,0,0,3.4,4.2,16.9,16.9,0,0,0,3.3,2.5,22.1,22.1,0,0,0,2.9,1.3l2,.4a18.9,18.9,0,0,1-3.8-2.7,17.1,17.1,0,0,1-3.1-3.8,18.9,18.9,0,0,1-2.2-5.2,23.4,23.4,0,0,1-.7-6.7,4.5,4.5,0,0,1,.1-1.3.8.8,0,0,1,.2-.6.7.7,0,0,1,.6-.3h2.9l1.2.2a3.1,3.1,0,0,1,1,.5,2.2,2.2,0,0,1,.9.7l1.1-.9.6-.7.3-.4a.3.3,0,0,1,.1-.2l-.6-.2-1.5-.2-1.9-.2h-3.8a.5.5,0,0,1-.2-.4,1.3,1.3,0,0,1,.3-.7,4.1,4.1,0,0,1,.6-1.1,8.3,8.3,0,0,1,1.1-1.5,4.7,4.7,0,0,1,1.5-1.3,3.4,3.4,0,0,1,2-.6h.9a5.1,5.1,0,0,1,2.1,1,3.1,3.1,0,0,1,1.1,1.2,3.4,3.4,0,0,1,.5,1.1,1.8,1.8,0,0,1,.1.5l1.1-2a7.3,7.3,0,0,1,.9-1.3l.5-.9.2-.5Zm-89.7,24.8a1.9,1.9,0,0,1-.4-.9,3.6,3.6,0,0,1-.2-1.1c0-.4,0-2.1.1-4.3V96.9c.1-2.8.1-5.5.1-7.7V84.7a3.5,3.5,0,0,1,.1-.6.9.9,0,0,1,.1-.5l.4-.3.4-.3.2-.4v-.3l-.5-.2h-.1l-2.2.2-4.4.2-5.5.3-5.6.3h.4c.2.1.4.1.6.3a1.2,1.2,0,0,1,.6.6,1.9,1.9,0,0,1,.1,1.1,4,4,0,0,1-.4,1.3l-.8,1-1,1.5a14.2,14.2,0,0,0-1.2,2.7,22.1,22.1,0,0,0-.8,3.5,21.1,21.1,0,0,0-.2,3.5,18.4,18.4,0,0,0,.3,3.3c.2,1,.5,2,.8,3a24.8,24.8,0,0,0,1.3,3c.6,1,1.2,2,1.9,3a12.5,12.5,0,0,0,2.3,2.3,4,4,0,0,0,2.3,1.2,21.8,21.8,0,0,1-4.1-7.3,16.8,16.8,0,0,1-.9-6.4,22.4,22.4,0,0,1,.9-5,29.3,29.3,0,0,1,1.2-3.1h9.2a15.7,15.7,0,0,1,.1,2.7v13.9a2.9,2.9,0,0,1-.3,1.4,3.5,3.5,0,0,1-.6.9l-.6.5c-.2.1-.3.1-.3.2h8.1a1.3,1.3,0,0,1-.8-.3A1,1,0,0,1,173.8,110.9Zm-4.9-24.1v.9c0,.4-.1.7-.1.9v.7c-.1.2-.1.4-.2.5l-.3.3h-8.2l1.8-2.5,1.5-1.6a9.1,9.1,0,0,1,1.3-1,5.2,5.2,0,0,1,1.3-.6h1.8l.4.2.4.3.2.3a3.5,3.5,0,0,1,.1.6Zm75-2.3h-4.1c.3.1.5.4.8.8a10.3,10.3,0,0,1,.5,1.6,14,14,0,0,1,.2,2.3v3.3a16.6,16.6,0,0,0-2.3-3.1l-3.2-2.6a17.5,17.5,0,0,0-3.2-2.1l-2.3-1.4-.3-.2h-1l-.7.2-.8.7a6.2,6.2,0,0,0-.9,1.2c-.3.4-.6,1-1.1,1.6h.8l.5.3c.1.1.1.3.2.6a2.5,2.5,0,0,0,.1.8c0,.4-.1,1.6-.2,3.4s-.2,3.9-.3,6.1-.2,4.5-.3,6.3-.2,3.4-.3,4a4.1,4.1,0,0,1-.3,1.6,2.1,2.1,0,0,1-.6,1,1.9,1.9,0,0,1-.9.5,2.1,2.1,0,0,1-1.2.3h.8l1.6.2h4c-.3-.1-.4-.3-.6-.5a5.6,5.6,0,0,1-.5-.8,2.9,2.9,0,0,1-.2-.9,2.8,2.8,0,0,1-.1-.9c0-.2,0-1.2.1-2.6s.2-3.1.3-4.9.2-3.8.3-5.5.1-3.1.2-4.1a8.6,8.6,0,0,0,.1-1.5c.1-.4.1-.7.2-1s.1-.4.3-.5h1.3l.4.2a12.8,12.8,0,0,1,2,1.2,18.7,18.7,0,0,1,2.7,2.4,25.5,25.5,0,0,1,2.6,3,11.5,11.5,0,0,1,1.6,3.1,18.6,18.6,0,0,1,.4,3.3,22.7,22.7,0,0,1-.5,3.5,24.3,24.3,0,0,1-1.2,3.9q-.9,2.1-2.1,4.5l1.5-1.5,1.6-2.3a19.5,19.5,0,0,0,1.4-2.9,25.8,25.8,0,0,0,1-3.3c.2-1.2.3-2.5.4-3.9s.3-2.9.4-4.3.1-2.9.1-4.1.1-2.3.1-3.1V86.8a2.2,2.2,0,0,1,.2-1c.1-.3.3-.4.5-.6l1-.7h-1ZM221.8,99.6c0-2.1.1-4.4.2-6.3s.2-3.7.3-4.8.2-1.9.3-2.6.2-1.1.3-1.5a2.2,2.2,0,0,1,.5-.8,2.3,2.3,0,0,1,.7-.7h-9l.8.4.7.5a2.2,2.2,0,0,1,.6.7,4.6,4.6,0,0,1,.3.9c0,.4.1.8.1,1.3v3.3h-8.8V84.6a.9.9,0,0,1,.1-.7c0-.2.2-.4.4-.6a2.2,2.2,0,0,1,.7-.6l1.1-.6-9.9-.4.5.3.8.7a2.9,2.9,0,0,1,.6,1.1,6,6,0,0,1,.5,1.6,41.4,41.4,0,0,1,.1,4.2c-.1,2.1-.1,4.6-.2,7.2s-.2,5.2-.2,7.3-.2,3.9-.2,4.7a6,6,0,0,1-.4,1.8,2.9,2.9,0,0,1-.6,1l-.7.3h8l-.6-.4-.4-.5-.3-.8c0-.3-.1-.6-.1-1v-3.2c.1-1.7.2-3.7.3-5.7s.1-4,.2-5.5.1-2.6.1-2.8h8.9c0,.2,0,1.1-.1,2.5s-.1,3.2-.1,5.1-.2,3.9-.2,5.6-.2,3-.2,3.7a2.9,2.9,0,0,1-.5,1.7,2.4,2.4,0,0,1-.8.9l-.9.4h8.1l-.6-.5c-.2-.1-.3-.4-.4-.6a1.6,1.6,0,0,1-.3-.9,4.9,4.9,0,0,1-.1-1.2c0-.5,0-1.7.1-3.4S221.7,101.8,221.8,99.6ZM199.1,83.5l-2.3-1.4-2.5-.8a12,12,0,0,0-2.8-.3h-.4l-3.1.2a24.6,24.6,0,0,0-3.3.7,27.9,27.9,0,0,0-3.9,1.5,53.4,53.4,0,0,0-4.8,2.4h.6l.5.3c.2.1.3.3.4.7a3.4,3.4,0,0,1,.4,1.4c.1.6.2,2,.3,3.8s.1,4.1.1,6.4,0,4.5.1,6.4V109a5.1,5.1,0,0,1-.2,1.3,1.8,1.8,0,0,1-.5.7,1,1,0,0,1-.5.4h8l-1.2-.8c-.2-.2-.5-.4-.6-.6l-.3-.6V87.9a5.8,5.8,0,0,1,.4-1.8,4.9,4.9,0,0,1,1.1-1.4,5.4,5.4,0,0,1,1.8-1.1,11.4,11.4,0,0,1,2.2-.7h1.5l1.5.2a3.4,3.4,0,0,1,1.2.6l.9.8.8,1a8.8,8.8,0,0,1-1.2,1.7,17,17,0,0,1-1.9,2,26.7,26.7,0,0,1-2.9,2.3l-4.3,2.9,3.8-1a28.6,28.6,0,0,0,4.4-1.5,24.6,24.6,0,0,0,4.5-2.4,25.4,25.4,0,0,0,4.4-3.8A21.3,21.3,0,0,0,199.1,83.5Z" transform="translate(-112.5 -68)" style="fill: #fff"/>
  </g>
</svg>
