<svg id="Original" xmlns="http://www.w3.org/2000/svg" width="280" height="58.5" viewBox="0 0 280 58.5">
  <g id="레이어_91" data-name="레이어 91">
    <path d="M254.1,70.3a17.3,17.3,0,0,0-3.8.5h-.1A13,13,0,0,0,240,82.7a.4.4,0,0,0-.1.3.2.2,0,0,1-.2.2,42.2,42.2,0,0,0-2.7-3.6,26.1,26.1,0,0,0-19.6-9,25.6,25.6,0,0,0-16,5.6,24.4,24.4,0,0,0-3.7,3.5,20,20,0,0,0-11.8-8,26.5,26.5,0,0,0-5.9-.5h-1.8a10.9,10.9,0,0,0-2.6.4,10.1,10.1,0,0,0-2.5-.4H162.5a10.9,10.9,0,0,0-2.6.4,8.5,8.5,0,0,0-3-.5h-8.5a8.5,8.5,0,0,0-7.8,4.6,19.3,19.3,0,0,0-8-3.9,21.8,21.8,0,0,0-5.9-.6h-1.9a8.5,8.5,0,0,0-8.7,8.7v2.5h-2.6a8.6,8.6,0,0,0-3.6.8l-.3-.2a3.6,3.6,0,0,0-.4-.9,7.9,7.9,0,0,0-7.2-4.6H98.8a8.9,8.9,0,0,0-7.1,3.4c-.4.5-.9,1-1.3,1.6h-.7l-1.4-1.6a8.5,8.5,0,0,0-6.7-3.4H78.1A7.9,7.9,0,0,0,70.9,82a3,3,0,0,0-.4,1h-.4a8.5,8.5,0,0,0-3.5-.8H63.9a8.8,8.8,0,0,0-8.6,6.9c-.5,2-1,4-1.4,5.9s-1.1,4.1-1.6,6.2h0A8.4,8.4,0,0,0,60.7,112h.6a8.5,8.5,0,0,0,1,1.7l1.1,1.2a7.7,7.7,0,0,0,.6,4.7,8.2,8.2,0,0,0,7.3,4.7h5.4a8.4,8.4,0,0,0,6.6-3.2h0l3.4-4.1h6.6l3,3.7a8.4,8.4,0,0,0,6.9,3.6h5.5a8,8,0,0,0,7.3-4.7v.3a8.2,8.2,0,0,0,8.3,8.6h2.4a8.5,8.5,0,0,0,4.8-1.4,8.6,8.6,0,0,0,4.6,1.4h4.2a8.2,8.2,0,0,0,3.8-.9,9.2,9.2,0,0,0,4.1,1h8.8a8.7,8.7,0,0,0,4.8-1.4,8.1,8.1,0,0,0,4.7,1.4h2.1a9.1,9.1,0,0,0,4.7-1.2,8.2,8.2,0,0,0,4.3,1.2h2.4a8.5,8.5,0,0,0,4.8-1.4,8.7,8.7,0,0,0,4.8,1.4h4.1a8.1,8.1,0,0,0,7.3-4.7l.3-.6a25.1,25.1,0,0,0,15.9,5.6,25.5,25.5,0,0,0,14.6-4.6,27.3,27.3,0,0,0,7.9-8v3.7a8.4,8.4,0,0,0,8.5,8.7h2.3a9.3,9.3,0,0,0,3.4-.6,9.3,9.3,0,0,0,3.4.6h2.3a7.5,7.5,0,0,0,2.6-.4,7.6,7.6,0,0,0,2.1.3h2.2a9.2,9.2,0,0,0,4.8-1.4,8.2,8.2,0,0,0,4.7,1.4h4.2a7.9,7.9,0,0,0,7.2-4.7,1.7,1.7,0,0,0,.2-.5,26.2,26.2,0,0,0,15.2,5.2h.3a9.6,9.6,0,0,0,4.1-.9,8.7,8.7,0,0,0,4,.9h2.1a8,8,0,0,0,3.9-.9,8.7,8.7,0,0,0,4,.9h2.1a8.4,8.4,0,0,0,8.6-8.7v-40a8.2,8.2,0,0,0-2-5.8,8.5,8.5,0,0,0-6.4-2.8h-2.3a10.1,10.1,0,0,0-3.9.8,9.2,9.2,0,0,0-3.8-.8h-2.2a9.6,9.6,0,0,0-3.8.8,8.5,8.5,0,0,0-4.2-1.1h-1.1l-2,.2a25.6,25.6,0,0,0-16.2,8.4h0a20.4,20.4,0,0,0-11.6-7.9,22.9,22.9,0,0,0-6-.6h-1.8a10,10,0,0,0-3.8.8c0-.1-.1-.1-.2-.2a17,17,0,0,0-6.6-1.4Z" transform="translate(-52 -70.3)"/>
    <path d="M141.7,96.6a20.3,20.3,0,0,0-3.6-11.9,11.7,11.7,0,0,0-7.4-5.2,28.8,28.8,0,0,0-5.9-.4c-.6,0-.7.2-.7.7v40.3c0,.3.1.4.4.3h2.2c.5.1.6-.1.6-.6v-7.2c0-.2-.1-.5.2-.5a1.6,1.6,0,0,1,1.6.3l6.6,7.6c.1.2.2.4.5.4h4.2l-8.4-9.6a9.8,9.8,0,0,0,3.5-1.9A15.7,15.7,0,0,0,141.7,96.6Zm-12.5,11.7h-.4c-1.2.1-1.4-.1-1.4-1.3V83.1c0-.5.1-.6.6-.7a7.5,7.5,0,0,1,5.4,1.8c4,3.5,6.8,10.8,4.3,17A11.2,11.2,0,0,1,129.2,108.3ZM281.5,96.6a20.3,20.3,0,0,0-3.6-11.9,12,12,0,0,0-7.4-5.2,28.3,28.3,0,0,0-5.8-.4c-.6,0-.8.1-.8.8v39.9c-.1.5.1.7.6.7h2c.6,0,.7-.2.7-.8-.1-2.3,0-4.7,0-7,0-.2-.2-.6.1-.6s1.1-.1,1.6.5l6.6,7.5c.1.1.3.4.6.4h4.2l-8.5-9.6a10.8,10.8,0,0,0,3.5-1.9A16,16,0,0,0,281.5,96.6Zm-12.6,11.7h-.4c-1.2.1-1.3-.1-1.3-1.2v-24c0-.4,0-.6.6-.7a7.3,7.3,0,0,1,5.3,1.8c4.1,3.5,6.9,10.8,4.3,17.1A10.9,10.9,0,0,1,268.9,108.3Zm-152-17.5c-.1-.4-.3-.5-.7-.5a11.3,11.3,0,0,1-2.6,0c-.5,0-.5.1-.4.6l1.5,6.1c.2.6.1.7-.5.7h-4.9c-.5,0-.7-.1-.8-.6L107,90.9c-.1-.5-.3-.6-.7-.6-2.6.1-5.1,0-7.7,0-.2,0-.4.1-.5-.1s2.5-3.2,3.9-4.8H98.8a1.2,1.2,0,0,0-.9.4,45.9,45.9,0,0,1-3.6,4.1.9.9,0,0,1-.8.5H86.6a1,1,0,0,1-.9-.4l-3.6-4.1c-.1-.2-.2-.5-.5-.5H78.1l3.9,5H73.8c-.5,0-.7,0-.8.6s-1,3.9-1.4,5.9-.5.9-1.2.8H65.8c-.6,0-.7,0-.5-.6s1-4.1,1.6-6.2c.1-.5,0-.6-.5-.5H64.1c-.6-.1-.9.1-1,.7l-3,12.1c-.2.8-.2.8.6.8h8.5c.4,0,.6.1.4.6l-.9,3.8c-.2.5,0,.5.4.5h7.8c.3,0,.5-.1.7.1l-6.3,7.3h5.4c.2,0,.3-.3.5-.4l5.3-6.6a1,1,0,0,1,.9-.4h13a1.2,1.2,0,0,1,1.1.5l5.2,6.4c.1.1.3.4.5.4h5.5l-6.5-7.4h9.2l-1.2-4.9h9.2c.5,0,.8,0,.6-.5C119,99.2,117.9,95,116.9,90.8Zm-34.4,9.4H77.2c-.3,0-.4-.1-.4-.4V94.4c0-.3.1-.4.4-.4h5.3c.4,0,.5.2.4.6v5.1C83,100,82.9,100.2,82.5,100.2Zm20.8-.5c.1.4-.1.5-.4.5H97.6c-.4,0-.4-.1-.4-.4V94.4c0-.3,0-.4.4-.4h5.3c.3,0,.4.1.4.5ZM323.6,79.2h-2.2c-.5-.1-.6.1-.6.6v8.6c0,.5-.1.7-.6.7h-5.5c-.5,0-.7-.1-.7-.6.1-2.9,0-5.9.1-8.8,0-.4-.2-.6-.6-.5h-2c-.5-.1-.7.1-.7.6.1,2.9,0,5.9.1,8.8,0,.4-.1.5-.6.5h-2.4c.2.9.5,1.7.7,2.6s.3,1,1.4,1,.8.2.8.7v26.5c0,.4,0,.6.5.6h2c.6.1.7-.2.7-.7,0-8.8,0-17.6-.1-26.3,0-.6.1-.9.8-.8H320c.6,0,.8.1.8.7-.1,8.2,0,16.3,0,24.5V120c0,.4.1.5.5.5h1.9c.7.1.8-.1.8-.7V79.5C324,79.2,323.9,79.2,323.6,79.2Zm-20.2-.3h-2.1a16.6,16.6,0,0,0-11.1,5.8c-3.8,4.2-5.2,9.3-5.3,14.5a23,23,0,0,0,3.1,12.3,17.3,17.3,0,0,0,15.2,8.9c.6,0,.7-.2.7-.7a8.1,8.1,0,0,1,0-2.2c0-.5-.1-.7-.7-.7a14,14,0,0,1-12.9-8.4,19,19,0,0,1-1.7-12.6,16.4,16.4,0,0,1,4.5-9.1,14.1,14.1,0,0,1,10-4.3c.7,0,.8-.1.8-.8a8.1,8.1,0,0,1,0-2.2C303.9,79,303.8,78.9,303.4,78.9ZM195,96.6a20.3,20.3,0,0,0-3.6-11.9,12,12,0,0,0-7.4-5.2,28.3,28.3,0,0,0-5.8-.4c-.6,0-.8.2-.8.8v40.2c0,.3.1.4.4.4h2.1c.6,0,.8-.1.8-.8v-7c0-.2-.1-.6.2-.6s1.1-.1,1.6.5l6.6,7.5c.1.1.3.4.6.4h4.1l-8.4-9.6a10.8,10.8,0,0,0,3.5-1.9A16.2,16.2,0,0,0,195,96.6Zm-12.6,11.7h-.5c-1.1,0-1.2-.1-1.2-1.2v-24c0-.5.1-.7.6-.7a6.8,6.8,0,0,1,5.4,1.8c4,3.5,6.9,10.8,4.2,17.1A10.8,10.8,0,0,1,182.4,108.3ZM157.6,89.7c-.1-.5-.3-.7-.8-.7h-5.2c-.6,0-.7-.1-.6-.7V83.1c0-.5.1-.6.7-.6h5.2c.6,0,.7-.1.6-.7V79.6c.1-.5-.1-.6-.6-.6h-8.5c-.6,0-.7.2-.7.6.1,2.9,0,5.9,0,8.8,0,.4-.1.5-.5.5a6.8,6.8,0,0,1-2.1.2c.3,1,.6,1.9.8,2.7s.5,1,1.2.9.8.1.7.7v26.7c0,.3.2.4.5.4h8.8c.4,0,.5-.1.5-.5a10.5,10.5,0,0,1,0-2.5c0-.5-.1-.7-.6-.7h-5.3c-.6,0-.7-.2-.7-.7V93.3c0-.5.1-.7.7-.7,2.1.1,4.3,0,6.4,0,.5,0,.6-.1.4-.5S157.9,90.4,157.6,89.7Zm48.8-7.3a21.5,21.5,0,0,0-8.2,16.7c.1,6.5,2,11.6,6,15.9a17.7,17.7,0,0,0,23.2,2.6,20.8,20.8,0,0,0,9-15.5A22,22,0,0,0,231,84.9,17.8,17.8,0,0,0,206.4,82.4ZM229,111.5c-6.8,8.1-18.4,7.4-24.3-1.4a19.5,19.5,0,0,1-3.1-11.4,17,17,0,0,1,6.7-13.1c6.5-5.2,15.2-4.1,20.7,2.3A18.9,18.9,0,0,1,229,111.5ZM257.4,79a7.8,7.8,0,0,0-5.2-.4,5.1,5.1,0,0,0-4.3,4.8,43.4,43.4,0,0,0,0,5.1c0,.5-.1.7-.7.6h-2.1c.3,1,.6,1.9.8,2.8s.5,1,1.1.9.9.2.8.8v26.3c0,.5.1.8.6.7h2c.6.1.8-.2.8-.8,0-8.7,0-17.5-.1-26.3,0-.6.2-.7.8-.7h4.3c.6,0,.7.1.7.7v26.6c0,.4.1.5.5.5h2.1c.6.1.8-.1.8-.7V83.4A5.1,5.1,0,0,0,257.4,79Zm-.4,9.6c0,.4-.2.5-.7.5h-4.8c-.3,0-.4-.1-.4-.4V84a1.6,1.6,0,0,1,.9-1.5,4.7,4.7,0,0,1,4,0,1.7,1.7,0,0,1,1,1.6C257,85.6,256.9,87.1,257,88.6Zm-83.9-9.5H162.5c-.4,0-.5.2-.5.5v2.5c0,.5.1.7.6.6h2.8c.6-.1.7.1.7.7v36.3c0,.6.1.9.8.8h1.6c.7.1.9-.1.9-.8V83.6c0-.8.2-.9.9-.9h2.8c.4,0,.5-.1.4-.4V79.5C173.5,79.2,173.5,79.1,173.1,79.1Z" transform="translate(-52 -70.3)" style="fill: #fff"/>
  </g>
</svg>
