<?xml version="1.0" encoding="UTF-8" ?>
<!DOCTYPE svg PUBLIC "-//W3C//DTD SVG 1.1//EN" "http://www.w3.org/Graphics/SVG/1.1/DTD/svg11.dtd">
<svg width="640pt" height="480pt" viewBox="0 0 640 480" version="1.1" xmlns="http://www.w3.org/2000/svg">
<g id="#262626ff">
<path fill="#262626" opacity="1.00" d=" M 0.00 0.00 L 36.21 0.00 C 23.07 13.56 11.40 28.45 0.00 43.48 L 0.00 0.00 Z" />
<path fill="#262626" opacity="1.00" d=" M 105.56 0.00 L 166.61 0.00 C 163.83 2.17 160.94 4.20 157.99 6.12 C 121.23 31.27 89.16 63.22 63.80 99.82 C 62.16 102.17 60.80 104.75 58.71 106.75 C 54.10 106.76 49.56 105.79 44.98 105.35 C 36.50 104.18 27.95 103.56 19.50 102.15 C 20.22 100.68 20.94 99.21 21.76 97.79 C 40.85 66.83 64.04 38.39 90.70 13.66 C 95.45 8.88 100.94 4.90 105.56 0.00 Z" />
<path fill="#262626" opacity="1.00" d=" M 353.48 0.00 L 362.96 0.00 C 363.83 1.39 364.64 2.82 365.45 4.25 C 360.90 7.08 357.21 2.01 353.48 0.00 Z" />
<path fill="#262626" opacity="1.00" d=" M 229.34 8.16 C 230.03 9.79 230.85 11.36 231.60 12.97 C 236.31 23.40 240.83 33.93 245.94 44.17 L 246.40 42.85 C 246.84 44.18 247.26 45.51 247.66 46.86 C 242.26 48.84 237.14 51.48 232.05 54.14 C 201.45 70.27 173.48 91.69 150.68 117.76 C 134.33 116.18 118.01 114.09 101.71 111.97 C 102.33 110.82 102.97 109.68 103.72 108.61 C 136.03 66.44 178.59 32.03 226.93 9.91 C 227.78 9.40 228.59 8.82 229.34 8.16 Z" />
<path fill="#262626" opacity="1.00" d=" M 285.07 38.00 C 292.78 38.44 300.49 37.95 308.20 38.07 C 307.81 38.84 307.25 39.29 306.52 39.44 C 305.01 39.19 303.51 38.94 302.00 38.77 C 302.18 40.04 302.37 41.32 302.57 42.59 L 302.61 42.86 C 300.61 44.64 298.52 46.32 296.34 47.87 C 291.74 45.87 287.03 44.12 282.55 41.87 L 282.14 41.66 C 283.11 40.44 284.09 39.22 285.07 38.00 Z" />
<path fill="#262626" opacity="1.00" d=" M 272.06 56.51 C 273.85 53.67 275.75 50.89 277.81 48.24 C 281.78 49.98 285.74 51.78 289.83 53.26 C 282.89 59.12 275.81 64.80 268.81 70.59 L 268.47 70.60 C 266.30 70.63 264.14 70.85 262.01 71.20 C 263.84 67.77 266.11 64.61 268.47 61.53 C 272.32 62.03 276.25 61.74 279.85 60.20 C 277.37 58.72 274.75 57.51 272.06 56.51 Z" />
<path fill="#262626" opacity="1.00" d=" M 267.82 85.65 C 273.62 86.80 279.36 88.26 285.10 89.69 C 284.56 89.80 283.49 90.00 282.95 90.10 C 287.02 94.62 291.52 98.71 295.84 102.99 C 295.96 103.49 296.19 104.48 296.31 104.98 C 295.58 105.01 294.13 105.06 293.40 105.08 C 291.98 106.05 290.62 107.09 289.26 108.14 C 283.31 101.61 276.48 96.00 270.17 89.84 C 268.87 88.79 268.33 87.18 267.82 85.65 Z" />
<path fill="#262626" opacity="1.00" d=" M 216.34 116.28 C 231.34 104.50 247.94 94.95 265.16 86.85 C 267.35 91.11 269.39 95.43 271.31 99.82 C 273.34 105.18 278.96 107.57 282.39 111.85 L 281.46 112.35 C 279.33 113.68 277.34 115.22 275.54 116.98 C 274.90 116.65 273.63 115.98 272.99 115.65 C 273.06 116.24 273.21 117.42 273.29 118.01 C 270.19 118.57 268.01 121.10 265.25 122.43 C 264.77 123.16 264.30 123.88 263.82 124.61 C 262.15 125.38 260.79 126.64 259.53 127.95 C 258.53 128.01 257.52 128.08 256.53 128.14 C 255.39 129.30 254.09 130.25 252.42 130.34 C 249.61 131.25 248.08 134.83 244.81 134.25 L 245.71 136.33 C 245.35 135.84 244.62 134.86 244.26 134.37 C 242.85 135.74 241.42 137.08 240.02 138.44 C 240.14 135.22 240.02 132.00 239.96 128.78 C 228.96 126.94 217.81 126.12 206.76 124.60 C 209.47 121.31 213.05 118.94 216.34 116.28 Z" />
<path fill="#262626" opacity="1.00" d=" M 294.54 91.95 C 299.48 92.75 304.29 94.10 309.09 95.48 C 308.67 95.91 307.83 96.76 307.41 97.19 C 307.23 96.89 306.87 96.28 306.69 95.97 C 305.34 97.08 303.94 98.12 302.53 99.15 C 302.25 99.13 301.67 99.09 301.38 99.07 C 298.78 97.02 296.45 94.65 294.54 91.95 Z" />
<path fill="#262626" opacity="1.00" d=" M 0.00 137.59 C 4.53 129.91 7.69 121.49 12.60 114.04 C 12.45 140.70 12.86 167.37 13.03 194.03 C 13.04 199.69 13.69 205.48 12.03 210.99 C 6.92 229.34 3.47 248.13 1.34 267.06 C 1.06 270.54 0.67 274.01 0.00 277.45 L 0.00 137.59 Z" />
<path fill="#262626" opacity="1.00" d=" M 237.93 209.01 C 238.07 203.28 237.81 197.47 239.28 191.87 C 238.89 210.06 238.49 228.26 237.82 246.45 C 236.26 241.40 237.45 236.13 237.35 230.97 C 237.32 223.65 237.87 216.34 237.93 209.01 Z" />
<path fill="#262626" opacity="1.00" d=" M 10.02 290.19 C 10.68 290.86 10.68 290.86 10.02 290.19 Z" />
<path fill="#262626" opacity="1.00" d=" M 263.17 315.63 C 273.17 314.04 283.18 312.55 293.18 310.94 C 293.40 312.40 293.61 313.86 293.83 315.34 C 289.76 316.08 285.65 316.61 281.57 317.26 C 275.86 318.70 269.96 319.30 264.16 320.27 C 263.83 318.72 263.50 317.18 263.17 315.63 Z" />
<path fill="#262626" opacity="1.00" d=" M 284.57 329.86 C 284.58 329.34 284.58 328.31 284.59 327.80 L 285.83 328.08 L 284.83 330.10 C 287.43 328.91 290.26 328.69 293.08 328.88 L 292.47 327.15 L 294.52 327.27 L 294.29 328.91 C 294.71 328.87 295.56 328.77 295.98 328.73 C 298.46 333.38 300.20 338.41 302.88 342.97 C 313.12 360.88 331.66 373.78 352.05 377.04 C 366.52 379.61 381.59 377.24 394.91 371.17 C 398.88 378.97 402.12 387.13 405.96 395.00 C 406.33 396.27 408.05 398.33 406.02 399.05 C 379.55 411.34 347.63 411.24 321.25 398.72 C 301.38 389.62 284.94 373.59 274.68 354.36 C 271.04 347.58 268.61 340.26 266.15 333.00 C 268.69 331.88 272.26 329.58 274.73 331.93 C 275.13 331.43 275.92 330.42 276.31 329.91 C 279.06 329.88 281.81 329.84 284.57 329.86 Z" />
<path fill="#262626" opacity="1.00" d=" M 0.00 358.99 C 0.89 358.73 1.79 358.48 2.69 358.25 C 2.94 360.04 3.17 361.83 3.49 363.62 C 3.86 363.77 4.59 364.06 4.96 364.20 C 3.29 364.38 1.64 364.74 0.00 365.11 L 0.00 358.99 Z" />
<path fill="#262626" opacity="1.00" d=" M 234.18 362.80 C 235.04 364.03 235.77 365.34 236.36 366.72 C 254.78 407.17 293.61 437.48 337.30 445.58 C 366.36 451.14 397.05 447.37 423.88 434.91 C 428.18 443.15 431.76 451.75 435.60 460.21 C 426.66 465.08 416.80 468.10 407.02 470.80 C 361.80 482.85 311.65 475.06 272.43 449.47 C 257.59 439.72 243.87 427.95 232.97 413.89 C 232.21 408.64 233.05 403.29 232.99 398.00 C 233.61 386.28 232.98 374.49 234.18 362.80 Z" />
<path fill="#262626" opacity="1.00" d=" M 0.00 369.84 C 1.43 370.46 2.96 370.96 4.54 370.67 C 7.21 384.19 9.96 397.73 14.10 410.90 C 15.13 414.27 15.23 417.82 15.52 421.31 C 17.24 422.40 18.41 424.04 18.91 426.01 C 25.10 444.67 33.35 462.54 42.33 480.00 L 1.62 480.00 C 2.37 478.72 1.00 477.62 0.00 477.10 L 0.00 369.84 Z" />
<path fill="#262626" opacity="1.00" d=" M 149.15 417.24 C 161.11 416.64 173.09 416.17 185.06 415.87 C 187.76 415.40 188.81 418.19 190.05 419.98 C 205.36 443.81 225.75 464.32 249.31 480.00 L 195.23 480.00 C 176.66 461.74 160.73 440.60 149.15 417.24 Z" />
<path fill="#262626" opacity="1.00" d=" M 79.97 419.94 C 86.98 419.40 94.02 419.38 101.05 419.11 C 102.45 421.77 103.70 424.51 104.88 427.28 C 113.46 445.94 124.33 463.46 136.48 480.00 L 85.56 480.00 C 74.41 461.15 64.27 441.60 56.91 420.94 C 64.57 420.09 72.29 420.50 79.97 419.94 Z" />
</g>
<g id="#000000ff">
<path fill="#000000" opacity="1.00" d=" M 36.21 0.00 L 105.56 0.00 C 100.94 4.90 95.45 8.88 90.70 13.66 C 64.04 38.39 40.85 66.83 21.76 97.79 C 20.94 99.21 20.22 100.68 19.50 102.15 C 27.95 103.56 36.50 104.18 44.98 105.35 C 49.56 105.79 54.10 106.76 58.71 106.75 C 60.80 104.75 62.16 102.17 63.80 99.82 C 89.16 63.22 121.23 31.27 157.99 6.12 C 160.94 4.20 163.83 2.17 166.61 0.00 L 230.19 0.00 C 235.97 2.98 242.49 3.94 248.53 6.26 C 250.36 12.22 252.15 18.19 254.16 24.09 C 258.12 19.28 261.14 13.77 265.15 9.01 C 271.38 8.37 277.68 8.97 283.94 8.74 C 281.82 5.82 279.77 2.84 277.55 0.00 L 287.52 0.00 C 290.86 4.90 294.87 9.32 297.90 14.42 C 288.36 14.76 278.81 14.15 269.29 14.37 C 262.79 21.71 258.25 30.77 251.71 38.14 C 248.88 29.01 246.20 19.81 243.06 10.79 C 238.76 8.39 233.63 7.71 229.00 6.01 C 229.08 6.55 229.26 7.62 229.34 8.16 C 228.59 8.82 227.78 9.40 226.93 9.91 C 178.59 32.03 136.03 66.44 103.72 108.61 C 102.97 109.68 102.33 110.82 101.71 111.97 C 118.01 114.09 134.33 116.18 150.68 117.76 C 173.48 91.69 201.45 70.27 232.05 54.14 C 237.14 51.48 242.26 48.84 247.66 46.86 C 248.22 48.85 248.92 50.80 249.74 52.70 C 257.82 42.05 264.85 30.59 273.11 20.11 C 286.33 20.24 299.57 20.28 312.80 20.42 C 308.10 13.38 302.77 6.79 297.73 0.00 L 309.00 0.00 C 315.82 8.94 322.68 17.86 329.28 26.98 C 311.95 26.79 294.61 26.66 277.28 26.43 C 269.13 37.78 260.95 49.13 253.27 60.80 C 254.05 62.51 254.82 64.23 255.59 65.96 C 264.23 54.70 271.92 42.75 280.28 31.28 C 300.59 31.23 320.90 31.78 341.22 31.72 C 333.50 21.02 325.42 10.59 317.54 0.00 L 334.37 0.00 C 343.15 6.04 352.32 11.50 361.17 17.43 C 375.09 11.90 388.92 6.10 402.60 0.00 L 408.64 0.00 C 405.96 11.72 402.15 23.17 399.96 34.99 C 398.98 37.08 397.20 38.79 394.91 39.32 C 395.32 40.07 395.74 40.82 396.17 41.57 C 395.73 41.90 394.84 42.57 394.40 42.90 C 394.05 42.59 393.34 41.96 392.99 41.65 C 393.00 42.22 393.00 43.34 393.00 43.91 C 392.44 43.95 391.31 44.03 390.75 44.08 C 394.47 31.80 397.29 19.26 400.72 6.90 C 387.35 11.99 374.36 18.05 361.04 23.28 C 352.51 18.19 344.51 12.23 335.76 7.52 C 337.70 10.72 339.76 14.03 343.03 16.03 C 349.01 19.79 354.89 23.71 360.93 27.38 C 372.14 22.75 383.22 17.80 394.53 13.39 C 392.40 24.09 388.52 34.39 386.82 45.17 C 386.65 46.21 386.30 47.17 385.75 48.06 C 384.67 47.90 383.68 47.49 382.79 46.82 C 383.30 47.74 383.79 48.66 384.28 49.60 C 383.58 49.90 382.18 50.52 381.48 50.83 L 380.76 51.06 C 380.46 50.57 379.87 49.58 379.57 49.09 C 381.93 40.05 384.25 31.00 386.68 21.98 C 378.13 25.20 369.87 29.15 361.35 32.41 C 360.25 32.99 359.29 32.03 358.38 31.56 C 355.39 29.59 352.43 27.57 349.24 25.93 C 352.64 29.92 354.93 35.36 360.00 37.53 C 366.63 35.68 372.68 32.14 379.20 29.93 C 377.86 36.17 375.91 42.26 374.51 48.48 C 374.13 49.70 374.91 50.80 375.48 51.81 C 374.56 52.90 373.63 53.97 372.77 55.10 C 371.66 53.35 369.78 51.96 369.22 49.94 C 369.77 45.73 371.34 41.72 372.15 37.55 C 368.03 39.08 364.01 40.84 359.97 42.55 C 356.70 40.23 353.14 37.96 348.93 38.73 C 349.18 42.03 349.44 45.32 349.72 48.62 C 346.46 51.61 342.61 53.95 339.76 57.37 C 343.94 58.52 348.34 58.95 352.36 60.62 C 353.32 62.29 353.95 64.12 354.68 65.90 C 353.21 67.18 351.59 68.25 350.00 69.37 C 349.62 68.02 349.17 66.68 348.73 65.35 C 342.10 63.59 335.37 62.27 328.73 60.56 C 333.41 55.49 339.64 52.09 344.23 46.99 C 344.33 44.25 343.97 41.53 343.76 38.81 C 341.99 38.68 340.22 38.54 338.46 38.40 C 338.59 40.87 338.74 43.34 338.91 45.82 C 331.68 51.88 324.28 57.73 317.05 63.81 C 326.23 66.17 335.52 68.08 344.70 70.45 C 344.92 71.03 345.36 72.20 345.58 72.79 C 345.08 73.33 344.09 74.43 343.59 74.98 C 342.16 75.04 340.75 75.27 339.47 75.94 C 327.94 72.91 316.27 70.47 304.69 67.63 C 313.49 59.72 322.96 52.58 332.00 44.95 C 333.69 43.23 332.31 40.52 332.34 38.40 C 330.92 38.49 329.51 38.58 328.11 38.67 C 328.19 40.11 328.28 41.56 328.37 43.01 C 318.27 51.38 308.11 59.68 297.93 67.95 C 297.18 68.57 296.51 69.27 295.95 70.05 C 297.03 71.01 298.58 71.09 299.92 71.50 C 311.12 73.98 322.23 76.81 333.44 79.26 C 331.30 81.39 328.89 83.21 326.47 85.00 C 311.72 81.03 296.69 78.22 281.97 74.21 C 294.64 63.42 307.70 53.07 320.53 42.46 C 321.77 41.63 321.75 40.01 322.19 38.73 C 320.43 38.63 318.68 38.52 316.93 38.41 C 316.02 39.32 315.12 40.25 314.17 41.12 C 299.43 53.53 284.20 65.38 269.61 77.96 C 286.29 82.01 303.00 85.92 319.74 89.74 C 319.18 90.27 318.07 91.33 317.52 91.86 C 316.12 91.86 314.87 91.03 313.55 90.72 C 313.94 91.16 314.74 92.04 315.14 92.49 C 314.76 92.81 313.99 93.47 313.61 93.80 C 311.93 92.34 310.40 94.68 309.09 95.48 C 304.29 94.10 299.48 92.75 294.54 91.95 C 291.37 91.29 288.26 90.38 285.10 89.69 C 279.36 88.26 273.62 86.80 267.82 85.65 C 266.93 85.46 266.05 85.27 265.17 85.08 C 265.17 85.52 265.16 86.41 265.16 86.85 C 247.94 94.95 231.34 104.50 216.34 116.28 C 213.05 118.94 209.47 121.31 206.76 124.60 C 217.81 126.12 228.96 126.94 239.96 128.78 C 240.02 132.00 240.14 135.22 240.02 138.44 C 239.58 142.23 239.64 146.05 239.32 149.85 C 242.73 147.73 246.15 145.61 249.46 143.33 C 250.47 142.65 251.49 142.01 252.49 141.33 C 253.50 140.67 254.50 140.00 255.50 139.32 C 256.51 138.67 257.51 138.01 258.48 137.31 C 259.85 136.43 261.20 135.51 262.63 134.71 C 263.07 134.36 263.94 133.65 264.38 133.29 C 265.79 132.46 267.17 131.56 268.59 130.73 C 270.58 129.39 272.54 128.01 274.54 126.68 C 276.55 125.34 278.52 123.92 280.63 122.72 C 287.70 118.53 294.16 113.29 301.43 109.45 C 304.50 107.60 307.34 105.37 310.62 103.86 C 314.28 101.82 317.55 99.10 321.39 97.36 C 322.79 96.50 324.14 95.56 325.52 94.65 C 328.49 92.87 331.64 91.38 334.44 89.31 C 338.20 87.19 341.97 85.07 345.58 82.70 C 349.09 81.01 352.18 78.59 355.59 76.72 C 357.29 75.80 358.90 74.73 360.51 73.67 C 365.98 70.81 370.99 67.18 376.42 64.29 C 377.81 63.45 379.15 62.52 380.54 61.69 C 400.01 50.53 419.10 38.73 438.37 27.23 C 445.10 24.01 446.43 15.57 452.18 11.21 C 457.46 7.24 463.24 3.97 468.54 0.00 L 506.74 0.00 C 496.98 5.02 486.78 9.16 476.99 14.15 C 475.62 18.74 474.33 23.35 473.02 27.96 C 413.93 60.56 354.73 92.98 295.64 125.59 C 295.09 126.60 294.47 127.56 293.79 128.48 C 293.68 128.56 293.46 128.74 293.36 128.82 C 275.62 139.01 257.92 149.30 240.17 159.48 C 239.90 170.28 239.71 181.08 239.28 191.87 C 237.81 197.47 238.07 203.28 237.93 209.01 C 237.87 216.34 237.32 223.65 237.35 230.97 C 237.45 236.13 236.26 241.40 237.82 246.45 C 237.43 270.93 236.56 295.40 236.02 319.88 C 245.06 318.39 254.11 317.01 263.17 315.63 C 263.50 317.18 263.83 318.72 264.16 320.27 C 258.31 321.54 252.31 321.94 246.50 323.36 C 244.23 323.96 241.87 323.99 239.55 324.18 C 238.16 325.10 236.49 324.98 234.91 325.12 C 234.81 329.17 234.75 333.22 234.45 337.26 C 234.68 336.72 235.14 335.64 235.37 335.10 C 235.55 335.57 235.92 336.50 236.10 336.96 C 237.22 336.34 238.35 335.74 239.49 335.16 C 240.62 335.05 241.63 334.64 242.50 333.93 C 242.78 334.15 243.33 334.60 243.60 334.82 C 244.65 333.65 246.19 332.06 247.60 333.88 C 248.52 333.88 249.44 333.87 250.37 333.86 C 251.54 332.54 252.90 333.44 254.18 333.88 C 254.71 333.39 255.76 332.42 256.29 331.93 C 256.47 332.40 256.84 333.35 257.02 333.82 C 259.43 333.12 261.89 332.56 264.41 332.97 L 262.84 331.05 L 265.62 331.31 C 265.75 331.73 266.02 332.57 266.15 333.00 C 268.61 340.26 271.04 347.58 274.68 354.36 C 284.94 373.59 301.38 389.62 321.25 398.72 C 347.63 411.24 379.55 411.34 406.02 399.05 C 408.05 398.33 406.33 396.27 405.96 395.00 C 402.12 387.13 398.88 378.97 394.91 371.17 C 381.59 377.24 366.52 379.61 352.05 377.04 C 331.66 373.78 313.12 360.88 302.88 342.97 C 300.20 338.41 298.46 333.38 295.98 328.73 C 296.29 328.10 296.90 326.85 297.21 326.22 C 298.63 330.04 301.83 325.60 304.43 326.59 C 305.91 325.54 307.73 325.22 309.51 325.06 C 308.55 325.50 306.63 326.38 305.67 326.82 C 307.54 327.01 309.40 326.75 311.00 325.71 C 312.57 324.90 314.05 326.40 315.48 326.91 C 317.49 323.57 322.29 326.33 324.08 323.06 C 324.54 323.62 325.47 324.76 325.94 325.33 C 326.37 324.94 327.24 324.14 327.67 323.74 C 329.29 323.74 331.03 323.85 332.25 322.55 C 332.52 322.87 333.05 323.50 333.31 323.82 C 335.36 323.02 337.67 323.03 339.62 321.93 C 339.88 322.11 340.41 322.47 340.67 322.64 C 340.86 322.38 341.24 321.86 341.43 321.60 C 342.90 324.70 344.41 321.74 345.65 320.27 C 346.36 320.20 347.80 320.05 348.52 319.97 C 347.52 320.58 346.53 321.19 345.55 321.82 C 346.91 321.85 348.28 321.89 349.65 321.94 C 350.11 321.37 351.02 320.23 351.48 319.67 C 351.70 320.02 352.14 320.74 352.36 321.10 C 352.84 320.56 353.80 319.48 354.27 318.94 C 354.36 319.50 354.52 320.61 354.60 321.16 C 356.80 319.39 359.64 319.80 362.25 319.92 L 361.13 318.05 C 361.89 318.53 363.40 319.50 364.16 319.98 C 368.52 317.82 373.63 317.64 378.44 317.70 C 379.59 316.19 381.18 316.90 382.57 317.44 C 384.56 315.70 387.50 317.77 389.22 315.49 C 389.52 315.88 390.10 316.67 390.40 317.07 C 391.17 316.24 391.96 315.42 392.75 314.60 C 393.55 314.45 395.16 314.15 395.97 314.00 C 395.16 314.54 393.53 315.63 392.72 316.18 C 395.05 315.69 397.40 314.59 399.83 315.20 C 401.09 314.37 402.40 313.61 403.77 312.96 L 402.90 315.33 C 403.97 314.84 405.01 314.29 406.03 313.69 C 407.68 313.78 409.34 313.88 411.00 314.01 L 411.00 313.02 C 410.50 312.99 409.50 312.95 409.00 312.92 L 409.00 312.04 C 410.01 312.03 412.05 312.01 413.07 312.00 C 412.71 312.53 412.00 313.59 411.64 314.12 C 414.08 313.04 416.71 312.64 419.37 312.95 L 418.02 311.19 C 418.89 311.27 420.63 311.44 421.50 311.52 L 421.05 313.21 C 421.95 312.76 422.86 312.33 423.77 311.89 C 426.46 311.78 429.27 309.69 431.51 312.15 C 432.10 310.97 431.19 310.09 430.52 309.28 C 431.71 309.26 432.90 309.26 434.10 309.26 C 433.67 309.85 433.26 310.46 432.87 311.07 C 433.53 310.98 434.84 310.79 435.49 310.69 C 436.76 309.09 438.83 309.57 439.98 310.97 C 440.18 310.14 440.57 308.48 440.77 307.65 C 441.29 308.28 442.32 309.54 442.84 310.17 C 444.13 308.90 445.89 308.80 447.59 308.78 C 448.30 308.10 449.02 307.42 449.74 306.74 C 450.15 307.34 450.97 308.53 451.38 309.12 C 451.80 308.67 452.65 307.78 453.07 307.34 C 453.84 307.53 455.36 307.92 456.13 308.12 C 457.18 308.27 458.23 308.21 459.28 307.98 L 457.99 305.89 C 460.36 306.84 462.90 307.88 465.40 306.67 C 468.16 305.20 471.38 305.73 474.39 305.70 C 476.70 304.21 479.62 305.17 482.10 304.08 C 482.44 304.19 483.13 304.41 483.48 304.51 C 485.12 304.06 486.79 303.73 488.48 303.44 C 488.54 303.85 488.65 304.68 488.70 305.09 C 490.12 304.19 491.74 303.78 493.39 303.55 C 494.57 303.24 495.77 302.96 496.97 302.70 C 497.33 302.98 498.04 303.54 498.39 303.82 C 500.89 302.03 504.54 303.99 506.65 301.66 C 506.78 301.99 507.02 302.65 507.15 302.98 C 509.41 301.05 512.55 302.05 515.25 301.84 C 516.08 301.34 517.73 300.34 518.56 299.83 L 516.64 302.28 C 518.90 301.99 521.16 300.92 521.84 298.57 L 520.56 296.54 L 522.87 298.08 C 523.23 297.32 523.94 295.80 524.30 295.03 C 523.62 295.36 522.26 296.02 521.58 296.34 C 522.06 294.91 523.47 294.28 524.84 294.76 C 525.34 292.71 525.95 290.04 528.59 289.85 C 527.82 289.47 527.06 289.08 526.31 288.69 C 526.63 288.06 526.99 287.45 527.39 286.86 C 528.88 287.53 530.50 288.36 532.20 287.80 C 532.62 288.15 533.45 288.84 533.86 289.19 C 533.47 288.07 533.10 286.95 532.77 285.83 C 534.53 286.01 536.18 286.66 537.54 287.82 C 538.82 287.20 540.15 286.67 541.47 286.11 C 542.51 286.90 543.60 287.19 544.58 286.00 C 544.93 286.24 545.64 286.71 545.99 286.95 C 548.34 286.83 550.71 286.75 553.07 286.80 C 553.42 286.68 554.12 286.44 554.47 286.31 C 556.92 287.18 559.96 287.44 561.59 284.93 L 561.09 286.80 C 562.29 285.88 563.56 285.52 564.64 286.97 C 565.16 286.31 565.69 285.66 566.23 285.01 C 567.35 285.46 568.49 285.87 569.64 286.29 C 569.35 285.12 569.07 283.95 568.79 282.79 C 571.32 283.25 573.80 284.02 576.40 284.00 C 577.45 283.26 578.62 282.86 579.93 282.78 C 579.96 283.29 580.02 284.32 580.05 284.84 C 581.98 284.94 583.87 285.38 585.71 285.98 C 585.86 285.41 586.15 284.28 586.29 283.72 C 586.86 284.01 588.01 284.60 588.58 284.90 C 590.88 285.23 593.77 284.17 595.58 286.04 C 595.86 285.65 596.42 284.85 596.70 284.46 C 597.30 285.70 597.85 286.97 598.35 288.26 C 599.07 287.41 599.79 286.55 600.51 285.69 C 601.94 285.83 603.44 285.89 604.70 286.71 C 609.62 284.44 615.24 286.55 620.45 285.56 C 623.54 286.69 627.45 283.48 629.54 286.92 C 630.80 285.45 632.73 285.52 634.50 285.50 C 635.58 284.89 636.62 285.01 637.61 285.85 C 638.21 285.89 639.40 285.98 640.00 286.02 L 640.00 480.00 L 249.31 480.00 C 225.75 464.32 205.36 443.81 190.05 419.98 C 188.81 418.19 187.76 415.40 185.06 415.87 C 173.09 416.17 161.11 416.64 149.15 417.24 C 160.73 440.60 176.66 461.74 195.23 480.00 L 136.48 480.00 C 124.33 463.46 113.46 445.94 104.88 427.28 C 103.70 424.51 102.45 421.77 101.05 419.11 C 94.02 419.38 86.98 419.40 79.97 419.94 C 72.29 420.50 64.57 420.09 56.91 420.94 C 64.27 441.60 74.41 461.15 85.56 480.00 L 42.33 480.00 C 33.35 462.54 25.10 444.67 18.91 426.01 C 18.41 424.04 17.24 422.40 15.52 421.31 C 15.23 417.82 15.13 414.27 14.10 410.90 C 9.96 397.73 7.21 384.19 4.54 370.67 C 7.55 369.70 10.70 369.18 13.65 368.03 C 13.97 368.34 14.61 368.96 14.92 369.27 C 14.81 367.13 14.75 364.98 14.70 362.84 C 11.40 362.94 8.23 363.90 4.96 364.20 C 4.59 364.06 3.86 363.77 3.49 363.62 C 3.17 361.83 2.94 360.04 2.69 358.25 C 1.79 358.48 0.89 358.73 0.00 358.99 L 0.00 355.97 C 1.70 356.66 3.49 357.06 5.33 356.97 C 7.88 355.32 11.30 356.66 13.66 354.48 C 13.17 340.58 13.29 326.67 13.11 312.76 C 8.95 315.93 4.11 318.06 0.00 321.31 L 0.00 310.49 C 1.76 309.34 3.55 308.26 5.39 307.25 C 8.44 306.03 11.09 304.04 14.04 302.62 C 13.76 297.90 14.93 292.79 13.12 288.36 C 13.43 287.97 14.04 287.19 14.35 286.81 C 11.75 288.21 9.12 289.57 6.50 290.94 C 5.81 291.54 4.43 292.75 3.75 293.35 C 4.67 293.07 6.51 292.52 7.43 292.24 C 5.45 293.09 3.55 294.11 1.94 295.56 L 1.98 293.76 C 1.49 294.18 0.50 295.02 0.00 295.44 L 0.00 277.45 C 0.67 274.01 1.06 270.54 1.34 267.06 C 3.47 248.13 6.92 229.34 12.03 210.99 C 13.69 205.48 13.04 199.69 13.03 194.03 C 12.86 167.37 12.45 140.70 12.60 114.04 C 7.69 121.49 4.53 129.91 0.00 137.59 L 0.00 43.48 C 11.40 28.45 23.07 13.56 36.21 0.00 M 285.07 38.00 C 284.09 39.22 283.11 40.44 282.14 41.66 L 282.55 41.87 C 280.90 43.94 279.33 46.07 277.81 48.24 C 275.75 50.89 273.85 53.67 272.06 56.51 C 270.87 58.19 269.67 59.86 268.47 61.53 C 266.11 64.61 263.84 67.77 262.01 71.20 L 261.51 71.28 C 260.91 72.24 260.32 73.19 259.72 74.15 C 259.93 74.85 260.36 76.26 260.58 76.96 C 263.34 75.01 265.90 72.79 268.47 70.60 L 268.81 70.59 C 275.81 64.80 282.89 59.12 289.83 53.26 C 291.95 51.40 294.12 49.61 296.34 47.87 C 298.52 46.32 300.61 44.64 302.61 42.86 L 302.57 42.59 C 303.91 41.58 305.24 40.54 306.52 39.44 C 307.25 39.29 307.81 38.84 308.20 38.07 C 300.49 37.95 292.78 38.44 285.07 38.00 M 15.31 106.75 C 16.92 210.39 18.52 314.03 20.09 417.67 C 89.59 414.34 159.08 410.94 228.57 407.56 C 231.17 316.24 233.73 224.92 236.32 133.59 C 162.65 124.65 88.98 115.70 15.31 106.75 M 234.18 362.80 C 232.98 374.49 233.61 386.28 232.99 398.00 C 233.05 403.29 232.21 408.64 232.97 413.89 C 243.87 427.95 257.59 439.72 272.43 449.47 C 311.65 475.06 361.80 482.85 407.02 470.80 C 416.80 468.10 426.66 465.08 435.60 460.21 C 431.76 451.75 428.18 443.15 423.88 434.91 C 397.05 447.37 366.36 451.14 337.30 445.58 C 293.61 437.48 254.78 407.17 236.36 366.72 C 235.77 365.34 235.04 364.03 234.18 362.80 Z" />
<path fill="#000000" opacity="1.00" d=" M 244.38 0.00 L 272.48 0.00 C 273.39 1.36 274.25 2.77 275.11 4.17 C 271.18 4.34 267.23 4.02 263.32 4.38 C 260.20 7.17 258.64 11.31 255.57 14.19 C 254.18 10.36 253.64 6.16 251.59 2.62 C 249.24 1.62 246.79 0.86 244.38 0.00 Z" />
<path fill="#000000" opacity="1.00" d=" M 343.15 0.00 L 353.48 0.00 C 357.21 2.01 360.90 7.08 365.45 4.25 C 368.49 3.00 371.41 1.47 374.34 0.00 L 389.77 0.00 C 380.75 4.49 371.30 8.18 361.95 11.91 C 355.38 8.54 349.29 4.13 343.15 0.00 Z" />
<path fill="#000000" opacity="1.00" d=" M 414.45 0.00 L 421.38 0.00 C 420.41 1.28 420.49 2.21 421.61 2.79 C 422.76 2.21 423.23 1.27 423.02 -0.00 L 436.15 0.00 C 431.20 5.76 426.45 11.68 421.58 17.50 C 419.19 20.40 416.46 23.12 414.94 26.62 C 413.84 27.59 412.89 28.74 412.68 30.25 C 412.44 29.94 411.96 29.32 411.73 29.01 C 409.77 29.35 406.59 29.30 406.93 32.16 L 405.60 31.99 C 409.38 21.59 411.33 10.61 414.45 0.00 Z" />
<path fill="#000000" opacity="1.00" d=" M 231.60 12.97 C 233.53 13.50 235.45 14.05 237.38 14.60 C 240.52 23.98 243.27 33.48 246.40 42.85 L 245.94 44.17 C 240.83 33.93 236.31 23.40 231.60 12.97 Z" />
<path fill="#000000" opacity="1.00" d=" M 20.10 112.09 C 90.93 119.88 161.75 127.70 232.58 135.51 C 230.10 225.67 227.64 315.83 225.11 405.98 C 159.10 407.19 93.08 408.49 27.07 409.68 C 24.79 310.48 22.44 211.29 20.10 112.09 M 27.29 120.19 C 27.83 134.80 27.94 149.42 28.04 164.03 C 28.70 181.01 28.97 198.00 29.03 214.99 C 30.08 240.67 29.83 266.38 30.76 292.06 C 30.80 313.39 31.72 334.69 31.94 356.02 C 31.86 371.35 32.79 386.66 32.88 402.00 C 95.59 401.94 158.29 401.34 220.99 401.24 C 220.97 389.50 221.35 377.76 221.96 366.03 C 222.02 354.37 222.36 342.71 222.97 331.07 C 222.94 314.05 224.18 297.06 224.22 280.05 C 225.15 262.38 224.96 244.68 225.97 227.01 C 226.03 215.70 226.33 204.40 226.94 193.11 C 227.06 175.41 228.00 157.75 228.25 140.06 C 213.82 139.00 199.44 137.24 185.03 135.92 C 132.45 130.66 79.86 125.47 27.29 120.19 Z" />
<path fill="#000000" opacity="1.00" d=" M 620.39 236.70 C 626.93 235.49 633.34 233.35 640.00 232.87 L 640.00 257.27 C 627.47 258.16 615.05 260.21 602.54 261.54 C 586.21 263.67 569.84 265.35 553.50 267.54 C 536.19 269.96 518.87 272.04 501.41 273.12 C 498.15 277.34 494.90 281.61 491.73 285.91 C 475.56 288.04 459.53 291.20 443.36 293.35 C 438.75 294.27 434.04 294.55 429.47 295.59 C 413.09 297.59 396.83 300.31 380.47 302.45 C 375.90 303.27 371.24 303.68 366.67 304.58 C 364.26 304.85 361.81 304.89 359.47 305.52 C 355.11 305.91 350.86 306.97 346.51 307.34 C 341.86 308.00 337.25 308.93 332.55 309.19 C 330.85 310.20 328.81 309.94 326.93 310.19 C 315.84 311.53 304.88 313.73 293.83 315.34 C 293.61 313.86 293.40 312.40 293.18 310.94 C 324.00 306.05 354.91 301.48 385.64 296.25 C 391.58 295.65 397.43 294.39 403.36 293.75 C 409.66 292.32 416.17 291.80 422.53 290.55 C 433.41 289.00 444.23 286.81 455.17 285.83 L 455.81 285.80 L 455.79 285.18 C 463.34 283.99 471.07 283.34 478.45 281.30 C 479.37 281.63 480.67 282.55 481.48 281.43 C 486.92 276.79 488.76 269.46 493.22 264.09 C 499.06 263.62 504.66 261.73 510.40 260.69 C 517.10 259.08 523.91 257.87 530.62 256.25 C 531.52 256.08 532.44 255.92 533.37 255.75 C 538.40 254.41 543.59 253.68 548.61 252.29 C 561.89 249.56 575.11 246.49 588.38 243.69 C 599.03 241.32 609.71 239.01 620.39 236.70 Z" />
<path fill="#000000" opacity="1.00" d=" M 444.82 307.20 C 447.97 305.73 445.07 310.38 444.82 307.20 Z" />
<path fill="#000000" opacity="1.00" d=" M 386.30 315.19 C 386.99 315.87 386.99 315.87 386.30 315.19 Z" />
<path fill="#000000" opacity="1.00" d=" M 0.00 477.10 C 1.00 477.62 2.37 478.72 1.62 480.00 L 0.00 480.00 L 0.00 477.10 Z" />
</g>
<g id="#4c4c4cff">
<path fill="#4c4c4c" opacity="1.00" d=" M 230.19 0.00 L 244.38 0.00 C 246.79 0.86 249.24 1.62 251.59 2.62 C 253.64 6.16 254.18 10.36 255.57 14.19 C 258.64 11.31 260.20 7.17 263.32 4.38 C 267.23 4.02 271.18 4.34 275.11 4.17 C 274.25 2.77 273.39 1.36 272.48 0.00 L 277.55 0.00 C 279.77 2.84 281.82 5.82 283.94 8.74 C 277.68 8.97 271.38 8.37 265.15 9.01 C 261.14 13.77 258.12 19.28 254.16 24.09 C 252.15 18.19 250.36 12.22 248.53 6.26 C 242.49 3.94 235.97 2.98 230.19 0.00 Z" />
<path fill="#4c4c4c" opacity="1.00" d=" M 287.52 0.00 L 297.73 0.00 C 302.77 6.79 308.10 13.38 312.80 20.42 C 299.57 20.28 286.33 20.24 273.11 20.11 C 264.85 30.59 257.82 42.05 249.74 52.70 C 248.92 50.80 248.22 48.85 247.66 46.86 C 247.26 45.51 246.84 44.18 246.40 42.85 C 243.27 33.48 240.52 23.98 237.38 14.60 C 235.45 14.05 233.53 13.50 231.60 12.97 C 230.85 11.36 230.03 9.79 229.34 8.16 C 229.26 7.62 229.08 6.55 229.00 6.01 C 233.63 7.71 238.76 8.39 243.06 10.79 C 246.20 19.81 248.88 29.01 251.71 38.14 C 258.25 30.77 262.79 21.71 269.29 14.37 C 278.81 14.15 288.36 14.76 297.90 14.42 C 294.87 9.32 290.86 4.90 287.52 0.00 Z" />
<path fill="#4c4c4c" opacity="1.00" d=" M 309.00 0.00 L 317.54 0.00 C 325.42 10.59 333.50 21.02 341.22 31.72 C 320.90 31.78 300.59 31.23 280.28 31.28 C 271.92 42.75 264.23 54.70 255.59 65.96 C 254.82 64.23 254.05 62.51 253.27 60.80 C 260.95 49.13 269.13 37.78 277.28 26.43 C 294.61 26.66 311.95 26.79 329.28 26.98 C 322.68 17.86 315.82 8.94 309.00 0.00 Z" />
<path fill="#4c4c4c" opacity="1.00" d=" M 334.37 0.00 L 343.15 0.00 C 349.29 4.13 355.38 8.54 361.95 11.91 C 371.30 8.18 380.75 4.49 389.77 0.00 L 402.60 0.00 C 388.92 6.10 375.09 11.90 361.17 17.43 C 352.32 11.50 343.15 6.04 334.37 0.00 Z" />
<path fill="#4c4c4c" opacity="1.00" d=" M 362.96 0.00 L 374.34 0.00 C 371.41 1.47 368.49 3.00 365.45 4.25 C 364.64 2.82 363.83 1.39 362.96 0.00 Z" />
<path fill="#4c4c4c" opacity="1.00" d=" M 408.64 0.00 L 414.45 0.00 C 411.33 10.61 409.38 21.59 405.60 31.99 C 404.14 33.78 402.57 37.68 399.96 34.99 C 402.15 23.17 405.96 11.72 408.64 0.00 M 402.20 28.23 C 401.16 29.41 403.24 31.91 404.41 30.42 C 406.27 28.99 403.66 26.89 402.20 28.23 Z" />
<path fill="#4c4c4c" opacity="1.00" d=" M 421.38 0.00 L 423.02 0.00 C 423.23 1.27 422.76 2.21 421.61 2.79 C 420.49 2.21 420.41 1.28 421.38 0.00 Z" />
<path fill="#4c4c4c" opacity="1.00" d=" M 436.15 0.00 L 442.72 0.00 C 441.69 0.49 440.54 3.04 439.37 1.09 C 438.59 1.90 437.81 2.71 437.04 3.51 C 437.16 4.10 437.40 5.29 437.52 5.89 C 435.39 8.96 430.43 12.11 433.27 16.30 C 432.71 15.96 431.58 15.28 431.01 14.94 C 428.77 18.80 424.21 20.33 421.62 23.92 C 420.92 23.62 419.53 23.02 418.84 22.72 C 419.28 23.90 419.73 25.09 420.17 26.28 C 419.27 25.88 418.38 25.49 417.49 25.09 C 416.86 25.47 415.58 26.24 414.94 26.62 C 416.46 23.12 419.19 20.40 421.58 17.50 C 426.45 11.68 431.20 5.76 436.15 0.00 Z" />
<path fill="#4c4c4c" opacity="1.00" d=" M 361.04 23.28 C 374.36 18.05 387.35 11.99 400.72 6.90 C 397.29 19.26 394.47 31.80 390.75 44.08 C 390.43 44.26 389.79 44.64 389.47 44.82 C 388.81 44.91 387.48 45.08 386.82 45.17 C 388.52 34.39 392.40 24.09 394.53 13.39 C 383.22 17.80 372.14 22.75 360.93 27.38 C 354.89 23.71 349.01 19.79 343.03 16.03 C 339.76 14.03 337.70 10.72 335.76 7.52 C 344.51 12.23 352.51 18.19 361.04 23.28 Z" />
<path fill="#4c4c4c" opacity="1.00" d=" M 361.35 32.41 C 369.87 29.15 378.13 25.20 386.68 21.98 C 384.25 31.00 381.93 40.05 379.57 49.09 C 379.87 49.58 380.46 50.57 380.76 51.06 C 379.25 51.63 377.73 52.22 376.41 53.17 C 376.18 52.83 375.71 52.15 375.48 51.81 C 374.91 50.80 374.13 49.70 374.51 48.48 C 375.91 42.26 377.86 36.17 379.20 29.93 C 372.68 32.14 366.63 35.68 360.00 37.53 C 354.93 35.36 352.64 29.92 349.24 25.93 C 352.43 27.57 355.39 29.59 358.38 31.56 C 359.29 32.03 360.25 32.99 361.35 32.41 Z" />
<path fill="#4c4c4c" opacity="1.00" d=" M 359.97 42.55 C 364.01 40.84 368.03 39.08 372.15 37.55 C 371.34 41.72 369.77 45.73 369.22 49.94 C 369.78 51.96 371.66 53.35 372.77 55.10 L 373.06 55.74 C 370.94 55.46 369.44 56.97 368.00 58.24 C 367.98 57.67 367.94 56.52 367.92 55.94 L 366.90 56.16 L 367.37 58.49 C 366.64 57.96 365.91 57.43 365.19 56.90 C 365.20 57.56 365.22 58.86 365.23 59.51 C 364.54 59.45 363.17 59.33 362.48 59.27 C 360.00 61.62 357.45 63.89 354.68 65.90 C 353.95 64.12 353.32 62.29 352.36 60.62 C 348.34 58.95 343.94 58.52 339.76 57.37 C 342.61 53.95 346.46 51.61 349.72 48.62 C 349.44 45.32 349.18 42.03 348.93 38.73 C 353.14 37.96 356.70 40.23 359.97 42.55 Z" />
<path fill="#4c4c4c" opacity="1.00" d=" M 302.00 38.77 C 303.51 38.94 305.01 39.19 306.52 39.44 C 305.24 40.54 303.91 41.58 302.57 42.59 C 302.37 41.32 302.18 40.04 302.00 38.77 Z" />
<path fill="#4c4c4c" opacity="1.00" d=" M 314.17 41.12 C 315.12 40.25 316.02 39.32 316.93 38.41 C 318.68 38.52 320.43 38.63 322.19 38.73 C 321.75 40.01 321.77 41.63 320.53 42.46 C 307.70 53.07 294.64 63.42 281.97 74.21 C 296.69 78.22 311.72 81.03 326.47 85.00 C 324.83 86.56 323.29 88.21 321.73 89.85 C 321.06 89.80 320.40 89.77 319.74 89.74 C 303.00 85.92 286.29 82.01 269.61 77.96 C 284.20 65.38 299.43 53.53 314.17 41.12 Z" />
<path fill="#4c4c4c" opacity="1.00" d=" M 328.11 38.67 C 329.51 38.58 330.92 38.49 332.34 38.40 C 332.31 40.52 333.69 43.23 332.00 44.95 C 322.96 52.58 313.49 59.72 304.69 67.63 C 316.27 70.47 327.94 72.91 339.47 75.94 C 339.01 76.44 338.08 77.43 337.61 77.93 C 337.09 77.98 336.05 78.07 335.53 78.12 C 335.01 78.40 333.96 78.97 333.44 79.26 C 322.23 76.81 311.12 73.98 299.92 71.50 C 298.58 71.09 297.03 71.01 295.95 70.05 C 296.51 69.27 297.18 68.57 297.93 67.95 C 308.11 59.68 318.27 51.38 328.37 43.01 C 328.28 41.56 328.19 40.11 328.11 38.67 Z" />
<path fill="#4c4c4c" opacity="1.00" d=" M 338.46 38.40 C 340.22 38.54 341.99 38.68 343.76 38.81 C 343.97 41.53 344.33 44.25 344.23 46.99 C 339.64 52.09 333.41 55.49 328.73 60.56 C 335.37 62.27 342.10 63.59 348.73 65.35 C 349.17 66.68 349.62 68.02 350.00 69.37 C 350.00 69.73 349.99 70.45 349.99 70.81 C 348.51 71.45 347.01 72.04 345.58 72.79 C 345.36 72.20 344.92 71.03 344.70 70.45 C 335.52 68.08 326.23 66.17 317.05 63.81 C 324.28 57.73 331.68 51.88 338.91 45.82 C 338.74 43.34 338.59 40.87 338.46 38.40 Z" />
<path fill="#4c4c4c" opacity="1.00" d=" M 282.55 41.87 C 287.03 44.12 291.74 45.87 296.34 47.87 C 294.12 49.61 291.95 51.40 289.83 53.26 C 285.74 51.78 281.78 49.98 277.81 48.24 C 279.33 46.07 280.90 43.94 282.55 41.87 Z" />
<path fill="#4c4c4c" opacity="1.00" d=" M 268.47 61.53 C 269.67 59.86 270.87 58.19 272.06 56.51 C 274.75 57.51 277.37 58.72 279.85 60.20 C 276.25 61.74 272.32 62.03 268.47 61.53 Z" />
<path fill="#4c4c4c" opacity="1.00" d=" M 262.01 71.20 C 264.14 70.85 266.30 70.63 268.47 70.60 C 265.90 72.79 263.34 75.01 260.58 76.96 C 260.36 76.26 259.93 74.85 259.72 74.15 C 260.32 73.19 260.91 72.24 261.51 71.28 L 262.01 71.20 Z" />
<path fill="#4c4c4c" opacity="1.00" d=" M 265.17 85.08 C 266.05 85.27 266.93 85.46 267.82 85.65 C 268.33 87.18 268.87 88.79 270.17 89.84 C 276.48 96.00 283.31 101.61 289.26 108.14 C 288.80 108.47 287.89 109.13 287.43 109.46 C 286.75 111.63 284.13 111.18 282.39 111.85 C 278.96 107.57 273.34 105.18 271.31 99.82 C 269.39 95.43 267.35 91.11 265.16 86.85 C 265.16 86.41 265.17 85.52 265.17 85.08 Z" />
<path fill="#4c4c4c" opacity="1.00" d=" M 282.95 90.10 C 283.49 90.00 284.56 89.80 285.10 89.69 C 288.26 90.38 291.37 91.29 294.54 91.95 C 296.45 94.65 298.78 97.02 301.38 99.07 C 300.20 100.23 299.26 101.60 298.47 103.06 C 298.07 102.72 297.27 102.04 296.87 101.70 L 298.18 104.36 L 295.84 102.99 C 291.52 98.71 287.02 94.62 282.95 90.10 Z" />
<path fill="#4c4c4c" opacity="1.00" d=" M 293.36 128.82 C 293.46 128.74 293.68 128.56 293.79 128.48 L 293.63 128.69 L 293.36 128.82 Z" />
<path fill="#4c4c4c" opacity="1.00" d=" M 530.19 286.24 C 530.78 286.78 530.78 286.78 530.19 286.24 Z" />
<path fill="#4c4c4c" opacity="1.00" d=" M 8.00 291.22 C 8.59 291.83 8.59 291.83 8.00 291.22 Z" />
<path fill="#4c4c4c" opacity="1.00" d=" M 502.14 301.31 C 505.03 299.53 502.50 304.61 502.14 301.31 Z" />
<path fill="#4c4c4c" opacity="1.00" d=" M 455.28 306.23 C 455.80 306.85 455.80 306.85 455.28 306.23 Z" />
<path fill="#4c4c4c" opacity="1.00" d=" M 437.09 308.36 C 437.73 308.87 437.73 308.87 437.09 308.36 Z" />
<path fill="#4c4c4c" opacity="1.00" d=" M 414.35 311.23 C 417.34 309.70 414.58 314.53 414.35 311.23 Z" />
<path fill="#4c4c4c" opacity="1.00" d=" M 405.48 312.31 C 406.13 312.78 406.13 312.78 405.48 312.31 Z" />
<path fill="#4c4c4c" opacity="1.00" d=" M 396.26 313.23 C 399.22 311.78 396.35 316.59 396.26 313.23 Z" />
<path fill="#4c4c4c" opacity="1.00" d=" M 336.48 321.22 C 337.07 321.83 337.07 321.83 336.48 321.22 Z" />
<path fill="#4c4c4c" opacity="1.00" d=" M 328.03 322.30 C 328.61 322.88 328.61 322.88 328.03 322.30 Z" />
<path fill="#4c4c4c" opacity="1.00" d=" M 314.29 324.26 C 317.20 322.72 314.55 327.62 314.29 324.26 Z" />
</g>
<g id="#fefefeff">
<path fill="#fefefe" opacity="1.00" d=" M 442.72 0.00 L 468.54 0.00 C 463.24 3.97 457.46 7.24 452.18 11.21 C 446.43 15.57 445.10 24.01 438.37 27.23 C 419.10 38.73 400.01 50.53 380.54 61.69 C 379.15 62.52 377.81 63.45 376.42 64.29 C 370.99 67.18 365.98 70.81 360.51 73.67 C 358.90 74.73 357.29 75.80 355.59 76.72 C 352.18 78.59 349.09 81.01 345.58 82.70 C 341.97 85.07 338.20 87.19 334.44 89.31 C 331.64 91.38 328.49 92.87 325.52 94.65 C 324.14 95.56 322.79 96.50 321.39 97.36 C 317.55 99.10 314.28 101.82 310.62 103.86 C 307.34 105.37 304.50 107.60 301.43 109.45 C 294.16 113.29 287.70 118.53 280.63 122.72 C 278.52 123.92 276.55 125.34 274.54 126.68 C 272.54 128.01 270.58 129.39 268.59 130.73 C 267.17 131.56 265.79 132.46 264.38 133.29 C 263.94 133.65 263.07 134.36 262.63 134.71 C 261.20 135.51 259.85 136.43 258.48 137.31 C 257.51 138.01 256.51 138.67 255.50 139.32 C 254.50 140.00 253.50 140.67 252.49 141.33 C 251.49 142.01 250.47 142.65 249.46 143.33 C 246.15 145.61 242.73 147.73 239.32 149.85 C 239.64 146.05 239.58 142.23 240.02 138.44 C 241.42 137.08 242.85 135.74 244.26 134.37 C 244.62 134.86 245.35 135.84 245.71 136.33 L 244.81 134.25 C 248.08 134.83 249.61 131.25 252.42 130.34 C 254.09 130.25 255.39 129.30 256.53 128.14 C 257.52 128.08 258.53 128.01 259.53 127.95 C 260.79 126.64 262.15 125.38 263.82 124.61 C 264.30 123.88 264.77 123.16 265.25 122.43 C 268.01 121.10 270.19 118.57 273.29 118.01 C 273.21 117.42 273.06 116.24 272.99 115.65 C 273.63 115.98 274.90 116.65 275.54 116.98 C 277.34 115.22 279.33 113.68 281.46 112.35 L 282.39 111.85 C 284.13 111.18 286.75 111.63 287.43 109.46 C 287.89 109.13 288.80 108.47 289.26 108.14 C 290.62 107.09 291.98 106.05 293.40 105.08 C 294.13 105.06 295.58 105.01 296.31 104.98 C 296.19 104.48 295.96 103.49 295.84 102.99 L 298.18 104.36 L 296.87 101.70 C 297.27 102.04 298.07 102.72 298.47 103.06 C 299.26 101.60 300.20 100.23 301.38 99.07 C 301.67 99.09 302.25 99.13 302.53 99.15 C 303.94 98.12 305.34 97.08 306.69 95.97 C 306.87 96.28 307.23 96.89 307.41 97.19 C 307.83 96.76 308.67 95.91 309.09 95.48 C 310.40 94.68 311.93 92.34 313.61 93.80 C 313.99 93.47 314.76 92.81 315.14 92.49 C 314.74 92.04 313.94 91.16 313.55 90.72 C 314.87 91.03 316.12 91.86 317.52 91.86 C 318.07 91.33 319.18 90.27 319.74 89.74 C 320.40 89.77 321.06 89.80 321.73 89.85 C 323.29 88.21 324.83 86.56 326.47 85.00 C 328.89 83.21 331.30 81.39 333.44 79.26 C 333.96 78.97 335.01 78.40 335.53 78.12 C 336.05 78.07 337.09 77.98 337.61 77.93 C 338.08 77.43 339.01 76.44 339.47 75.94 C 340.75 75.27 342.16 75.04 343.59 74.98 C 344.09 74.43 345.08 73.33 345.58 72.79 C 347.01 72.04 348.51 71.45 349.99 70.81 C 349.99 70.45 350.00 69.73 350.00 69.37 C 351.59 68.25 353.21 67.18 354.68 65.90 C 357.45 63.89 360.00 61.62 362.48 59.27 C 363.17 59.33 364.54 59.45 365.23 59.51 C 365.22 58.86 365.20 57.56 365.19 56.90 C 365.91 57.43 366.64 57.96 367.37 58.49 L 366.90 56.16 L 367.92 55.94 C 367.94 56.52 367.98 57.67 368.00 58.24 C 369.44 56.97 370.94 55.46 373.06 55.74 L 372.77 55.10 C 373.63 53.97 374.56 52.90 375.48 51.81 C 375.71 52.15 376.18 52.83 376.41 53.17 C 377.73 52.22 379.25 51.63 380.76 51.06 L 381.48 50.83 C 382.18 50.52 383.58 49.90 384.28 49.60 C 383.79 48.66 383.30 47.74 382.79 46.82 C 383.68 47.49 384.67 47.90 385.75 48.06 C 386.30 47.17 386.65 46.21 386.82 45.17 C 387.48 45.08 388.81 44.91 389.47 44.82 C 389.79 44.64 390.43 44.26 390.75 44.08 C 391.31 44.03 392.44 43.95 393.00 43.91 C 393.00 43.34 393.00 42.22 392.99 41.65 C 393.34 41.96 394.05 42.59 394.40 42.90 C 394.84 42.57 395.73 41.90 396.17 41.57 C 395.74 40.82 395.32 40.07 394.91 39.32 C 397.20 38.79 398.98 37.08 399.96 34.99 C 402.57 37.68 404.14 33.78 405.60 31.99 L 406.93 32.16 C 406.59 29.30 409.77 29.35 411.73 29.01 C 411.96 29.32 412.44 29.94 412.68 30.25 C 412.89 28.74 413.84 27.59 414.94 26.62 C 415.58 26.24 416.86 25.47 417.49 25.09 C 418.38 25.49 419.27 25.88 420.17 26.28 C 419.73 25.09 419.28 23.90 418.84 22.72 C 419.53 23.02 420.92 23.62 421.62 23.92 C 424.21 20.33 428.77 18.80 431.01 14.94 C 431.58 15.28 432.71 15.96 433.27 16.30 C 430.43 12.11 435.39 8.96 437.52 5.89 C 437.40 5.29 437.16 4.10 437.04 3.51 C 437.81 2.71 438.59 1.90 439.37 1.09 C 440.54 3.04 441.69 0.49 442.72 0.00 Z" />
<path fill="#fefefe" opacity="1.00" d=" M 402.20 28.23 C 403.66 26.89 406.27 28.99 404.41 30.42 C 403.24 31.91 401.16 29.41 402.20 28.23 Z" />
<path fill="#fefefe" opacity="1.00" d=" M 15.31 106.75 C 88.98 115.70 162.65 124.65 236.32 133.59 C 233.73 224.92 231.17 316.24 228.57 407.56 C 159.08 410.94 89.59 414.34 20.09 417.67 C 18.52 314.03 16.92 210.39 15.31 106.75 M 20.10 112.09 C 22.44 211.29 24.79 310.48 27.07 409.68 C 93.08 408.49 159.10 407.19 225.11 405.98 C 227.64 315.83 230.10 225.67 232.58 135.51 C 161.75 127.70 90.93 119.88 20.10 112.09 Z" />
<path fill="#fefefe" opacity="1.00" d=" M 602.54 261.54 C 615.05 260.21 627.47 258.16 640.00 257.27 L 640.00 286.02 C 639.40 285.98 638.21 285.89 637.61 285.85 C 636.62 285.01 635.58 284.89 634.50 285.50 C 632.73 285.52 630.80 285.45 629.54 286.92 C 627.45 283.48 623.54 286.69 620.45 285.56 C 615.24 286.55 609.62 284.44 604.70 286.71 C 603.44 285.89 601.94 285.83 600.51 285.69 C 599.79 286.55 599.07 287.41 598.35 288.26 C 597.85 286.97 597.30 285.70 596.70 284.46 C 596.42 284.85 595.86 285.65 595.58 286.04 C 593.77 284.17 590.88 285.23 588.58 284.90 C 588.01 284.60 586.86 284.01 586.29 283.72 C 586.15 284.28 585.86 285.41 585.71 285.98 C 583.87 285.38 581.98 284.94 580.05 284.84 C 580.02 284.32 579.96 283.29 579.93 282.78 C 578.62 282.86 577.45 283.26 576.40 284.00 C 573.80 284.02 571.32 283.25 568.79 282.79 C 569.07 283.95 569.35 285.12 569.64 286.29 C 568.49 285.87 567.35 285.46 566.23 285.01 C 565.69 285.66 565.16 286.31 564.64 286.97 C 563.56 285.52 562.29 285.88 561.09 286.80 L 561.59 284.93 C 559.96 287.44 556.92 287.18 554.47 286.31 C 554.12 286.44 553.42 286.68 553.07 286.80 C 550.71 286.75 548.34 286.83 545.99 286.95 C 545.64 286.71 544.93 286.24 544.58 286.00 C 543.60 287.19 542.51 286.90 541.47 286.11 C 540.15 286.67 538.82 287.20 537.54 287.82 C 536.18 286.66 534.53 286.01 532.77 285.83 C 533.10 286.95 533.47 288.07 533.86 289.19 C 533.45 288.84 532.62 288.15 532.20 287.80 C 530.50 288.36 528.88 287.53 527.39 286.86 C 526.99 287.45 526.63 288.06 526.31 288.69 C 527.06 289.08 527.82 289.47 528.59 289.85 C 525.95 290.04 525.34 292.71 524.84 294.76 C 523.47 294.28 522.06 294.91 521.58 296.34 C 522.26 296.02 523.62 295.36 524.30 295.03 C 523.94 295.80 523.23 297.32 522.87 298.08 L 520.56 296.54 L 521.84 298.57 C 521.16 300.92 518.90 301.99 516.64 302.28 L 518.56 299.83 C 517.73 300.34 516.08 301.34 515.25 301.84 C 512.55 302.05 509.41 301.05 507.15 302.98 C 507.02 302.65 506.78 301.99 506.65 301.66 C 504.54 303.99 500.89 302.03 498.39 303.82 C 498.04 303.54 497.33 302.98 496.97 302.70 C 495.77 302.96 494.57 303.24 493.39 303.55 C 491.74 303.78 490.12 304.19 488.70 305.09 C 488.65 304.68 488.54 303.85 488.48 303.44 C 486.79 303.73 485.12 304.06 483.48 304.51 C 483.13 304.41 482.44 304.19 482.10 304.08 C 479.62 305.17 476.70 304.21 474.39 305.70 C 471.38 305.73 468.16 305.20 465.40 306.67 C 462.90 307.88 460.36 306.84 457.99 305.89 L 459.28 307.98 C 458.23 308.21 457.18 308.27 456.13 308.12 C 455.36 307.92 453.84 307.53 453.07 307.34 C 452.65 307.78 451.80 308.67 451.38 309.12 C 450.97 308.53 450.15 307.34 449.74 306.74 C 449.02 307.42 448.30 308.10 447.59 308.78 C 445.89 308.80 444.13 308.90 442.84 310.17 C 442.32 309.54 441.29 308.28 440.77 307.65 C 440.57 308.48 440.18 310.14 439.98 310.97 C 438.83 309.57 436.76 309.09 435.49 310.69 C 434.84 310.79 433.53 310.98 432.87 311.07 C 433.26 310.46 433.67 309.85 434.10 309.26 C 432.90 309.26 431.71 309.26 430.52 309.28 C 431.19 310.09 432.10 310.97 431.51 312.15 C 429.27 309.69 426.46 311.78 423.77 311.89 C 422.86 312.33 421.95 312.76 421.05 313.21 L 421.50 311.52 C 420.63 311.44 418.89 311.27 418.02 311.19 L 419.37 312.95 C 416.71 312.64 414.08 313.04 411.64 314.12 C 412.00 313.59 412.71 312.53 413.07 312.00 C 412.05 312.01 410.01 312.03 409.00 312.04 L 409.00 312.92 C 409.50 312.95 410.50 312.99 411.00 313.02 L 411.00 314.01 C 409.34 313.88 407.68 313.78 406.03 313.69 C 405.01 314.29 403.97 314.84 402.90 315.33 L 403.77 312.96 C 402.40 313.61 401.09 314.37 399.83 315.20 C 397.40 314.59 395.05 315.69 392.72 316.18 C 393.53 315.63 395.16 314.54 395.97 314.00 C 395.16 314.15 393.55 314.45 392.75 314.60 C 391.96 315.42 391.17 316.24 390.40 317.07 C 390.10 316.67 389.52 315.88 389.22 315.49 C 387.50 317.77 384.56 315.70 382.57 317.44 C 381.18 316.90 379.59 316.19 378.44 317.70 C 373.63 317.64 368.52 317.82 364.16 319.98 C 363.40 319.50 361.89 318.53 361.13 318.05 L 362.25 319.92 C 359.64 319.80 356.80 319.39 354.60 321.16 C 354.52 320.61 354.36 319.50 354.27 318.94 C 353.80 319.48 352.84 320.56 352.36 321.10 C 352.14 320.74 351.70 320.02 351.48 319.67 C 351.02 320.23 350.11 321.37 349.65 321.94 C 348.28 321.89 346.91 321.85 345.55 321.82 C 346.53 321.19 347.52 320.58 348.52 319.97 C 347.80 320.05 346.36 320.20 345.65 320.27 C 344.41 321.74 342.90 324.70 341.43 321.60 C 341.24 321.86 340.86 322.38 340.67 322.64 C 340.41 322.47 339.88 322.11 339.62 321.93 C 337.67 323.03 335.36 323.02 333.31 323.82 C 333.05 323.50 332.52 322.87 332.25 322.55 C 331.03 323.85 329.29 323.74 327.67 323.74 C 327.24 324.14 326.37 324.94 325.94 325.33 C 325.47 324.76 324.54 323.62 324.08 323.06 C 322.29 326.33 317.49 323.57 315.48 326.91 C 314.05 326.40 312.57 324.90 311.00 325.71 C 309.40 326.75 307.54 327.01 305.67 326.82 C 306.63 326.38 308.55 325.50 309.51 325.06 C 307.73 325.22 305.91 325.54 304.43 326.59 C 301.83 325.60 298.63 330.04 297.21 326.22 C 296.90 326.85 296.29 328.10 295.98 328.73 C 295.56 328.77 294.71 328.87 294.29 328.91 L 294.52 327.27 L 292.47 327.15 L 293.08 328.88 C 290.26 328.69 287.43 328.91 284.83 330.10 L 285.83 328.08 L 284.59 327.80 C 284.58 328.31 284.58 329.34 284.57 329.86 C 281.81 329.84 279.06 329.88 276.31 329.91 C 275.92 330.42 275.13 331.43 274.73 331.93 C 272.26 329.58 268.69 331.88 266.15 333.00 C 266.02 332.57 265.75 331.73 265.62 331.31 L 262.84 331.05 L 264.41 332.97 C 261.89 332.56 259.43 333.12 257.02 333.82 C 256.84 333.35 256.47 332.40 256.29 331.93 C 255.76 332.42 254.71 333.39 254.18 333.88 C 252.90 333.44 251.54 332.54 250.37 333.86 C 249.44 333.87 248.52 333.88 247.60 333.88 C 246.19 332.06 244.65 333.65 243.60 334.82 C 243.33 334.60 242.78 334.15 242.50 333.93 C 241.63 334.64 240.62 335.05 239.49 335.16 C 238.35 335.74 237.22 336.34 236.10 336.96 C 235.92 336.50 235.55 335.57 235.37 335.10 C 235.14 335.64 234.68 336.72 234.45 337.26 C 234.75 333.22 234.81 329.17 234.91 325.12 C 236.49 324.98 238.16 325.10 239.55 324.18 C 241.87 323.99 244.23 323.96 246.50 323.36 C 252.31 321.94 258.31 321.54 264.16 320.27 C 269.96 319.30 275.86 318.70 281.57 317.26 C 285.65 316.61 289.76 316.08 293.83 315.34 C 304.88 313.73 315.84 311.53 326.93 310.19 C 328.81 309.94 330.85 310.20 332.55 309.19 C 337.25 308.93 341.86 308.00 346.51 307.34 C 350.86 306.97 355.11 305.91 359.47 305.52 C 361.81 304.89 364.26 304.85 366.67 304.58 C 371.24 303.68 375.90 303.27 380.47 302.45 C 396.83 300.31 413.09 297.59 429.47 295.59 C 434.04 294.55 438.75 294.27 443.36 293.35 C 459.53 291.20 475.56 288.04 491.73 285.91 C 494.90 281.61 498.15 277.34 501.41 273.12 C 518.87 272.04 536.19 269.96 553.50 267.54 C 569.84 265.35 586.21 263.67 602.54 261.54 M 530.19 286.24 C 530.78 286.78 530.78 286.78 530.19 286.24 M 502.14 301.31 C 502.50 304.61 505.03 299.53 502.14 301.31 M 455.28 306.23 C 455.80 306.85 455.80 306.85 455.28 306.23 M 444.82 307.20 C 445.07 310.38 447.97 305.73 444.82 307.20 M 437.09 308.36 C 437.73 308.87 437.73 308.87 437.09 308.36 M 414.35 311.23 C 414.58 314.53 417.34 309.70 414.35 311.23 M 405.48 312.31 C 406.13 312.78 406.13 312.78 405.48 312.31 M 396.26 313.23 C 396.35 316.59 399.22 311.78 396.26 313.23 M 386.30 315.19 C 386.99 315.87 386.99 315.87 386.30 315.19 M 336.48 321.22 C 337.07 321.83 337.07 321.83 336.48 321.22 M 328.03 322.30 C 328.61 322.88 328.61 322.88 328.03 322.30 M 314.29 324.26 C 314.55 327.62 317.20 322.72 314.29 324.26 Z" />
<path fill="#fefefe" opacity="1.00" d=" M 455.15 285.23 L 455.79 285.18 L 455.81 285.80 L 455.17 285.83 L 455.15 285.23 Z" />
<path fill="#fefefe" opacity="1.00" d=" M 6.50 290.94 C 9.12 289.57 11.75 288.21 14.35 286.81 C 14.04 287.19 13.43 287.97 13.12 288.36 C 14.93 292.79 13.76 297.90 14.04 302.62 C 11.09 304.04 8.44 306.03 5.39 307.25 C 3.55 308.26 1.76 309.34 0.00 310.49 L 0.00 295.44 C 0.50 295.02 1.49 294.18 1.98 293.76 L 1.94 295.56 C 3.55 294.11 5.45 293.09 7.43 292.24 C 6.51 292.52 4.67 293.07 3.75 293.35 C 4.43 292.75 5.81 291.54 6.50 290.94 M 10.02 290.19 C 10.68 290.86 10.68 290.86 10.02 290.19 M 8.00 291.22 C 8.59 291.83 8.59 291.83 8.00 291.22 Z" />
<path fill="#fefefe" opacity="1.00" d=" M 4.96 364.20 C 8.23 363.90 11.40 362.94 14.70 362.84 C 14.75 364.98 14.81 367.13 14.92 369.27 C 14.61 368.96 13.97 368.34 13.65 368.03 C 10.70 369.18 7.55 369.70 4.54 370.67 C 2.96 370.96 1.43 370.46 0.00 369.84 L 0.00 365.11 C 1.64 364.74 3.29 364.38 4.96 364.20 Z" />
</g>
</svg>
