<?xml version="1.0" encoding="UTF-8" ?>
<!DOCTYPE svg PUBLIC "-//W3C//DTD SVG 1.1//EN" "http://www.w3.org/Graphics/SVG/1.1/DTD/svg11.dtd">
<svg width="240pt" height="60pt" viewBox="0 0 240 60" version="1.1" xmlns="http://www.w3.org/2000/svg">
<g id="#ffffffff">
<path fill="#ffffff" opacity="1.00" d=" M 170.96 0.00 L 225.85 0.00 C 230.54 19.69 235.39 39.34 239.99 59.04 C 186.79 52.29 133.58 45.55 80.38 38.82 C 80.64 43.13 80.91 47.44 81.16 51.76 C 57.73 41.92 34.30 32.07 10.88 22.20 C 21.91 20.80 32.95 19.44 43.98 18.02 C 43.24 13.11 42.49 8.19 41.76 3.27 C 80.17 2.39 118.58 1.47 156.98 0.58 C 161.65 0.41 166.32 0.54 170.96 0.00 M 50.03 7.70 C 50.83 12.60 51.65 17.49 52.43 22.38 C 43.50 22.91 34.57 23.46 25.64 23.94 C 41.12 30.05 56.58 36.23 72.06 42.35 C 72.07 39.05 72.06 35.74 72.07 32.44 C 124.24 38.51 176.41 44.57 228.57 50.64 C 226.07 35.65 223.61 20.66 221.09 5.68 C 164.07 6.39 107.05 6.98 50.03 7.70 Z" />
</g>
<g id="#000000ff">
<path fill="#000000" opacity="1.00" d=" M 50.03 7.70 C 107.05 6.98 164.07 6.39 221.09 5.68 C 223.61 20.66 226.07 35.65 228.57 50.64 C 176.41 44.57 124.24 38.51 72.07 32.44 C 72.06 35.74 72.07 39.05 72.06 42.35 C 56.58 36.23 41.12 30.05 25.64 23.94 C 34.57 23.46 43.50 22.91 52.43 22.38 C 51.65 17.49 50.83 12.60 50.03 7.70 Z" />
</g>
</svg>
