<?xml version="1.0" encoding="UTF-8" ?>
<!DOCTYPE svg PUBLIC "-//W3C//DTD SVG 1.1//EN" "http://www.w3.org/Graphics/SVG/1.1/DTD/svg11.dtd">
<svg width="640pt" height="480pt" viewBox="0 0 640 480" version="1.1" xmlns="http://www.w3.org/2000/svg">
<g id="#262626ff">
<path fill="#262626" opacity="1.00" d=" M 0.00 0.00 L 36.18 0.00 C 23.12 13.65 11.28 28.41 0.00 43.55 L 0.00 0.00 Z" />
<path fill="#262626" opacity="1.00" d=" M 105.75 0.00 L 166.81 0.00 C 151.28 10.54 136.05 21.60 122.07 34.15 C 91.27 61.51 65.01 94.00 45.01 130.03 C 22.66 170.07 8.06 214.40 2.19 259.88 C 1.46 265.15 1.25 270.50 0.00 275.70 L 0.00 137.81 C 1.50 135.02 3.01 132.24 4.35 129.36 C 24.36 88.96 51.28 52.00 83.51 20.49 C 90.68 13.39 98.34 6.83 105.75 0.00 Z" />
<path fill="#262626" opacity="1.00" d=" M 353.38 0.00 L 362.95 0.00 C 363.87 1.36 364.70 2.77 365.56 4.16 C 364.37 4.63 363.19 5.09 362.01 5.56 C 359.07 3.80 356.24 1.87 353.38 0.00 Z" />
<path fill="#262626" opacity="1.00" d=" M 421.30 0.00 L 423.78 0.00 C 423.41 1.12 421.39 4.57 420.71 1.97 C 420.86 1.48 421.15 0.49 421.30 0.00 Z" />
<path fill="#262626" opacity="1.00" d=" M 634.55 0.00 L 640.00 0.00 L 640.00 6.84 C 638.33 8.04 636.59 9.15 634.87 10.26 C 632.52 8.55 630.26 6.72 628.06 4.84 C 630.20 3.19 632.31 1.51 634.55 0.00 Z" />
<path fill="#262626" opacity="1.00" d=" M 229.40 8.32 C 230.07 9.88 230.87 11.37 231.57 12.92 C 235.68 22.29 240.07 31.53 244.20 40.88 C 244.79 41.97 245.18 43.50 246.67 43.69 C 246.99 44.69 247.31 45.70 247.63 46.71 C 188.45 72.79 138.90 119.99 109.68 177.66 C 75.07 244.65 69.14 325.60 92.97 397.07 C 102.72 426.91 117.73 454.92 136.57 480.00 L 85.70 480.00 C 81.50 473.16 77.50 466.19 73.80 459.06 C 38.96 393.11 28.24 315.03 43.12 242.01 C 54.07 187.21 79.63 135.48 116.23 93.27 C 145.22 59.75 181.00 32.06 220.92 12.76 C 223.82 11.44 226.73 10.09 229.40 8.32 Z" />
<path fill="#262626" opacity="1.00" d=" M 284.98 37.96 C 292.72 38.42 300.46 37.96 308.21 38.02 C 307.88 38.41 307.24 39.18 306.92 39.57 L 306.60 39.50 C 305.10 39.23 303.63 38.82 302.13 38.58 C 302.27 39.94 302.41 41.29 302.56 42.65 L 302.58 42.88 C 300.56 44.62 298.50 46.30 296.35 47.88 C 291.64 45.91 286.95 43.90 282.25 41.91 C 283.12 40.57 284.04 39.26 284.98 37.96 Z" />
<path fill="#262626" opacity="1.00" d=" M 624.31 55.32 C 629.48 51.37 634.96 47.85 640.00 43.74 L 640.00 50.89 C 633.72 55.52 627.34 60.03 620.99 64.57 C 615.41 62.99 610.08 60.69 604.53 59.07 C 603.67 57.03 602.98 54.94 602.20 52.88 C 607.87 54.60 613.29 57.15 619.04 58.57 C 621.03 57.95 622.62 56.49 624.31 55.32 Z" />
<path fill="#262626" opacity="1.00" d=" M 607.98 50.70 C 614.73 48.99 621.43 47.06 628.28 45.72 C 625.00 48.46 621.79 51.37 617.96 53.32 C 614.52 53.01 611.41 51.13 607.98 50.70 Z" />
<path fill="#262626" opacity="1.00" d=" M 272.10 56.44 C 273.91 53.64 275.75 50.84 277.82 48.22 C 281.76 50.01 285.74 51.72 289.77 53.32 C 282.77 59.09 275.87 65.08 268.64 70.49 C 266.39 70.74 264.14 70.86 261.90 71.15 C 263.98 67.94 265.94 64.36 268.51 61.66 C 272.42 61.77 276.38 61.70 280.08 60.25 C 277.49 58.82 274.82 57.57 272.10 56.44 Z" />
<path fill="#262626" opacity="1.00" d=" M 561.37 62.71 C 564.43 61.70 567.55 60.91 570.72 60.33 C 571.36 61.76 572.02 63.20 572.68 64.64 C 570.25 68.69 567.74 72.69 565.29 76.73 C 564.44 71.94 562.80 67.35 561.37 62.71 Z" />
<path fill="#262626" opacity="1.00" d=" M 621.92 68.73 C 627.07 66.64 630.61 61.79 635.83 59.74 C 635.74 65.04 635.18 70.35 635.55 75.64 C 636.72 77.23 638.52 78.20 640.00 79.47 L 640.00 88.89 C 637.66 89.49 635.17 89.78 633.06 90.98 C 630.69 95.93 630.02 101.54 627.34 106.36 C 624.50 102.72 622.11 98.75 619.35 95.05 L 618.75 95.99 C 614.60 85.34 610.39 74.70 606.51 63.95 C 611.87 64.78 616.64 67.61 621.92 68.73 Z" />
<path fill="#262626" opacity="1.00" d=" M 554.15 69.55 C 555.43 72.65 556.82 75.77 557.40 79.10 C 554.01 84.95 549.32 90.02 545.00 95.23 C 545.60 91.23 547.34 87.56 548.68 83.78 C 550.51 79.04 552.03 74.17 554.15 69.55 Z" />
<path fill="#262626" opacity="1.00" d=" M 433.01 74.06 C 440.51 73.75 448.02 74.13 455.49 74.84 L 455.47 75.40 C 455.37 77.68 455.36 79.98 455.67 82.25 C 457.00 91.21 458.25 100.19 459.54 109.15 C 457.04 111.88 454.50 114.63 451.43 116.73 C 450.55 117.33 449.61 117.87 448.95 118.73 C 438.87 129.38 427.19 138.40 416.91 148.85 C 421.89 149.93 426.92 150.95 432.03 151.26 C 424.86 153.95 417.56 156.29 410.35 158.85 C 410.39 158.52 410.47 157.86 410.51 157.53 C 406.90 156.99 403.31 156.39 399.73 155.73 C 403.05 151.70 407.12 148.41 411.00 144.95 C 424.43 132.43 438.22 120.30 451.57 107.70 C 451.25 105.15 450.94 102.59 450.64 100.03 C 452.07 99.93 453.51 99.81 454.95 99.68 C 453.19 97.29 450.96 95.25 449.42 92.73 C 448.39 86.97 448.54 80.95 446.68 75.38 C 444.83 74.02 442.49 74.82 440.42 74.97 C 440.78 77.70 441.10 80.43 441.38 83.17 C 438.15 80.56 435.74 77.14 433.01 74.06 Z" />
<path fill="#262626" opacity="1.00" d=" M 461.20 84.80 C 463.82 88.17 466.24 91.74 468.12 95.57 C 468.84 101.05 469.72 106.51 470.34 112.00 C 468.79 113.42 467.27 114.87 465.66 116.21 C 462.45 116.79 459.17 116.75 455.92 116.89 C 459.42 115.82 462.10 113.25 464.57 110.67 C 463.51 102.04 462.03 93.46 461.20 84.80 Z" />
<path fill="#262626" opacity="1.00" d=" M 267.80 85.62 C 273.58 86.88 279.36 88.17 285.08 89.67 C 284.53 89.77 283.43 89.96 282.88 90.06 C 289.07 96.98 296.41 102.78 302.44 109.84 C 300.85 118.59 299.19 127.34 298.09 136.17 C 300.40 135.17 302.68 134.12 304.94 133.02 C 304.99 136.07 305.09 139.12 305.18 142.17 C 301.30 144.39 297.29 146.40 293.51 148.80 C 292.25 146.14 291.03 143.46 289.89 140.75 C 291.87 131.70 293.16 122.52 294.70 113.39 C 287.98 106.73 281.27 100.06 274.27 93.70 C 271.76 91.33 268.82 89.10 267.80 85.62 Z" />
<path fill="#262626" opacity="1.00" d=" M 210.19 121.19 C 226.86 107.26 245.58 95.96 265.25 86.79 C 267.93 91.85 269.73 97.38 272.81 102.21 C 277.36 107.47 282.84 111.84 287.57 116.95 C 287.22 121.36 286.44 125.73 285.10 129.95 C 283.12 126.07 281.24 122.13 279.50 118.13 C 253.18 129.63 229.56 147.07 210.26 168.29 C 187.54 193.38 171.06 224.11 162.92 256.98 C 152.94 296.95 155.13 339.90 169.32 378.59 C 184.32 419.75 212.80 455.83 249.34 480.00 L 195.21 480.00 C 157.30 443.10 132.02 393.42 124.90 340.97 C 119.27 300.56 123.88 258.72 138.58 220.64 C 153.37 182.07 178.33 147.47 210.19 121.19 Z" />
<path fill="#262626" opacity="1.00" d=" M 294.44 91.91 C 303.91 93.92 313.30 96.25 322.73 98.45 C 325.83 105.62 328.52 112.96 331.24 120.27 C 327.56 119.15 324.28 116.10 320.24 116.70 C 315.92 113.78 311.72 110.70 307.65 107.46 C 307.44 106.42 307.46 105.22 306.59 104.46 C 302.76 100.06 297.74 96.78 294.44 91.91 Z" />
<path fill="#262626" opacity="1.00" d=" M 636.39 95.61 C 637.59 95.18 638.80 94.72 640.00 94.25 L 640.00 103.47 C 637.74 109.26 635.89 115.20 634.03 121.12 C 631.43 120.41 627.67 120.62 627.04 117.30 C 627.50 117.36 628.42 117.50 628.88 117.56 C 631.47 110.28 633.34 102.73 636.39 95.61 Z" />
<path fill="#262626" opacity="1.00" d=" M 424.54 101.55 C 432.45 101.23 440.35 100.21 448.27 100.27 C 446.96 100.48 445.66 100.73 444.36 100.97 C 444.42 102.71 444.45 104.45 444.53 106.19 C 440.25 111.05 435.17 115.08 430.43 119.46 C 415.31 133.57 399.73 147.19 384.78 161.48 C 388.80 162.39 392.87 163.23 397.01 163.34 C 394.00 164.46 391.02 165.69 387.90 166.45 C 383.83 164.33 380.40 161.13 376.65 158.50 C 377.98 156.56 376.73 154.22 376.52 152.14 C 374.59 143.60 374.08 134.74 371.38 126.37 L 371.31 126.15 C 372.72 124.03 373.73 121.59 375.56 119.78 C 379.15 117.46 381.97 114.21 384.83 111.07 C 384.21 109.83 383.70 108.55 383.10 107.31 L 382.92 106.94 C 384.64 102.37 390.10 103.60 393.97 103.17 C 400.74 103.29 407.46 101.97 414.22 102.23 C 408.52 102.12 405.49 107.31 401.71 110.66 C 394.97 116.64 388.80 123.23 382.36 129.53 C 383.15 136.43 384.54 143.25 385.93 150.05 C 388.35 148.06 390.64 145.94 392.85 143.72 C 392.49 140.74 392.04 137.78 391.45 134.85 C 402.18 123.46 413.85 112.98 424.54 101.55 Z" />
<path fill="#262626" opacity="1.00" d=" M 474.95 106.64 C 477.38 109.32 479.14 112.51 480.88 115.67 C 478.31 115.77 475.74 115.80 473.18 115.83 C 475.78 113.37 475.66 109.89 474.95 106.64 Z" />
<path fill="#262626" opacity="1.00" d=" M 452.30 121.97 C 453.28 123.15 454.26 124.34 455.23 125.55 C 450.53 130.56 445.12 134.82 440.15 139.56 C 446.07 140.58 451.95 142.06 457.97 142.33 C 452.93 144.10 447.91 146.08 442.78 147.52 C 437.94 146.17 432.92 145.64 428.08 144.33 C 435.79 136.50 444.20 129.40 452.30 121.97 Z" />
<path fill="#262626" opacity="1.00" d=" M 458.19 128.99 C 460.64 131.66 463.23 134.26 465.10 137.40 C 460.60 136.75 456.10 136.09 451.68 134.99 C 453.72 132.85 455.89 130.85 458.19 128.99 Z" />
<path fill="#262626" opacity="1.00" d=" M 359.35 145.94 C 361.74 141.82 364.30 137.79 366.95 133.82 C 368.06 140.28 369.35 146.70 370.22 153.20 C 366.29 151.28 362.97 148.36 359.35 145.94 Z" />
<path fill="#262626" opacity="1.00" d=" M 297.11 154.91 C 299.95 154.10 302.55 152.67 305.24 151.47 C 305.81 160.54 305.40 169.68 306.58 178.71 C 288.63 186.77 272.36 198.57 259.23 213.24 C 239.44 235.20 226.82 263.53 223.95 292.97 C 221.00 321.51 226.95 350.93 241.02 375.95 C 255.49 401.97 278.45 423.16 305.56 435.47 C 324.45 444.11 345.29 448.48 366.07 448.02 C 386.03 448.01 405.76 443.10 423.91 434.93 C 428.21 443.20 431.78 451.83 435.67 460.30 C 395.82 479.51 348.20 481.36 306.67 466.39 C 270.71 453.53 239.49 428.00 219.66 395.37 C 201.00 364.98 192.50 328.55 195.60 293.03 C 198.07 262.08 209.47 231.93 227.95 206.99 C 245.28 183.54 268.69 164.60 295.38 152.82 C 295.81 153.65 296.38 154.34 297.11 154.91 M 302.09 166.34 C 302.59 168.65 303.55 170.81 304.60 172.91 C 304.84 172.47 305.30 171.58 305.54 171.14 C 305.20 168.80 304.89 166.45 304.61 164.11 C 303.77 164.85 302.93 165.60 302.09 166.34 Z" />
<path fill="#262626" opacity="1.00" d=" M 478.00 155.60 C 478.21 154.97 478.62 153.71 478.83 153.07 C 482.15 156.46 484.92 160.34 488.28 163.69 C 489.00 164.58 490.06 165.36 490.27 166.56 C 491.45 172.79 494.99 178.22 497.46 183.99 C 498.44 182.05 499.40 180.11 500.35 178.16 C 502.17 180.17 503.96 182.20 505.76 184.23 L 505.64 184.44 C 502.80 188.99 500.52 193.85 497.73 198.42 C 490.68 184.39 484.62 169.85 478.00 155.60 Z" />
<path fill="#262626" opacity="1.00" d=" M 471.57 174.25 C 472.94 170.17 474.29 166.09 475.65 162.01 C 477.25 167.25 479.80 172.12 482.01 177.12 C 486.34 186.75 490.83 196.32 495.03 206.02 C 491.76 206.82 488.45 207.43 485.12 207.93 C 485.58 207.42 486.04 206.91 486.52 206.40 C 481.42 195.82 477.01 184.92 471.68 174.45 L 471.57 174.25 Z" />
<path fill="#262626" opacity="1.00" d=" M 464.47 196.28 C 465.45 191.76 467.30 187.46 468.64 183.04 C 470.78 189.97 474.44 196.29 477.13 203.00 C 478.24 205.17 478.87 208.38 481.88 208.46 C 478.21 209.14 474.52 209.71 470.84 210.30 C 468.57 205.70 466.34 201.05 464.47 196.28 Z" />
<path fill="#262626" opacity="1.00" d=" M 501.89 205.00 C 503.93 200.77 505.97 196.50 508.89 192.79 C 509.14 196.69 507.59 200.34 506.74 204.08 C 505.13 204.45 503.51 204.75 501.89 205.00 Z" />
<path fill="#262626" opacity="1.00" d=" M 277.45 255.43 C 288.20 237.64 304.47 222.90 323.76 214.98 C 324.55 216.74 325.33 218.51 326.16 220.26 C 326.85 221.73 327.54 223.19 328.22 224.67 C 329.04 226.67 330.08 228.57 331.08 230.49 C 331.45 231.39 331.76 232.31 332.08 233.23 C 332.77 233.23 334.15 233.23 334.84 233.23 C 334.14 233.74 333.45 234.27 332.77 234.80 C 333.91 237.18 334.95 239.61 336.05 242.02 C 327.46 246.31 319.20 251.50 312.65 258.62 C 300.28 271.45 293.28 289.19 293.24 306.99 C 293.16 320.34 296.94 333.70 304.06 345.00 C 314.19 361.27 331.24 373.07 350.07 376.70 C 365.11 379.75 381.01 377.63 394.89 371.13 C 399.11 379.97 403.29 388.87 407.07 397.91 L 406.76 398.68 C 388.32 407.48 367.09 410.18 346.98 406.75 C 324.58 403.06 303.63 391.39 288.62 374.37 C 275.34 359.58 266.70 340.75 264.05 321.06 C 260.99 298.50 265.65 274.94 277.45 255.43 Z" />
<path fill="#262626" opacity="1.00" d=" M 0.00 337.42 C 2.05 352.63 3.61 367.94 6.99 382.95 C 14.04 416.79 26.13 449.52 42.42 480.00 L 1.58 480.00 C 2.35 478.73 1.02 477.59 0.00 477.07 L 0.00 337.42 Z" />
</g>
<g id="#000000ff">
<path fill="#000000" opacity="1.00" d=" M 36.18 0.00 L 105.75 0.00 C 98.34 6.83 90.68 13.39 83.51 20.49 C 51.28 52.00 24.36 88.96 4.35 129.36 C 3.01 132.24 1.50 135.02 0.00 137.81 L 0.00 43.55 C 11.28 28.41 23.12 13.65 36.18 0.00 Z" />
<path fill="#000000" opacity="1.00" d=" M 166.81 0.00 L 229.87 0.00 C 235.83 2.80 242.36 3.99 248.52 6.26 C 250.37 12.27 252.18 18.30 254.19 24.26 C 257.87 19.14 261.44 13.94 265.09 8.80 C 271.40 8.72 277.71 8.82 284.02 8.75 C 281.85 5.82 279.76 2.82 277.46 0.00 L 287.38 0.00 C 291.01 4.78 294.71 9.51 298.12 14.45 C 288.47 14.72 278.81 14.19 269.18 14.34 C 262.88 21.91 258.09 30.68 251.76 38.24 C 248.86 28.88 246.09 19.47 242.86 10.23 C 238.04 8.81 233.27 7.25 228.44 5.89 C 228.68 6.50 229.16 7.71 229.40 8.32 C 226.73 10.09 223.82 11.44 220.92 12.76 C 181.00 32.06 145.22 59.75 116.23 93.27 C 79.63 135.48 54.07 187.21 43.12 242.01 C 28.24 315.03 38.96 393.11 73.80 459.06 C 77.50 466.19 81.50 473.16 85.70 480.00 L 42.42 480.00 C 26.13 449.52 14.04 416.79 6.99 382.95 C 3.61 367.94 2.05 352.63 0.00 337.42 L 0.00 275.70 C 1.25 270.50 1.46 265.15 2.19 259.88 C 8.06 214.40 22.66 170.07 45.01 130.03 C 65.01 94.00 91.27 61.51 122.07 34.15 C 136.05 21.60 151.28 10.54 166.81 0.00 Z" />
<path fill="#000000" opacity="1.00" d=" M 244.02 0.00 L 272.28 0.00 C 273.32 1.36 274.28 2.78 275.26 4.18 C 271.22 4.24 267.17 4.25 263.13 4.20 C 260.54 7.48 258.41 11.11 255.64 14.26 C 254.39 10.32 253.25 6.35 251.79 2.49 C 249.18 1.73 246.60 0.85 244.02 0.00 Z" />
<path fill="#000000" opacity="1.00" d=" M 297.71 0.00 L 309.02 0.00 C 315.85 8.95 322.64 17.93 329.35 26.98 C 312.00 26.79 294.64 26.65 277.29 26.44 C 269.08 37.76 260.98 49.19 253.21 60.82 C 254.07 62.56 254.92 64.30 255.75 66.06 C 264.05 54.55 272.03 42.82 280.28 31.28 C 300.62 31.23 320.96 31.75 341.30 31.76 C 333.45 21.10 325.53 10.48 317.45 0.00 L 334.16 0.00 C 343.15 5.88 352.26 11.59 361.26 17.46 C 375.37 11.89 389.21 5.65 403.29 0.00 L 408.78 0.00 C 404.55 15.95 400.23 31.89 396.33 47.93 C 407.72 60.90 418.94 74.02 430.20 87.10 C 412.95 88.32 395.62 88.86 378.41 90.34 C 369.10 104.83 360.53 119.83 351.44 134.47 C 344.73 118.63 338.74 102.46 332.51 86.42 C 315.69 82.03 298.65 78.52 281.78 74.28 C 294.61 63.56 307.64 53.07 320.54 42.44 C 321.88 41.61 321.87 39.99 322.07 38.62 C 320.34 38.56 318.61 38.46 316.89 38.42 C 315.82 39.51 314.75 40.60 313.61 41.63 C 298.94 53.78 284.05 65.68 269.47 77.95 C 288.96 82.70 308.53 87.10 328.03 91.77 C 335.43 110.43 342.54 129.21 350.04 147.83 C 360.56 130.74 370.89 113.52 381.27 96.34 C 401.32 95.18 421.37 93.97 441.42 92.86 C 428.76 77.75 415.65 63.01 402.88 48.01 C 401.88 47.10 402.48 45.80 402.69 44.71 C 406.71 29.83 410.45 14.87 414.48 0.00 L 421.30 0.00 C 421.15 0.49 420.86 1.48 420.71 1.97 C 421.39 4.57 423.41 1.12 423.78 0.00 L 436.11 0.00 C 429.67 7.62 423.40 15.39 416.96 23.00 C 413.28 26.97 412.84 32.67 411.79 37.73 C 432.87 38.28 453.93 39.28 475.00 40.07 C 487.65 59.67 499.83 79.58 512.58 99.12 C 520.62 77.29 528.63 55.45 536.69 33.62 C 559.15 27.62 581.76 22.14 604.25 16.22 C 597.82 10.45 590.71 5.48 584.03 0.00 L 596.41 0.00 C 606.03 7.49 615.63 15.01 625.14 22.64 C 614.62 25.37 604.03 27.82 593.59 30.82 C 594.81 33.97 596.01 37.13 597.18 40.29 C 611.52 36.99 625.72 33.05 640.00 29.51 L 640.00 42.61 C 636.09 43.67 632.14 44.52 628.28 45.72 C 621.43 47.06 614.73 48.99 607.98 50.70 C 605.96 51.21 603.97 51.80 601.98 52.36 L 602.20 52.88 C 602.98 54.94 603.67 57.03 604.53 59.07 C 605.19 60.69 605.89 62.30 606.51 63.95 C 610.39 74.70 614.60 85.34 618.75 95.99 C 621.66 103.03 624.35 110.17 627.04 117.30 C 627.67 120.62 631.43 120.41 634.03 121.12 C 636.03 121.52 638.02 121.95 640.00 122.47 L 640.00 129.96 C 633.84 128.32 627.60 127.01 621.42 125.48 C 611.40 100.10 601.79 74.54 591.80 49.14 C 577.44 72.34 563.40 95.75 549.04 118.94 C 521.92 120.47 494.80 121.89 467.68 123.41 C 484.91 144.53 503.17 164.80 520.65 185.72 C 519.13 191.31 517.58 196.90 516.18 202.53 C 518.64 202.15 521.16 201.93 523.58 201.26 C 526.02 195.12 527.17 188.48 528.97 182.11 C 513.78 164.22 498.37 146.50 483.25 128.55 C 506.67 127.04 530.13 125.97 553.57 124.62 C 565.94 104.60 577.91 84.34 590.51 64.47 C 599.03 86.37 607.37 108.35 615.97 130.22 C 623.97 132.20 632.02 133.96 640.00 136.01 L 640.00 142.59 C 630.42 140.15 620.73 138.10 611.16 135.62 C 609.80 135.45 609.51 133.99 609.02 132.97 C 602.37 115.65 595.73 98.32 588.93 81.05 C 578.67 97.51 568.66 114.13 558.56 130.69 C 539.17 131.99 519.74 132.72 500.35 134.03 C 512.80 148.89 525.55 163.49 538.11 178.25 C 536.42 185.49 534.25 192.60 532.51 199.82 C 534.47 199.44 536.46 199.12 538.43 198.73 C 540.36 191.05 542.48 183.43 544.49 175.77 C 533.82 163.05 522.85 150.58 512.19 137.86 C 528.73 136.68 545.31 136.09 561.86 134.99 C 570.52 120.93 579.06 106.79 587.71 92.71 C 594.38 107.90 599.66 123.70 606.02 139.03 C 617.34 141.76 628.70 144.34 640.00 147.18 L 640.00 151.89 C 627.20 148.73 614.31 145.91 601.55 142.61 C 596.59 129.95 592.06 117.11 586.67 104.63 C 580.24 115.20 573.71 125.73 567.34 136.34 C 566.39 137.75 565.53 139.78 563.49 139.58 C 550.56 140.41 537.60 140.81 524.68 141.82 C 533.07 152.53 542.63 162.32 550.91 173.09 C 549.15 181.38 546.50 189.47 544.57 197.72 C 546.54 197.39 548.53 197.05 550.51 196.73 C 552.77 187.84 555.30 179.03 557.48 170.12 C 550.42 162.02 543.42 153.86 536.50 145.65 C 547.24 144.88 558.02 144.48 568.78 143.80 C 574.51 134.61 580.01 125.29 585.77 116.12 C 589.79 126.18 593.51 136.36 597.58 146.41 C 608.06 148.91 618.56 151.35 629.02 153.94 C 620.73 160.81 612.36 167.58 603.97 174.32 C 604.13 178.71 604.54 183.10 604.94 187.48 C 606.71 187.21 608.47 186.96 610.25 186.70 C 610.12 183.85 609.97 181.00 609.77 178.16 C 619.86 169.98 629.93 161.79 640.00 153.58 L 640.00 162.36 C 632.03 169.01 623.73 175.29 615.94 182.12 C 615.92 182.99 615.88 184.72 615.86 185.59 C 618.96 185.04 622.51 185.23 625.01 182.98 C 629.98 178.85 635.08 174.86 640.00 170.68 L 640.00 480.00 L 249.34 480.00 C 212.80 455.83 184.32 419.75 169.32 378.59 C 155.13 339.90 152.94 296.95 162.92 256.98 C 171.06 224.11 187.54 193.38 210.26 168.29 C 229.56 147.07 253.18 129.63 279.50 118.13 C 281.24 122.13 283.12 126.07 285.10 129.95 C 286.67 133.56 288.30 137.15 289.89 140.75 C 291.03 143.46 292.25 146.14 293.51 148.80 C 294.13 150.13 294.73 151.49 295.38 152.82 C 268.69 164.60 245.28 183.54 227.95 206.99 C 209.47 231.93 198.07 262.08 195.60 293.03 C 192.50 328.55 201.00 364.98 219.66 395.37 C 239.49 428.00 270.71 453.53 306.67 466.39 C 348.20 481.36 395.82 479.51 435.67 460.30 C 431.78 451.83 428.21 443.20 423.91 434.93 C 405.76 443.10 386.03 448.01 366.07 448.02 C 345.29 448.48 324.45 444.11 305.56 435.47 C 278.45 423.16 255.49 401.97 241.02 375.95 C 226.95 350.93 221.00 321.51 223.95 292.97 C 226.82 263.53 239.44 235.20 259.23 213.24 C 272.36 198.57 288.63 186.77 306.58 178.71 C 305.40 169.68 305.81 160.54 305.24 151.47 C 305.18 148.37 305.25 145.27 305.18 142.17 C 305.09 139.12 304.99 136.07 304.94 133.02 C 304.66 123.73 304.58 114.43 304.45 105.13 C 305.25 105.71 306.85 106.87 307.65 107.46 C 311.72 110.70 315.92 113.78 320.24 116.70 C 324.67 119.97 329.04 123.34 333.60 126.45 C 332.82 124.38 332.02 122.33 331.24 120.27 C 328.52 112.96 325.83 105.62 322.73 98.45 C 313.30 96.25 303.91 93.92 294.44 91.91 C 291.30 91.24 288.20 90.41 285.08 89.67 C 279.36 88.17 273.58 86.88 267.80 85.62 C 266.90 85.43 266.01 85.23 265.12 85.03 C 265.15 85.47 265.22 86.35 265.25 86.79 C 245.58 95.96 226.86 107.26 210.19 121.19 C 178.33 147.47 153.37 182.07 138.58 220.64 C 123.88 258.72 119.27 300.56 124.90 340.97 C 132.02 393.42 157.30 443.10 195.21 480.00 L 136.57 480.00 C 117.73 454.92 102.72 426.91 92.97 397.07 C 69.14 325.60 75.07 244.65 109.68 177.66 C 138.90 119.99 188.45 72.79 247.63 46.71 C 248.24 48.80 248.92 50.87 249.64 52.93 C 257.57 42.06 265.07 30.88 272.94 19.97 C 286.31 20.49 299.68 20.08 313.05 20.51 C 308.04 13.60 302.89 6.78 297.71 0.00 M 361.03 23.32 C 352.40 18.01 344.11 12.10 335.28 7.13 C 337.59 10.26 339.49 13.97 342.97 15.99 C 348.95 19.76 354.86 23.65 360.86 27.39 C 372.15 22.67 383.43 17.91 394.71 13.17 C 391.70 25.05 388.50 36.87 385.45 48.74 C 393.37 58.08 401.55 67.21 409.38 76.64 C 397.19 77.35 384.99 78.02 372.81 78.79 C 366.33 89.18 360.19 99.79 353.67 110.17 C 349.25 99.23 345.06 88.19 340.76 77.21 C 340.46 75.77 338.86 75.70 337.73 75.36 C 326.68 72.80 315.63 70.22 304.59 67.59 C 313.67 59.68 323.26 52.35 332.43 44.54 C 333.46 42.80 332.35 40.40 332.37 38.41 C 330.92 38.47 329.47 38.53 328.02 38.60 C 328.15 40.06 328.29 41.53 328.43 43.00 C 318.11 51.46 307.81 59.93 297.46 68.36 C 296.52 68.90 294.97 70.63 297.07 70.79 C 310.35 73.90 323.63 77.05 336.92 80.12 C 342.34 93.41 347.31 106.87 352.70 120.17 C 360.45 108.07 367.32 95.37 375.32 83.47 C 389.52 82.45 403.77 81.86 417.98 80.88 C 408.87 70.36 399.79 59.82 390.70 49.29 C 390.53 48.97 390.19 48.32 390.03 47.99 C 393.43 34.22 397.20 20.54 400.72 6.80 C 387.41 12.11 374.31 17.94 361.03 23.32 M 360.74 32.65 C 356.66 31.00 353.30 27.73 349.23 25.89 C 352.62 30.04 355.08 35.28 360.08 37.78 C 366.55 35.31 372.81 32.33 379.28 29.87 C 377.66 36.56 375.78 43.17 374.12 49.84 C 378.45 55.19 383.35 60.09 387.43 65.64 C 380.62 66.03 373.81 66.36 367.00 66.81 C 363.19 72.53 360.17 78.78 356.05 84.29 C 353.50 77.99 351.11 71.63 348.60 65.31 C 341.95 63.56 335.20 62.22 328.54 60.50 C 333.61 55.81 339.25 51.78 344.42 47.20 C 344.18 44.41 343.95 41.63 343.78 38.83 C 342.00 38.54 340.19 38.44 338.39 38.42 C 338.54 40.87 338.74 43.31 338.97 45.76 C 331.70 51.85 324.26 57.76 316.98 63.84 C 326.18 66.05 335.40 68.20 344.62 70.34 C 347.92 78.82 351.22 87.29 354.54 95.76 C 354.78 95.79 355.26 95.85 355.51 95.88 C 360.37 88.19 364.89 80.28 369.73 72.58 C 379.14 71.88 388.56 71.40 397.98 70.89 C 391.99 63.53 385.53 56.56 379.50 49.23 C 381.93 40.15 384.26 31.03 386.67 21.94 C 377.95 25.33 369.46 29.29 360.74 32.65 M 543.22 43.50 C 534.43 66.78 525.95 90.18 517.38 113.54 C 520.52 113.38 523.67 113.19 526.81 112.94 C 534.14 92.87 541.50 72.82 548.95 52.80 C 561.12 49.63 573.31 46.54 585.50 43.45 C 588.20 39.29 590.71 34.99 593.32 30.76 C 576.61 34.96 559.94 39.33 543.22 43.50 M 284.98 37.96 C 284.04 39.26 283.12 40.57 282.25 41.91 C 280.84 44.06 279.33 46.14 277.82 48.22 C 275.75 50.84 273.91 53.64 272.10 56.44 C 270.85 58.15 269.66 59.89 268.51 61.66 C 265.94 64.36 263.98 67.94 261.90 71.15 C 261.02 72.06 260.33 73.12 259.58 74.14 C 259.85 74.83 260.38 76.23 260.64 76.92 C 263.41 74.91 266.04 72.72 268.64 70.49 C 275.87 65.08 282.77 59.09 289.77 53.32 C 291.91 51.45 294.11 49.64 296.35 47.88 C 298.50 46.30 300.56 44.62 302.58 42.88 L 302.56 42.65 C 303.91 41.61 305.26 40.57 306.60 39.50 L 306.92 39.57 C 307.24 39.18 307.88 38.41 308.21 38.02 C 300.46 37.96 292.72 38.42 284.98 37.96 M 359.93 42.56 C 356.64 40.26 353.19 37.83 348.93 38.74 C 349.14 42.05 349.41 45.36 349.72 48.67 C 346.62 51.74 342.28 53.73 339.96 57.46 C 344.14 58.40 348.33 59.29 352.46 60.43 C 354.00 64.53 355.60 68.60 357.23 72.67 C 359.83 69.04 361.91 65.08 364.31 61.32 C 368.54 61.05 372.78 60.85 377.02 60.63 C 376.07 57.70 373.38 55.86 371.57 53.49 C 370.70 52.16 368.67 51.03 369.23 49.20 C 370.14 45.25 371.34 41.37 372.25 37.42 C 368.12 39.06 364.03 40.84 359.93 42.56 M 411.74 49.30 C 414.64 52.74 417.51 56.21 420.55 59.53 C 421.61 60.82 423.48 60.35 424.94 60.54 C 436.96 60.91 448.98 61.41 461.00 61.89 C 463.30 61.77 463.83 64.52 465.01 65.97 C 475.37 82.23 485.45 98.68 496.06 114.77 C 500.03 114.41 504.02 114.33 508.00 113.96 C 494.80 93.15 481.70 72.28 468.43 51.52 C 449.53 50.69 430.63 50.05 411.74 49.30 M 570.72 60.33 C 567.55 60.91 564.43 61.70 561.37 62.71 C 559.59 63.17 557.82 63.63 556.05 64.11 C 555.35 65.90 554.70 67.71 554.15 69.55 C 552.03 74.17 550.51 79.04 548.68 83.78 C 547.34 87.56 545.60 91.23 545.00 95.23 C 542.12 100.62 540.51 106.64 538.42 112.39 C 540.17 112.13 541.94 111.84 543.69 111.51 C 545.37 108.05 547.57 104.89 549.73 101.73 C 555.13 93.52 559.90 84.93 565.29 76.73 C 567.74 72.69 570.25 68.69 572.68 64.64 C 573.73 62.69 574.86 60.78 576.03 58.90 C 574.25 59.38 572.48 59.85 570.72 60.33 M 433.01 74.06 C 435.74 77.14 438.15 80.56 441.38 83.17 L 441.43 83.65 C 444.08 86.69 446.59 89.85 449.42 92.73 C 450.96 95.25 453.19 97.29 454.95 99.68 C 453.51 99.81 452.07 99.93 450.64 100.03 C 450.04 100.09 448.86 100.21 448.27 100.27 C 440.35 100.21 432.45 101.23 424.54 101.55 C 421.10 101.79 417.65 101.94 414.22 102.23 C 407.46 101.97 400.74 103.29 393.97 103.17 C 390.10 103.60 384.64 102.37 382.92 106.94 L 383.10 107.31 C 380.37 111.33 377.90 115.53 375.56 119.78 C 373.73 121.59 372.72 124.03 371.31 126.15 L 371.38 126.37 C 369.86 128.83 368.41 131.33 366.95 133.82 C 364.30 137.79 361.74 141.82 359.35 145.94 C 362.97 148.36 366.29 151.28 370.22 153.20 L 370.29 153.73 C 372.46 155.25 374.58 156.85 376.65 158.50 C 380.40 161.13 383.83 164.33 387.90 166.45 C 391.02 165.69 394.00 164.46 397.01 163.34 C 401.45 161.83 405.81 160.09 410.35 158.85 C 417.56 156.29 424.86 153.95 432.03 151.26 C 435.62 150.03 439.18 148.71 442.78 147.52 C 447.91 146.08 452.93 144.10 457.97 142.33 C 460.98 141.30 463.95 140.17 466.95 139.15 C 466.49 138.71 465.57 137.84 465.10 137.40 C 463.23 134.26 460.64 131.66 458.19 128.99 C 457.18 127.86 456.19 126.71 455.23 125.55 C 454.26 124.34 453.28 123.15 452.30 121.97 C 451.24 120.82 450.13 119.74 448.95 118.73 C 449.61 117.87 450.55 117.33 451.43 116.73 C 452.92 116.87 454.41 116.93 455.92 116.89 C 459.17 116.75 462.45 116.79 465.66 116.21 C 468.17 116.19 470.67 116.02 473.18 115.83 C 475.74 115.80 478.31 115.77 480.88 115.67 C 479.14 112.51 477.38 109.32 474.95 106.64 C 473.09 102.72 470.46 99.21 468.12 95.57 C 466.24 91.74 463.82 88.17 461.20 84.80 C 459.61 81.49 457.34 78.55 455.47 75.40 L 455.49 74.84 C 448.02 74.13 440.51 73.75 433.01 74.06 M 313.78 123.25 C 314.09 146.16 314.55 169.06 314.98 191.97 C 315.02 193.76 314.81 195.67 315.65 197.33 C 317.95 202.33 320.18 207.35 322.57 212.30 C 322.21 187.49 321.90 162.67 321.19 137.86 C 329.24 143.36 336.80 149.54 344.86 155.03 C 342.34 150.04 342.10 143.19 336.85 140.13 C 329.11 134.57 321.59 128.71 313.78 123.25 M 584.50 128.20 C 580.27 134.77 576.71 141.94 571.97 148.10 C 564.30 148.95 556.54 148.90 548.84 149.55 C 553.69 155.66 558.93 161.46 564.01 167.39 C 562.25 175.09 559.94 182.65 558.08 190.32 C 565.41 187.48 572.60 184.27 579.91 181.37 C 583.50 183.63 587.05 185.97 590.61 188.29 C 593.04 190.33 596.71 189.28 599.24 188.10 C 599.07 182.35 598.14 176.65 598.03 170.91 C 603.54 165.28 610.41 161.02 616.13 155.54 C 608.47 153.64 600.74 152.05 593.14 149.95 C 590.27 142.70 587.88 135.23 584.50 128.20 M 384.95 175.69 C 374.94 168.31 364.97 160.85 354.90 153.54 C 353.58 155.59 352.31 157.68 351.11 159.79 C 360.87 167.04 370.69 174.20 380.42 181.49 C 381.47 182.03 382.54 183.49 383.86 182.84 C 407.57 174.69 431.28 166.49 455.00 158.32 C 448.78 177.66 442.13 196.85 435.84 216.16 C 439.33 215.66 442.82 215.09 446.27 214.38 C 453.71 191.90 461.27 169.46 468.70 146.98 C 440.71 156.31 412.90 166.22 384.95 175.69 M 478.00 155.60 C 477.22 157.74 476.46 159.88 475.65 162.01 C 474.29 166.09 472.94 170.17 471.57 174.25 L 471.68 174.45 C 470.67 177.32 469.74 180.21 468.64 183.04 C 467.30 187.46 465.45 191.76 464.47 196.28 C 466.34 201.05 468.57 205.70 470.84 210.30 C 474.52 209.71 478.21 209.14 481.88 208.46 C 482.69 208.33 484.31 208.06 485.12 207.93 C 488.45 207.43 491.76 206.82 495.03 206.02 C 497.32 205.70 499.60 205.35 501.89 205.00 C 503.51 204.75 505.13 204.45 506.74 204.08 C 507.59 200.34 509.14 196.69 508.89 192.79 C 509.70 191.83 509.68 190.51 509.97 189.35 C 508.51 187.72 507.08 186.07 505.64 184.44 L 505.76 184.23 C 503.96 182.20 502.17 180.17 500.35 178.16 C 496.92 174.35 493.72 170.35 490.27 166.56 C 490.06 165.36 489.00 164.58 488.28 163.69 C 484.92 160.34 482.15 156.46 478.83 153.07 C 478.62 153.71 478.21 154.97 478.00 155.60 M 329.69 153.99 C 329.94 174.92 330.28 195.85 330.81 216.77 C 329.28 217.97 327.74 219.14 326.16 220.26 C 325.33 218.51 324.55 216.74 323.76 214.98 C 304.47 222.90 288.20 237.64 277.45 255.43 C 265.65 274.94 260.99 298.50 264.05 321.06 C 266.70 340.75 275.34 359.58 288.62 374.37 C 303.63 391.39 324.58 403.06 346.98 406.75 C 367.09 410.18 388.32 407.48 406.76 398.68 L 407.07 397.91 C 403.29 388.87 399.11 379.97 394.89 371.13 C 381.01 377.63 365.11 379.75 350.07 376.70 C 331.24 373.07 314.19 361.27 304.06 345.00 C 296.94 333.70 293.16 320.34 293.24 306.99 C 293.28 289.19 300.28 271.45 312.65 258.62 C 319.20 251.50 327.46 246.31 336.05 242.02 C 334.95 239.61 333.91 237.18 332.77 234.80 C 333.45 234.27 334.14 233.74 334.84 233.23 C 336.56 233.25 338.31 232.81 339.68 231.72 C 343.29 229.15 346.88 226.53 350.48 223.93 C 350.56 213.79 350.15 203.66 350.00 193.52 C 358.35 199.38 366.35 205.74 374.72 211.57 C 384.18 208.15 393.71 204.95 403.22 201.69 C 401.03 208.81 398.50 215.82 396.25 222.92 C 399.46 222.41 402.68 221.88 405.89 221.28 C 409.20 211.21 412.65 201.18 415.90 191.08 C 402.87 195.59 389.81 199.99 376.83 204.61 C 365.32 196.69 354.32 188.03 342.97 179.88 C 343.27 193.80 343.67 207.72 343.67 221.64 C 339.43 224.53 335.34 227.63 331.08 230.49 C 330.08 228.57 329.04 226.67 328.22 224.67 C 330.89 222.81 333.53 220.90 336.19 219.03 C 335.98 201.01 335.84 182.97 335.15 164.96 C 349.87 175.47 364.23 186.48 378.91 197.06 C 395.80 191.08 412.77 185.34 429.70 179.48 C 425.45 192.87 420.81 206.12 416.48 219.48 C 419.07 218.82 422.21 219.15 424.44 217.64 C 429.77 202.10 434.87 186.46 440.08 170.87 C 420.28 177.63 400.46 184.36 380.75 191.39 C 363.51 179.24 346.81 166.31 329.69 153.99 M 570.35 193.14 C 574.34 192.83 578.30 192.17 582.20 191.25 C 581.13 190.68 580.28 189.48 579.03 189.39 C 576.00 190.28 573.11 191.62 570.35 193.14 M 356.76 206.68 C 357.03 213.15 356.91 219.63 357.14 226.10 C 355.09 227.59 353.06 229.09 351.04 230.59 C 362.98 228.63 374.89 226.50 386.84 224.58 C 388.45 220.40 389.77 216.11 391.13 211.84 C 385.82 213.61 380.54 215.46 375.26 217.31 C 374.06 217.61 372.56 218.49 371.49 217.40 C 366.56 213.86 361.82 210.04 356.76 206.68 Z" />
<path fill="#000000" opacity="1.00" d=" M 342.82 0.00 L 353.38 0.00 C 356.24 1.87 359.07 3.80 362.01 5.56 C 363.19 5.09 364.37 4.63 365.56 4.16 C 368.61 2.95 371.52 1.40 374.49 0.00 L 390.13 0.00 C 380.86 4.38 371.26 8.01 361.88 12.13 C 355.43 8.24 349.18 4.03 342.82 0.00 Z" />
<path fill="#000000" opacity="1.00" d=" M 444.61 0.00 L 456.10 0.00 C 450.52 6.45 445.13 13.06 439.76 19.67 C 455.05 20.42 470.36 20.84 485.65 21.52 C 494.11 34.35 501.88 47.62 510.53 60.31 C 515.83 45.99 521.09 31.64 526.35 17.30 C 541.20 13.28 556.16 9.73 571.02 5.76 C 568.65 3.79 566.23 1.87 563.78 0.00 L 575.36 0.00 C 580.39 3.85 585.33 7.82 590.29 11.76 C 570.99 16.72 551.68 21.61 532.38 26.57 C 525.30 45.21 518.76 64.05 511.55 82.64 C 501.31 66.47 491.05 50.32 480.86 34.12 C 480.20 33.21 479.53 31.92 478.18 32.11 C 458.73 31.39 439.27 30.50 419.81 29.93 C 427.99 19.89 436.30 9.94 444.61 0.00 Z" />
<path fill="#000000" opacity="1.00" d=" M 466.40 0.00 L 475.97 0.00 C 475.78 0.43 475.40 1.29 475.21 1.72 C 482.33 2.05 489.46 2.22 496.59 2.58 C 500.70 8.49 503.98 14.97 508.45 20.63 C 511.16 13.79 513.19 6.65 516.37 0.00 L 553.95 0.00 C 543.52 3.44 532.67 5.46 522.13 8.51 C 520.81 8.65 520.59 10.05 520.14 11.03 C 516.57 20.78 513.11 30.59 509.32 40.26 C 503.13 30.85 497.33 21.18 491.13 11.78 C 480.00 11.50 468.88 10.99 457.76 10.56 C 460.49 6.92 463.41 3.42 466.40 0.00 Z" />
<path fill="#000000" opacity="1.00" d=" M 607.88 0.00 L 634.55 0.00 C 632.31 1.51 630.20 3.19 628.06 4.84 C 630.26 6.72 632.52 8.55 634.87 10.26 C 636.61 11.55 638.35 12.85 640.00 14.28 L 640.00 25.32 C 629.35 16.81 618.60 8.43 607.88 0.00 Z" />
<path fill="#000000" opacity="1.00" d=" M 231.57 12.92 C 233.51 13.47 235.45 14.05 237.39 14.63 C 240.60 24.28 243.43 34.05 246.67 43.69 C 245.18 43.50 244.79 41.97 244.20 40.88 C 240.07 31.53 235.68 22.29 231.57 12.92 Z" />
<path fill="#000000" opacity="1.00" d=" M 583.58 138.94 C 585.91 143.90 587.22 149.36 589.84 154.15 C 594.89 155.63 600.10 156.55 605.17 157.95 C 601.41 161.75 596.98 164.82 592.87 168.24 C 593.02 173.71 593.73 179.14 594.04 184.60 C 589.31 181.82 584.89 178.56 580.16 175.81 C 575.18 177.94 570.20 180.04 565.18 182.05 C 566.50 176.71 568.17 171.46 569.28 166.07 C 565.88 161.99 562.06 158.23 559.09 153.82 C 564.37 153.47 569.66 153.11 574.95 152.96 C 577.93 148.35 580.67 143.59 583.58 138.94 Z" />
<path fill="#000000" opacity="1.00" d=" M 0.00 477.07 C 1.02 477.59 2.35 478.73 1.58 480.00 L 0.00 480.00 L 0.00 477.07 Z" />
</g>
<g id="#4b4b4bff">
<path fill="#4b4b4b" opacity="1.00" d=" M 229.87 0.00 L 244.02 0.00 C 246.60 0.85 249.18 1.73 251.79 2.49 C 253.25 6.35 254.39 10.32 255.64 14.26 C 258.41 11.11 260.54 7.48 263.13 4.20 C 267.17 4.25 271.22 4.24 275.26 4.18 C 274.28 2.78 273.32 1.36 272.28 0.00 L 277.46 0.00 C 279.76 2.82 281.85 5.82 284.02 8.75 C 277.71 8.82 271.40 8.72 265.09 8.80 C 261.44 13.94 257.87 19.14 254.19 24.26 C 252.18 18.30 250.37 12.27 248.52 6.26 C 242.36 3.99 235.83 2.80 229.87 0.00 Z" />
<path fill="#4b4b4b" opacity="1.00" d=" M 287.38 0.00 L 297.71 0.00 C 302.89 6.78 308.04 13.60 313.05 20.51 C 299.68 20.08 286.31 20.49 272.94 19.97 C 265.07 30.88 257.57 42.06 249.64 52.93 C 248.92 50.87 248.24 48.80 247.63 46.71 C 247.31 45.70 246.99 44.69 246.67 43.69 C 243.43 34.05 240.60 24.28 237.39 14.63 C 235.45 14.05 233.51 13.47 231.57 12.92 C 230.87 11.37 230.07 9.88 229.40 8.32 C 229.16 7.71 228.68 6.50 228.44 5.89 C 233.27 7.25 238.04 8.81 242.86 10.23 C 246.09 19.47 248.86 28.88 251.76 38.24 C 258.09 30.68 262.88 21.91 269.18 14.34 C 278.81 14.19 288.47 14.72 298.12 14.45 C 294.71 9.51 291.01 4.78 287.38 0.00 Z" />
<path fill="#4b4b4b" opacity="1.00" d=" M 309.02 0.00 L 317.45 0.00 C 325.53 10.48 333.45 21.10 341.30 31.76 C 320.96 31.75 300.62 31.23 280.28 31.28 C 272.03 42.82 264.05 54.55 255.75 66.06 C 254.92 64.30 254.07 62.56 253.21 60.82 C 260.98 49.19 269.08 37.76 277.29 26.44 C 294.64 26.65 312.00 26.79 329.35 26.98 C 322.64 17.93 315.85 8.95 309.02 0.00 Z" />
<path fill="#4b4b4b" opacity="1.00" d=" M 334.16 0.00 L 342.82 0.00 C 349.18 4.03 355.43 8.24 361.88 12.13 C 371.26 8.01 380.86 4.38 390.13 0.00 L 403.29 0.00 C 389.21 5.65 375.37 11.89 361.26 17.46 C 352.26 11.59 343.15 5.88 334.16 0.00 Z" />
<path fill="#4b4b4b" opacity="1.00" d=" M 362.95 0.00 L 374.49 0.00 C 371.52 1.40 368.61 2.95 365.56 4.16 C 364.70 2.77 363.87 1.36 362.95 0.00 Z" />
<path fill="#4b4b4b" opacity="1.00" d=" M 408.78 0.00 L 414.48 0.00 C 410.45 14.87 406.71 29.83 402.69 44.71 C 402.48 45.80 401.88 47.10 402.88 48.01 C 415.65 63.01 428.76 77.75 441.42 92.86 C 421.37 93.97 401.32 95.18 381.27 96.34 C 370.89 113.52 360.56 130.74 350.04 147.83 C 342.54 129.21 335.43 110.43 328.03 91.77 C 308.53 87.10 288.96 82.70 269.47 77.95 C 284.05 65.68 298.94 53.78 313.61 41.63 C 314.75 40.60 315.82 39.51 316.89 38.42 C 318.61 38.46 320.34 38.56 322.07 38.62 C 321.87 39.99 321.88 41.61 320.54 42.44 C 307.64 53.07 294.61 63.56 281.78 74.28 C 298.65 78.52 315.69 82.03 332.51 86.42 C 338.74 102.46 344.73 118.63 351.44 134.47 C 360.53 119.83 369.10 104.83 378.41 90.34 C 395.62 88.86 412.95 88.32 430.20 87.10 C 418.94 74.02 407.72 60.90 396.33 47.93 C 400.23 31.89 404.55 15.95 408.78 0.00 Z" />
<path fill="#4b4b4b" opacity="1.00" d=" M 436.11 0.00 L 444.61 0.00 C 436.30 9.94 427.99 19.89 419.81 29.93 C 439.27 30.50 458.73 31.39 478.18 32.11 C 479.53 31.92 480.20 33.21 480.86 34.12 C 491.05 50.32 501.31 66.47 511.55 82.64 C 518.76 64.05 525.30 45.21 532.38 26.57 C 551.68 21.61 570.99 16.72 590.29 11.76 C 585.33 7.82 580.39 3.85 575.36 0.00 L 584.03 0.00 C 590.71 5.48 597.82 10.45 604.25 16.22 C 581.76 22.14 559.15 27.62 536.69 33.62 C 528.63 55.45 520.62 77.29 512.58 99.12 C 499.83 79.58 487.65 59.67 475.00 40.07 C 453.93 39.28 432.87 38.28 411.79 37.73 C 412.84 32.67 413.28 26.97 416.96 23.00 C 423.40 15.39 429.67 7.62 436.11 0.00 Z" />
<path fill="#4b4b4b" opacity="1.00" d=" M 456.10 0.00 L 466.40 0.00 C 463.41 3.42 460.49 6.92 457.76 10.56 C 468.88 10.99 480.00 11.50 491.13 11.78 C 497.33 21.18 503.13 30.85 509.32 40.26 C 513.11 30.59 516.57 20.78 520.14 11.03 C 520.59 10.05 520.81 8.65 522.13 8.51 C 532.67 5.46 543.52 3.44 553.95 0.00 L 563.78 0.00 C 566.23 1.87 568.65 3.79 571.02 5.76 C 556.16 9.73 541.20 13.28 526.35 17.30 C 521.09 31.64 515.83 45.99 510.53 60.31 C 501.88 47.62 494.11 34.35 485.65 21.52 C 470.36 20.84 455.05 20.42 439.76 19.67 C 445.13 13.06 450.52 6.45 456.10 0.00 Z" />
<path fill="#4b4b4b" opacity="1.00" d=" M 475.97 0.00 L 516.37 0.00 C 513.19 6.65 511.16 13.79 508.45 20.63 C 503.98 14.97 500.70 8.49 496.59 2.58 C 489.46 2.22 482.33 2.05 475.21 1.72 C 475.40 1.29 475.78 0.43 475.97 0.00 Z" />
<path fill="#4b4b4b" opacity="1.00" d=" M 596.41 0.00 L 607.88 0.00 C 618.60 8.43 629.35 16.81 640.00 25.32 L 640.00 29.51 C 625.72 33.05 611.52 36.99 597.18 40.29 C 596.01 37.13 594.81 33.97 593.59 30.82 C 604.03 27.82 614.62 25.37 625.14 22.64 C 615.63 15.01 606.03 7.49 596.41 0.00 Z" />
<path fill="#4b4b4b" opacity="1.00" d=" M 361.03 23.32 C 374.31 17.94 387.41 12.11 400.72 6.80 C 397.20 20.54 393.43 34.22 390.03 47.99 C 390.19 48.32 390.53 48.97 390.70 49.29 C 399.79 59.82 408.87 70.36 417.98 80.88 C 403.77 81.86 389.52 82.45 375.32 83.47 C 367.32 95.37 360.45 108.07 352.70 120.17 C 347.31 106.87 342.34 93.41 336.92 80.12 C 323.63 77.05 310.35 73.90 297.07 70.79 C 294.97 70.63 296.52 68.90 297.46 68.36 C 307.81 59.93 318.11 51.46 328.43 43.00 C 328.29 41.53 328.15 40.06 328.02 38.60 C 329.47 38.53 330.92 38.47 332.37 38.41 C 332.35 40.40 333.46 42.80 332.43 44.54 C 323.26 52.35 313.67 59.68 304.59 67.59 C 315.63 70.22 326.68 72.80 337.73 75.36 C 338.86 75.70 340.46 75.77 340.76 77.21 C 345.06 88.19 349.25 99.23 353.67 110.17 C 360.19 99.79 366.33 89.18 372.81 78.79 C 384.99 78.02 397.19 77.35 409.38 76.64 C 401.55 67.21 393.37 58.08 385.45 48.74 C 388.50 36.87 391.70 25.05 394.71 13.17 C 383.43 17.91 372.15 22.67 360.86 27.39 C 354.86 23.65 348.95 19.76 342.97 15.99 C 339.49 13.97 337.59 10.26 335.28 7.13 C 344.11 12.10 352.40 18.01 361.03 23.32 Z" />
<path fill="#4b4b4b" opacity="1.00" d=" M 634.87 10.26 C 636.59 9.15 638.33 8.04 640.00 6.84 L 640.00 14.28 C 638.35 12.85 636.61 11.55 634.87 10.26 Z" />
<path fill="#4b4b4b" opacity="1.00" d=" M 360.74 32.65 C 369.46 29.29 377.95 25.33 386.67 21.94 C 384.26 31.03 381.93 40.15 379.50 49.23 C 385.53 56.56 391.99 63.53 397.98 70.89 C 388.56 71.40 379.14 71.88 369.73 72.58 C 364.89 80.28 360.37 88.19 355.51 95.88 C 355.26 95.85 354.78 95.79 354.54 95.76 C 351.22 87.29 347.92 78.82 344.62 70.34 C 335.40 68.20 326.18 66.05 316.98 63.84 C 324.26 57.76 331.70 51.85 338.97 45.76 C 338.74 43.31 338.54 40.87 338.39 38.42 C 340.19 38.44 342.00 38.54 343.78 38.83 C 343.95 41.63 344.18 44.41 344.42 47.20 C 339.25 51.78 333.61 55.81 328.54 60.50 C 335.20 62.22 341.95 63.56 348.60 65.31 C 351.11 71.63 353.50 77.99 356.05 84.29 C 360.17 78.78 363.19 72.53 367.00 66.81 C 373.81 66.36 380.62 66.03 387.43 65.64 C 383.35 60.09 378.45 55.19 374.12 49.84 C 375.78 43.17 377.66 36.56 379.28 29.87 C 372.81 32.33 366.55 35.31 360.08 37.78 C 355.08 35.28 352.62 30.04 349.23 25.89 C 353.30 27.73 356.66 31.00 360.74 32.65 Z" />
<path fill="#4b4b4b" opacity="1.00" d=" M 543.22 43.50 C 559.94 39.33 576.61 34.96 593.32 30.76 C 590.71 34.99 588.20 39.29 585.50 43.45 C 573.31 46.54 561.12 49.63 548.95 52.80 C 541.50 72.82 534.14 92.87 526.81 112.94 C 523.67 113.19 520.52 113.38 517.38 113.54 C 525.95 90.18 534.43 66.78 543.22 43.50 Z" />
<path fill="#4b4b4b" opacity="1.00" d=" M 359.93 42.56 C 364.03 40.84 368.12 39.06 372.25 37.42 C 371.34 41.37 370.14 45.25 369.23 49.20 C 368.67 51.03 370.70 52.16 371.57 53.49 C 373.38 55.86 376.07 57.70 377.02 60.63 C 372.78 60.85 368.54 61.05 364.31 61.32 C 361.91 65.08 359.83 69.04 357.23 72.67 C 355.60 68.60 354.00 64.53 352.46 60.43 C 348.33 59.29 344.14 58.40 339.96 57.46 C 342.28 53.73 346.62 51.74 349.72 48.67 C 349.41 45.36 349.14 42.05 348.93 38.74 C 353.19 37.83 356.64 40.26 359.93 42.56 Z" />
<path fill="#4b4b4b" opacity="1.00" d=" M 302.13 38.58 C 303.63 38.82 305.10 39.23 306.60 39.50 C 305.26 40.57 303.91 41.61 302.56 42.65 C 302.41 41.29 302.27 39.94 302.13 38.58 Z" />
<path fill="#4b4b4b" opacity="1.00" d=" M 282.25 41.91 C 286.95 43.90 291.64 45.91 296.35 47.88 C 294.11 49.64 291.91 51.45 289.77 53.32 C 285.74 51.72 281.76 50.01 277.82 48.22 C 279.33 46.14 280.84 44.06 282.25 41.91 Z" />
<path fill="#4b4b4b" opacity="1.00" d=" M 628.28 45.72 C 632.14 44.52 636.09 43.67 640.00 42.61 L 640.00 43.74 C 634.96 47.85 629.48 51.37 624.31 55.32 C 622.62 56.49 621.03 57.95 619.04 58.57 C 613.29 57.15 607.87 54.60 602.20 52.88 L 601.98 52.36 C 603.97 51.80 605.96 51.21 607.98 50.70 C 611.41 51.13 614.52 53.01 617.96 53.32 C 621.79 51.37 625.00 48.46 628.28 45.72 Z" />
<path fill="#4b4b4b" opacity="1.00" d=" M 411.74 49.30 C 430.63 50.05 449.53 50.69 468.43 51.52 C 481.70 72.28 494.80 93.15 508.00 113.96 C 504.02 114.33 500.03 114.41 496.06 114.77 C 485.45 98.68 475.37 82.23 465.01 65.97 C 463.83 64.52 463.30 61.77 461.00 61.89 C 448.98 61.41 436.96 60.91 424.94 60.54 C 423.48 60.35 421.61 60.82 420.55 59.53 C 417.51 56.21 414.64 52.74 411.74 49.30 Z" />
<path fill="#4b4b4b" opacity="1.00" d=" M 549.04 118.94 C 563.40 95.75 577.44 72.34 591.80 49.14 C 601.79 74.54 611.40 100.10 621.42 125.48 C 627.60 127.01 633.84 128.32 640.00 129.96 L 640.00 136.01 C 632.02 133.96 623.97 132.20 615.97 130.22 C 607.37 108.35 599.03 86.37 590.51 64.47 C 577.91 84.34 565.94 104.60 553.57 124.62 C 530.13 125.97 506.67 127.04 483.25 128.55 C 498.37 146.50 513.78 164.22 528.97 182.11 C 527.17 188.48 526.02 195.12 523.58 201.26 C 521.16 201.93 518.64 202.15 516.18 202.53 C 517.58 196.90 519.13 191.31 520.65 185.72 C 503.17 164.80 484.91 144.53 467.68 123.41 C 494.80 121.89 521.92 120.47 549.04 118.94 Z" />
<path fill="#4b4b4b" opacity="1.00" d=" M 620.99 64.57 C 627.34 60.03 633.72 55.52 640.00 50.89 L 640.00 79.47 C 638.52 78.20 636.72 77.23 635.55 75.64 C 635.18 70.35 635.74 65.04 635.83 59.74 C 630.61 61.79 627.07 66.64 621.92 68.73 C 616.64 67.61 611.87 64.78 606.51 63.95 C 605.89 62.30 605.19 60.69 604.53 59.07 C 610.08 60.69 615.41 62.99 620.99 64.57 Z" />
<path fill="#4b4b4b" opacity="1.00" d=" M 268.51 61.66 C 269.66 59.89 270.85 58.15 272.10 56.44 C 274.82 57.57 277.49 58.82 280.08 60.25 C 276.38 61.70 272.42 61.77 268.51 61.66 Z" />
<path fill="#4b4b4b" opacity="1.00" d=" M 570.72 60.33 C 572.48 59.85 574.25 59.38 576.03 58.90 C 574.86 60.78 573.73 62.69 572.68 64.64 C 572.02 63.20 571.36 61.76 570.72 60.33 Z" />
<path fill="#4b4b4b" opacity="1.00" d=" M 556.05 64.11 C 557.82 63.63 559.59 63.17 561.37 62.71 C 562.80 67.35 564.44 71.94 565.29 76.73 C 559.90 84.93 555.13 93.52 549.73 101.73 C 547.57 104.89 545.37 108.05 543.69 111.51 C 541.94 111.84 540.17 112.13 538.42 112.39 C 540.51 106.64 542.12 100.62 545.00 95.23 C 549.32 90.02 554.01 84.95 557.40 79.10 C 556.82 75.77 555.43 72.65 554.15 69.55 C 554.70 67.71 555.35 65.90 556.05 64.11 Z" />
<path fill="#4b4b4b" opacity="1.00" d=" M 261.90 71.15 C 264.14 70.86 266.39 70.74 268.64 70.49 C 266.04 72.72 263.41 74.91 260.64 76.92 C 260.38 76.23 259.85 74.83 259.58 74.14 C 260.33 73.12 261.02 72.06 261.90 71.15 Z" />
<path fill="#4b4b4b" opacity="1.00" d=" M 440.42 74.97 C 442.49 74.82 444.83 74.02 446.68 75.38 C 448.54 80.95 448.39 86.97 449.42 92.73 C 446.59 89.85 444.08 86.69 441.43 83.65 L 441.38 83.17 C 441.10 80.43 440.78 77.70 440.42 74.97 Z" />
<path fill="#4b4b4b" opacity="1.00" d=" M 455.67 82.25 C 455.36 79.98 455.37 77.68 455.47 75.40 C 457.34 78.55 459.61 81.49 461.20 84.80 C 462.03 93.46 463.51 102.04 464.57 110.67 C 462.10 113.25 459.42 115.82 455.92 116.89 C 454.41 116.93 452.92 116.87 451.43 116.73 C 454.50 114.63 457.04 111.88 459.54 109.15 C 458.25 100.19 457.00 91.21 455.67 82.25 Z" />
<path fill="#4b4b4b" opacity="1.00" d=" M 558.56 130.69 C 568.66 114.13 578.67 97.51 588.93 81.05 C 595.73 98.32 602.37 115.65 609.02 132.97 C 609.51 133.99 609.80 135.45 611.16 135.62 C 620.73 138.10 630.42 140.15 640.00 142.59 L 640.00 147.18 C 628.70 144.34 617.34 141.76 606.02 139.03 C 599.66 123.70 594.38 107.90 587.71 92.71 C 579.06 106.79 570.52 120.93 561.86 134.99 C 545.31 136.09 528.73 136.68 512.19 137.86 C 522.85 150.58 533.82 163.05 544.49 175.77 C 542.48 183.43 540.36 191.05 538.43 198.73 C 536.46 199.12 534.47 199.44 532.51 199.82 C 534.25 192.60 536.42 185.49 538.11 178.25 C 525.55 163.49 512.80 148.89 500.35 134.03 C 519.74 132.72 539.17 131.99 558.56 130.69 Z" />
<path fill="#4b4b4b" opacity="1.00" d=" M 265.12 85.03 C 266.01 85.23 266.90 85.43 267.80 85.62 C 268.82 89.10 271.76 91.33 274.27 93.70 C 281.27 100.06 287.98 106.73 294.70 113.39 C 293.16 122.52 291.87 131.70 289.89 140.75 C 288.30 137.15 286.67 133.56 285.10 129.95 C 286.44 125.73 287.22 121.36 287.57 116.95 C 282.84 111.84 277.36 107.47 272.81 102.21 C 269.73 97.38 267.93 91.85 265.25 86.79 C 265.22 86.35 265.15 85.47 265.12 85.03 Z" />
<path fill="#4b4b4b" opacity="1.00" d=" M 633.06 90.98 C 635.17 89.78 637.66 89.49 640.00 88.89 L 640.00 94.25 C 638.80 94.72 637.59 95.18 636.39 95.61 C 633.34 102.73 631.47 110.28 628.88 117.56 C 628.42 117.50 627.50 117.36 627.04 117.30 C 624.35 110.17 621.66 103.03 618.75 95.99 L 619.35 95.05 C 622.11 98.75 624.50 102.72 627.34 106.36 C 630.02 101.54 630.69 95.93 633.06 90.98 Z" />
<path fill="#4b4b4b" opacity="1.00" d=" M 282.88 90.06 C 283.43 89.96 284.53 89.77 285.08 89.67 C 288.20 90.41 291.30 91.24 294.44 91.91 C 297.74 96.78 302.76 100.06 306.59 104.46 C 307.46 105.22 307.44 106.42 307.65 107.46 C 306.85 106.87 305.25 105.71 304.45 105.13 C 304.58 114.43 304.66 123.73 304.94 133.02 C 302.68 134.12 300.40 135.17 298.09 136.17 C 299.19 127.34 300.85 118.59 302.44 109.84 C 296.41 102.78 289.07 96.98 282.88 90.06 Z" />
<path fill="#4b4b4b" opacity="1.00" d=" M 468.12 95.57 C 470.46 99.21 473.09 102.72 474.95 106.64 C 475.66 109.89 475.78 113.37 473.18 115.83 C 470.67 116.02 468.17 116.19 465.66 116.21 C 467.27 114.87 468.79 113.42 470.34 112.00 C 469.72 106.51 468.84 101.05 468.12 95.57 Z" />
<path fill="#4b4b4b" opacity="1.00" d=" M 448.27 100.27 C 448.86 100.21 450.04 100.09 450.64 100.03 C 450.94 102.59 451.25 105.15 451.57 107.70 C 438.22 120.30 424.43 132.43 411.00 144.95 C 407.12 148.41 403.05 151.70 399.73 155.73 C 403.31 156.39 406.90 156.99 410.51 157.53 C 410.47 157.86 410.39 158.52 410.35 158.85 C 405.81 160.09 401.45 161.83 397.01 163.34 C 392.87 163.23 388.80 162.39 384.78 161.48 C 399.73 147.19 415.31 133.57 430.43 119.46 C 435.17 115.08 440.25 111.05 444.53 106.19 C 444.45 104.45 444.42 102.71 444.36 100.97 C 445.66 100.73 446.96 100.48 448.27 100.27 Z" />
<path fill="#4b4b4b" opacity="1.00" d=" M 414.22 102.23 C 417.65 101.94 421.10 101.79 424.54 101.55 C 413.85 112.98 402.18 123.46 391.45 134.85 C 392.04 137.78 392.49 140.74 392.85 143.72 C 390.64 145.94 388.35 148.06 385.93 150.05 C 384.54 143.25 383.15 136.43 382.36 129.53 C 388.80 123.23 394.97 116.64 401.71 110.66 C 405.49 107.31 408.52 102.12 414.22 102.23 Z" />
<path fill="#4b4b4b" opacity="1.00" d=" M 634.03 121.12 C 635.89 115.20 637.74 109.26 640.00 103.47 L 640.00 122.47 C 638.02 121.95 636.03 121.52 634.03 121.12 Z" />
<path fill="#4b4b4b" opacity="1.00" d=" M 586.67 104.63 C 592.06 117.11 596.59 129.95 601.55 142.61 C 614.31 145.91 627.20 148.73 640.00 151.89 L 640.00 153.58 C 629.93 161.79 619.86 169.98 609.77 178.16 C 609.97 181.00 610.12 183.85 610.25 186.70 C 608.47 186.96 606.71 187.21 604.94 187.48 C 604.54 183.10 604.13 178.71 603.97 174.32 C 612.36 167.58 620.73 160.81 629.02 153.94 C 618.56 151.35 608.06 148.91 597.58 146.41 C 593.51 136.36 589.79 126.18 585.77 116.12 C 580.01 125.29 574.51 134.61 568.78 143.80 C 558.02 144.48 547.24 144.88 536.50 145.65 C 543.42 153.86 550.42 162.02 557.48 170.12 C 555.30 179.03 552.77 187.84 550.51 196.73 C 548.53 197.05 546.54 197.39 544.57 197.72 C 546.50 189.47 549.15 181.38 550.91 173.09 C 542.63 162.32 533.07 152.53 524.68 141.82 C 537.60 140.81 550.56 140.41 563.49 139.58 C 565.53 139.78 566.39 137.75 567.34 136.34 C 573.71 125.73 580.24 115.20 586.67 104.63 Z" />
<path fill="#4b4b4b" opacity="1.00" d=" M 375.56 119.78 C 377.90 115.53 380.37 111.33 383.10 107.31 C 383.70 108.55 384.21 109.83 384.83 111.07 C 381.97 114.21 379.15 117.46 375.56 119.78 Z" />
<path fill="#4b4b4b" opacity="1.00" d=" M 320.24 116.70 C 324.28 116.10 327.56 119.15 331.24 120.27 C 332.02 122.33 332.82 124.38 333.60 126.45 C 329.04 123.34 324.67 119.97 320.24 116.70 Z" />
<path fill="#4b4b4b" opacity="1.00" d=" M 448.95 118.73 C 450.13 119.74 451.24 120.82 452.30 121.97 C 444.20 129.40 435.79 136.50 428.08 144.33 C 432.92 145.64 437.94 146.17 442.78 147.52 C 439.18 148.71 435.62 150.03 432.03 151.26 C 426.92 150.95 421.89 149.93 416.91 148.85 C 427.19 138.40 438.87 129.38 448.95 118.73 Z" />
<path fill="#4b4b4b" opacity="1.00" d=" M 313.78 123.25 C 321.59 128.71 329.11 134.57 336.85 140.13 C 342.10 143.19 342.34 150.04 344.86 155.03 C 336.80 149.54 329.24 143.36 321.19 137.86 C 321.90 162.67 322.21 187.49 322.57 212.30 C 320.18 207.35 317.95 202.33 315.65 197.33 C 314.81 195.67 315.02 193.76 314.98 191.97 C 314.55 169.06 314.09 146.16 313.78 123.25 Z" />
<path fill="#4b4b4b" opacity="1.00" d=" M 440.15 139.56 C 445.12 134.82 450.53 130.56 455.23 125.55 C 456.19 126.71 457.18 127.86 458.19 128.99 C 455.89 130.85 453.72 132.85 451.68 134.99 C 456.10 136.09 460.60 136.75 465.10 137.40 C 465.57 137.84 466.49 138.71 466.95 139.15 C 463.95 140.17 460.98 141.30 457.97 142.33 C 451.95 142.06 446.07 140.58 440.15 139.56 Z" />
<path fill="#4b4b4b" opacity="1.00" d=" M 371.38 126.37 C 374.08 134.74 374.59 143.60 376.52 152.14 C 376.73 154.22 377.98 156.56 376.65 158.50 C 374.58 156.85 372.46 155.25 370.29 153.73 L 370.22 153.20 C 369.35 146.70 368.06 140.28 366.95 133.82 C 368.41 131.33 369.86 128.83 371.38 126.37 Z" />
<path fill="#4b4b4b" opacity="1.00" d=" M 584.50 128.20 C 587.88 135.23 590.27 142.70 593.14 149.95 C 600.74 152.05 608.47 153.64 616.13 155.54 C 610.41 161.02 603.54 165.28 598.03 170.91 C 598.14 176.65 599.07 182.35 599.24 188.10 C 596.71 189.28 593.04 190.33 590.61 188.29 C 587.05 185.97 583.50 183.63 579.91 181.37 C 572.60 184.27 565.41 187.48 558.08 190.32 C 559.94 182.65 562.25 175.09 564.01 167.39 C 558.93 161.46 553.69 155.66 548.84 149.55 C 556.54 148.90 564.30 148.95 571.97 148.10 C 576.71 141.94 580.27 134.77 584.50 128.20 M 583.58 138.94 C 580.67 143.59 577.93 148.35 574.95 152.96 C 569.66 153.11 564.37 153.47 559.09 153.82 C 562.06 158.23 565.88 161.99 569.28 166.07 C 568.17 171.46 566.50 176.71 565.18 182.05 C 570.20 180.04 575.18 177.94 580.16 175.81 C 584.89 178.56 589.31 181.82 594.04 184.60 C 593.73 179.14 593.02 173.71 592.87 168.24 C 596.98 164.82 601.41 161.75 605.17 157.95 C 600.10 156.55 594.89 155.63 589.84 154.15 C 587.22 149.36 585.91 143.90 583.58 138.94 Z" />
<path fill="#4b4b4b" opacity="1.00" d=" M 293.51 148.80 C 297.29 146.40 301.30 144.39 305.18 142.17 C 305.25 145.27 305.18 148.37 305.24 151.47 C 302.55 152.67 299.95 154.10 297.11 154.91 C 296.38 154.34 295.81 153.65 295.38 152.82 C 294.73 151.49 294.13 150.13 293.51 148.80 Z" />
<path fill="#4b4b4b" opacity="1.00" d=" M 384.95 175.69 C 412.90 166.22 440.71 156.31 468.70 146.98 C 461.27 169.46 453.71 191.90 446.27 214.38 C 442.82 215.09 439.33 215.66 435.84 216.16 C 442.13 196.85 448.78 177.66 455.00 158.32 C 431.28 166.49 407.57 174.69 383.86 182.84 C 382.54 183.49 381.47 182.03 380.42 181.49 C 370.69 174.20 360.87 167.04 351.11 159.79 C 352.31 157.68 353.58 155.59 354.90 153.54 C 364.97 160.85 374.94 168.31 384.95 175.69 Z" />
<path fill="#4b4b4b" opacity="1.00" d=" M 329.69 153.99 C 346.81 166.31 363.51 179.24 380.75 191.39 C 400.46 184.36 420.28 177.63 440.08 170.87 C 434.87 186.46 429.77 202.10 424.44 217.64 C 422.21 219.15 419.07 218.82 416.48 219.48 C 420.81 206.12 425.45 192.87 429.70 179.48 C 412.77 185.34 395.80 191.08 378.91 197.06 C 364.23 186.48 349.87 175.47 335.15 164.96 C 335.84 182.97 335.98 201.01 336.19 219.03 C 333.53 220.90 330.89 222.81 328.22 224.67 C 327.54 223.19 326.85 221.73 326.16 220.26 C 327.74 219.14 329.28 217.97 330.81 216.77 C 330.28 195.85 329.94 174.92 329.69 153.99 Z" />
<path fill="#4b4b4b" opacity="1.00" d=" M 478.00 155.60 C 484.62 169.85 490.68 184.39 497.73 198.42 C 500.52 193.85 502.80 188.99 505.64 184.44 C 507.08 186.07 508.51 187.72 509.97 189.35 C 509.68 190.51 509.70 191.83 508.89 192.79 C 505.97 196.50 503.93 200.77 501.89 205.00 C 499.60 205.35 497.32 205.70 495.03 206.02 C 490.83 196.32 486.34 186.75 482.01 177.12 C 479.80 172.12 477.25 167.25 475.65 162.01 C 476.46 159.88 477.22 157.74 478.00 155.60 Z" />
<path fill="#4b4b4b" opacity="1.00" d=" M 615.94 182.12 C 623.73 175.29 632.03 169.01 640.00 162.36 L 640.00 170.68 C 635.08 174.86 629.98 178.85 625.01 182.98 C 622.51 185.23 618.96 185.04 615.86 185.59 C 615.88 184.72 615.92 182.99 615.94 182.12 Z" />
<path fill="#4b4b4b" opacity="1.00" d=" M 302.09 166.34 C 302.93 165.60 303.77 164.85 304.61 164.11 C 304.89 166.45 305.20 168.80 305.54 171.14 C 305.30 171.58 304.84 172.47 304.60 172.91 C 303.55 170.81 302.59 168.65 302.09 166.34 Z" />
<path fill="#4b4b4b" opacity="1.00" d=" M 497.46 183.99 C 494.99 178.22 491.45 172.79 490.27 166.56 C 493.72 170.35 496.92 174.35 500.35 178.16 C 499.40 180.11 498.44 182.05 497.46 183.99 Z" />
<path fill="#4b4b4b" opacity="1.00" d=" M 471.68 174.45 C 477.01 184.92 481.42 195.82 486.52 206.40 C 486.04 206.91 485.58 207.42 485.12 207.93 C 484.31 208.06 482.69 208.33 481.88 208.46 C 478.87 208.38 478.24 205.17 477.13 203.00 C 474.44 196.29 470.78 189.97 468.64 183.04 C 469.74 180.21 470.67 177.32 471.68 174.45 Z" />
<path fill="#4b4b4b" opacity="1.00" d=" M 342.97 179.88 C 354.32 188.03 365.32 196.69 376.83 204.61 C 389.81 199.99 402.87 195.59 415.90 191.08 C 412.65 201.18 409.20 211.21 405.89 221.28 C 402.68 221.88 399.46 222.41 396.25 222.92 C 398.50 215.82 401.03 208.81 403.22 201.69 C 393.71 204.95 384.18 208.15 374.72 211.57 C 366.35 205.74 358.35 199.38 350.00 193.52 C 350.15 203.66 350.56 213.79 350.48 223.93 C 346.88 226.53 343.29 229.15 339.68 231.72 C 338.31 232.81 336.56 233.25 334.84 233.23 C 334.15 233.23 332.77 233.23 332.08 233.23 C 331.76 232.31 331.45 231.39 331.08 230.49 C 335.34 227.63 339.43 224.53 343.67 221.64 C 343.67 207.72 343.27 193.80 342.97 179.88 Z" />
<path fill="#4b4b4b" opacity="1.00" d=" M 570.35 193.14 C 573.11 191.62 576.00 190.28 579.03 189.39 C 580.28 189.48 581.13 190.68 582.20 191.25 C 578.30 192.17 574.34 192.83 570.35 193.14 Z" />
<path fill="#4b4b4b" opacity="1.00" d=" M 356.76 206.68 C 361.82 210.04 366.56 213.86 371.49 217.40 C 372.56 218.49 374.06 217.61 375.26 217.31 C 380.54 215.46 385.82 213.61 391.13 211.84 C 389.77 216.11 388.45 220.40 386.84 224.58 C 374.89 226.50 362.98 228.63 351.04 230.59 C 353.06 229.09 355.09 227.59 357.14 226.10 C 356.91 219.63 357.03 213.15 356.76 206.68 Z" />
</g>
</svg>
