<?xml version="1.0" encoding="utf-8"?>
<!-- Generator: Adobe Illustrator 25.4.0, SVG Export Plug-In . SVG Version: 6.00 Build 0)  -->
<svg version="1.1" id="레이어_1" xmlns="http://www.w3.org/2000/svg" xmlns:xlink="http://www.w3.org/1999/xlink" x="0px"
	 y="0px" width="640.03px" height="100.89px" viewBox="0 0 640.03 100.89" style="enable-background:new 0 0 640.03 100.89;"
	 xml:space="preserve">
<g>
	<polygon style="fill:#FFFFFF;" points="0,70.89 338.17,96.48 331.71,65.96 468.67,99.57 455.95,47.26 640,89.54 640,80.78 
		620.13,38.73 640,42.78 639.92,23.88 586.85,18.87 604.85,61.41 421.43,31.05 429.03,67.42 287.32,30.46 286.71,58.55 0,5.98 	"/>
	<polygon style="fill:#FF0000;" points="0,56.16 328.24,88.77 320.02,56.13 459.31,91.04 441.62,37.62 630.45,74.78 606.44,28.54 
		640.03,33.96 639.92,17.33 568.86,7.05 594.89,52.93 407.81,12 416.76,62.83 268.97,12.17 281.12,50.57 68,0 0,0 	"/>
</g>
</svg>
