<?xml version="1.0" encoding="UTF-8" ?>
<!DOCTYPE svg PUBLIC "-//W3C//DTD SVG 1.1//EN" "http://www.w3.org/Graphics/SVG/1.1/DTD/svg11.dtd">
<svg width="640pt" height="480pt" viewBox="0 0 640 480" version="1.1" xmlns="http://www.w3.org/2000/svg">
<g id="#262626ff">
<path fill="#262626" opacity="1.00" d=" M 0.00 0.00 L 36.22 0.00 C 23.05 13.56 11.29 28.42 0.00 43.55 L 0.00 0.00 Z" />
<path fill="#262626" opacity="1.00" d=" M 106.25 0.00 L 166.66 0.00 C 161.33 3.94 155.74 7.48 150.43 11.43 C 115.23 36.83 84.68 68.61 60.51 104.65 C 59.07 107.63 55.57 106.31 53.01 106.16 C 41.88 104.59 30.67 103.66 19.56 101.99 C 22.35 96.47 25.87 91.38 29.20 86.19 C 50.62 54.00 76.50 24.71 106.25 0.00 Z" />
<path fill="#262626" opacity="1.00" d=" M 353.48 0.00 L 362.88 0.00 C 363.78 1.39 364.62 2.83 365.46 4.26 C 360.86 6.89 357.19 2.04 353.48 0.00 Z" />
<path fill="#262626" opacity="1.00" d=" M 634.58 0.00 L 640.00 0.00 L 640.00 6.83 C 638.33 8.04 636.59 9.15 634.87 10.26 C 632.48 8.54 630.25 6.63 628.06 4.67 C 630.21 3.10 632.33 1.45 634.58 0.00 Z" />
<path fill="#262626" opacity="1.00" d=" M 229.41 8.17 C 230.06 9.81 230.83 11.41 231.57 13.01 C 236.33 23.38 240.88 33.85 245.79 44.14 L 246.39 42.88 C 246.79 44.19 247.21 45.49 247.65 46.79 C 237.73 50.73 228.41 56.00 219.15 61.26 C 194.27 76.12 171.39 94.49 152.06 116.12 C 150.66 118.10 148.11 117.40 146.08 117.25 C 131.26 115.31 116.39 113.79 101.57 111.78 C 105.17 106.39 109.38 101.46 113.48 96.45 C 141.08 63.81 174.95 36.43 212.95 16.79 C 218.25 13.56 224.38 11.86 229.41 8.17 Z" />
<path fill="#262626" opacity="1.00" d=" M 282.02 41.59 C 283.48 40.21 284.52 37.60 286.93 38.03 C 294.01 38.29 301.09 38.14 308.17 37.99 C 307.86 38.38 307.23 39.17 306.91 39.57 L 306.48 39.47 C 305.09 39.15 303.69 38.88 302.27 38.81 C 302.25 40.08 302.33 41.35 302.51 42.61 L 302.55 42.93 C 300.51 44.63 298.44 46.28 296.32 47.88 C 291.70 45.93 287.07 44.00 282.55 41.84 L 282.02 41.59 Z" />
<path fill="#262626" opacity="1.00" d=" M 623.16 56.19 C 628.69 51.93 634.63 48.21 640.00 43.74 L 640.00 50.88 C 636.42 53.73 632.51 56.13 628.88 58.90 C 626.29 60.76 623.86 62.93 620.90 64.19 C 615.24 63.35 610.12 60.49 604.61 59.06 C 603.80 56.99 603.07 54.88 602.21 52.84 C 607.39 54.63 612.50 56.69 617.75 58.28 C 619.82 59.04 621.53 57.18 623.16 56.19 Z" />
<path fill="#262626" opacity="1.00" d=" M 608.00 50.70 C 614.70 49.03 621.34 47.08 628.15 45.80 C 624.82 48.30 621.88 51.49 617.98 53.11 C 614.55 52.96 611.38 51.24 608.00 50.70 Z" />
<path fill="#262626" opacity="1.00" d=" M 272.16 56.37 C 273.93 53.59 275.82 50.90 277.78 48.26 C 281.73 50.03 285.74 51.70 289.75 53.35 C 282.78 59.08 275.92 64.96 268.79 70.49 L 268.45 70.52 C 266.28 70.71 264.12 70.91 261.96 71.09 C 263.96 67.82 266.04 64.61 268.40 61.60 C 272.31 62.01 276.27 61.68 279.96 60.24 C 277.39 58.88 274.79 57.60 272.16 56.37 Z" />
<path fill="#262626" opacity="1.00" d=" M 561.42 62.77 C 564.45 61.84 567.49 60.89 570.63 60.34 C 571.28 61.67 571.96 63.00 572.63 64.33 L 572.84 64.74 C 570.16 68.63 567.73 72.68 565.36 76.76 C 564.37 72.01 562.94 67.37 561.42 62.77 Z" />
<path fill="#262626" opacity="1.00" d=" M 621.89 68.65 C 627.11 66.68 630.78 61.90 635.88 59.54 C 635.72 64.89 634.77 70.29 635.66 75.61 C 636.59 77.32 638.60 78.16 640.00 79.48 L 640.00 88.82 C 637.78 89.37 635.51 89.80 633.41 90.72 C 630.64 95.59 629.79 101.28 627.70 106.45 C 624.47 102.80 622.02 98.57 619.03 94.75 L 618.95 96.36 C 614.58 85.66 610.53 74.82 606.51 63.98 C 611.83 64.87 616.62 67.67 621.89 68.65 Z" />
<path fill="#262626" opacity="1.00" d=" M 554.30 69.59 C 555.29 72.73 556.82 75.71 557.28 79.00 C 554.29 85.09 549.08 89.78 545.09 95.23 C 545.74 91.74 546.90 88.39 548.20 85.10 C 550.23 79.93 551.74 74.55 554.30 69.59 Z" />
<path fill="#262626" opacity="1.00" d=" M 433.04 74.10 C 440.53 73.66 448.00 74.36 455.46 74.93 L 455.45 75.56 C 455.33 86.84 458.63 97.84 459.23 109.06 C 457.21 112.11 454.37 114.51 451.49 116.72 C 451.06 116.98 450.21 117.50 449.78 117.75 C 449.57 117.98 449.16 118.44 448.95 118.67 C 443.58 124.76 437.12 129.72 431.32 135.36 C 426.63 139.98 421.29 143.91 416.95 148.88 C 421.95 149.91 426.96 151.01 432.08 151.20 C 424.87 154.04 417.47 156.34 410.16 158.89 C 410.29 158.54 410.56 157.84 410.69 157.50 C 407.04 156.97 403.39 156.39 399.77 155.71 C 404.90 149.85 411.21 145.22 416.68 139.69 C 425.36 131.71 434.21 123.91 442.79 115.83 C 445.62 113.10 449.18 110.97 451.28 107.57 C 451.55 105.03 450.95 102.49 450.70 99.97 C 452.10 99.89 453.50 99.81 454.92 99.73 C 453.08 97.35 450.91 95.19 449.44 92.56 C 448.44 87.30 448.57 81.86 447.10 76.69 C 446.19 73.89 442.57 75.01 440.35 74.79 C 440.67 77.60 440.94 80.42 441.45 83.21 C 438.22 80.58 435.74 77.23 433.04 74.10 Z" />
<path fill="#262626" opacity="1.00" d=" M 461.11 84.80 C 463.74 88.20 466.42 91.68 468.04 95.70 C 468.79 101.13 469.99 106.54 470.11 112.04 C 468.89 113.66 467.26 114.90 465.65 116.09 C 462.43 116.64 459.16 116.68 455.91 116.84 C 459.41 115.75 462.19 113.29 464.67 110.69 C 463.36 102.07 462.26 93.43 461.11 84.80 Z" />
<path fill="#262626" opacity="1.00" d=" M 267.56 85.82 C 273.51 86.60 279.34 88.14 285.08 89.83 C 284.51 89.88 283.37 90.00 282.80 90.06 C 288.60 96.30 295.05 101.92 300.88 108.13 C 302.75 109.76 301.88 112.27 301.62 114.37 C 300.32 121.61 299.00 128.85 298.07 136.15 C 300.35 135.12 302.63 134.10 304.92 133.08 C 304.99 136.10 305.04 139.11 305.20 142.13 C 301.24 144.26 297.35 146.53 293.48 148.81 C 292.32 146.12 290.60 143.59 290.14 140.66 C 291.69 131.55 293.29 122.45 294.77 113.32 C 289.95 108.81 285.38 104.04 280.61 99.48 C 276.08 95.11 270.65 91.46 267.56 85.82 Z" />
<path fill="#262626" opacity="1.00" d=" M 208.03 123.09 C 225.17 108.27 244.67 96.28 265.28 86.92 C 267.57 91.64 269.58 96.51 272.09 101.11 C 276.42 107.06 282.86 111.14 287.22 117.06 C 287.61 121.37 286.06 125.54 285.37 129.75 C 282.74 126.22 281.28 122.06 279.55 118.06 C 265.47 124.08 252.46 132.24 239.98 141.04 C 239.96 136.82 239.92 132.60 239.89 128.38 C 229.90 127.17 219.91 125.94 209.90 124.83 C 208.90 124.72 206.05 124.27 208.03 123.09 Z" />
<path fill="#262626" opacity="1.00" d=" M 294.35 92.07 C 303.94 93.60 313.27 96.44 322.77 98.44 C 325.51 105.77 329.04 112.85 330.96 120.45 C 327.69 118.45 324.11 117.02 320.35 116.31 C 315.56 114.42 312.03 110.33 307.66 107.67 L 307.65 107.15 C 307.63 106.79 307.61 106.08 307.60 105.72 C 303.78 100.60 298.24 97.13 294.35 92.07 Z" />
<path fill="#262626" opacity="1.00" d=" M 635.58 97.57 C 636.18 95.55 638.44 95.06 640.00 94.03 L 640.00 103.54 C 637.74 109.30 635.88 115.21 633.95 121.09 C 631.30 120.46 627.66 120.46 626.95 117.18 C 627.42 117.33 628.35 117.64 628.81 117.79 C 631.20 111.09 633.05 104.20 635.58 97.57 Z" />
<path fill="#262626" opacity="1.00" d=" M 424.50 101.71 C 432.43 101.38 440.32 100.02 448.28 100.34 C 446.93 100.57 445.60 100.83 444.27 101.09 C 444.33 102.78 444.39 104.46 444.46 106.15 C 438.87 112.37 432.28 117.52 426.29 123.32 C 412.41 136.05 398.31 148.53 384.68 161.53 C 388.78 162.42 392.92 163.19 397.13 163.27 C 394.12 164.42 391.14 165.76 387.96 166.33 C 383.47 164.23 379.67 160.81 375.92 157.60 C 376.34 157.74 377.19 158.01 377.61 158.15 C 375.44 147.63 374.41 136.85 371.48 126.50 L 371.37 126.12 C 372.71 123.94 373.70 121.41 375.68 119.71 C 379.11 117.39 382.38 114.64 384.58 111.08 C 384.23 109.76 383.70 108.50 383.20 107.24 L 383.02 106.80 C 383.68 105.87 384.34 104.93 385.11 104.08 C 388.64 103.12 392.35 103.30 395.98 103.10 C 402.06 102.98 408.11 102.06 414.21 102.21 C 411.92 102.61 409.44 102.99 407.74 104.73 C 399.46 113.05 390.38 120.63 382.64 129.47 C 382.59 136.39 384.75 143.23 385.97 150.04 C 388.25 148.02 390.77 146.17 392.52 143.64 C 392.71 140.74 391.85 137.89 391.80 135.00 C 393.99 131.56 397.34 129.08 400.11 126.14 C 408.14 117.90 416.57 110.06 424.50 101.71 Z" />
<path fill="#262626" opacity="1.00" d=" M 474.91 106.71 C 477.26 109.41 479.12 112.48 480.86 115.59 C 478.25 115.67 475.64 115.75 473.04 115.85 C 473.88 114.77 474.72 113.69 475.58 112.61 C 475.39 110.64 475.19 108.67 474.91 106.71 Z" />
<path fill="#262626" opacity="1.00" d=" M 0.00 137.68 C 4.20 130.38 7.23 122.45 11.96 115.45 C 12.63 123.61 12.25 131.81 12.38 139.99 C 12.82 160.01 12.71 180.04 13.10 200.06 C 13.20 204.05 12.92 208.08 11.77 211.92 C 8.46 223.40 6.17 235.15 4.06 246.90 C 2.26 256.43 1.84 266.14 0.00 275.66 L 0.00 137.68 Z" />
<path fill="#262626" opacity="1.00" d=" M 28.68 120.12 C 31.54 119.95 34.41 119.90 37.28 119.89 L 37.24 121.09 C 34.37 120.91 31.51 120.61 28.68 120.12 Z" />
<path fill="#262626" opacity="1.00" d=" M 39.51 121.29 C 42.51 121.00 45.98 120.03 48.57 122.13 C 45.55 121.93 42.52 121.68 39.51 121.29 Z" />
<path fill="#262626" opacity="1.00" d=" M 48.84 122.16 C 52.11 122.09 55.85 120.97 58.69 123.14 C 55.40 122.94 52.11 122.64 48.84 122.16 Z" />
<path fill="#262626" opacity="1.00" d=" M 452.40 122.01 C 453.28 123.19 454.16 124.38 455.08 125.54 C 450.44 130.63 445.06 134.94 440.03 139.61 C 446.01 140.63 451.97 142.02 458.07 142.26 C 452.98 144.21 447.83 146.04 442.60 147.57 C 437.86 146.14 432.94 145.49 428.14 144.31 C 435.86 136.50 444.20 129.31 452.40 122.01 Z" />
<path fill="#262626" opacity="1.00" d=" M 59.53 123.23 C 62.57 123.01 66.05 122.00 68.68 124.13 C 65.62 123.94 62.56 123.70 59.53 123.23 Z" />
<path fill="#262626" opacity="1.00" d=" M 69.47 124.21 C 72.53 124.03 76.00 123.09 78.68 125.12 C 75.60 124.94 72.52 124.68 69.47 124.21 Z" />
<path fill="#262626" opacity="1.00" d=" M 79.51 125.21 C 82.53 125.10 86.03 124.04 88.65 126.12 C 85.59 125.94 82.54 125.67 79.51 125.21 Z" />
<path fill="#262626" opacity="1.00" d=" M 89.56 126.22 C 92.61 126.06 96.11 125.04 98.76 127.12 C 95.68 126.93 92.61 126.68 89.56 126.22 Z" />
<path fill="#262626" opacity="1.00" d=" M 99.55 127.21 C 102.60 127.11 106.20 125.93 108.80 128.12 C 105.70 127.94 102.61 127.68 99.55 127.21 Z" />
<path fill="#262626" opacity="1.00" d=" M 109.60 128.21 C 112.62 127.99 116.03 127.12 118.68 129.10 C 115.64 128.93 112.61 128.66 109.60 128.21 Z" />
<path fill="#262626" opacity="1.00" d=" M 119.62 129.21 C 122.67 129.05 126.12 128.09 128.78 130.11 C 125.72 129.93 122.66 129.66 119.62 129.21 Z" />
<path fill="#262626" opacity="1.00" d=" M 458.23 128.98 C 460.69 131.64 463.12 134.35 465.11 137.39 C 460.63 136.64 456.13 136.02 451.74 134.86 C 453.83 132.83 456.01 130.88 458.23 128.98 Z" />
<path fill="#262626" opacity="1.00" d=" M 129.62 130.20 C 132.67 130.06 136.19 129.01 138.83 131.11 C 135.75 130.93 132.67 130.66 129.62 130.20 Z" />
<path fill="#262626" opacity="1.00" d=" M 139.64 131.20 C 142.69 131.10 146.22 130.00 148.85 132.11 C 145.76 131.93 142.69 131.66 139.64 131.20 Z" />
<path fill="#262626" opacity="1.00" d=" M 149.60 132.19 C 152.64 132.15 156.24 130.91 158.82 133.11 C 155.73 132.92 152.66 132.65 149.60 132.19 Z" />
<path fill="#262626" opacity="1.00" d=" M 159.58 133.19 C 162.64 133.11 166.19 131.98 168.83 134.10 C 165.73 133.92 162.65 133.64 159.58 133.19 Z" />
<path fill="#262626" opacity="1.00" d=" M 169.66 134.20 C 172.70 134.18 176.32 132.86 178.88 135.11 C 175.79 134.93 172.71 134.65 169.66 134.20 Z" />
<path fill="#262626" opacity="1.00" d=" M 359.59 145.92 C 361.37 141.60 364.53 138.02 366.83 133.98 C 368.30 140.32 369.25 146.74 370.11 153.18 C 366.44 151.01 362.79 148.75 359.59 145.92 Z" />
<path fill="#262626" opacity="1.00" d=" M 179.69 135.20 C 182.71 135.10 186.23 133.96 188.83 136.09 C 185.77 135.92 182.72 135.64 179.69 135.20 Z" />
<path fill="#262626" opacity="1.00" d=" M 189.72 136.18 C 192.53 135.92 195.36 135.87 198.19 135.93 L 198.16 137.09 C 195.33 136.89 192.52 136.59 189.72 136.18 Z" />
<path fill="#262626" opacity="1.00" d=" M 201.28 137.46 C 202.91 136.16 207.02 135.69 207.71 138.02 C 205.55 138.03 203.40 137.85 201.28 137.46 Z" />
<path fill="#262626" opacity="1.00" d=" M 211.27 138.41 C 212.91 137.20 217.07 136.68 217.67 139.03 C 215.52 139.04 213.37 138.86 211.27 138.41 Z" />
<path fill="#262626" opacity="1.00" d=" M 220.36 139.23 C 223.19 138.88 226.04 138.84 228.89 138.98 C 228.96 145.10 229.87 151.45 228.07 157.41 C 227.99 151.67 227.97 145.93 228.11 140.20 C 225.52 139.93 222.94 139.59 220.36 139.23 Z" />
<path fill="#262626" opacity="1.00" d=" M 296.86 155.26 C 299.58 154.03 302.31 152.79 305.05 151.60 C 305.94 160.60 305.08 169.75 306.65 178.66 C 280.57 190.25 258.28 210.03 243.51 234.43 C 241.36 238.05 239.41 241.78 237.19 245.36 C 237.10 229.22 237.96 213.11 238.30 196.99 C 237.99 193.51 241.14 191.37 243.24 189.12 C 258.09 173.78 275.99 161.47 295.48 152.79 C 295.93 153.61 296.39 154.43 296.86 155.26 M 302.28 167.07 C 302.53 169.32 303.89 171.23 304.96 173.17 C 305.28 170.11 305.12 167.03 304.64 164.01 C 303.85 165.00 302.46 165.72 302.28 167.07 Z" />
<path fill="#262626" opacity="1.00" d=" M 478.14 155.66 C 478.25 155.02 478.47 153.72 478.58 153.08 C 482.71 157.04 486.14 161.64 490.11 165.76 C 490.16 165.99 490.25 166.45 490.30 166.68 C 491.49 172.86 494.93 178.24 497.43 183.93 C 498.40 181.99 499.37 180.06 500.35 178.12 C 502.25 180.19 504.05 182.34 505.84 184.51 C 502.78 188.96 500.45 193.86 497.50 198.38 C 491.00 184.16 484.39 169.99 478.14 155.66 Z" />
<path fill="#262626" opacity="1.00" d=" M 227.01 191.06 C 226.98 181.30 226.97 171.52 227.84 161.79 C 228.31 171.53 228.20 181.30 227.85 191.05 L 227.01 191.06 Z" />
<path fill="#262626" opacity="1.00" d=" M 471.53 174.27 C 472.93 170.24 474.40 166.23 475.60 162.13 C 481.42 177.02 488.80 191.25 494.93 206.01 C 491.59 206.81 488.22 207.58 484.78 207.75 C 485.27 207.54 486.24 207.11 486.73 206.90 C 481.64 196.17 477.17 185.14 471.71 174.60 L 471.53 174.27 Z" />
<path fill="#262626" opacity="1.00" d=" M 464.54 196.27 C 465.40 191.71 467.41 187.45 468.74 183.02 C 471.31 191.65 475.93 199.50 479.33 207.82 C 480.01 207.94 481.38 208.18 482.06 208.30 C 478.35 209.11 474.62 209.89 470.82 210.12 C 468.50 205.63 466.22 201.02 464.54 196.27 Z" />
<path fill="#262626" opacity="1.00" d=" M 501.96 204.98 C 503.86 200.66 506.16 196.55 508.89 192.70 C 508.87 196.60 507.82 200.37 506.74 204.08 C 505.14 204.37 503.55 204.66 501.96 204.98 Z" />
<path fill="#262626" opacity="1.00" d=" M 226.08 226.45 C 225.89 216.24 226.02 206.03 226.86 195.85 C 227.28 202.89 227.00 209.94 227.13 216.99 C 227.07 220.16 227.49 223.49 226.08 226.45 Z" />
<path fill="#262626" opacity="1.00" d=" M 269.62 271.65 C 279.06 246.56 298.90 225.28 323.73 214.95 C 324.47 216.74 325.27 218.51 326.14 220.25 C 326.84 221.69 327.54 223.13 328.20 224.60 C 329.06 226.59 330.02 228.54 331.06 230.45 C 331.57 232.29 332.79 233.50 334.80 233.48 C 334.31 233.65 333.33 234.00 332.83 234.17 C 333.77 236.83 334.79 239.47 336.03 242.01 C 322.65 248.35 310.72 258.17 303.17 271.03 C 293.27 287.67 290.50 308.43 296.00 327.02 C 300.98 344.58 313.09 359.93 329.01 368.87 C 348.91 380.39 374.28 380.97 394.97 371.13 C 399.01 380.35 403.86 389.25 407.17 398.75 C 389.95 406.44 370.68 409.84 351.91 407.46 C 331.03 405.05 310.99 395.82 295.62 381.49 C 280.30 367.38 269.41 348.45 265.27 328.02 C 261.35 309.33 262.85 289.52 269.62 271.65 Z" />
<path fill="#262626" opacity="1.00" d=" M 225.07 261.48 C 224.93 251.56 224.95 241.62 225.79 231.73 C 226.32 237.79 226.06 243.88 226.12 249.95 C 226.05 253.80 226.47 257.79 225.07 261.48 Z" />
<path fill="#262626" opacity="1.00" d=" M 224.08 295.58 C 223.89 285.36 224.01 275.12 224.90 264.94 C 225.18 272.28 225.04 279.64 225.13 287.00 C 225.12 289.88 225.34 292.89 224.08 295.58 Z" />
<path fill="#262626" opacity="1.00" d=" M 223.08 330.50 C 222.89 320.29 223.01 310.07 223.87 299.89 C 224.22 306.92 224.03 313.96 224.13 321.00 C 224.08 324.18 224.46 327.52 223.08 330.50 Z" />
<path fill="#262626" opacity="1.00" d=" M 31.23 324.59 C 32.04 338.84 32.09 353.12 31.92 367.39 C 30.34 362.75 31.07 357.78 30.88 352.98 C 31.10 343.52 30.49 334.04 31.23 324.59 Z" />
<path fill="#262626" opacity="1.00" d=" M 222.08 364.54 C 221.88 354.38 222.05 344.20 222.90 334.07 C 223.21 342.05 223.11 350.04 223.14 358.03 C 223.13 360.23 223.20 362.56 222.08 364.54 Z" />
<path fill="#262626" opacity="1.00" d=" M 0.00 339.35 C 0.99 344.21 1.58 349.12 2.06 354.05 C 4.58 372.99 8.35 391.78 13.82 410.09 C 14.92 413.67 15.16 417.43 15.53 421.14 C 16.97 422.56 18.37 424.12 18.94 426.12 C 25.29 444.67 33.12 462.74 42.42 480.00 L 1.76 480.00 C 2.08 478.69 1.14 477.60 0.00 477.14 L 0.00 339.35 Z" />
<path fill="#262626" opacity="1.00" d=" M 234.26 362.72 C 241.78 378.87 251.44 394.20 264.27 406.69 C 281.77 424.44 304.15 437.27 328.25 443.57 C 352.68 449.90 378.82 449.60 403.08 442.64 C 410.27 440.91 416.88 437.52 423.83 435.12 C 425.94 437.97 427.01 441.40 428.51 444.57 C 430.92 449.80 433.38 455.00 435.63 460.29 C 398.84 478.08 355.36 480.94 316.24 469.51 C 284.44 460.18 255.52 441.22 234.31 415.75 C 231.82 413.15 232.95 409.26 232.81 406.03 C 233.55 391.60 232.92 377.11 234.26 362.72 Z" />
<path fill="#262626" opacity="1.00" d=" M 32.11 372.94 C 32.67 382.61 32.91 392.31 32.99 402.00 L 31.92 402.07 C 31.90 392.36 31.82 382.64 32.11 372.94 Z" />
<path fill="#262626" opacity="1.00" d=" M 149.08 417.24 C 156.72 416.86 164.35 416.34 172.00 416.28 C 176.97 416.29 181.96 415.40 186.92 416.01 C 189.21 418.18 190.66 421.04 192.43 423.62 C 207.47 445.88 226.94 465.14 249.32 480.00 L 195.24 480.00 C 176.62 461.76 160.77 440.55 149.08 417.24 Z" />
<path fill="#262626" opacity="1.00" d=" M 81.03 419.85 C 87.35 419.58 93.69 418.94 100.02 419.32 C 101.42 419.17 101.81 420.67 102.37 421.62 C 111.32 442.39 123.05 461.89 136.56 480.00 L 85.56 480.00 C 74.31 461.17 64.35 441.52 56.84 420.88 C 64.88 420.02 72.98 420.46 81.03 419.85 Z" />
</g>
<g id="#000000ff">
<path fill="#000000" opacity="1.00" d=" M 36.22 0.00 L 106.25 0.00 C 76.50 24.71 50.62 54.00 29.20 86.19 C 25.87 91.38 22.35 96.47 19.56 101.99 C 30.67 103.66 41.88 104.59 53.01 106.16 C 55.57 106.31 59.07 107.63 60.51 104.65 C 84.68 68.61 115.23 36.83 150.43 11.43 C 155.74 7.48 161.33 3.94 166.66 0.00 L 230.05 0.00 C 235.97 2.77 242.40 4.07 248.52 6.26 C 250.33 12.26 252.22 18.24 254.14 24.22 C 257.94 19.18 261.42 13.91 265.13 8.80 C 271.41 8.74 277.70 8.77 283.98 8.75 C 281.86 5.81 279.82 2.81 277.53 0.00 L 287.49 0.00 C 291.00 4.78 294.69 9.44 297.97 14.38 C 288.40 14.82 278.81 14.00 269.27 14.44 C 262.73 21.79 258.13 30.72 251.76 38.26 C 249.50 30.51 246.86 22.87 244.64 15.11 C 244.10 13.53 243.68 11.86 242.72 10.47 C 238.33 8.42 233.51 7.54 228.94 6.01 C 229.06 6.55 229.29 7.63 229.41 8.17 C 224.38 11.86 218.25 13.56 212.95 16.79 C 174.95 36.43 141.08 63.81 113.48 96.45 C 109.38 101.46 105.17 106.39 101.57 111.78 C 116.39 113.79 131.26 115.31 146.08 117.25 C 148.11 117.40 150.66 118.10 152.06 116.12 C 171.39 94.49 194.27 76.12 219.15 61.26 C 228.41 56.00 237.73 50.73 247.65 46.79 C 248.33 48.79 249.01 50.80 249.67 52.80 C 255.29 45.35 260.44 37.55 265.88 29.97 C 268.29 26.72 270.19 23.04 273.13 20.23 C 286.32 20.07 299.56 20.41 312.78 20.39 C 308.08 13.36 302.80 6.75 297.73 0.00 L 308.93 0.00 C 315.85 8.88 322.62 17.89 329.30 26.96 C 319.86 27.00 310.43 26.55 301.00 26.75 C 293.14 26.92 285.23 25.88 277.40 26.69 C 275.94 27.85 274.94 29.47 273.86 30.96 C 267.55 40.26 260.91 49.33 254.56 58.60 C 252.55 60.95 254.83 63.70 255.49 66.11 C 264.17 54.81 271.89 42.80 280.28 31.29 C 300.60 31.25 320.92 31.81 341.24 31.72 C 333.49 21.03 325.46 10.54 317.51 0.00 L 334.32 0.00 C 342.68 5.56 351.13 11.01 359.63 16.35 C 361.51 17.89 363.82 16.44 365.75 15.79 C 377.99 10.37 390.48 5.56 402.65 0.00 L 408.58 0.00 C 404.95 15.46 400.41 30.70 396.76 46.15 C 396.06 47.93 397.64 49.21 398.58 50.50 C 409.13 62.64 419.70 74.78 430.11 87.05 C 414.11 88.17 398.09 89.00 382.07 89.89 C 380.55 90.20 378.42 89.77 377.58 91.42 C 368.66 105.66 360.39 120.34 351.25 134.45 C 345.18 119.24 339.31 103.94 333.34 88.69 C 332.89 87.07 331.75 85.92 330.05 85.69 C 314.05 81.77 297.92 78.36 281.97 74.25 C 292.24 65.39 302.92 57.01 313.34 48.32 C 316.65 45.44 320.95 43.24 322.57 38.89 C 320.72 38.71 318.87 38.56 317.03 38.40 C 301.66 52.15 285.06 64.46 269.51 78.00 C 285.55 81.85 301.63 85.55 317.69 89.32 C 321.06 90.17 324.60 90.59 327.80 92.04 C 328.56 93.07 329.05 94.26 329.55 95.43 C 335.03 109.91 340.83 124.26 346.38 138.72 C 347.50 141.51 348.20 144.54 350.00 147.01 C 351.18 146.64 351.58 145.22 352.31 144.34 C 361.87 128.28 371.66 112.35 381.31 96.34 C 401.31 95.21 421.31 93.98 441.31 92.84 C 428.94 77.88 415.97 63.40 403.39 48.62 C 401.70 47.10 402.74 44.87 403.12 43.03 C 407.04 28.73 410.57 14.31 414.48 0.00 L 421.34 0.00 C 420.40 1.23 420.50 2.16 421.64 2.78 C 422.84 2.24 423.25 1.31 422.89 -0.00 L 436.18 0.00 C 430.52 6.43 425.28 13.21 419.70 19.70 C 417.57 22.24 415.16 24.70 414.04 27.89 C 412.90 31.07 412.43 34.43 411.76 37.73 C 431.16 38.18 450.55 39.27 469.96 39.79 C 472.12 40.05 475.04 39.45 476.17 41.87 C 488.38 60.91 500.23 80.20 512.60 99.14 C 520.34 78.04 528.09 56.94 535.87 35.85 C 536.29 33.48 538.67 33.00 540.64 32.48 C 561.86 27.16 583.02 21.65 604.23 16.30 C 597.95 10.41 590.74 5.63 584.24 0.00 L 596.49 0.00 C 606.02 7.60 615.73 14.98 625.16 22.71 C 614.59 25.19 604.10 27.97 593.60 30.73 C 594.79 33.92 595.99 37.10 597.15 40.30 C 611.51 37.01 625.68 33.01 640.00 29.56 L 640.00 42.61 C 636.05 43.67 632.05 44.57 628.15 45.80 C 621.34 47.08 614.70 49.03 608.00 50.70 C 605.96 51.18 603.95 51.74 601.95 52.30 L 602.21 52.84 C 603.07 54.88 603.80 56.99 604.61 59.06 C 605.22 60.70 605.87 62.34 606.51 63.98 C 610.53 74.82 614.58 85.66 618.95 96.36 C 621.65 103.29 624.46 110.17 626.95 117.18 C 627.66 120.46 631.30 120.46 633.95 121.09 C 635.97 121.47 637.99 121.86 640.00 122.35 L 640.00 130.02 C 633.87 128.24 627.59 127.02 621.40 125.47 C 613.78 106.07 606.35 86.59 598.83 67.15 C 596.41 61.22 594.49 55.09 591.60 49.36 C 580.19 68.03 568.78 86.70 557.39 105.38 C 554.42 109.74 552.32 114.73 548.84 118.71 C 521.85 120.79 494.73 121.76 467.68 123.39 C 484.87 144.56 503.22 164.78 520.65 185.77 C 519.08 191.31 517.54 196.86 516.32 202.50 C 518.72 202.14 521.17 201.97 523.52 201.29 C 526.16 195.19 527.10 188.47 528.94 182.10 C 513.81 164.22 498.39 146.59 483.37 128.63 C 506.25 126.90 529.20 126.16 552.09 124.65 C 553.70 124.80 554.35 123.21 555.16 122.13 C 563.28 108.63 571.58 95.24 579.74 81.76 C 583.36 76.04 586.61 70.08 590.54 64.56 C 597.89 83.50 605.15 102.47 612.50 121.41 C 613.65 124.28 614.40 127.38 616.21 129.94 C 623.89 132.75 632.14 133.71 640.00 136.00 L 640.00 142.54 C 631.35 140.42 622.67 138.42 613.99 136.41 C 612.35 135.80 609.95 135.79 609.40 133.76 C 602.50 116.28 595.96 98.65 588.97 81.20 C 578.53 97.49 568.67 114.18 558.58 130.70 C 539.23 131.95 519.85 132.72 500.50 134.04 C 512.22 148.47 524.65 162.32 536.64 176.52 C 538.58 178.25 537.43 180.88 536.99 183.01 C 535.46 188.55 533.90 194.08 532.56 199.66 C 534.53 199.40 536.49 199.05 538.48 198.78 C 540.33 191.08 542.47 183.45 544.50 175.79 C 533.94 163.03 522.75 150.79 512.41 137.85 C 528.89 136.69 545.40 136.06 561.89 135.00 C 570.50 121.02 578.88 106.88 587.65 93.00 C 588.54 94.33 589.27 95.78 589.86 97.28 C 594.51 109.80 599.53 122.18 604.17 134.70 C 605.04 136.57 605.53 139.26 608.01 139.50 C 618.65 142.13 629.38 144.47 640.00 147.20 L 640.00 151.93 C 627.95 148.89 615.81 146.21 603.76 143.22 C 600.63 142.74 600.40 139.06 599.26 136.72 C 595.09 126.00 591.34 115.09 586.62 104.60 C 580.69 114.62 574.41 124.42 568.51 134.47 C 567.12 136.64 565.86 139.78 562.77 139.62 C 550.09 140.46 537.37 140.77 524.71 141.88 C 530.80 149.57 537.42 156.83 543.72 164.35 C 546.08 167.25 548.99 169.78 550.78 173.10 C 549.36 181.40 546.37 189.36 544.63 197.61 C 546.60 197.30 548.58 197.02 550.56 196.71 C 552.49 187.81 555.76 179.17 557.16 170.18 C 550.82 161.61 543.00 154.18 536.74 145.52 C 547.44 144.98 558.14 144.48 568.83 143.76 C 574.55 134.62 579.90 125.25 585.83 116.25 C 589.80 126.28 593.54 136.41 597.58 146.42 C 607.98 148.89 618.41 151.30 628.78 153.92 C 620.75 160.99 612.30 167.57 603.97 174.28 C 604.24 178.69 604.51 183.11 604.91 187.51 C 606.60 187.25 608.30 186.99 609.97 186.56 C 610.73 183.31 608.50 178.96 611.64 176.65 C 621.07 168.93 630.60 161.33 640.00 153.57 L 640.00 162.42 C 632.48 168.44 625.02 174.54 617.53 180.61 C 615.71 181.73 615.99 183.92 615.83 185.76 C 619.19 185.15 622.89 184.94 625.57 182.54 C 630.33 178.53 635.28 174.74 640.00 170.67 L 640.00 480.00 L 249.32 480.00 C 226.94 465.14 207.47 445.88 192.43 423.62 C 190.66 421.04 189.21 418.18 186.92 416.01 C 181.96 415.40 176.97 416.29 172.00 416.28 C 164.35 416.34 156.72 416.86 149.08 417.24 C 160.77 440.55 176.62 461.76 195.24 480.00 L 136.56 480.00 C 123.05 461.89 111.32 442.39 102.37 421.62 C 101.81 420.67 101.42 419.17 100.02 419.32 C 93.69 418.94 87.35 419.58 81.03 419.85 C 72.98 420.46 64.88 420.02 56.84 420.88 C 64.35 441.52 74.31 461.17 85.56 480.00 L 42.42 480.00 C 33.12 462.74 25.29 444.67 18.94 426.12 C 18.37 424.12 16.97 422.56 15.53 421.14 C 15.16 417.43 14.92 413.67 13.82 410.09 C 8.35 391.78 4.58 372.99 2.06 354.05 C 1.58 349.12 0.99 344.21 0.00 339.35 L 0.00 275.66 C 1.84 266.14 2.26 256.43 4.06 246.90 C 6.17 235.15 8.46 223.40 11.77 211.92 C 12.92 208.08 13.20 204.05 13.10 200.06 C 12.71 180.04 12.82 160.01 12.38 139.99 C 12.25 131.81 12.63 123.61 11.96 115.45 C 7.23 122.45 4.20 130.38 0.00 137.68 L 0.00 43.55 C 11.29 28.42 23.05 13.56 36.22 0.00 M 361.03 23.32 C 352.56 18.09 344.45 12.26 335.73 7.47 C 337.67 10.67 339.70 14.04 343.00 16.02 C 348.96 19.80 354.88 23.64 360.86 27.39 C 372.10 22.77 383.22 17.84 394.52 13.37 C 391.80 25.24 388.41 36.94 385.42 48.74 C 393.34 58.06 401.55 67.12 409.27 76.60 C 397.13 77.39 384.99 78.06 372.85 78.76 C 366.20 89.06 360.43 99.91 353.54 110.05 C 349.42 99.34 345.19 88.67 341.08 77.96 C 340.78 76.60 339.67 75.78 338.36 75.56 C 327.16 72.83 315.91 70.32 304.71 67.63 C 313.31 59.88 322.54 52.85 331.44 45.46 C 333.82 43.93 332.39 40.85 332.40 38.57 C 331.41 38.48 329.43 38.30 328.45 38.22 C 328.39 39.83 328.42 41.44 328.24 43.04 C 317.47 52.25 306.20 60.87 295.53 70.19 C 309.23 73.95 323.17 76.82 336.99 80.13 C 342.17 93.44 347.48 106.72 352.53 120.09 C 360.65 108.25 367.17 95.32 375.32 83.54 C 389.49 82.26 403.75 82.04 417.94 80.82 C 409.11 70.70 400.43 60.45 391.56 50.37 C 390.79 49.39 389.63 48.27 390.28 46.89 C 393.66 33.54 397.23 20.23 400.72 6.91 C 387.35 12.02 374.31 17.98 361.03 23.32 M 360.36 32.82 C 356.74 30.43 353.15 27.97 349.29 25.97 C 351.71 29.10 353.82 32.50 356.57 35.36 C 358.02 36.56 359.90 38.24 361.87 37.06 C 367.69 34.85 373.29 32.09 379.14 29.95 C 377.86 36.61 375.49 43.04 374.33 49.72 C 378.17 55.40 383.49 59.94 387.35 65.63 C 380.60 66.27 373.75 65.92 367.06 67.05 C 363.09 72.48 360.00 78.52 356.48 84.25 C 353.17 78.27 351.26 71.64 348.65 65.33 C 342.05 63.57 335.35 62.23 328.72 60.57 C 333.41 55.51 339.62 52.10 344.25 47.03 C 344.33 44.29 344.01 41.56 343.82 38.84 C 342.03 38.68 340.22 38.66 338.45 38.40 C 338.61 40.87 338.75 43.34 338.92 45.81 C 331.68 51.85 324.30 57.74 317.05 63.77 C 326.18 66.19 335.43 68.14 344.62 70.36 C 347.96 78.79 351.13 87.29 354.57 95.68 C 354.80 95.71 355.26 95.76 355.49 95.79 C 360.57 88.30 364.63 80.11 369.86 72.72 C 379.16 71.58 388.60 71.61 397.95 70.81 C 391.92 63.50 385.48 56.52 379.50 49.17 C 381.90 40.20 384.37 31.24 386.48 22.20 C 377.59 25.27 369.15 29.49 360.36 32.82 M 543.26 43.44 C 534.51 66.71 525.84 90.03 517.55 113.46 C 520.64 113.35 523.73 113.20 526.82 112.94 C 533.82 93.59 541.06 74.33 548.06 54.98 C 548.45 52.34 551.41 52.25 553.43 51.56 C 564.15 49.00 574.77 46.03 585.50 43.52 C 588.11 39.35 590.70 35.17 593.16 30.91 C 576.46 34.81 559.94 39.45 543.26 43.44 M 282.02 41.59 L 282.55 41.84 C 280.91 43.94 279.32 46.08 277.78 48.26 C 275.82 50.90 273.93 53.59 272.16 56.37 C 270.92 58.11 269.65 59.85 268.40 61.60 C 266.04 64.61 263.96 67.82 261.96 71.09 L 261.28 71.15 C 260.26 73.00 259.84 75.03 260.35 77.13 C 263.20 75.12 265.89 72.89 268.45 70.52 L 268.79 70.49 C 275.92 64.96 282.78 59.08 289.75 53.35 C 291.89 51.48 294.08 49.65 296.32 47.88 C 298.44 46.28 300.51 44.63 302.55 42.93 L 302.51 42.61 C 303.84 41.58 305.16 40.52 306.48 39.47 L 306.91 39.57 C 307.23 39.17 307.86 38.38 308.17 37.99 C 301.09 38.14 294.01 38.29 286.93 38.03 C 284.52 37.60 283.48 40.21 282.02 41.59 M 359.93 42.54 C 356.72 40.12 353.11 38.08 348.93 38.66 C 349.17 42.01 349.45 45.35 349.71 48.69 C 346.41 51.62 342.53 53.92 339.79 57.43 C 343.98 58.48 348.34 58.98 352.35 60.64 C 354.41 64.48 355.23 68.88 357.56 72.61 C 359.73 68.82 361.98 65.08 364.26 61.36 C 368.56 61.04 372.87 60.84 377.18 60.61 C 375.06 56.85 371.87 53.90 369.06 50.68 C 369.86 46.25 371.13 41.93 372.16 37.55 C 368.03 39.09 363.99 40.83 359.93 42.54 M 412.18 49.52 C 414.76 53.00 417.52 56.37 420.55 59.47 C 421.67 60.73 423.49 60.44 425.00 60.58 C 435.97 60.82 446.94 61.40 457.92 61.70 C 459.83 61.94 462.49 61.39 463.48 63.55 C 473.76 79.92 484.18 96.21 494.45 112.59 C 495.09 113.37 495.52 114.71 496.78 114.55 C 500.52 114.74 504.25 114.13 507.99 113.92 C 494.78 93.12 481.68 72.25 468.41 51.49 C 449.67 50.84 430.93 49.78 412.18 49.52 M 570.63 60.34 C 567.49 60.89 564.45 61.84 561.42 62.77 C 559.66 63.16 557.89 63.52 556.24 64.21 C 555.16 65.80 554.43 67.67 554.30 69.59 C 551.74 74.55 550.23 79.93 548.20 85.10 C 546.90 88.39 545.74 91.74 545.09 95.23 C 542.09 100.52 540.54 106.52 538.53 112.23 C 540.24 112.00 541.96 111.78 543.69 111.59 C 545.27 108.65 546.96 105.77 548.86 103.02 C 554.68 94.47 559.54 85.31 565.36 76.76 C 567.73 72.68 570.16 68.63 572.84 64.74 L 572.63 64.33 C 573.74 62.56 574.86 60.78 575.96 59.00 C 574.18 59.44 572.39 59.89 570.63 60.34 M 433.04 74.10 C 435.74 77.23 438.22 80.58 441.45 83.21 C 443.55 86.75 446.59 89.63 449.44 92.56 C 450.91 95.19 453.08 97.35 454.92 99.73 C 453.50 99.81 452.10 99.89 450.70 99.97 C 450.09 100.06 448.88 100.25 448.28 100.34 C 440.32 100.02 432.43 101.38 424.50 101.71 C 421.06 101.81 417.63 101.86 414.21 102.21 C 408.11 102.06 402.06 102.98 395.98 103.10 C 392.35 103.30 388.64 103.12 385.11 104.08 C 384.34 104.93 383.68 105.87 383.02 106.80 L 383.20 107.24 C 380.40 111.21 377.88 115.38 375.68 119.71 C 373.70 121.41 372.71 123.94 371.37 126.12 L 371.48 126.50 C 369.84 128.94 368.29 131.44 366.83 133.98 C 364.53 138.02 361.37 141.60 359.59 145.92 C 362.79 148.75 366.44 151.01 370.11 153.18 C 371.73 155.00 373.71 156.58 375.92 157.60 C 379.67 160.81 383.47 164.23 387.96 166.33 C 391.14 165.76 394.12 164.42 397.13 163.27 C 401.50 161.90 405.72 160.08 410.16 158.89 C 417.47 156.34 424.87 154.04 432.08 151.20 C 435.63 150.13 439.06 148.68 442.60 147.57 C 447.83 146.04 452.98 144.21 458.07 142.26 C 461.08 141.42 463.94 140.13 466.87 139.06 C 466.43 138.64 465.55 137.81 465.11 137.39 C 463.12 134.35 460.69 131.64 458.23 128.98 C 457.17 127.83 456.13 126.68 455.08 125.54 C 454.16 124.38 453.28 123.19 452.40 122.01 C 451.23 120.91 450.09 119.79 448.95 118.67 C 449.16 118.44 449.57 117.98 449.78 117.75 C 450.21 117.50 451.06 116.98 451.49 116.72 C 452.96 116.84 454.43 116.88 455.91 116.84 C 459.16 116.68 462.43 116.64 465.65 116.09 C 468.11 116.09 470.57 115.98 473.04 115.85 C 475.64 115.75 478.25 115.67 480.86 115.59 C 479.12 112.48 477.26 109.41 474.91 106.71 C 473.17 102.73 470.55 99.21 468.04 95.70 C 466.42 91.68 463.74 88.20 461.11 84.80 C 459.65 81.48 457.43 78.58 455.45 75.56 L 455.46 74.93 C 448.00 74.36 440.53 73.66 433.04 74.10 M 264.49 85.17 C 264.68 85.61 265.08 86.48 265.28 86.92 C 244.67 96.28 225.17 108.27 208.03 123.09 C 206.05 124.27 208.90 124.72 209.90 124.83 C 219.91 125.94 229.90 127.17 239.89 128.38 C 239.92 132.60 239.96 136.82 239.98 141.04 C 252.46 132.24 265.47 124.08 279.55 118.06 C 281.28 122.06 282.74 126.22 285.37 129.75 C 286.08 133.67 288.37 137.13 290.14 140.66 C 290.60 143.59 292.32 146.12 293.48 148.81 C 294.11 150.15 294.75 151.49 295.48 152.79 C 275.99 161.47 258.09 173.78 243.24 189.12 C 241.14 191.37 237.99 193.51 238.30 196.99 C 237.96 213.11 237.10 229.22 237.19 245.36 C 239.41 241.78 241.36 238.05 243.51 234.43 C 258.28 210.03 280.57 190.25 306.65 178.66 C 305.08 169.75 305.94 160.60 305.05 151.60 C 305.19 148.44 305.25 145.28 305.20 142.13 C 305.04 139.11 304.99 136.10 304.92 133.08 C 304.66 123.94 304.57 114.79 304.51 105.65 C 305.29 106.02 306.86 106.78 307.65 107.15 L 307.66 107.67 C 312.03 110.33 315.56 114.42 320.35 116.31 C 324.18 120.17 328.86 123.03 333.30 126.12 C 332.62 124.22 332.34 122.01 330.96 120.45 C 329.04 112.85 325.51 105.77 322.77 98.44 C 313.27 96.44 303.94 93.60 294.35 92.07 C 291.29 91.20 288.26 90.15 285.08 89.83 C 279.34 88.14 273.51 86.60 267.56 85.82 L 267.34 85.47 C 266.63 85.39 265.20 85.25 264.49 85.17 M 20.08 417.67 C 89.59 414.26 159.11 410.91 228.63 407.54 C 231.23 316.17 233.77 224.79 236.39 133.42 C 162.70 124.40 88.99 115.54 15.30 106.53 C 16.81 210.24 18.44 313.96 20.08 417.67 M 313.80 123.40 C 314.16 147.29 314.44 171.19 315.12 195.07 C 316.70 201.02 320.04 206.40 322.45 212.06 C 322.47 187.34 321.66 162.61 321.26 137.89 C 329.17 143.22 336.42 149.47 344.48 154.58 C 342.51 149.59 341.87 143.23 336.94 140.16 C 329.13 134.71 321.75 128.65 313.80 123.40 M 584.37 128.47 C 580.27 135.04 576.40 141.75 572.19 148.25 C 564.44 148.68 556.68 149.09 548.93 149.47 C 553.26 155.54 558.65 160.77 563.24 166.64 C 564.22 167.61 563.62 169.02 563.42 170.17 C 561.62 176.83 559.77 183.47 558.15 190.18 C 565.59 187.73 572.50 183.88 579.99 181.61 C 584.33 183.68 587.92 187.03 592.24 189.15 C 594.47 189.66 596.78 188.90 599.03 188.73 C 599.28 183.14 598.23 177.61 598.08 172.04 C 597.70 170.59 599.02 169.70 599.94 168.88 C 605.31 164.43 611.01 160.35 616.04 155.51 C 609.29 153.96 602.59 152.23 595.82 150.78 C 594.72 150.47 593.22 150.31 592.88 148.98 C 589.78 142.26 588.11 134.89 584.37 128.47 M 463.48 148.64 C 438.56 157.28 413.58 165.78 388.68 174.49 C 387.22 174.69 385.53 176.06 384.18 175.01 C 374.28 168.20 365.04 160.38 354.93 153.89 C 353.43 155.61 352.26 157.59 351.10 159.55 C 360.28 166.93 370.04 173.55 379.37 180.75 C 380.86 181.70 382.46 183.51 384.40 182.63 C 407.87 174.70 431.20 166.33 454.72 158.53 C 449.02 177.90 442.00 196.87 435.90 216.12 C 439.39 215.70 442.85 215.07 446.30 214.39 C 453.60 191.94 461.39 169.64 468.54 147.15 C 466.84 147.62 465.15 148.10 463.48 148.64 M 478.14 155.66 C 477.26 157.80 476.43 159.97 475.60 162.13 C 474.40 166.23 472.93 170.24 471.53 174.27 L 471.71 174.60 C 470.71 177.41 469.53 180.15 468.74 183.02 C 467.41 187.45 465.40 191.71 464.54 196.27 C 466.22 201.02 468.50 205.63 470.82 210.12 C 474.62 209.89 478.35 209.11 482.06 208.30 C 482.74 208.16 484.10 207.89 484.78 207.75 C 488.22 207.58 491.59 206.81 494.93 206.01 C 497.27 205.66 499.62 205.33 501.96 204.98 C 503.55 204.66 505.14 204.37 506.74 204.08 C 507.82 200.37 508.87 196.60 508.89 192.70 C 511.50 189.61 507.56 186.82 505.84 184.51 C 504.05 182.34 502.25 180.19 500.35 178.12 C 496.90 174.39 493.81 170.35 490.30 166.68 C 490.25 166.45 490.16 165.99 490.11 165.76 C 486.14 161.64 482.71 157.04 478.58 153.08 C 478.47 153.72 478.25 155.02 478.14 155.66 M 329.80 154.24 C 329.76 175.12 330.43 196.00 330.80 216.88 C 329.23 217.99 327.68 219.12 326.14 220.25 C 325.27 218.51 324.47 216.74 323.73 214.95 C 298.90 225.28 279.06 246.56 269.62 271.65 C 262.85 289.52 261.35 309.33 265.27 328.02 C 269.41 348.45 280.30 367.38 295.62 381.49 C 310.99 395.82 331.03 405.05 351.91 407.46 C 370.68 409.84 389.95 406.44 407.17 398.75 C 403.86 389.25 399.01 380.35 394.97 371.13 C 374.28 380.97 348.91 380.39 329.01 368.87 C 313.09 359.93 300.98 344.58 296.00 327.02 C 290.50 308.43 293.27 287.67 303.17 271.03 C 310.72 258.17 322.65 248.35 336.03 242.01 C 334.79 239.47 333.77 236.83 332.83 234.17 C 333.33 234.00 334.31 233.65 334.80 233.48 C 341.06 232.32 345.43 227.07 350.59 223.74 C 350.48 213.70 350.19 203.67 350.02 193.63 C 358.46 199.34 366.35 205.82 374.77 211.57 C 384.17 208.17 393.62 204.91 403.12 201.80 C 401.07 208.90 398.59 215.86 396.23 222.86 C 399.26 222.39 402.36 222.20 405.30 221.30 C 406.57 220.28 406.70 218.42 407.35 217.01 C 409.99 208.40 413.22 199.98 415.67 191.31 C 402.61 195.45 389.72 200.15 376.76 204.60 C 365.34 196.61 354.32 188.09 343.04 179.92 C 343.22 193.81 343.70 207.71 343.70 221.60 C 339.47 224.53 335.36 227.63 331.06 230.45 C 330.02 228.54 329.06 226.59 328.20 224.60 C 330.82 222.76 333.67 221.18 335.99 218.96 C 336.77 214.03 335.83 209.02 336.01 204.05 C 335.77 191.05 335.65 178.04 335.22 165.05 C 349.57 175.21 363.51 185.98 377.78 196.25 C 378.72 197.12 379.95 196.60 381.00 196.30 C 397.16 190.74 413.26 184.97 429.50 179.66 C 425.61 193.04 420.63 206.07 416.59 219.39 C 419.09 219.00 421.69 218.90 424.09 217.99 C 424.85 217.00 425.13 215.75 425.58 214.61 C 430.28 200.00 435.35 185.52 440.03 170.91 C 420.24 177.45 400.64 184.63 380.84 191.13 C 377.83 190.06 375.58 187.61 372.97 185.87 C 358.54 175.38 344.41 164.46 329.80 154.24 M 570.71 192.90 C 574.52 192.73 578.30 192.20 582.03 191.46 C 581.22 190.75 580.41 190.03 579.54 189.41 C 576.36 189.81 573.55 191.54 570.71 192.90 M 356.81 206.74 C 356.93 213.20 357.00 219.66 357.08 226.11 C 355.06 227.60 353.07 229.11 351.11 230.67 C 362.98 228.53 374.89 226.58 386.79 224.59 C 388.35 220.46 389.78 216.28 390.95 212.02 C 385.61 213.54 380.44 215.58 375.18 217.34 C 374.02 217.61 372.63 218.27 371.57 217.40 C 366.56 213.97 361.92 210.03 356.81 206.74 M 234.26 362.72 C 232.92 377.11 233.55 391.60 232.81 406.03 C 232.95 409.26 231.82 413.15 234.31 415.75 C 255.52 441.22 284.44 460.18 316.24 469.51 C 355.36 480.94 398.84 478.08 435.63 460.29 C 433.38 455.00 430.92 449.80 428.51 444.57 C 427.01 441.40 425.94 437.97 423.83 435.12 C 416.88 437.52 410.27 440.91 403.08 442.64 C 378.82 449.60 352.68 449.90 328.25 443.57 C 304.15 437.27 281.77 424.44 264.27 406.69 C 251.44 394.20 241.78 378.87 234.26 362.72 Z" />
<path fill="#000000" opacity="1.00" d=" M 244.39 0.00 L 272.46 0.00 C 273.37 1.35 274.24 2.74 275.10 4.14 C 271.15 4.26 267.17 3.96 263.25 4.47 C 260.27 7.36 258.35 11.15 255.62 14.27 C 254.25 10.44 253.72 6.20 251.53 2.74 C 249.30 1.48 246.83 0.73 244.39 0.00 Z" />
<path fill="#000000" opacity="1.00" d=" M 343.14 0.00 L 353.48 0.00 C 357.19 2.04 360.86 6.89 365.46 4.26 C 368.53 3.01 371.40 1.34 374.42 0.00 L 389.84 0.00 C 382.21 3.93 374.09 6.75 366.30 10.31 C 364.29 11.03 361.98 12.60 359.99 11.00 C 354.28 7.49 348.68 3.78 343.14 0.00 Z" />
<path fill="#000000" opacity="1.00" d=" M 444.52 0.00 L 456.14 0.00 C 450.50 6.39 445.14 13.04 439.78 19.66 C 455.07 20.40 470.37 20.88 485.66 21.48 C 494.08 34.36 501.86 47.67 510.59 60.35 C 515.75 45.96 521.14 31.65 526.36 17.28 C 541.21 13.31 556.18 9.77 571.01 5.71 C 568.63 3.79 566.22 1.90 563.82 0.00 L 575.46 0.00 C 580.41 3.88 585.33 7.80 590.21 11.76 C 571.78 16.53 553.32 21.20 534.86 25.88 C 533.38 26.16 531.99 26.79 531.65 28.40 C 524.97 46.41 518.41 64.49 511.73 82.50 C 502.73 69.27 494.54 55.49 485.84 42.05 C 483.73 38.88 482.08 35.37 479.51 32.53 C 478.09 31.95 476.50 32.03 475.00 31.90 C 456.61 31.41 438.24 30.48 419.85 29.91 C 427.97 19.85 436.35 10.01 444.52 0.00 Z" />
<path fill="#000000" opacity="1.00" d=" M 466.37 0.00 L 476.30 0.00 C 475.97 0.42 475.29 1.25 474.95 1.66 C 482.14 2.07 489.34 2.27 496.54 2.51 C 500.64 8.45 503.90 14.95 508.48 20.55 C 511.11 13.72 513.30 6.72 516.18 0.00 L 553.69 0.00 C 543.60 3.43 533.11 5.41 522.86 8.25 C 520.75 8.49 520.32 10.83 519.58 12.42 C 516.28 21.73 512.89 31.02 509.32 40.24 C 503.14 30.83 497.30 21.21 491.16 11.78 C 480.03 11.47 468.91 10.99 457.79 10.58 C 460.58 7.00 463.29 3.34 466.37 0.00 Z" />
<path fill="#000000" opacity="1.00" d=" M 608.14 0.00 L 634.58 0.00 C 632.33 1.45 630.21 3.10 628.06 4.67 C 630.25 6.63 632.48 8.54 634.87 10.26 C 636.63 11.53 638.38 12.82 640.00 14.27 L 640.00 25.32 C 629.46 16.77 618.59 8.65 608.14 0.00 Z" />
<path fill="#000000" opacity="1.00" d=" M 231.57 13.01 C 233.52 13.54 235.46 14.08 237.41 14.62 C 240.46 24.02 243.31 33.49 246.39 42.88 L 245.79 44.14 C 240.88 33.85 236.33 23.38 231.57 13.01 Z" />
<path fill="#000000" opacity="1.00" d=" M 20.04 111.87 C 90.91 119.69 161.78 127.49 232.65 135.32 C 230.15 225.52 227.69 315.72 225.18 405.93 C 159.14 407.19 93.10 408.40 27.07 409.67 C 24.67 310.41 22.41 211.14 20.04 111.87 M 27.96 164.11 C 27.98 165.39 28.03 166.68 28.11 167.97 C 28.03 183.68 27.69 199.44 28.94 215.10 C 28.96 216.39 29.02 217.68 29.09 218.98 C 29.14 234.06 28.55 249.20 29.93 264.23 C 29.94 266.14 30.00 268.05 30.10 269.97 C 30.04 286.00 29.69 302.09 30.95 318.08 C 30.97 320.25 31.10 322.42 31.23 324.59 C 30.49 334.04 31.10 343.52 30.88 352.98 C 31.07 357.78 30.34 362.75 31.92 367.39 C 31.94 369.23 32.01 371.09 32.11 372.94 C 31.82 382.64 31.90 392.36 31.92 402.07 L 32.99 402.00 C 40.27 401.83 47.58 402.35 54.84 401.74 C 59.55 402.15 64.28 401.85 69.00 401.96 C 119.78 401.80 170.57 402.35 221.34 401.71 C 221.73 391.45 222.38 381.16 221.76 370.89 C 221.91 368.77 222.04 366.66 222.08 364.54 C 223.20 362.56 223.13 360.23 223.14 358.03 C 223.11 350.04 223.21 342.05 222.90 334.07 C 222.99 332.88 223.04 331.69 223.08 330.50 C 224.46 327.52 224.08 324.18 224.13 321.00 C 224.03 313.96 224.22 306.92 223.87 299.89 C 223.96 298.45 224.06 297.01 224.08 295.58 C 225.34 292.89 225.12 289.88 225.13 287.00 C 225.04 279.64 225.18 272.28 224.90 264.94 C 224.98 263.78 225.04 262.63 225.07 261.48 C 226.47 257.79 226.05 253.80 226.12 249.95 C 226.06 243.88 226.32 237.79 225.79 231.73 C 225.91 229.97 226.04 228.21 226.08 226.45 C 227.49 223.49 227.07 220.16 227.13 216.99 C 227.00 209.94 227.28 202.89 226.86 195.85 C 226.96 194.25 227.00 192.66 227.01 191.06 L 227.85 191.05 C 228.20 181.30 228.31 171.53 227.84 161.79 C 227.94 160.33 228.04 158.87 228.07 157.41 C 229.87 151.45 228.96 145.10 228.89 138.98 C 226.04 138.84 223.19 138.88 220.36 139.23 C 219.69 139.18 218.35 139.08 217.67 139.03 C 217.07 136.68 212.91 137.20 211.27 138.41 C 210.38 138.31 208.60 138.12 207.71 138.02 C 207.02 135.69 202.91 136.16 201.28 137.46 C 200.50 137.36 198.94 137.18 198.16 137.09 L 198.19 135.93 C 195.36 135.87 192.53 135.92 189.72 136.18 C 189.50 136.16 189.05 136.11 188.83 136.09 C 186.23 133.96 182.71 135.10 179.69 135.20 C 179.49 135.17 179.08 135.13 178.88 135.11 C 176.32 132.86 172.70 134.18 169.66 134.20 C 169.45 134.17 169.04 134.13 168.83 134.10 C 166.19 131.98 162.64 133.11 159.58 133.19 C 159.39 133.17 159.01 133.13 158.82 133.11 C 156.24 130.91 152.64 132.15 149.60 132.19 C 149.41 132.17 149.04 132.13 148.85 132.11 C 146.22 130.00 142.69 131.10 139.64 131.20 C 139.44 131.18 139.03 131.14 138.83 131.11 C 136.19 129.01 132.67 130.06 129.62 130.20 C 129.41 130.18 128.99 130.13 128.78 130.11 C 126.12 128.09 122.67 129.05 119.62 129.21 C 119.39 129.18 118.92 129.13 118.68 129.10 C 116.03 127.12 112.62 127.99 109.60 128.21 C 109.40 128.19 109.00 128.15 108.80 128.12 C 106.20 125.93 102.60 127.11 99.55 127.21 C 99.35 127.19 98.96 127.14 98.76 127.12 C 96.11 125.04 92.61 126.06 89.56 126.22 C 89.34 126.20 88.88 126.14 88.65 126.12 C 86.03 124.04 82.53 125.10 79.51 125.21 C 79.30 125.19 78.89 125.14 78.68 125.12 C 76.00 123.09 72.53 124.03 69.47 124.21 C 69.27 124.19 68.88 124.15 68.68 124.13 C 66.05 122.00 62.57 123.01 59.53 123.23 C 59.32 123.21 58.90 123.16 58.69 123.14 C 55.85 120.97 52.11 122.09 48.84 122.16 L 48.57 122.13 C 45.98 120.03 42.51 121.00 39.51 121.29 C 38.94 121.24 37.81 121.14 37.24 121.09 L 37.28 119.89 C 34.41 119.90 31.54 119.95 28.68 120.12 L 27.27 119.89 C 26.75 134.61 26.90 149.41 27.96 164.11 Z" />
<path fill="#000000" opacity="1.00" d=" M 574.96 152.95 C 577.95 148.36 580.63 143.56 583.67 138.99 C 585.86 143.99 587.22 149.39 589.89 154.17 C 594.92 155.72 600.18 156.48 605.22 158.06 C 601.29 161.63 597.08 164.89 592.89 168.15 C 593.04 173.62 593.67 179.05 594.01 184.51 C 589.17 182.01 585.09 178.11 580.03 176.10 C 574.99 177.61 570.37 180.25 565.36 181.84 C 566.31 177.17 567.81 172.65 568.89 168.02 C 569.56 166.61 568.61 165.33 567.76 164.32 C 564.94 160.78 561.53 157.71 559.18 153.81 C 564.44 153.50 569.69 153.15 574.96 152.95 Z" />
<path fill="#000000" opacity="1.00" d=" M 0.00 477.14 C 1.14 477.60 2.08 478.69 1.76 480.00 L 0.00 480.00 L 0.00 477.14 Z" />
</g>
<g id="#4b4b4bff">
<path fill="#4b4b4b" opacity="1.00" d=" M 230.05 0.00 L 244.39 0.00 C 246.83 0.73 249.30 1.48 251.53 2.74 C 253.72 6.20 254.25 10.44 255.62 14.27 C 258.35 11.15 260.27 7.36 263.25 4.47 C 267.17 3.96 271.15 4.26 275.10 4.14 C 274.24 2.74 273.37 1.35 272.46 0.00 L 277.53 0.00 C 279.82 2.81 281.86 5.81 283.98 8.75 C 277.70 8.77 271.41 8.74 265.13 8.80 C 261.42 13.91 257.94 19.18 254.14 24.22 C 252.22 18.24 250.33 12.26 248.52 6.26 C 242.40 4.07 235.97 2.77 230.05 0.00 Z" />
<path fill="#4b4b4b" opacity="1.00" d=" M 287.49 0.00 L 297.73 0.00 C 302.80 6.75 308.08 13.36 312.78 20.39 C 299.56 20.41 286.32 20.07 273.13 20.23 C 270.19 23.04 268.29 26.72 265.88 29.97 C 260.44 37.55 255.29 45.35 249.67 52.80 C 249.01 50.80 248.33 48.79 247.65 46.79 C 247.21 45.49 246.79 44.19 246.39 42.88 C 243.31 33.49 240.46 24.02 237.41 14.62 C 235.46 14.08 233.52 13.54 231.57 13.01 C 230.83 11.41 230.06 9.81 229.41 8.17 C 229.29 7.63 229.06 6.55 228.94 6.01 C 233.51 7.54 238.33 8.42 242.72 10.47 C 243.68 11.86 244.10 13.53 244.64 15.11 C 246.86 22.87 249.50 30.51 251.76 38.26 C 258.13 30.72 262.73 21.79 269.27 14.44 C 278.81 14.00 288.40 14.82 297.97 14.38 C 294.69 9.44 291.00 4.78 287.49 0.00 Z" />
<path fill="#4b4b4b" opacity="1.00" d=" M 308.93 0.00 L 317.51 0.00 C 325.46 10.54 333.49 21.03 341.24 31.72 C 320.92 31.81 300.60 31.25 280.28 31.29 C 271.89 42.80 264.17 54.81 255.49 66.11 C 254.83 63.70 252.55 60.95 254.56 58.60 C 260.91 49.33 267.55 40.26 273.86 30.96 C 274.94 29.47 275.94 27.85 277.40 26.69 C 285.23 25.88 293.14 26.92 301.00 26.75 C 310.43 26.55 319.86 27.00 329.30 26.96 C 322.62 17.89 315.85 8.88 308.93 0.00 Z" />
<path fill="#4b4b4b" opacity="1.00" d=" M 334.32 0.00 L 343.14 0.00 C 348.68 3.78 354.28 7.49 359.99 11.00 C 361.98 12.60 364.29 11.03 366.30 10.31 C 374.09 6.75 382.21 3.93 389.84 0.00 L 402.65 0.00 C 390.48 5.56 377.99 10.37 365.75 15.79 C 363.82 16.44 361.51 17.89 359.63 16.35 C 351.13 11.01 342.68 5.56 334.32 0.00 Z" />
<path fill="#4b4b4b" opacity="1.00" d=" M 362.88 0.00 L 374.42 0.00 C 371.40 1.34 368.53 3.01 365.46 4.26 C 364.62 2.83 363.78 1.39 362.88 0.00 Z" />
<path fill="#4b4b4b" opacity="1.00" d=" M 408.58 0.00 L 414.48 0.00 C 410.57 14.31 407.04 28.73 403.12 43.03 C 402.74 44.87 401.70 47.10 403.39 48.62 C 415.97 63.40 428.94 77.88 441.31 92.84 C 421.31 93.98 401.31 95.21 381.31 96.34 C 371.66 112.35 361.87 128.28 352.31 144.34 C 351.58 145.22 351.18 146.64 350.00 147.01 C 348.20 144.54 347.50 141.51 346.38 138.72 C 340.83 124.26 335.03 109.91 329.55 95.43 C 329.05 94.26 328.56 93.07 327.80 92.04 C 324.60 90.59 321.06 90.17 317.69 89.32 C 301.63 85.55 285.55 81.85 269.51 78.00 C 285.06 64.46 301.66 52.15 317.03 38.40 C 318.87 38.56 320.72 38.71 322.57 38.89 C 320.95 43.24 316.65 45.44 313.34 48.32 C 302.92 57.01 292.24 65.39 281.97 74.25 C 297.92 78.36 314.05 81.77 330.05 85.69 C 331.75 85.92 332.89 87.07 333.34 88.69 C 339.31 103.94 345.18 119.24 351.25 134.45 C 360.39 120.34 368.66 105.66 377.58 91.42 C 378.42 89.77 380.55 90.20 382.07 89.89 C 398.09 89.00 414.11 88.17 430.11 87.05 C 419.70 74.78 409.13 62.64 398.58 50.50 C 397.64 49.21 396.06 47.93 396.76 46.15 C 400.41 30.70 404.95 15.46 408.58 0.00 Z" />
<path fill="#4b4b4b" opacity="1.00" d=" M 421.34 0.00 L 422.89 0.00 C 423.25 1.31 422.84 2.24 421.64 2.78 C 420.50 2.16 420.40 1.23 421.34 0.00 Z" />
<path fill="#4b4b4b" opacity="1.00" d=" M 436.18 0.00 L 444.52 0.00 C 436.35 10.01 427.97 19.85 419.85 29.91 C 438.24 30.48 456.61 31.41 475.00 31.90 C 476.50 32.03 478.09 31.95 479.51 32.53 C 482.08 35.37 483.73 38.88 485.84 42.05 C 494.54 55.49 502.73 69.27 511.73 82.50 C 518.41 64.49 524.97 46.41 531.65 28.40 C 531.99 26.79 533.38 26.16 534.86 25.88 C 553.32 21.20 571.78 16.53 590.21 11.76 C 585.33 7.80 580.41 3.88 575.46 0.00 L 584.24 0.00 C 590.74 5.63 597.95 10.41 604.23 16.30 C 583.02 21.65 561.86 27.16 540.64 32.48 C 538.67 33.00 536.29 33.48 535.87 35.85 C 528.09 56.94 520.34 78.04 512.60 99.14 C 500.23 80.20 488.38 60.91 476.17 41.87 C 475.04 39.45 472.12 40.05 469.96 39.79 C 450.55 39.27 431.16 38.18 411.76 37.73 C 412.43 34.43 412.90 31.07 414.04 27.89 C 415.16 24.70 417.57 22.24 419.70 19.70 C 425.28 13.21 430.52 6.43 436.18 0.00 Z" />
<path fill="#4b4b4b" opacity="1.00" d=" M 456.14 0.00 L 466.37 0.00 C 463.29 3.34 460.58 7.00 457.79 10.58 C 468.91 10.99 480.03 11.47 491.16 11.78 C 497.30 21.21 503.14 30.83 509.32 40.24 C 512.89 31.02 516.28 21.73 519.58 12.42 C 520.32 10.83 520.75 8.49 522.86 8.25 C 533.11 5.41 543.60 3.43 553.69 0.00 L 563.82 0.00 C 566.22 1.90 568.63 3.79 571.01 5.71 C 556.18 9.77 541.21 13.31 526.36 17.28 C 521.14 31.65 515.75 45.96 510.59 60.35 C 501.86 47.67 494.08 34.36 485.66 21.48 C 470.37 20.88 455.07 20.40 439.78 19.66 C 445.14 13.04 450.50 6.39 456.14 0.00 Z" />
<path fill="#4b4b4b" opacity="1.00" d=" M 476.30 0.00 L 516.18 0.00 C 513.30 6.72 511.11 13.72 508.48 20.55 C 503.90 14.95 500.64 8.45 496.54 2.51 C 489.34 2.27 482.14 2.07 474.95 1.66 C 475.29 1.25 475.97 0.42 476.30 0.00 Z" />
<path fill="#4b4b4b" opacity="1.00" d=" M 596.49 0.00 L 608.14 0.00 C 618.59 8.65 629.46 16.77 640.00 25.32 L 640.00 29.56 C 625.68 33.01 611.51 37.01 597.15 40.30 C 595.99 37.10 594.79 33.92 593.60 30.73 C 604.10 27.97 614.59 25.19 625.16 22.71 C 615.73 14.98 606.02 7.60 596.49 0.00 Z" />
<path fill="#4b4b4b" opacity="1.00" d=" M 361.03 23.32 C 374.31 17.98 387.35 12.02 400.72 6.91 C 397.23 20.23 393.66 33.54 390.28 46.89 C 389.63 48.27 390.79 49.39 391.56 50.37 C 400.43 60.45 409.11 70.70 417.94 80.82 C 403.75 82.04 389.49 82.26 375.32 83.54 C 367.17 95.32 360.65 108.25 352.53 120.09 C 347.48 106.72 342.17 93.44 336.99 80.13 C 323.17 76.82 309.23 73.95 295.53 70.19 C 306.20 60.87 317.47 52.25 328.24 43.04 C 328.42 41.44 328.39 39.83 328.45 38.22 C 329.43 38.30 331.41 38.48 332.40 38.57 C 332.39 40.85 333.82 43.93 331.44 45.46 C 322.54 52.85 313.31 59.88 304.71 67.63 C 315.91 70.32 327.16 72.83 338.36 75.56 C 339.67 75.78 340.78 76.60 341.08 77.96 C 345.19 88.67 349.42 99.34 353.54 110.05 C 360.43 99.91 366.20 89.06 372.85 78.76 C 384.99 78.06 397.13 77.39 409.27 76.60 C 401.55 67.12 393.34 58.06 385.42 48.74 C 388.41 36.94 391.80 25.24 394.52 13.37 C 383.22 17.84 372.10 22.77 360.86 27.39 C 354.88 23.64 348.96 19.80 343.00 16.02 C 339.70 14.04 337.67 10.67 335.73 7.47 C 344.45 12.26 352.56 18.09 361.03 23.32 Z" />
<path fill="#4b4b4b" opacity="1.00" d=" M 634.87 10.26 C 636.59 9.15 638.33 8.04 640.00 6.83 L 640.00 14.27 C 638.38 12.82 636.63 11.53 634.87 10.26 Z" />
<path fill="#4b4b4b" opacity="1.00" d=" M 360.36 32.82 C 369.15 29.49 377.59 25.27 386.48 22.20 C 384.37 31.24 381.90 40.20 379.50 49.17 C 385.48 56.52 391.92 63.50 397.95 70.81 C 388.60 71.61 379.16 71.58 369.86 72.72 C 364.63 80.11 360.57 88.30 355.49 95.79 C 355.26 95.76 354.80 95.71 354.57 95.68 C 351.13 87.29 347.96 78.79 344.62 70.36 C 335.43 68.14 326.18 66.19 317.05 63.77 C 324.30 57.74 331.68 51.85 338.92 45.81 C 338.75 43.34 338.61 40.87 338.45 38.40 C 340.22 38.66 342.03 38.68 343.82 38.84 C 344.01 41.56 344.33 44.29 344.25 47.03 C 339.62 52.10 333.41 55.51 328.72 60.57 C 335.35 62.23 342.05 63.57 348.65 65.33 C 351.26 71.64 353.17 78.27 356.48 84.25 C 360.00 78.52 363.09 72.48 367.06 67.05 C 373.75 65.92 380.60 66.27 387.35 65.63 C 383.49 59.94 378.17 55.40 374.33 49.72 C 375.49 43.04 377.86 36.61 379.14 29.95 C 373.29 32.09 367.69 34.85 361.87 37.06 C 359.90 38.24 358.02 36.56 356.57 35.36 C 353.82 32.50 351.71 29.10 349.29 25.97 C 353.15 27.97 356.74 30.43 360.36 32.82 Z" />
<path fill="#4b4b4b" opacity="1.00" d=" M 543.26 43.44 C 559.94 39.45 576.46 34.81 593.16 30.91 C 590.70 35.17 588.11 39.35 585.50 43.52 C 574.77 46.03 564.15 49.00 553.43 51.56 C 551.41 52.25 548.45 52.34 548.06 54.98 C 541.06 74.33 533.82 93.59 526.82 112.94 C 523.73 113.20 520.64 113.35 517.55 113.46 C 525.84 90.03 534.51 66.71 543.26 43.44 Z" />
<path fill="#4b4b4b" opacity="1.00" d=" M 359.93 42.54 C 363.99 40.83 368.03 39.09 372.16 37.55 C 371.13 41.93 369.86 46.25 369.06 50.68 C 371.87 53.90 375.06 56.85 377.18 60.61 C 372.87 60.84 368.56 61.04 364.26 61.36 C 361.98 65.08 359.73 68.82 357.56 72.61 C 355.23 68.88 354.41 64.48 352.35 60.64 C 348.34 58.98 343.98 58.48 339.79 57.43 C 342.53 53.92 346.41 51.62 349.71 48.69 C 349.45 45.35 349.17 42.01 348.93 38.66 C 353.11 38.08 356.72 40.12 359.93 42.54 Z" />
<path fill="#4b4b4b" opacity="1.00" d=" M 302.27 38.81 C 303.69 38.88 305.09 39.15 306.48 39.47 C 305.16 40.52 303.84 41.58 302.51 42.61 C 302.33 41.35 302.25 40.08 302.27 38.81 Z" />
<path fill="#4b4b4b" opacity="1.00" d=" M 282.55 41.84 C 287.07 44.00 291.70 45.93 296.32 47.88 C 294.08 49.65 291.89 51.48 289.75 53.35 C 285.74 51.70 281.73 50.03 277.78 48.26 C 279.32 46.08 280.91 43.94 282.55 41.84 Z" />
<path fill="#4b4b4b" opacity="1.00" d=" M 628.15 45.80 C 632.05 44.57 636.05 43.67 640.00 42.61 L 640.00 43.74 C 634.63 48.21 628.69 51.93 623.16 56.19 C 621.53 57.18 619.82 59.04 617.75 58.28 C 612.50 56.69 607.39 54.63 602.21 52.84 L 601.95 52.30 C 603.95 51.74 605.96 51.18 608.00 50.70 C 611.38 51.24 614.55 52.96 617.98 53.11 C 621.88 51.49 624.82 48.30 628.15 45.80 Z" />
<path fill="#4b4b4b" opacity="1.00" d=" M 412.18 49.52 C 430.93 49.78 449.67 50.84 468.41 51.49 C 481.68 72.25 494.78 93.12 507.99 113.92 C 504.25 114.13 500.52 114.74 496.78 114.55 C 495.52 114.71 495.09 113.37 494.45 112.59 C 484.18 96.21 473.76 79.92 463.48 63.55 C 462.49 61.39 459.83 61.94 457.92 61.70 C 446.94 61.40 435.97 60.82 425.00 60.58 C 423.49 60.44 421.67 60.73 420.55 59.47 C 417.52 56.37 414.76 53.00 412.18 49.52 Z" />
<path fill="#4b4b4b" opacity="1.00" d=" M 591.60 49.36 C 594.49 55.09 596.41 61.22 598.83 67.15 C 606.35 86.59 613.78 106.07 621.40 125.47 C 627.59 127.02 633.87 128.24 640.00 130.02 L 640.00 136.00 C 632.14 133.71 623.89 132.75 616.21 129.94 C 614.40 127.38 613.65 124.28 612.50 121.41 C 605.15 102.47 597.89 83.50 590.54 64.56 C 586.61 70.08 583.36 76.04 579.74 81.76 C 571.58 95.24 563.28 108.63 555.16 122.13 C 554.35 123.21 553.70 124.80 552.09 124.65 C 529.20 126.16 506.25 126.90 483.37 128.63 C 498.39 146.59 513.81 164.22 528.94 182.10 C 527.10 188.47 526.16 195.19 523.52 201.29 C 521.17 201.97 518.72 202.14 516.32 202.50 C 517.54 196.86 519.08 191.31 520.65 185.77 C 503.22 164.78 484.87 144.56 467.68 123.39 C 494.73 121.76 521.85 120.79 548.84 118.71 C 552.32 114.73 554.42 109.74 557.39 105.38 C 568.78 86.70 580.19 68.03 591.60 49.36 Z" />
<path fill="#4b4b4b" opacity="1.00" d=" M 628.88 58.90 C 632.51 56.13 636.42 53.73 640.00 50.88 L 640.00 79.48 C 638.60 78.16 636.59 77.32 635.66 75.61 C 634.77 70.29 635.72 64.89 635.88 59.54 C 630.78 61.90 627.11 66.68 621.89 68.65 C 616.62 67.67 611.83 64.87 606.51 63.98 C 605.87 62.34 605.22 60.70 604.61 59.06 C 610.12 60.49 615.24 63.35 620.90 64.19 C 623.86 62.93 626.29 60.76 628.88 58.90 Z" />
<path fill="#4b4b4b" opacity="1.00" d=" M 268.40 61.60 C 269.65 59.85 270.92 58.11 272.16 56.37 C 274.79 57.60 277.39 58.88 279.96 60.24 C 276.27 61.68 272.31 62.01 268.40 61.60 Z" />
<path fill="#4b4b4b" opacity="1.00" d=" M 570.63 60.34 C 572.39 59.89 574.18 59.44 575.96 59.00 C 574.86 60.78 573.74 62.56 572.63 64.33 C 571.96 63.00 571.28 61.67 570.63 60.34 Z" />
<path fill="#4b4b4b" opacity="1.00" d=" M 556.24 64.21 C 557.89 63.52 559.66 63.16 561.42 62.77 C 562.94 67.37 564.37 72.01 565.36 76.76 C 559.54 85.31 554.68 94.47 548.86 103.02 C 546.96 105.77 545.27 108.65 543.69 111.59 C 541.96 111.78 540.24 112.00 538.53 112.23 C 540.54 106.52 542.09 100.52 545.09 95.23 C 549.08 89.78 554.29 85.09 557.28 79.00 C 556.82 75.71 555.29 72.73 554.30 69.59 C 554.43 67.67 555.16 65.80 556.24 64.21 Z" />
<path fill="#4b4b4b" opacity="1.00" d=" M 261.96 71.09 C 264.12 70.91 266.28 70.71 268.45 70.52 C 265.89 72.89 263.20 75.12 260.35 77.13 C 259.84 75.03 260.26 73.00 261.28 71.15 L 261.96 71.09 Z" />
<path fill="#4b4b4b" opacity="1.00" d=" M 440.35 74.79 C 442.57 75.01 446.19 73.89 447.10 76.69 C 448.57 81.86 448.44 87.30 449.44 92.56 C 446.59 89.63 443.55 86.75 441.45 83.21 C 440.94 80.42 440.67 77.60 440.35 74.79 Z" />
<path fill="#4b4b4b" opacity="1.00" d=" M 459.23 109.06 C 458.63 97.84 455.33 86.84 455.45 75.56 C 457.43 78.58 459.65 81.48 461.11 84.80 C 462.26 93.43 463.36 102.07 464.67 110.69 C 462.19 113.29 459.41 115.75 455.91 116.84 C 454.43 116.88 452.96 116.84 451.49 116.72 C 454.37 114.51 457.21 112.11 459.23 109.06 Z" />
<path fill="#4b4b4b" opacity="1.00" d=" M 558.58 130.70 C 568.67 114.18 578.53 97.49 588.97 81.20 C 595.96 98.65 602.50 116.28 609.40 133.76 C 609.95 135.79 612.35 135.80 613.99 136.41 C 622.67 138.42 631.35 140.42 640.00 142.54 L 640.00 147.20 C 629.38 144.47 618.65 142.13 608.01 139.50 C 605.53 139.26 605.04 136.57 604.17 134.70 C 599.53 122.18 594.51 109.80 589.86 97.28 C 589.27 95.78 588.54 94.33 587.65 93.00 C 578.88 106.88 570.50 121.02 561.89 135.00 C 545.40 136.06 528.89 136.69 512.41 137.85 C 522.75 150.79 533.94 163.03 544.50 175.79 C 542.47 183.45 540.33 191.08 538.48 198.78 C 536.49 199.05 534.53 199.40 532.56 199.66 C 533.90 194.08 535.46 188.55 536.99 183.01 C 537.43 180.88 538.58 178.25 536.64 176.52 C 524.65 162.32 512.22 148.47 500.50 134.04 C 519.85 132.72 539.23 131.95 558.58 130.70 Z" />
<path fill="#4b4b4b" opacity="1.00" d=" M 264.49 85.17 C 265.20 85.25 266.63 85.39 267.34 85.47 L 267.56 85.82 C 270.65 91.46 276.08 95.11 280.61 99.48 C 285.38 104.04 289.95 108.81 294.77 113.32 C 293.29 122.45 291.69 131.55 290.14 140.66 C 288.37 137.13 286.08 133.67 285.37 129.75 C 286.06 125.54 287.61 121.37 287.22 117.06 C 282.86 111.14 276.42 107.06 272.09 101.11 C 269.58 96.51 267.57 91.64 265.28 86.92 C 265.08 86.48 264.68 85.61 264.49 85.17 Z" />
<path fill="#4b4b4b" opacity="1.00" d=" M 633.41 90.72 C 635.51 89.80 637.78 89.37 640.00 88.82 L 640.00 94.03 C 638.44 95.06 636.18 95.55 635.58 97.57 C 633.05 104.20 631.20 111.09 628.81 117.79 C 628.35 117.64 627.42 117.33 626.95 117.18 C 624.46 110.17 621.65 103.29 618.95 96.36 L 619.03 94.75 C 622.02 98.57 624.47 102.80 627.70 106.45 C 629.79 101.28 630.64 95.59 633.41 90.72 Z" />
<path fill="#4b4b4b" opacity="1.00" d=" M 282.80 90.06 C 283.37 90.00 284.51 89.88 285.08 89.83 C 288.26 90.15 291.29 91.20 294.35 92.07 C 298.24 97.13 303.78 100.60 307.60 105.72 C 307.61 106.08 307.63 106.79 307.65 107.15 C 306.86 106.78 305.29 106.02 304.51 105.65 C 304.57 114.79 304.66 123.94 304.92 133.08 C 302.63 134.10 300.35 135.12 298.07 136.15 C 299.00 128.85 300.32 121.61 301.62 114.37 C 301.88 112.27 302.75 109.76 300.88 108.13 C 295.05 101.92 288.60 96.30 282.80 90.06 Z" />
<path fill="#4b4b4b" opacity="1.00" d=" M 468.04 95.70 C 470.55 99.21 473.17 102.73 474.91 106.71 C 475.19 108.67 475.39 110.64 475.58 112.61 C 474.72 113.69 473.88 114.77 473.04 115.85 C 470.57 115.98 468.11 116.09 465.65 116.09 C 467.26 114.90 468.89 113.66 470.11 112.04 C 469.99 106.54 468.79 101.13 468.04 95.70 Z" />
<path fill="#4b4b4b" opacity="1.00" d=" M 448.28 100.34 C 448.88 100.25 450.09 100.06 450.70 99.97 C 450.95 102.49 451.55 105.03 451.28 107.57 C 449.18 110.97 445.62 113.10 442.79 115.83 C 434.21 123.91 425.36 131.71 416.68 139.69 C 411.21 145.22 404.90 149.85 399.77 155.71 C 403.39 156.39 407.04 156.97 410.69 157.50 C 410.56 157.84 410.29 158.54 410.16 158.89 C 405.72 160.08 401.50 161.90 397.13 163.27 C 392.92 163.19 388.78 162.42 384.68 161.53 C 398.31 148.53 412.41 136.05 426.29 123.32 C 432.28 117.52 438.87 112.37 444.46 106.15 C 444.39 104.46 444.33 102.78 444.27 101.09 C 445.60 100.83 446.93 100.57 448.28 100.34 Z" />
<path fill="#4b4b4b" opacity="1.00" d=" M 414.21 102.21 C 417.63 101.86 421.06 101.81 424.50 101.71 C 416.57 110.06 408.14 117.90 400.11 126.14 C 397.34 129.08 393.99 131.56 391.80 135.00 C 391.85 137.89 392.71 140.74 392.52 143.64 C 390.77 146.17 388.25 148.02 385.97 150.04 C 384.75 143.23 382.59 136.39 382.64 129.47 C 390.38 120.63 399.46 113.05 407.74 104.73 C 409.44 102.99 411.92 102.61 414.21 102.21 Z" />
<path fill="#4b4b4b" opacity="1.00" d=" M 633.95 121.09 C 635.88 115.21 637.74 109.30 640.00 103.54 L 640.00 122.35 C 637.99 121.86 635.97 121.47 633.95 121.09 Z" />
<path fill="#4b4b4b" opacity="1.00" d=" M 586.62 104.60 C 591.34 115.09 595.09 126.00 599.26 136.72 C 600.40 139.06 600.63 142.74 603.76 143.22 C 615.81 146.21 627.95 148.89 640.00 151.93 L 640.00 153.57 C 630.60 161.33 621.07 168.93 611.64 176.65 C 608.50 178.96 610.73 183.31 609.97 186.56 C 608.30 186.99 606.60 187.25 604.91 187.51 C 604.51 183.11 604.24 178.69 603.97 174.28 C 612.30 167.57 620.75 160.99 628.78 153.92 C 618.41 151.30 607.98 148.89 597.58 146.42 C 593.54 136.41 589.80 126.28 585.83 116.25 C 579.90 125.25 574.55 134.62 568.83 143.76 C 558.14 144.48 547.44 144.98 536.74 145.52 C 543.00 154.18 550.82 161.61 557.16 170.18 C 555.76 179.17 552.49 187.81 550.56 196.71 C 548.58 197.02 546.60 197.30 544.63 197.61 C 546.37 189.36 549.36 181.40 550.78 173.10 C 548.99 169.78 546.08 167.25 543.72 164.35 C 537.42 156.83 530.80 149.57 524.71 141.88 C 537.37 140.77 550.09 140.46 562.77 139.62 C 565.86 139.78 567.12 136.64 568.51 134.47 C 574.41 124.42 580.69 114.62 586.62 104.60 Z" />
<path fill="#4b4b4b" opacity="1.00" d=" M 375.68 119.71 C 377.88 115.38 380.40 111.21 383.20 107.24 C 383.70 108.50 384.23 109.76 384.58 111.08 C 382.38 114.64 379.11 117.39 375.68 119.71 Z" />
<path fill="#4b4b4b" opacity="1.00" d=" M 320.35 116.31 C 324.11 117.02 327.69 118.45 330.96 120.45 C 332.34 122.01 332.62 124.22 333.30 126.12 C 328.86 123.03 324.18 120.17 320.35 116.31 Z" />
<path fill="#4b4b4b" opacity="1.00" d=" M 448.95 118.67 C 450.09 119.79 451.23 120.91 452.40 122.01 C 444.20 129.31 435.86 136.50 428.14 144.31 C 432.94 145.49 437.86 146.14 442.60 147.57 C 439.06 148.68 435.63 150.13 432.08 151.20 C 426.96 151.01 421.95 149.91 416.95 148.88 C 421.29 143.91 426.63 139.98 431.32 135.36 C 437.12 129.72 443.58 124.76 448.95 118.67 Z" />
<path fill="#4b4b4b" opacity="1.00" d=" M 27.96 164.11 C 26.90 149.41 26.75 134.61 27.27 119.89 C 28.02 134.61 27.99 149.37 27.96 164.11 Z" />
<path fill="#4b4b4b" opacity="1.00" d=" M 313.80 123.40 C 321.75 128.65 329.13 134.71 336.94 140.16 C 341.87 143.23 342.51 149.59 344.48 154.58 C 336.42 149.47 329.17 143.22 321.26 137.89 C 321.66 162.61 322.47 187.34 322.45 212.06 C 320.04 206.40 316.70 201.02 315.12 195.07 C 314.44 171.19 314.16 147.29 313.80 123.40 Z" />
<path fill="#4b4b4b" opacity="1.00" d=" M 440.03 139.61 C 445.06 134.94 450.44 130.63 455.08 125.54 C 456.13 126.68 457.17 127.83 458.23 128.98 C 456.01 130.88 453.83 132.83 451.74 134.86 C 456.13 136.02 460.63 136.64 465.11 137.39 C 465.55 137.81 466.43 138.64 466.87 139.06 C 463.94 140.13 461.08 141.42 458.07 142.26 C 451.97 142.02 446.01 140.63 440.03 139.61 Z" />
<path fill="#4b4b4b" opacity="1.00" d=" M 371.48 126.50 C 374.41 136.85 375.44 147.63 377.61 158.15 C 377.19 158.01 376.34 157.74 375.92 157.60 C 373.71 156.58 371.73 155.00 370.11 153.18 C 369.25 146.74 368.30 140.32 366.83 133.98 C 368.29 131.44 369.84 128.94 371.48 126.50 Z" />
<path fill="#4b4b4b" opacity="1.00" d=" M 584.37 128.47 C 588.11 134.89 589.78 142.26 592.88 148.98 C 593.22 150.31 594.72 150.47 595.82 150.78 C 602.59 152.23 609.29 153.96 616.04 155.51 C 611.01 160.35 605.31 164.43 599.94 168.88 C 599.02 169.70 597.70 170.59 598.08 172.04 C 598.23 177.61 599.28 183.14 599.03 188.73 C 596.78 188.90 594.47 189.66 592.24 189.15 C 587.92 187.03 584.33 183.68 579.99 181.61 C 572.50 183.88 565.59 187.73 558.15 190.18 C 559.77 183.47 561.62 176.83 563.42 170.17 C 563.62 169.02 564.22 167.61 563.24 166.64 C 558.65 160.77 553.26 155.54 548.93 149.47 C 556.68 149.09 564.44 148.68 572.19 148.25 C 576.40 141.75 580.27 135.04 584.37 128.47 M 574.96 152.95 C 569.69 153.15 564.44 153.50 559.18 153.81 C 561.53 157.71 564.94 160.78 567.76 164.32 C 568.61 165.33 569.56 166.61 568.89 168.02 C 567.81 172.65 566.31 177.17 565.36 181.84 C 570.37 180.25 574.99 177.61 580.03 176.10 C 585.09 178.11 589.17 182.01 594.01 184.51 C 593.67 179.05 593.04 173.62 592.89 168.15 C 597.08 164.89 601.29 161.63 605.22 158.06 C 600.18 156.48 594.92 155.72 589.89 154.17 C 587.22 149.39 585.86 143.99 583.67 138.99 C 580.63 143.56 577.95 148.36 574.96 152.95 Z" />
<path fill="#4b4b4b" opacity="1.00" d=" M 293.48 148.81 C 297.35 146.53 301.24 144.26 305.20 142.13 C 305.25 145.28 305.19 148.44 305.05 151.60 C 302.31 152.79 299.58 154.03 296.86 155.26 C 296.39 154.43 295.93 153.61 295.48 152.79 C 294.75 151.49 294.11 150.15 293.48 148.81 Z" />
<path fill="#4b4b4b" opacity="1.00" d=" M 463.48 148.64 C 465.15 148.10 466.84 147.62 468.54 147.15 C 461.39 169.64 453.60 191.94 446.30 214.39 C 442.85 215.07 439.39 215.70 435.90 216.12 C 442.00 196.87 449.02 177.90 454.72 158.53 C 431.20 166.33 407.87 174.70 384.40 182.63 C 382.46 183.51 380.86 181.70 379.37 180.75 C 370.04 173.55 360.28 166.93 351.10 159.55 C 352.26 157.59 353.43 155.61 354.93 153.89 C 365.04 160.38 374.28 168.20 384.18 175.01 C 385.53 176.06 387.22 174.69 388.68 174.49 C 413.58 165.78 438.56 157.28 463.48 148.64 Z" />
<path fill="#4b4b4b" opacity="1.00" d=" M 329.80 154.24 C 344.41 164.46 358.54 175.38 372.97 185.87 C 375.58 187.61 377.83 190.06 380.84 191.13 C 400.64 184.63 420.24 177.45 440.03 170.91 C 435.35 185.52 430.28 200.00 425.58 214.61 C 425.13 215.75 424.85 217.00 424.09 217.99 C 421.69 218.90 419.09 219.00 416.59 219.39 C 420.63 206.07 425.61 193.04 429.50 179.66 C 413.26 184.97 397.16 190.74 381.00 196.30 C 379.95 196.60 378.72 197.12 377.78 196.25 C 363.51 185.98 349.57 175.21 335.22 165.05 C 335.65 178.04 335.77 191.05 336.01 204.05 C 335.83 209.02 336.77 214.03 335.99 218.96 C 333.67 221.18 330.82 222.76 328.20 224.60 C 327.54 223.13 326.84 221.69 326.14 220.25 C 327.68 219.12 329.23 217.99 330.80 216.88 C 330.43 196.00 329.76 175.12 329.80 154.24 Z" />
<path fill="#4b4b4b" opacity="1.00" d=" M 478.14 155.66 C 484.39 169.99 491.00 184.16 497.50 198.38 C 500.45 193.86 502.78 188.96 505.84 184.51 C 507.56 186.82 511.50 189.61 508.89 192.70 C 506.16 196.55 503.86 200.66 501.96 204.98 C 499.62 205.33 497.27 205.66 494.93 206.01 C 488.80 191.25 481.42 177.02 475.60 162.13 C 476.43 159.97 477.26 157.80 478.14 155.66 Z" />
<path fill="#4b4b4b" opacity="1.00" d=" M 617.53 180.61 C 625.02 174.54 632.48 168.44 640.00 162.42 L 640.00 170.67 C 635.28 174.74 630.33 178.53 625.57 182.54 C 622.89 184.94 619.19 185.15 615.83 185.76 C 615.99 183.92 615.71 181.73 617.53 180.61 Z" />
<path fill="#4b4b4b" opacity="1.00" d=" M 302.28 167.07 C 302.46 165.72 303.85 165.00 304.64 164.01 C 305.12 167.03 305.28 170.11 304.96 173.17 C 303.89 171.23 302.53 169.32 302.28 167.07 Z" />
<path fill="#4b4b4b" opacity="1.00" d=" M 497.43 183.93 C 494.93 178.24 491.49 172.86 490.30 166.68 C 493.81 170.35 496.90 174.39 500.35 178.12 C 499.37 180.06 498.40 181.99 497.43 183.93 Z" />
<path fill="#4b4b4b" opacity="1.00" d=" M 28.11 167.97 C 29.01 183.66 29.01 199.39 28.94 215.10 C 27.69 199.44 28.03 183.68 28.11 167.97 Z" />
<path fill="#4b4b4b" opacity="1.00" d=" M 471.71 174.60 C 477.17 185.14 481.64 196.17 486.73 206.90 C 486.24 207.11 485.27 207.54 484.78 207.75 C 484.10 207.89 482.74 208.16 482.06 208.30 C 481.38 208.18 480.01 207.94 479.33 207.82 C 475.93 199.50 471.31 191.65 468.74 183.02 C 469.53 180.15 470.71 177.41 471.71 174.60 Z" />
<path fill="#4b4b4b" opacity="1.00" d=" M 343.04 179.92 C 354.32 188.09 365.34 196.61 376.76 204.60 C 389.72 200.15 402.61 195.45 415.67 191.31 C 413.22 199.98 409.99 208.40 407.35 217.01 C 406.70 218.42 406.57 220.28 405.30 221.30 C 402.36 222.20 399.26 222.39 396.23 222.86 C 398.59 215.86 401.07 208.90 403.12 201.80 C 393.62 204.91 384.17 208.17 374.77 211.57 C 366.35 205.82 358.46 199.34 350.02 193.63 C 350.19 203.67 350.48 213.70 350.59 223.74 C 345.43 227.07 341.06 232.32 334.80 233.48 C 332.79 233.50 331.57 232.29 331.06 230.45 C 335.36 227.63 339.47 224.53 343.70 221.60 C 343.70 207.71 343.22 193.81 343.04 179.92 Z" />
<path fill="#4b4b4b" opacity="1.00" d=" M 570.71 192.90 C 573.55 191.54 576.36 189.81 579.54 189.41 C 580.41 190.03 581.22 190.75 582.03 191.46 C 578.30 192.20 574.52 192.73 570.71 192.90 Z" />
<path fill="#4b4b4b" opacity="1.00" d=" M 356.81 206.74 C 361.92 210.03 366.56 213.97 371.57 217.40 C 372.63 218.27 374.02 217.61 375.18 217.34 C 380.44 215.58 385.61 213.54 390.95 212.02 C 389.78 216.28 388.35 220.46 386.79 224.59 C 374.89 226.58 362.98 228.53 351.11 230.67 C 353.07 229.11 355.06 227.60 357.08 226.11 C 357.00 219.66 356.93 213.20 356.81 206.74 Z" />
<path fill="#4b4b4b" opacity="1.00" d=" M 29.09 218.98 C 29.96 234.05 30.03 249.15 29.93 264.23 C 28.55 249.20 29.14 234.06 29.09 218.98 Z" />
<path fill="#4b4b4b" opacity="1.00" d=" M 30.10 269.97 C 30.98 285.99 31.02 302.04 30.95 318.08 C 29.69 302.09 30.04 286.00 30.10 269.97 Z" />
<path fill="#4b4b4b" opacity="1.00" d=" M 221.04 401.05 C 221.00 391.00 220.99 380.93 221.76 370.89 C 222.38 381.16 221.73 391.45 221.34 401.71 C 170.57 402.35 119.78 401.80 69.00 401.96 C 64.28 401.85 59.55 402.15 54.84 401.74 C 64.20 400.48 73.64 401.86 83.04 401.67 C 129.04 401.29 175.04 401.23 221.04 401.05 Z" />
</g>
<g id="#fefefeff">
<path fill="#fefefe" opacity="1.00" d=" M 20.08 417.67 C 18.44 313.96 16.81 210.24 15.30 106.53 C 88.99 115.54 162.70 124.40 236.39 133.42 C 233.77 224.79 231.23 316.17 228.63 407.54 C 159.11 410.91 89.59 414.26 20.08 417.67 M 20.04 111.87 C 22.41 211.14 24.67 310.41 27.07 409.67 C 93.10 408.40 159.14 407.19 225.18 405.93 C 227.69 315.72 230.15 225.52 232.65 135.32 C 161.78 127.49 90.91 119.69 20.04 111.87 Z" />
</g>
</svg>
