<?xml version="1.0" encoding="UTF-8" ?>
<!DOCTYPE svg PUBLIC "-//W3C//DTD SVG 1.1//EN" "http://www.w3.org/Graphics/SVG/1.1/DTD/svg11.dtd">
<svg width="640pt" height="480pt" viewBox="0 0 640 480" version="1.1" xmlns="http://www.w3.org/2000/svg">
<g id="#ff0000ff">
<path fill="#ff0000" opacity="1.00" d=" M 0.00 0.00 L 36.14 0.00 C 23.14 13.73 11.14 28.39 0.00 43.67 L 0.00 0.00 Z" />
<path fill="#ff0000" opacity="1.00" d=" M 106.15 0.00 L 167.17 0.00 C 122.94 28.40 84.92 66.39 56.58 110.66 C 27.36 156.15 8.51 208.25 1.93 261.91 C 1.15 268.04 0.67 274.21 0.00 280.36 L 0.00 138.40 C 24.72 85.26 61.20 37.61 106.15 0.00 Z" />
<path fill="#ff0000" opacity="1.00" d=" M 68.69 165.72 C 101.67 96.64 159.72 40.00 229.56 8.65 C 230.19 10.04 230.83 11.43 231.47 12.83 C 236.64 24.18 241.78 35.55 247.03 46.86 C 196.68 69.44 153.21 106.98 123.50 153.48 C 100.87 188.77 86.16 229.12 80.91 270.72 C 75.64 311.99 79.31 354.41 91.98 394.06 C 101.82 424.98 116.99 454.23 136.71 480.00 L 85.80 480.00 C 71.79 457.67 60.64 433.54 52.53 408.46 C 26.71 329.45 32.46 240.59 68.69 165.72 Z" />
<path fill="#ff0000" opacity="1.00" d=" M 176.35 155.36 C 200.08 125.99 230.84 102.39 265.26 86.90 C 267.76 92.21 270.03 97.62 272.67 102.87 C 274.80 107.97 277.19 112.95 279.46 118.00 C 260.80 126.44 243.32 137.51 227.91 151.01 C 199.41 175.74 177.84 208.43 166.48 244.43 C 154.81 280.96 153.68 320.74 162.97 357.93 C 175.25 407.49 206.75 451.92 249.37 480.00 L 195.19 480.00 C 159.26 444.95 134.59 398.48 126.15 348.97 C 120.50 316.37 121.55 282.61 129.31 250.44 C 137.61 215.75 153.88 183.05 176.35 155.36 Z" />
<path fill="#ff0000" opacity="1.00" d=" M 225.44 210.48 C 242.97 185.41 267.39 165.23 295.34 152.79 C 295.79 153.76 296.24 154.74 296.69 155.72 C 298.29 159.25 299.92 162.77 301.52 166.30 C 302.56 168.66 303.65 171.00 304.80 173.31 C 305.04 173.82 305.50 174.85 305.73 175.36 C 306.15 176.41 306.58 177.45 307.02 178.50 C 289.33 186.40 273.21 197.89 260.16 212.23 C 242.08 231.91 229.75 256.84 225.28 283.20 C 219.88 314.23 225.13 347.06 240.32 374.69 C 254.86 401.46 278.35 423.27 306.16 435.74 C 343.11 452.59 387.30 452.08 424.02 434.83 C 428.09 443.25 431.71 451.88 435.81 460.28 C 397.75 478.57 352.65 481.16 312.50 468.37 C 274.58 456.38 241.35 430.40 220.42 396.60 C 201.61 366.55 192.78 330.44 195.44 295.09 C 197.51 264.86 208.00 235.27 225.44 210.48 Z" />
<path fill="#ff0000" opacity="1.00" d=" M 273.93 261.85 C 284.40 241.07 302.27 223.92 323.77 214.91 C 324.54 216.72 325.34 218.50 326.16 220.29 C 326.83 221.75 327.49 223.22 328.16 224.69 C 329.07 226.70 329.99 228.71 330.92 230.71 C 331.33 231.58 331.74 232.46 332.15 233.33 C 333.47 236.25 334.74 239.19 336.15 242.07 C 324.40 247.49 313.79 255.60 306.34 266.25 C 296.18 280.41 291.62 298.44 293.75 315.73 C 295.82 334.12 305.56 351.45 320.11 362.87 C 340.78 379.61 371.08 382.74 394.91 371.06 C 399.24 380.06 403.16 389.26 407.48 398.27 C 388.74 407.57 366.92 410.24 346.37 406.65 C 324.18 402.84 303.47 391.20 288.58 374.34 C 275.71 359.94 267.15 341.75 264.29 322.65 C 261.22 302.03 264.42 280.45 273.93 261.85 Z" />
<path fill="#ff0000" opacity="1.00" d=" M 474.50 310.47 C 492.65 300.56 512.46 292.74 533.30 291.54 C 538.60 291.56 544.12 290.90 549.20 292.82 C 545.62 291.88 541.95 292.73 538.45 293.58 C 532.07 295.21 526.10 298.12 520.54 301.61 C 512.44 306.62 504.28 311.84 497.80 318.91 C 502.90 315.62 507.23 310.67 513.35 309.28 C 513.58 314.19 514.93 318.93 516.18 323.65 C 519.61 337.68 524.50 351.31 530.62 364.39 C 532.11 366.67 530.78 369.40 528.92 370.98 C 525.10 374.54 520.97 377.79 516.71 380.80 C 515.53 381.66 514.18 380.30 513.63 379.33 C 509.12 371.50 505.63 363.10 500.88 355.43 C 498.49 357.54 501.36 360.60 502.01 362.95 C 499.95 360.91 498.78 358.22 496.95 356.03 C 493.63 352.82 492.51 348.17 491.00 343.97 C 492.62 345.37 493.99 347.17 495.99 348.08 C 497.89 348.07 496.53 345.69 496.28 344.75 C 493.88 339.80 491.41 334.62 487.19 330.93 C 487.82 329.64 488.47 328.35 489.10 327.06 C 484.41 331.82 479.50 336.78 473.04 339.02 C 467.95 340.84 462.56 342.74 457.07 342.01 C 454.50 341.69 451.90 339.70 452.00 336.91 C 452.01 332.97 453.99 329.38 456.12 326.19 C 460.77 319.48 467.30 314.24 474.50 310.47 Z" />
<path fill="#ff0000" opacity="1.00" d=" M 531.16 302.17 C 531.49 302.51 532.15 303.17 532.48 303.50 C 534.04 313.22 534.76 323.12 537.36 332.65 C 538.14 336.10 539.55 339.53 539.04 343.14 C 539.09 347.64 539.96 352.24 542.03 356.27 C 541.56 356.29 540.63 356.33 540.16 356.34 C 538.04 353.82 537.45 350.48 536.80 347.35 C 535.58 340.63 535.18 333.78 533.82 327.09 C 533.27 323.75 532.13 320.33 533.22 316.98 C 531.57 312.18 532.29 307.04 531.16 302.17 Z" />
<path fill="#ff0000" opacity="1.00" d=" M 516.76 308.96 C 516.33 305.73 520.25 305.05 522.34 303.74 C 523.10 307.87 523.62 312.05 524.96 316.05 C 527.95 325.57 529.07 335.54 531.89 345.11 C 533.42 350.26 534.13 355.80 537.11 360.40 C 535.69 361.81 534.23 363.18 532.76 364.54 C 529.16 358.55 527.71 351.54 524.76 345.22 C 521.08 333.40 516.45 321.52 516.76 308.96 Z" />
<path fill="#ff0000" opacity="1.00" d=" M 528.19 308.74 C 529.67 317.65 531.13 326.59 533.16 335.39 L 533.89 335.94 C 533.76 336.84 533.51 338.64 533.38 339.55 C 533.14 337.63 532.99 335.69 532.36 333.86 C 529.91 325.71 528.51 317.24 528.19 308.74 Z" />
<path fill="#ff0000" opacity="1.00" d=" M 0.00 335.04 L 0.29 334.23 C 1.05 350.06 3.54 365.77 6.63 381.30 C 13.72 415.70 25.77 449.12 42.50 480.00 L 1.71 480.00 C 1.86 478.70 1.20 477.50 0.00 476.99 L 0.00 335.04 Z" />
<path fill="#ff0000" opacity="1.00" d=" M 543.26 368.30 C 550.51 360.54 560.84 356.83 570.81 354.03 C 567.66 356.14 563.74 356.60 560.50 358.54 C 549.35 364.92 539.52 373.82 532.77 384.79 C 531.19 387.71 531.57 391.20 530.29 394.23 C 528.43 399.11 524.73 402.99 522.77 407.82 C 518.62 416.98 514.18 426.62 506.21 433.12 C 502.41 435.91 498.19 438.22 493.68 439.63 C 489.42 440.99 484.92 439.82 480.60 440.67 C 478.25 441.36 476.16 439.83 474.14 438.90 C 469.90 436.73 465.29 434.40 462.99 430.00 C 461.03 426.38 460.57 421.58 463.19 418.16 C 467.25 412.68 473.93 410.08 480.23 408.14 C 483.98 406.98 487.98 406.40 491.88 407.07 C 494.41 407.55 493.81 410.65 494.49 412.50 C 496.54 417.87 501.67 420.78 506.16 423.86 C 508.68 423.67 511.68 423.60 513.31 421.33 C 517.22 416.68 519.87 410.83 521.04 404.88 C 517.64 407.70 515.88 412.06 512.81 415.25 C 510.30 412.38 509.14 408.92 508.89 405.16 C 506.85 401.00 505.02 396.75 503.75 392.29 C 502.96 389.44 499.21 391.17 497.18 389.85 C 501.42 388.95 505.93 388.96 509.88 386.97 C 520.95 381.62 528.66 371.57 538.96 365.10 C 539.62 365.66 540.29 366.23 540.96 366.80 C 538.00 370.40 536.60 374.98 533.52 378.49 C 529.68 383.54 526.10 389.17 524.90 395.50 C 526.70 393.57 527.20 390.87 528.63 388.70 C 533.03 381.58 537.68 374.56 543.26 368.30 M 488.98 436.97 C 487.45 437.50 485.50 437.57 484.66 439.19 C 489.50 439.22 493.65 436.34 498.22 435.15 C 502.02 433.73 506.67 431.89 508.21 427.84 C 502.66 432.39 495.91 435.28 488.98 436.97 Z" />
<path fill="#ff0000" opacity="1.00" d=" M 565.57 398.51 C 568.54 396.67 571.55 394.36 575.22 394.39 C 576.91 395.56 578.16 397.29 579.98 398.32 C 577.42 406.07 573.60 413.39 569.49 420.43 C 563.62 428.61 558.15 437.11 551.81 444.93 C 547.56 449.38 541.42 455.03 534.82 452.19 C 530.98 453.81 527.70 450.70 524.11 449.87 C 520.73 448.80 517.10 448.86 513.73 449.91 C 514.66 445.40 513.94 440.18 510.45 436.92 C 516.31 428.68 517.04 417.43 525.03 410.65 C 524.97 414.00 522.36 416.43 521.47 419.52 C 520.78 421.68 520.96 423.96 520.98 426.19 C 522.09 425.27 523.13 424.20 524.55 423.74 C 524.37 427.66 521.36 430.67 520.68 434.47 C 520.05 438.21 519.96 442.33 521.81 445.76 C 523.51 440.85 528.42 436.43 533.92 437.67 C 534.50 438.60 535.08 439.52 535.68 440.44 C 539.66 442.37 543.51 438.60 547.58 439.41 C 556.09 437.78 556.73 427.04 563.92 423.48 C 562.41 422.80 561.21 424.46 559.98 425.06 C 555.88 427.87 551.11 431.62 545.83 429.89 C 546.00 427.83 547.00 425.82 548.99 424.98 C 552.93 422.84 557.92 423.42 561.53 420.54 C 565.07 417.75 566.16 413.14 568.47 409.46 C 569.28 407.79 571.31 405.96 569.50 404.21 C 568.74 407.52 565.66 409.95 562.20 409.07 C 559.96 408.03 560.82 404.84 562.77 404.00 C 564.87 402.95 565.21 400.59 565.57 398.51 Z" />
</g>
<g id="#000000ff">
<path fill="#000000" opacity="1.00" d=" M 36.14 0.00 L 106.15 0.00 C 61.20 37.61 24.72 85.26 0.00 138.40 L 0.00 43.67 C 11.14 28.39 23.14 13.73 36.14 0.00 Z" />
<path fill="#000000" opacity="1.00" d=" M 167.17 0.00 L 229.89 0.00 C 235.84 2.80 242.38 3.99 248.55 6.24 C 250.32 12.28 252.26 18.27 254.17 24.27 C 257.84 19.12 261.46 13.93 265.09 8.75 C 271.41 8.74 277.72 8.77 284.04 8.73 C 281.83 5.82 279.73 2.84 277.43 0.00 L 287.38 0.00 C 291.07 4.78 294.69 9.61 298.27 14.48 C 288.49 14.62 278.72 14.41 268.95 14.24 C 263.27 22.33 257.62 30.43 251.91 38.49 C 248.87 29.12 246.07 19.66 242.95 10.31 C 238.05 8.82 233.17 7.27 228.26 5.81 C 228.69 6.76 229.12 7.70 229.56 8.65 C 159.72 40.00 101.67 96.64 68.69 165.72 C 32.46 240.59 26.71 329.45 52.53 408.46 C 60.64 433.54 71.79 457.67 85.80 480.00 L 42.50 480.00 C 25.77 449.12 13.72 415.70 6.63 381.30 C 3.54 365.77 1.05 350.06 0.29 334.23 L 0.00 335.04 L 0.00 280.36 C 0.67 274.21 1.15 268.04 1.93 261.91 C 8.51 208.25 27.36 156.15 56.58 110.66 C 84.92 66.39 122.94 28.40 167.17 0.00 Z" />
<path fill="#000000" opacity="1.00" d=" M 243.57 0.00 L 272.24 0.00 C 273.30 1.37 274.31 2.79 275.32 4.21 C 271.21 4.27 267.11 4.25 263.01 4.24 C 260.56 7.63 258.26 11.13 255.70 14.43 C 254.41 10.45 253.23 6.44 251.83 2.49 C 249.06 1.71 246.33 0.81 243.57 0.00 Z" />
<path fill="#000000" opacity="1.00" d=" M 297.69 0.00 L 309.11 0.00 C 315.86 9.02 322.68 17.98 329.42 26.99 C 312.02 26.77 294.62 26.66 277.22 26.46 C 269.10 37.79 261.09 49.19 253.21 60.69 C 254.08 62.47 254.93 64.27 255.77 66.07 C 263.99 54.51 272.06 42.84 280.26 31.26 C 300.62 31.27 320.98 31.68 341.34 31.76 C 333.39 21.15 325.55 10.46 317.42 0.00 L 334.10 0.00 C 343.17 5.83 352.28 11.57 361.29 17.49 C 375.31 11.81 389.17 5.73 403.17 0.00 L 408.61 0.00 C 404.76 16.01 400.23 31.86 396.28 47.85 C 407.64 60.89 419.05 73.91 430.14 87.18 C 413.38 88.07 396.62 89.16 379.86 90.05 C 378.47 89.80 377.78 91.08 377.17 92.03 C 368.60 106.26 359.95 120.45 351.36 134.67 C 344.89 118.63 338.66 102.49 332.45 86.34 C 315.56 82.15 298.56 78.41 281.66 74.30 C 295.08 63.22 308.61 52.28 322.01 41.16 C 321.91 40.49 321.73 39.16 321.63 38.49 C 319.94 38.49 318.25 38.48 316.56 38.48 C 314.67 41.29 311.76 43.10 309.22 45.25 C 295.95 56.17 282.62 67.02 269.36 77.96 C 288.92 82.60 308.50 87.14 328.07 91.75 C 335.38 110.49 342.67 129.23 350.04 147.95 C 360.44 130.73 370.92 113.55 381.28 96.30 C 401.34 95.20 421.40 93.94 441.47 92.84 C 428.41 77.51 415.13 62.37 402.05 47.06 C 406.31 31.40 410.21 15.65 414.47 0.00 L 421.43 0.00 C 421.00 1.37 420.62 2.76 420.25 4.15 C 421.45 2.76 422.62 1.35 423.87 0.00 L 436.10 0.00 C 429.59 7.81 423.14 15.68 416.61 23.47 C 413.07 27.27 413.22 32.86 411.54 37.52 C 432.69 38.50 453.86 39.16 475.01 40.04 C 487.59 59.71 499.98 79.51 512.52 99.20 C 520.61 77.32 528.62 55.42 536.71 33.54 C 559.22 27.68 581.79 22.06 604.30 16.19 C 597.75 10.53 590.73 5.43 583.98 0.00 L 596.41 0.00 C 606.03 7.50 615.69 14.96 625.13 22.68 C 614.60 25.25 604.12 28.04 593.61 30.67 C 594.78 33.93 596.04 37.16 597.28 40.39 C 611.53 36.78 625.76 33.12 640.00 29.49 L 640.00 42.52 C 636.11 43.61 632.15 44.40 628.32 45.66 C 621.69 47.09 615.17 48.94 608.58 50.55 C 606.39 51.09 604.22 51.68 602.04 52.22 C 602.13 52.50 602.32 53.05 602.42 53.33 C 603.17 55.56 603.97 57.79 604.84 59.98 C 605.32 61.26 605.86 62.53 606.36 63.80 C 610.51 74.60 614.69 85.38 618.79 96.19 C 621.57 103.00 624.10 109.90 626.81 116.73 C 627.15 120.47 631.19 120.33 633.96 121.11 C 635.97 121.56 637.99 122.00 640.00 122.53 L 640.00 129.97 C 633.81 128.33 627.54 127.01 621.34 125.46 C 611.42 100.02 601.73 74.49 591.75 49.08 C 577.59 72.41 563.33 95.68 549.09 118.96 C 521.88 120.47 494.67 121.94 467.46 123.42 C 485.08 144.26 502.99 164.86 520.67 185.65 C 519.12 191.28 517.63 196.92 516.16 202.56 C 518.75 202.13 521.36 201.69 523.96 201.22 C 525.57 194.84 527.36 188.51 528.98 182.14 C 513.71 164.27 498.43 146.40 483.12 128.56 C 506.57 126.88 530.14 126.22 553.55 124.41 C 566.11 104.54 577.95 84.18 590.55 64.32 C 598.85 86.32 607.49 108.18 615.87 130.15 C 623.89 132.18 631.98 133.95 640.00 135.98 L 640.00 142.60 C 629.99 140.08 619.90 137.90 609.91 135.32 C 602.91 117.24 596.15 99.05 588.82 81.10 C 578.75 97.64 568.59 114.12 558.59 130.70 C 539.17 132.02 519.72 132.72 500.30 134.05 C 512.89 148.82 525.53 163.54 538.17 178.27 C 536.35 185.45 534.37 192.60 532.48 199.77 C 534.40 199.47 536.32 199.18 538.26 198.90 C 540.43 191.18 542.43 183.41 544.48 175.66 C 533.63 163.08 522.88 150.42 512.05 137.82 C 528.65 136.72 545.28 136.04 561.89 134.99 C 570.54 120.77 579.21 106.57 587.90 92.38 C 593.94 107.91 599.89 123.47 605.94 138.99 C 617.29 141.73 628.67 144.34 640.00 147.15 L 640.00 151.90 C 627.19 148.78 614.33 145.88 601.55 142.66 C 596.73 129.89 591.76 117.19 586.83 104.47 C 579.64 116.08 572.55 127.76 565.45 139.42 C 551.90 140.39 538.31 140.83 524.76 141.79 C 533.14 152.48 542.41 162.48 551.10 172.93 C 548.96 181.21 546.68 189.45 544.55 197.73 C 546.52 197.40 548.50 197.07 550.49 196.74 C 552.80 187.89 555.17 179.06 557.52 170.23 C 550.40 162.04 543.41 153.75 536.30 145.55 C 547.14 145.00 557.97 144.40 568.80 143.78 C 574.45 134.55 580.08 125.32 585.72 116.08 C 589.81 126.12 593.54 136.31 597.54 146.39 C 608.06 148.85 618.55 151.40 629.06 153.90 C 620.77 160.81 612.37 167.59 603.96 174.34 C 604.23 178.77 604.43 183.22 605.10 187.61 C 606.84 187.24 608.61 186.88 610.37 186.51 C 610.13 183.71 609.90 180.92 609.73 178.12 C 619.89 170.02 629.90 161.74 640.00 153.57 L 640.00 162.37 C 632.36 168.61 624.69 174.83 617.03 181.04 C 615.26 182.00 615.81 184.02 616.03 185.63 C 619.02 184.94 622.56 185.26 624.96 183.01 C 629.93 178.84 635.06 174.87 640.00 170.66 L 640.00 480.00 L 249.37 480.00 C 206.75 451.92 175.25 407.49 162.97 357.93 C 153.68 320.74 154.81 280.96 166.48 244.43 C 177.84 208.43 199.41 175.74 227.91 151.01 C 243.32 137.51 260.80 126.44 279.46 118.00 C 281.30 122.08 283.19 126.14 285.10 130.19 C 286.53 133.45 287.99 136.70 289.44 139.96 C 290.78 142.92 292.18 145.85 293.51 148.82 C 294.11 150.14 294.73 151.46 295.34 152.79 C 267.39 165.23 242.97 185.41 225.44 210.48 C 208.00 235.27 197.51 264.86 195.44 295.09 C 192.78 330.44 201.61 366.55 220.42 396.60 C 241.35 430.40 274.58 456.38 312.50 468.37 C 352.65 481.16 397.75 478.57 435.81 460.28 C 431.71 451.88 428.09 443.25 424.02 434.83 C 387.30 452.08 343.11 452.59 306.16 435.74 C 278.35 423.27 254.86 401.46 240.32 374.69 C 225.13 347.06 219.88 314.23 225.28 283.20 C 229.75 256.84 242.08 231.91 260.16 212.23 C 273.21 197.89 289.33 186.40 307.02 178.50 C 306.58 177.45 306.15 176.41 305.73 175.36 C 306.28 166.88 305.07 158.41 305.36 149.92 C 305.62 144.24 304.79 138.60 305.00 132.92 C 304.80 123.68 304.64 114.44 304.48 105.20 C 305.24 105.77 306.76 106.93 307.52 107.50 C 312.26 110.90 316.94 114.37 321.60 117.85 C 325.71 120.87 329.82 123.86 333.91 126.90 C 333.08 124.74 332.22 122.60 331.36 120.45 C 328.49 113.10 325.77 105.68 322.68 98.42 C 313.35 96.35 304.08 94.05 294.76 91.94 C 291.64 91.22 288.54 90.44 285.43 89.71 C 279.59 88.29 273.71 87.02 267.87 85.61 C 266.67 85.33 265.47 85.04 264.28 84.75 C 264.53 85.29 265.02 86.36 265.26 86.90 C 230.84 102.39 200.08 125.99 176.35 155.36 C 153.88 183.05 137.61 215.75 129.31 250.44 C 121.55 282.61 120.50 316.37 126.15 348.97 C 134.59 398.48 159.26 444.95 195.19 480.00 L 136.71 480.00 C 116.99 454.23 101.82 424.98 91.98 394.06 C 79.31 354.41 75.64 311.99 80.91 270.72 C 86.16 229.12 100.87 188.77 123.50 153.48 C 153.21 106.98 196.68 69.44 247.03 46.86 C 241.78 35.55 236.64 24.18 231.47 12.83 C 233.46 13.42 235.45 14.02 237.44 14.63 C 241.57 27.37 245.36 40.22 249.62 52.92 C 257.54 42.05 265.08 30.91 272.89 19.96 C 286.28 20.50 299.70 20.06 313.09 20.50 C 307.98 13.65 302.90 6.77 297.69 0.00 M 334.90 6.70 C 336.97 9.40 338.72 12.40 341.19 14.75 C 347.67 19.06 354.30 23.16 360.83 27.40 C 372.14 22.64 383.46 17.90 394.76 13.13 C 391.67 25.01 388.56 36.88 385.44 48.75 C 393.45 58.05 401.55 67.28 409.46 76.66 C 397.23 77.33 385.00 78.06 372.78 78.79 C 366.28 89.18 360.36 99.94 353.52 110.10 C 349.22 98.87 344.81 87.67 340.42 76.47 L 339.90 75.97 C 328.10 73.02 316.21 70.46 304.41 67.54 C 313.89 59.91 323.13 51.97 332.75 44.51 C 332.76 42.51 332.63 40.50 332.45 38.51 C 331.00 38.49 329.55 38.47 328.10 38.43 C 328.21 39.95 328.32 41.47 328.45 42.99 C 317.35 52.15 306.16 61.21 295.08 70.40 C 309.08 73.47 322.99 76.95 336.97 80.11 C 342.25 93.44 347.46 106.79 352.62 120.17 C 359.87 108.78 366.67 97.09 373.70 85.57 C 374.34 84.74 374.76 83.28 376.05 83.34 C 390.02 82.53 404.00 81.74 417.97 80.90 C 408.59 70.16 399.44 59.22 389.93 48.60 C 393.24 34.63 397.10 20.78 400.73 6.89 C 387.39 12.06 374.33 17.94 361.09 23.37 C 352.33 17.86 343.72 12.11 334.90 6.70 M 360.66 32.88 C 356.75 30.69 353.22 27.85 349.17 25.91 C 352.71 29.97 355.05 35.30 360.11 37.77 C 366.57 35.25 372.85 32.31 379.33 29.83 C 377.66 36.56 375.75 43.23 374.15 49.97 C 378.74 55.16 383.26 60.40 387.73 65.69 C 380.81 65.92 373.91 66.47 367.00 66.80 C 363.27 72.62 360.04 78.75 356.09 84.42 C 353.54 78.09 351.09 71.72 348.63 65.35 C 341.90 63.55 335.06 62.20 328.31 60.47 C 333.61 56.00 339.16 51.81 344.33 47.20 C 344.29 44.34 343.92 41.50 343.66 38.67 C 341.90 38.56 340.15 38.49 338.41 38.43 C 338.53 40.88 338.73 43.33 339.00 45.77 C 331.68 51.84 324.28 57.81 316.95 63.87 C 326.21 66.00 335.45 68.19 344.70 70.38 C 348.00 79.20 351.53 87.93 354.93 96.71 C 360.01 88.76 364.74 80.60 369.67 72.56 C 379.08 71.76 388.53 71.62 397.93 70.70 C 391.80 63.55 385.58 56.46 379.47 49.29 C 381.94 40.18 384.21 31.02 386.69 21.91 C 377.98 25.50 369.29 29.11 360.66 32.88 M 543.16 43.55 C 534.46 66.83 526.01 90.20 517.34 113.49 C 520.50 113.37 523.66 113.20 526.81 112.94 C 534.07 92.85 541.55 72.85 548.89 52.79 C 561.09 49.64 573.30 46.51 585.52 43.43 C 588.21 39.23 590.69 34.90 593.40 30.72 C 576.66 35.02 559.92 39.31 543.16 43.55 M 285.03 37.92 C 284.13 39.21 283.24 40.49 282.34 41.77 C 280.76 43.99 279.20 46.23 277.62 48.45 C 275.76 51.12 273.91 53.79 272.03 56.44 C 270.96 57.93 269.81 59.39 268.88 60.98 C 266.35 64.27 264.17 67.81 261.70 71.14 C 260.23 72.90 258.79 74.94 260.73 77.09 C 262.82 75.34 264.99 73.69 267.09 71.95 C 274.69 65.75 282.21 59.45 289.88 53.33 C 292.02 51.45 294.24 49.68 296.38 47.81 L 296.57 47.89 C 298.59 46.05 300.70 44.33 302.91 42.72 L 302.85 42.62 C 304.63 41.16 306.40 39.70 308.16 38.23 C 301.76 38.12 295.36 38.58 288.96 38.22 C 287.65 38.09 286.34 38.00 285.03 37.92 M 359.96 42.60 C 357.95 41.34 355.96 40.08 354.01 38.76 C 352.31 38.75 350.62 38.75 348.94 38.75 C 349.15 42.08 349.44 45.41 349.73 48.74 C 346.54 51.32 343.32 53.87 340.18 56.51 C 340.18 56.74 340.17 57.20 340.16 57.43 C 344.25 58.49 348.40 59.27 352.48 60.39 C 354.06 64.52 355.48 68.73 357.45 72.70 C 359.63 68.84 362.03 65.12 364.27 61.30 C 368.72 61.02 373.18 60.93 377.60 60.39 C 374.81 56.91 371.31 53.84 369.06 50.05 C 369.93 45.77 371.26 41.59 372.30 37.35 C 368.19 39.13 364.04 40.79 359.96 42.60 M 411.63 49.25 C 414.83 52.80 417.75 56.60 421.08 60.03 C 422.87 60.87 425.01 60.33 426.94 60.55 C 438.84 61.13 450.77 61.26 462.65 62.08 C 473.61 79.72 484.78 97.23 495.93 114.75 C 499.94 114.36 503.99 114.39 508.00 113.93 C 494.78 93.16 481.66 72.33 468.48 51.54 C 449.53 50.66 430.57 50.14 411.63 49.25 M 569.22 60.74 C 566.56 61.14 564.00 61.94 561.41 62.64 C 559.60 63.10 557.80 63.55 555.99 64.00 C 555.34 65.77 554.70 67.54 554.10 69.33 C 550.96 78.06 547.33 86.64 544.70 95.53 C 542.04 100.90 540.41 106.76 538.29 112.36 C 540.15 112.16 542.03 111.94 543.90 111.78 L 543.26 110.36 L 544.86 110.51 C 544.74 110.02 544.50 109.03 544.37 108.54 L 545.54 108.75 C 545.82 107.24 546.95 106.12 547.74 104.86 C 554.04 95.52 559.61 85.70 565.61 76.16 C 568.03 72.33 570.12 68.29 572.87 64.67 L 572.76 64.48 C 573.86 62.57 575.00 60.68 576.18 58.81 C 573.85 59.42 571.53 60.08 569.22 60.74 M 432.84 73.87 C 435.72 76.80 437.93 80.41 441.21 82.93 C 443.38 86.78 446.90 89.85 449.74 93.27 C 451.40 95.54 453.40 97.53 455.15 99.74 C 453.65 99.83 452.16 99.92 450.67 100.01 C 448.41 100.15 446.15 100.27 443.90 100.42 C 435.61 101.10 427.25 101.04 418.98 101.89 C 415.80 102.11 412.56 102.01 409.43 102.59 C 401.29 102.83 393.14 103.17 385.02 103.83 C 384.27 105.01 383.54 106.20 382.82 107.39 C 380.39 111.38 377.95 115.36 375.61 119.40 L 375.32 119.45 C 374.11 121.77 372.87 124.07 371.24 126.13 L 371.32 126.32 C 369.88 129.03 367.87 131.49 366.75 134.36 C 364.87 136.80 363.23 139.43 361.90 142.20 C 361.08 143.36 360.29 144.53 359.51 145.71 C 360.32 146.36 361.14 147.02 361.96 147.68 C 364.73 149.63 367.37 151.75 370.25 153.54 L 370.30 153.83 C 372.61 155.45 374.83 157.18 377.19 158.73 L 377.19 158.87 C 380.76 161.44 384.21 164.17 387.87 166.63 C 390.98 165.37 394.19 164.40 397.37 163.31 C 402.17 161.55 407.02 159.94 411.84 158.23 C 418.69 155.93 425.51 153.53 432.36 151.21 C 435.81 150.04 439.21 148.71 442.71 147.68 L 442.82 147.72 C 447.90 145.61 453.21 144.10 458.39 142.25 C 461.22 141.22 464.07 140.24 466.92 139.28 C 466.51 138.82 465.70 137.89 465.29 137.43 C 463.15 134.43 460.60 131.77 458.25 128.95 C 457.27 127.83 456.31 126.70 455.34 125.57 C 454.32 124.38 453.30 123.18 452.30 121.97 C 451.30 120.84 450.28 119.72 449.21 118.67 C 449.21 118.32 449.23 117.64 449.24 117.29 C 449.78 117.22 450.86 117.07 451.40 116.99 C 453.77 117.02 456.15 116.89 458.52 116.62 C 460.87 116.50 463.29 116.75 465.61 116.21 C 468.07 116.25 470.53 116.07 472.99 115.92 C 475.64 115.73 478.29 115.66 480.95 115.62 C 479.01 112.47 477.16 109.25 474.89 106.33 C 472.92 102.41 470.30 98.84 467.95 95.15 C 466.28 92.28 464.62 89.34 462.48 86.80 C 460.39 82.91 458.00 79.19 455.55 75.53 L 455.91 74.85 C 448.23 74.18 440.54 73.93 432.84 73.87 M 313.75 123.15 C 314.15 146.10 314.54 169.05 314.99 192.00 C 315.05 193.70 314.74 195.53 315.57 197.11 C 317.91 202.26 320.29 207.40 322.63 212.56 C 322.13 187.64 321.90 162.72 321.19 137.82 C 329.25 143.40 336.91 149.53 344.96 155.13 C 343.38 151.23 341.95 147.28 340.34 143.40 C 339.94 142.30 338.90 141.70 338.03 141.02 C 329.91 135.11 321.87 129.07 313.75 123.15 M 584.48 128.20 C 580.53 134.93 576.38 141.55 572.32 148.22 C 564.49 148.71 556.65 149.06 548.83 149.55 C 553.75 155.64 558.96 161.50 564.06 167.43 C 562.17 175.11 560.02 182.71 558.05 190.36 C 565.34 187.41 572.59 184.34 579.86 181.33 C 584.19 184.06 588.45 186.90 592.79 189.62 C 594.94 189.21 597.12 188.84 599.29 188.48 C 598.96 183.63 598.53 178.79 598.14 173.95 C 598.21 172.60 597.39 170.72 598.84 169.83 C 604.60 165.05 610.50 160.44 616.22 155.61 C 608.56 153.72 600.87 151.95 593.20 150.10 C 590.28 142.81 587.89 135.27 584.48 128.20 M 384.98 175.73 C 374.96 168.29 364.90 160.91 354.88 153.48 C 353.63 155.59 352.38 157.69 351.11 159.78 C 361.70 167.58 372.25 175.45 382.88 183.20 C 406.92 174.84 431.02 166.61 455.07 158.27 C 448.74 177.60 442.20 196.86 435.82 216.18 C 439.31 215.62 442.80 215.06 446.27 214.40 C 453.69 191.88 461.28 169.42 468.72 146.92 C 440.77 156.41 412.90 166.14 384.98 175.73 M 477.97 155.48 C 477.20 157.56 476.41 159.63 475.73 161.74 C 474.26 166.18 472.95 170.67 471.23 175.02 C 470.58 177.61 469.65 180.10 468.77 182.62 C 467.30 187.11 465.88 191.62 464.34 196.09 C 466.48 200.86 468.56 205.65 470.88 210.34 C 474.69 209.25 478.78 209.46 482.54 208.24 C 484.05 208.08 485.55 207.78 487.05 207.53 C 489.73 207.04 492.42 206.60 495.10 206.14 C 497.37 205.78 499.62 205.40 501.89 205.01 C 503.47 204.72 505.06 204.44 506.65 204.16 C 507.57 200.12 509.06 196.21 509.44 192.07 C 509.74 191.35 510.05 190.63 510.37 189.91 C 508.86 188.06 507.32 186.23 505.76 184.44 L 505.88 184.27 C 503.85 182.35 502.07 180.19 500.36 177.98 C 497.05 174.49 494.11 170.67 490.89 167.11 C 487.20 162.21 482.76 157.87 478.91 153.06 C 478.67 153.67 478.20 154.88 477.97 155.48 M 329.62 153.90 C 330.01 174.90 330.32 195.90 330.78 216.89 C 329.25 218.03 327.70 219.16 326.16 220.29 C 325.34 218.50 324.54 216.72 323.77 214.91 C 302.27 223.92 284.40 241.07 273.93 261.85 C 264.42 280.45 261.22 302.03 264.29 322.65 C 267.15 341.75 275.71 359.94 288.58 374.34 C 303.47 391.20 324.18 402.84 346.37 406.65 C 366.92 410.24 388.74 407.57 407.48 398.27 C 403.16 389.26 399.24 380.06 394.91 371.06 C 371.08 382.74 340.78 379.61 320.11 362.87 C 305.56 351.45 295.82 334.12 293.75 315.73 C 291.62 298.44 296.18 280.41 306.34 266.25 C 313.79 255.60 324.40 247.49 336.15 242.07 C 334.74 239.19 333.47 236.25 332.15 233.33 L 332.39 233.85 C 334.41 233.36 336.57 233.26 338.50 232.45 C 342.59 229.76 346.46 226.72 350.49 223.93 C 350.50 213.77 350.17 203.62 349.99 193.46 C 358.26 199.42 366.37 205.59 374.63 211.57 C 384.15 208.14 393.75 204.95 403.30 201.62 C 401.00 208.74 398.57 215.81 396.24 222.92 C 399.46 222.38 402.68 221.86 405.89 221.29 C 409.17 211.19 412.63 201.16 415.90 191.07 C 402.83 195.63 389.72 200.08 376.64 204.64 C 365.34 196.49 354.21 188.10 342.96 179.87 C 343.38 193.78 343.59 207.69 343.72 221.61 C 339.42 224.59 335.19 227.68 330.92 230.71 C 329.99 228.71 329.07 226.70 328.16 224.69 C 330.86 222.80 333.53 220.87 336.23 218.99 C 335.94 200.96 335.79 182.93 335.18 164.91 C 349.85 175.51 364.27 186.44 378.92 197.06 C 395.82 191.01 412.86 185.34 429.80 179.41 C 425.38 192.79 420.91 206.16 416.44 219.53 C 419.01 218.80 422.10 219.06 424.40 217.76 C 429.73 202.17 434.84 186.49 440.09 170.86 C 420.73 177.46 401.40 184.17 382.07 190.85 C 380.61 191.94 379.35 190.55 378.23 189.80 C 362.05 177.80 345.83 165.86 329.62 153.90 M 568.03 193.72 C 572.75 193.04 577.44 192.13 582.16 191.41 C 581.19 190.66 580.31 189.66 579.10 189.32 C 575.34 190.61 571.79 192.44 568.03 193.72 M 356.74 206.57 C 357.12 213.07 356.78 219.58 357.24 226.07 C 355.13 227.59 353.02 229.11 350.92 230.63 C 362.90 228.59 374.87 226.51 386.87 224.55 C 388.41 220.35 389.77 216.09 391.15 211.84 C 385.01 213.82 379.01 216.18 372.84 218.04 C 367.19 214.78 362.21 210.22 356.74 206.57 M 490.91 297.63 C 476.96 302.97 463.58 311.07 454.25 322.94 C 450.64 327.95 446.82 334.10 448.39 340.53 C 450.12 346.27 456.53 347.76 460.47 351.51 C 467.09 357.67 472.35 365.08 477.74 372.29 C 483.16 379.40 486.62 387.87 488.36 396.61 C 480.10 399.08 472.32 403.11 465.46 408.32 C 461.40 411.58 457.13 415.62 456.52 421.08 C 456.37 426.67 459.07 432.09 463.09 435.88 C 470.06 442.37 479.52 445.30 488.72 446.92 C 494.21 452.99 500.54 458.84 508.49 461.39 C 511.04 462.10 514.36 462.66 516.39 460.50 C 518.24 458.35 517.21 455.35 517.10 452.84 C 521.23 453.08 525.40 453.79 529.07 455.80 C 534.76 459.06 542.31 458.47 547.53 454.54 C 557.77 447.16 565.02 436.59 572.53 426.65 C 581.53 422.71 590.26 418.01 598.02 411.95 C 605.24 406.19 609.91 397.76 612.39 388.97 C 614.68 381.15 615.14 372.43 611.35 364.98 C 614.01 363.67 616.90 362.25 619.95 362.58 C 621.28 362.66 623.11 363.43 623.88 361.84 C 624.62 359.29 622.28 357.08 619.99 356.53 C 615.34 355.35 610.52 356.38 605.99 357.59 C 604.46 356.29 602.88 355.06 601.26 353.89 C 605.28 350.83 605.72 345.61 606.85 341.09 C 606.43 338.95 603.52 338.85 602.16 340.12 C 599.99 342.24 598.71 345.53 595.52 346.39 C 592.37 347.22 589.27 348.23 586.12 349.00 C 576.69 348.36 566.91 348.44 557.98 351.88 C 551.56 336.31 553.99 319.01 557.49 303.05 C 558.07 299.87 560.21 296.81 559.50 293.50 C 558.09 289.78 553.50 289.37 550.13 288.76 C 530.02 286.10 509.75 290.82 490.91 297.63 Z" />
<path fill="#000000" opacity="1.00" d=" M 342.69 0.00 L 353.24 0.00 C 356.22 1.77 359.11 3.69 362.01 5.59 C 363.20 5.12 364.41 4.65 365.61 4.17 C 368.08 3.21 370.57 2.22 372.77 0.70 C 373.44 0.52 374.79 0.17 375.46 0.00 L 390.68 0.00 C 381.09 4.07 371.45 8.00 361.91 12.17 C 355.41 8.27 349.16 3.97 342.69 0.00 Z" />
<path fill="#000000" opacity="1.00" d=" M 444.60 0.00 L 456.10 0.00 C 450.49 6.44 445.21 13.16 439.67 19.66 C 455.02 20.41 470.38 20.81 485.73 21.53 C 494.05 34.43 502.00 47.57 510.50 60.35 C 515.78 46.01 521.10 31.68 526.30 17.31 C 541.17 13.29 556.14 9.68 571.04 5.77 C 568.65 3.81 566.21 1.91 563.79 0.00 L 575.36 0.00 C 580.43 3.84 585.36 7.86 590.37 11.77 C 571.03 16.67 551.72 21.67 532.38 26.56 C 525.42 45.27 518.58 64.02 511.67 82.75 C 500.91 65.98 490.28 49.11 479.67 32.24 C 459.73 31.35 439.77 30.58 419.82 29.94 C 427.95 19.86 436.29 9.93 444.60 0.00 Z" />
<path fill="#000000" opacity="1.00" d=" M 466.36 0.00 L 476.06 0.00 L 475.16 1.71 C 482.31 1.98 489.46 2.29 496.61 2.54 C 500.60 8.60 504.27 14.88 508.38 20.87 C 510.81 14.13 513.28 7.41 515.79 0.70 C 516.19 0.52 517.00 0.17 517.40 0.00 L 554.31 0.00 C 543.70 3.27 532.80 5.55 522.09 8.49 C 520.71 8.62 520.59 10.24 520.09 11.22 C 516.58 20.94 513.00 30.63 509.40 40.31 C 503.15 30.92 497.28 21.28 491.21 11.78 C 480.07 11.57 468.94 10.94 457.80 10.61 C 460.38 6.86 463.45 3.48 466.36 0.00 Z" />
<path fill="#000000" opacity="1.00" d=" M 607.80 0.00 L 634.71 0.00 C 632.45 1.58 630.25 3.25 628.02 4.87 C 630.42 6.75 632.79 8.68 635.19 10.57 C 636.80 11.83 638.43 13.05 640.00 14.38 L 640.00 25.33 C 629.31 16.84 618.59 8.38 607.80 0.00 Z" />
<path fill="#000000" opacity="1.00" d=" M 574.94 152.98 C 577.93 148.33 580.63 143.51 583.68 138.90 C 585.66 144.00 587.58 149.12 589.61 154.20 C 594.82 155.41 600.03 156.63 605.22 157.95 C 601.39 161.77 596.92 164.88 592.78 168.36 C 593.19 173.78 593.69 179.20 594.04 184.64 C 589.36 181.79 584.86 178.67 580.20 175.80 C 575.21 177.97 570.19 180.05 565.14 182.08 C 566.53 176.78 568.02 171.51 569.33 166.19 C 565.89 162.04 562.09 158.18 558.96 153.79 C 564.29 153.49 569.61 153.08 574.94 152.98 Z" />
<path fill="#000000" opacity="1.00" d=" M 504.58 295.42 C 519.60 291.20 535.48 288.61 551.04 291.08 C 553.30 291.55 556.13 291.81 557.45 294.00 C 557.79 296.79 556.03 299.35 555.54 302.04 C 551.59 319.25 549.35 338.03 556.70 354.68 C 565.60 350.83 575.54 350.34 585.09 351.13 C 587.12 351.46 588.97 350.40 590.88 349.91 C 593.83 348.96 597.19 348.68 599.59 346.50 C 601.35 344.79 602.58 342.59 604.48 340.99 C 603.86 343.80 603.66 346.76 602.33 349.35 C 601.17 351.54 598.91 352.75 596.90 354.00 C 600.04 355.53 602.90 357.58 605.36 360.07 C 610.63 358.67 617.63 356.14 622.12 360.48 C 617.32 359.79 612.50 361.49 608.66 364.31 C 611.98 370.41 612.91 377.60 611.27 384.36 C 609.19 394.71 604.08 404.90 595.42 411.25 C 588.18 416.58 580.27 420.97 572.00 424.47 C 571.21 424.76 570.59 425.27 570.16 425.99 C 564.40 434.17 558.29 442.21 550.95 449.05 C 547.34 452.28 543.20 455.71 538.08 455.73 C 532.61 456.48 528.39 452.15 523.19 451.44 C 520.63 451.18 517.73 450.12 515.30 451.24 C 514.51 453.45 515.56 455.85 515.29 458.15 C 514.46 460.60 511.29 459.90 509.38 459.43 C 501.46 456.93 495.25 450.99 489.84 444.93 C 481.24 443.49 472.44 440.91 465.63 435.23 C 461.48 431.75 458.49 426.54 458.67 421.03 C 459.58 415.76 464.04 412.15 468.03 409.07 C 474.92 404.21 482.56 400.14 490.84 398.27 C 489.21 388.36 485.42 378.72 479.28 370.72 C 473.47 363.00 467.81 354.98 460.43 348.66 C 456.62 345.65 450.44 343.81 450.10 338.11 C 450.20 331.88 454.08 326.52 457.86 321.88 C 469.98 308.16 487.21 300.21 504.58 295.42 M 474.50 310.47 C 467.30 314.24 460.77 319.48 456.12 326.19 C 453.99 329.38 452.01 332.97 452.00 336.91 C 451.90 339.70 454.50 341.69 457.07 342.01 C 462.56 342.74 467.95 340.84 473.04 339.02 C 479.50 336.78 484.41 331.82 489.10 327.06 C 488.47 328.35 487.82 329.64 487.19 330.93 C 491.41 334.62 493.88 339.80 496.28 344.75 C 496.53 345.69 497.89 348.07 495.99 348.08 C 493.99 347.17 492.62 345.37 491.00 343.97 C 492.51 348.17 493.63 352.82 496.95 356.03 C 498.78 358.22 499.95 360.91 502.01 362.95 C 501.36 360.60 498.49 357.54 500.88 355.43 C 505.63 363.10 509.12 371.50 513.63 379.33 C 514.18 380.30 515.53 381.66 516.71 380.80 C 520.97 377.79 525.10 374.54 528.92 370.98 C 530.78 369.40 532.11 366.67 530.62 364.39 C 524.50 351.31 519.61 337.68 516.18 323.65 C 514.93 318.93 513.58 314.19 513.35 309.28 C 507.23 310.67 502.90 315.62 497.80 318.91 C 504.28 311.84 512.44 306.62 520.54 301.61 C 526.10 298.12 532.07 295.21 538.45 293.58 C 541.95 292.73 545.62 291.88 549.20 292.82 C 544.12 290.90 538.60 291.56 533.30 291.54 C 512.46 292.74 492.65 300.56 474.50 310.47 M 531.16 302.17 C 532.29 307.04 531.57 312.18 533.22 316.98 C 532.13 320.33 533.27 323.75 533.82 327.09 C 535.18 333.78 535.58 340.63 536.80 347.35 C 537.45 350.48 538.04 353.82 540.16 356.34 C 540.63 356.33 541.56 356.29 542.03 356.27 C 539.96 352.24 539.09 347.64 539.04 343.14 C 539.55 339.53 538.14 336.10 537.36 332.65 C 534.76 323.12 534.04 313.22 532.48 303.50 C 532.15 303.17 531.49 302.51 531.16 302.17 M 516.76 308.96 C 516.45 321.52 521.08 333.40 524.76 345.22 C 527.71 351.54 529.16 358.55 532.76 364.54 C 534.23 363.18 535.69 361.81 537.11 360.40 C 534.13 355.80 533.42 350.26 531.89 345.11 C 529.07 335.54 527.95 325.57 524.96 316.05 C 523.62 312.05 523.10 307.87 522.34 303.74 C 520.25 305.05 516.33 305.73 516.76 308.96 M 528.19 308.74 C 528.51 317.24 529.91 325.71 532.36 333.86 C 532.99 335.69 533.14 337.63 533.38 339.55 C 533.51 338.64 533.76 336.84 533.89 335.94 L 533.16 335.39 C 531.13 326.59 529.67 317.65 528.19 308.74 M 595.27 350.38 C 591.39 351.20 587.12 352.32 584.73 355.77 C 583.77 356.56 583.14 358.70 581.49 357.61 C 579.90 359.89 578.41 362.59 579.40 365.44 C 579.88 365.53 580.85 365.72 581.33 365.81 C 581.78 364.51 582.31 363.23 582.95 362.00 C 585.03 362.71 587.57 362.95 589.14 361.06 C 591.37 359.25 590.31 355.57 593.02 354.13 C 596.47 351.94 601.42 350.67 602.14 345.93 C 600.10 347.74 598.09 349.87 595.27 350.38 M 543.26 368.30 C 537.68 374.56 533.03 381.58 528.63 388.70 C 527.20 390.87 526.70 393.57 524.90 395.50 C 526.10 389.17 529.68 383.54 533.52 378.49 C 536.60 374.98 538.00 370.40 540.96 366.80 C 540.29 366.23 539.62 365.66 538.96 365.10 C 528.66 371.57 520.95 381.62 509.88 386.97 C 505.93 388.96 501.42 388.95 497.18 389.85 C 499.21 391.17 502.96 389.44 503.75 392.29 C 505.02 396.75 506.85 401.00 508.89 405.16 C 509.14 408.92 510.30 412.38 512.81 415.25 C 515.88 412.06 517.64 407.70 521.04 404.88 C 519.87 410.83 517.22 416.68 513.31 421.33 C 511.68 423.60 508.68 423.67 506.16 423.86 C 501.67 420.78 496.54 417.87 494.49 412.50 C 493.81 410.65 494.41 407.55 491.88 407.07 C 487.98 406.40 483.98 406.98 480.23 408.14 C 473.93 410.08 467.25 412.68 463.19 418.16 C 460.57 421.58 461.03 426.38 462.99 430.00 C 465.29 434.40 469.90 436.73 474.14 438.90 C 476.16 439.83 478.25 441.36 480.60 440.67 C 484.92 439.82 489.42 440.99 493.68 439.63 C 498.19 438.22 502.41 435.91 506.21 433.12 C 514.18 426.62 518.62 416.98 522.77 407.82 C 524.73 402.99 528.43 399.11 530.29 394.23 C 531.57 391.20 531.19 387.71 532.77 384.79 C 539.52 373.82 549.35 364.92 560.50 358.54 C 563.74 356.60 567.66 356.14 570.81 354.03 C 560.84 356.83 550.51 360.54 543.26 368.30 M 597.81 370.93 C 594.41 377.39 589.25 383.12 583.06 387.04 C 580.56 388.61 575.63 389.69 574.47 386.00 C 573.10 382.44 575.86 379.44 577.83 376.82 C 572.38 379.52 567.57 385.19 569.51 391.65 C 567.86 392.47 566.04 393.76 564.11 393.02 C 561.43 391.88 560.49 388.74 560.02 386.12 C 559.61 381.35 560.80 376.34 563.64 372.45 C 565.21 370.28 567.93 369.49 569.84 367.72 C 571.06 366.06 571.13 363.91 571.57 361.97 C 568.11 369.77 559.06 371.82 552.93 376.82 C 549.57 380.26 545.77 385.01 547.32 390.12 C 548.12 392.74 546.93 395.38 546.54 397.98 C 546.02 402.12 544.77 407.52 539.98 408.50 C 536.76 409.64 534.70 406.46 533.67 403.94 C 532.26 401.36 533.69 398.56 534.63 396.10 C 532.76 398.13 530.76 400.16 529.74 402.78 C 528.33 406.17 528.66 409.97 527.50 413.42 C 525.91 416.14 523.58 418.45 522.98 421.68 C 526.02 419.57 527.78 423.04 526.45 425.48 C 523.92 428.91 521.98 432.84 521.36 437.09 C 521.07 438.59 521.41 439.95 522.38 441.16 C 524.94 436.28 531.37 436.20 536.18 436.15 C 536.23 436.59 536.33 437.48 536.38 437.93 C 539.64 441.56 544.31 438.51 547.42 436.34 C 547.72 436.56 548.31 436.99 548.61 437.21 C 551.21 435.19 554.16 433.46 555.61 430.34 C 551.82 431.62 545.64 434.02 543.11 429.57 C 545.07 427.34 546.78 424.86 549.03 422.88 C 552.02 421.94 555.34 421.79 557.99 419.88 C 560.94 417.82 564.74 415.50 564.98 411.51 C 562.91 410.80 559.96 410.47 559.32 407.94 C 559.07 404.60 561.47 401.84 563.29 399.27 C 566.36 394.93 571.83 392.78 577.06 393.27 C 578.31 394.26 579.14 396.06 580.93 396.18 C 585.57 396.19 590.21 393.49 592.29 389.30 C 594.51 385.14 595.66 380.54 597.15 376.09 C 598.34 372.36 601.11 369.45 603.54 366.48 C 606.64 362.86 611.19 361.14 615.41 359.23 C 608.29 360.12 599.74 363.16 597.81 370.93 M 563.15 378.12 C 561.24 379.35 560.85 381.82 561.00 383.92 C 561.20 386.61 561.49 389.59 563.38 391.69 C 564.65 392.84 566.34 391.98 567.79 391.80 C 568.58 388.07 568.11 383.77 570.69 380.65 C 573.83 377.10 578.44 374.62 583.27 374.85 C 581.19 376.62 578.41 377.69 577.31 380.41 C 575.88 382.59 575.62 387.27 579.05 387.58 C 581.43 386.70 584.48 385.96 585.35 383.23 C 586.95 378.74 587.79 373.96 588.06 369.20 C 578.78 368.70 571.13 374.35 563.15 378.12 M 535.76 404.96 C 537.53 405.51 539.76 407.21 541.31 405.26 C 544.10 403.60 543.99 399.51 546.54 397.98 C 545.04 396.27 545.88 393.75 545.57 391.68 C 544.70 390.87 543.85 390.07 543.00 389.27 C 538.70 393.30 533.35 398.41 535.76 404.96 M 565.57 398.51 C 565.21 400.59 564.87 402.95 562.77 404.00 C 560.82 404.84 559.96 408.03 562.20 409.07 C 565.66 409.95 568.74 407.52 569.50 404.21 C 571.31 405.96 569.28 407.79 568.47 409.46 C 566.16 413.14 565.07 417.75 561.53 420.54 C 557.92 423.42 552.93 422.84 548.99 424.98 C 547.00 425.82 546.00 427.83 545.83 429.89 C 551.11 431.62 555.88 427.87 559.98 425.06 C 561.21 424.46 562.41 422.80 563.92 423.48 C 556.73 427.04 556.09 437.78 547.58 439.41 C 543.51 438.60 539.66 442.37 535.68 440.44 C 535.08 439.52 534.50 438.60 533.92 437.67 C 528.42 436.43 523.51 440.85 521.81 445.76 C 519.96 442.33 520.05 438.21 520.68 434.47 C 521.36 430.67 524.37 427.66 524.55 423.74 C 523.13 424.20 522.09 425.27 520.98 426.19 C 520.96 423.96 520.78 421.68 521.47 419.52 C 522.36 416.43 524.97 414.00 525.03 410.65 C 517.04 417.43 516.31 428.68 510.45 436.92 C 513.94 440.18 514.66 445.40 513.73 449.91 C 517.10 448.86 520.73 448.80 524.11 449.87 C 527.70 450.70 530.98 453.81 534.82 452.19 C 541.42 455.03 547.56 449.38 551.81 444.93 C 558.15 437.11 563.62 428.61 569.49 420.43 C 573.60 413.39 577.42 406.07 579.98 398.32 C 578.16 397.29 576.91 395.56 575.22 394.39 C 571.55 394.36 568.54 396.67 565.57 398.51 M 496.14 441.45 C 496.16 443.78 498.65 445.20 500.01 446.90 C 502.28 449.14 507.56 451.78 508.91 447.28 C 507.33 445.47 505.90 443.46 503.88 442.13 C 501.51 440.88 498.70 441.21 496.14 441.45 Z" />
<path fill="#000000" opacity="1.00" d=" M 488.98 436.97 C 495.91 435.28 502.66 432.39 508.21 427.84 C 506.67 431.89 502.02 433.73 498.22 435.15 C 493.65 436.34 489.50 439.22 484.66 439.19 C 485.50 437.57 487.45 437.50 488.98 436.97 Z" />
<path fill="#000000" opacity="1.00" d=" M 0.00 476.99 C 1.20 477.50 1.86 478.70 1.71 480.00 L 0.00 480.00 L 0.00 476.99 Z" />
</g>
<g id="#ffffffff">
<path fill="#ffffff" opacity="1.00" d=" M 229.89 0.00 L 243.57 0.00 C 246.33 0.81 249.06 1.71 251.83 2.49 C 253.23 6.44 254.41 10.45 255.70 14.43 C 258.26 11.13 260.56 7.63 263.01 4.24 C 267.11 4.25 271.21 4.27 275.32 4.21 C 274.31 2.79 273.30 1.37 272.24 0.00 L 277.43 0.00 C 279.73 2.84 281.83 5.82 284.04 8.73 C 277.72 8.77 271.41 8.74 265.09 8.75 C 261.46 13.93 257.84 19.12 254.17 24.27 C 252.26 18.27 250.32 12.28 248.55 6.24 C 242.38 3.99 235.84 2.80 229.89 0.00 Z" />
<path fill="#ffffff" opacity="1.00" d=" M 287.38 0.00 L 297.69 0.00 C 302.90 6.77 307.98 13.65 313.09 20.50 C 299.70 20.06 286.28 20.50 272.89 19.96 C 265.08 30.91 257.54 42.05 249.62 52.92 C 245.36 40.22 241.57 27.37 237.44 14.63 C 235.45 14.02 233.46 13.42 231.47 12.83 C 230.83 11.43 230.19 10.04 229.56 8.65 C 229.12 7.70 228.69 6.76 228.26 5.81 C 233.17 7.27 238.05 8.82 242.95 10.31 C 246.07 19.66 248.87 29.12 251.91 38.49 C 257.62 30.43 263.27 22.33 268.95 14.24 C 278.72 14.41 288.49 14.62 298.27 14.48 C 294.69 9.61 291.07 4.78 287.38 0.00 Z" />
<path fill="#ffffff" opacity="1.00" d=" M 309.11 0.00 L 317.42 0.00 C 325.55 10.46 333.39 21.15 341.34 31.76 C 320.98 31.68 300.62 31.27 280.26 31.26 C 272.06 42.84 263.99 54.51 255.77 66.07 C 254.93 64.27 254.08 62.47 253.21 60.69 C 261.09 49.19 269.10 37.79 277.22 26.46 C 294.62 26.66 312.02 26.77 329.42 26.99 C 322.68 17.98 315.86 9.02 309.11 0.00 Z" />
<path fill="#ffffff" opacity="1.00" d=" M 334.10 0.00 L 342.69 0.00 C 349.16 3.97 355.41 8.27 361.91 12.17 C 371.45 8.00 381.09 4.07 390.68 0.00 L 403.17 0.00 C 389.17 5.73 375.31 11.81 361.29 17.49 C 352.28 11.57 343.17 5.83 334.10 0.00 Z" />
<path fill="#ffffff" opacity="1.00" d=" M 408.61 0.00 L 414.47 0.00 C 410.21 15.65 406.31 31.40 402.05 47.06 C 415.13 62.37 428.41 77.51 441.47 92.84 C 421.40 93.94 401.34 95.20 381.28 96.30 C 370.92 113.55 360.44 130.73 350.04 147.95 C 342.67 129.23 335.38 110.49 328.07 91.75 C 308.50 87.14 288.92 82.60 269.36 77.96 C 282.62 67.02 295.95 56.17 309.22 45.25 C 311.76 43.10 314.67 41.29 316.56 38.48 C 318.25 38.48 319.94 38.49 321.63 38.49 C 321.73 39.16 321.91 40.49 322.01 41.16 C 308.61 52.28 295.08 63.22 281.66 74.30 C 298.56 78.41 315.56 82.15 332.45 86.34 C 338.66 102.49 344.89 118.63 351.36 134.67 C 359.95 120.45 368.60 106.26 377.17 92.03 C 377.78 91.08 378.47 89.80 379.86 90.05 C 396.62 89.16 413.38 88.07 430.14 87.18 C 419.05 73.91 407.64 60.89 396.28 47.85 C 400.23 31.86 404.76 16.01 408.61 0.00 Z" />
<path fill="#ffffff" opacity="1.00" d=" M 421.43 0.00 L 423.87 0.00 C 422.62 1.35 421.45 2.76 420.25 4.15 C 420.62 2.76 421.00 1.37 421.43 0.00 Z" />
<path fill="#ffffff" opacity="1.00" d=" M 436.10 0.00 L 444.60 0.00 C 436.29 9.93 427.95 19.86 419.82 29.94 C 439.77 30.58 459.73 31.35 479.67 32.24 C 490.28 49.11 500.91 65.98 511.67 82.75 C 518.58 64.02 525.42 45.27 532.38 26.56 C 551.72 21.67 571.03 16.67 590.37 11.77 C 585.36 7.86 580.43 3.84 575.36 0.00 L 583.98 0.00 C 590.73 5.43 597.75 10.53 604.30 16.19 C 581.79 22.06 559.22 27.68 536.71 33.54 C 528.62 55.42 520.61 77.32 512.52 99.20 C 499.98 79.51 487.59 59.71 475.01 40.04 C 453.86 39.16 432.69 38.50 411.54 37.52 C 413.22 32.86 413.07 27.27 416.61 23.47 C 423.14 15.68 429.59 7.81 436.10 0.00 Z" />
<path fill="#ffffff" opacity="1.00" d=" M 456.10 0.00 L 466.36 0.00 C 463.45 3.48 460.38 6.86 457.80 10.61 C 468.94 10.94 480.07 11.57 491.21 11.78 C 497.28 21.28 503.15 30.92 509.40 40.31 C 513.00 30.63 516.58 20.94 520.09 11.22 C 520.59 10.24 520.71 8.62 522.09 8.49 C 532.80 5.55 543.70 3.27 554.31 0.00 L 563.79 0.00 C 566.21 1.91 568.65 3.81 571.04 5.77 C 556.14 9.68 541.17 13.29 526.30 17.31 C 521.10 31.68 515.78 46.01 510.50 60.35 C 502.00 47.57 494.05 34.43 485.73 21.53 C 470.38 20.81 455.02 20.41 439.67 19.66 C 445.21 13.16 450.49 6.44 456.10 0.00 Z" />
<path fill="#ffffff" opacity="1.00" d=" M 476.06 0.00 L 517.40 0.00 C 517.00 0.17 516.19 0.52 515.79 0.70 C 513.28 7.41 510.81 14.13 508.38 20.87 C 504.27 14.88 500.60 8.60 496.61 2.54 C 489.46 2.29 482.31 1.98 475.16 1.71 L 476.06 0.00 Z" />
<path fill="#ffffff" opacity="1.00" d=" M 596.41 0.00 L 607.80 0.00 C 618.59 8.38 629.31 16.84 640.00 25.33 L 640.00 29.49 C 625.76 33.12 611.53 36.78 597.28 40.39 C 596.04 37.16 594.78 33.93 593.61 30.67 C 604.12 28.04 614.60 25.25 625.13 22.68 C 615.69 14.96 606.03 7.50 596.41 0.00 Z" />
<path fill="#ffffff" opacity="1.00" d=" M 334.90 6.70 C 343.72 12.11 352.33 17.86 361.09 23.37 C 374.33 17.94 387.39 12.06 400.73 6.89 C 397.10 20.78 393.24 34.63 389.93 48.60 C 399.44 59.22 408.59 70.16 417.97 80.90 C 404.00 81.74 390.02 82.53 376.05 83.34 C 374.76 83.28 374.34 84.74 373.70 85.57 C 366.67 97.09 359.87 108.78 352.62 120.17 C 347.46 106.79 342.25 93.44 336.97 80.11 C 322.99 76.95 309.08 73.47 295.08 70.40 C 306.16 61.21 317.35 52.15 328.45 42.99 C 328.32 41.47 328.21 39.95 328.10 38.43 C 329.55 38.47 331.00 38.49 332.45 38.51 C 332.63 40.50 332.76 42.51 332.75 44.51 C 323.13 51.97 313.89 59.91 304.41 67.54 C 316.21 70.46 328.10 73.02 339.90 75.97 L 340.42 76.47 C 344.81 87.67 349.22 98.87 353.52 110.10 C 360.36 99.94 366.28 89.18 372.78 78.79 C 385.00 78.06 397.23 77.33 409.46 76.66 C 401.55 67.28 393.45 58.05 385.44 48.75 C 388.56 36.88 391.67 25.01 394.76 13.13 C 383.46 17.90 372.14 22.64 360.83 27.40 C 354.30 23.16 347.67 19.06 341.19 14.75 C 338.72 12.40 336.97 9.40 334.90 6.70 Z" />
<path fill="#ffffff" opacity="1.00" d=" M 360.66 32.88 C 369.29 29.11 377.98 25.50 386.69 21.91 C 384.21 31.02 381.94 40.18 379.47 49.29 C 385.58 56.46 391.80 63.55 397.93 70.70 C 388.53 71.62 379.08 71.76 369.67 72.56 C 364.74 80.60 360.01 88.76 354.93 96.71 C 351.53 87.93 348.00 79.20 344.70 70.38 C 335.45 68.19 326.21 66.00 316.95 63.87 C 324.28 57.81 331.68 51.84 339.00 45.77 C 338.73 43.33 338.53 40.88 338.41 38.43 C 340.15 38.49 341.90 38.56 343.66 38.67 C 343.92 41.50 344.29 44.34 344.33 47.20 C 339.16 51.81 333.61 56.00 328.31 60.47 C 335.06 62.20 341.90 63.55 348.63 65.35 C 351.09 71.72 353.54 78.09 356.09 84.42 C 360.04 78.75 363.27 72.62 367.00 66.80 C 373.91 66.47 380.81 65.92 387.73 65.69 C 383.26 60.40 378.74 55.16 374.15 49.97 C 375.75 43.23 377.66 36.56 379.33 29.83 C 372.85 32.31 366.57 35.25 360.11 37.77 C 355.05 35.30 352.71 29.97 349.17 25.91 C 353.22 27.85 356.75 30.69 360.66 32.88 Z" />
<path fill="#ffffff" opacity="1.00" d=" M 543.16 43.55 C 559.92 39.31 576.66 35.02 593.40 30.72 C 590.69 34.90 588.21 39.23 585.52 43.43 C 573.30 46.51 561.09 49.64 548.89 52.79 C 541.55 72.85 534.07 92.85 526.81 112.94 C 523.66 113.20 520.50 113.37 517.34 113.49 C 526.01 90.20 534.46 66.83 543.16 43.55 Z" />
<path fill="#ffffff" opacity="1.00" d=" M 359.96 42.60 C 364.04 40.79 368.19 39.13 372.30 37.35 C 371.26 41.59 369.93 45.77 369.06 50.05 C 371.31 53.84 374.81 56.91 377.60 60.39 C 373.18 60.93 368.72 61.02 364.27 61.30 C 362.03 65.12 359.63 68.84 357.45 72.70 C 355.48 68.73 354.06 64.52 352.48 60.39 C 348.40 59.27 344.25 58.49 340.16 57.43 C 340.17 57.20 340.18 56.74 340.18 56.51 C 343.32 53.87 346.54 51.32 349.73 48.74 C 349.44 45.41 349.15 42.08 348.94 38.75 C 350.62 38.75 352.31 38.75 354.01 38.76 C 355.96 40.08 357.95 41.34 359.96 42.60 Z" />
<path fill="#ffffff" opacity="1.00" d=" M 411.63 49.25 C 430.57 50.14 449.53 50.66 468.48 51.54 C 481.66 72.33 494.78 93.16 508.00 113.93 C 503.99 114.39 499.94 114.36 495.93 114.75 C 484.78 97.23 473.61 79.72 462.65 62.08 C 450.77 61.26 438.84 61.13 426.94 60.55 C 425.01 60.33 422.87 60.87 421.08 60.03 C 417.75 56.60 414.83 52.80 411.63 49.25 Z" />
<path fill="#ffffff" opacity="1.00" d=" M 591.75 49.08 C 601.73 74.49 611.42 100.02 621.34 125.46 C 627.54 127.01 633.81 128.33 640.00 129.97 L 640.00 135.98 C 631.98 133.95 623.89 132.18 615.87 130.15 C 607.49 108.18 598.85 86.32 590.55 64.32 C 577.95 84.18 566.11 104.54 553.55 124.41 C 530.14 126.22 506.57 126.88 483.12 128.56 C 498.43 146.40 513.71 164.27 528.98 182.14 C 527.36 188.51 525.57 194.84 523.96 201.22 C 521.36 201.69 518.75 202.13 516.16 202.56 C 517.63 196.92 519.12 191.28 520.67 185.65 C 502.99 164.86 485.08 144.26 467.46 123.42 C 494.67 121.94 521.88 120.47 549.09 118.96 C 563.33 95.68 577.59 72.41 591.75 49.08 Z" />
<path fill="#ffffff" opacity="1.00" d=" M 588.82 81.10 C 596.15 99.05 602.91 117.24 609.91 135.32 C 619.90 137.90 629.99 140.08 640.00 142.60 L 640.00 147.15 C 628.67 144.34 617.29 141.73 605.94 138.99 C 599.89 123.47 593.94 107.91 587.90 92.38 C 579.21 106.57 570.54 120.77 561.89 134.99 C 545.28 136.04 528.65 136.72 512.05 137.82 C 522.88 150.42 533.63 163.08 544.48 175.66 C 542.43 183.41 540.43 191.18 538.26 198.90 C 536.32 199.18 534.40 199.47 532.48 199.77 C 534.37 192.60 536.35 185.45 538.17 178.27 C 525.53 163.54 512.89 148.82 500.30 134.05 C 519.72 132.72 539.17 132.02 558.59 130.70 C 568.59 114.12 578.75 97.64 588.82 81.10 Z" />
<path fill="#ffffff" opacity="1.00" d=" M 565.45 139.42 C 572.55 127.76 579.64 116.08 586.83 104.47 C 591.76 117.19 596.73 129.89 601.55 142.66 C 614.33 145.88 627.19 148.78 640.00 151.90 L 640.00 153.57 C 629.90 161.74 619.89 170.02 609.73 178.12 C 609.90 180.92 610.13 183.71 610.37 186.51 C 608.61 186.88 606.84 187.24 605.10 187.61 C 604.43 183.22 604.23 178.77 603.96 174.34 C 612.37 167.59 620.77 160.81 629.06 153.90 C 618.55 151.40 608.06 148.85 597.54 146.39 C 593.54 136.31 589.81 126.12 585.72 116.08 C 580.08 125.32 574.45 134.55 568.80 143.78 C 557.97 144.40 547.14 145.00 536.30 145.55 C 543.41 153.75 550.40 162.04 557.52 170.23 C 555.17 179.06 552.80 187.89 550.49 196.74 C 548.50 197.07 546.52 197.40 544.55 197.73 C 546.68 189.45 548.96 181.21 551.10 172.93 C 542.41 162.48 533.14 152.48 524.76 141.79 C 538.31 140.83 551.90 140.39 565.45 139.42 Z" />
<path fill="#ffffff" opacity="1.00" d=" M 313.75 123.15 C 321.87 129.07 329.91 135.11 338.03 141.02 C 338.90 141.70 339.94 142.30 340.34 143.40 C 341.95 147.28 343.38 151.23 344.96 155.13 C 336.91 149.53 329.25 143.40 321.19 137.82 C 321.90 162.72 322.13 187.64 322.63 212.56 C 320.29 207.40 317.91 202.26 315.57 197.11 C 314.74 195.53 315.05 193.70 314.99 192.00 C 314.54 169.05 314.15 146.10 313.75 123.15 Z" />
<path fill="#ffffff" opacity="1.00" d=" M 584.48 128.20 C 587.89 135.27 590.28 142.81 593.20 150.10 C 600.87 151.95 608.56 153.72 616.22 155.61 C 610.50 160.44 604.60 165.05 598.84 169.83 C 597.39 170.72 598.21 172.60 598.14 173.95 C 598.53 178.79 598.96 183.63 599.29 188.48 C 597.12 188.84 594.94 189.21 592.79 189.62 C 588.45 186.90 584.19 184.06 579.86 181.33 C 572.59 184.34 565.34 187.41 558.05 190.36 C 560.02 182.71 562.17 175.11 564.06 167.43 C 558.96 161.50 553.75 155.64 548.83 149.55 C 556.65 149.06 564.49 148.71 572.32 148.22 C 576.38 141.55 580.53 134.93 584.48 128.20 M 574.94 152.98 C 569.61 153.08 564.29 153.49 558.96 153.79 C 562.09 158.18 565.89 162.04 569.33 166.19 C 568.02 171.51 566.53 176.78 565.14 182.08 C 570.19 180.05 575.21 177.97 580.20 175.80 C 584.86 178.67 589.36 181.79 594.04 184.64 C 593.69 179.20 593.19 173.78 592.78 168.36 C 596.92 164.88 601.39 161.77 605.22 157.95 C 600.03 156.63 594.82 155.41 589.61 154.20 C 587.58 149.12 585.66 144.00 583.68 138.90 C 580.63 143.51 577.93 148.33 574.94 152.98 Z" />
<path fill="#ffffff" opacity="1.00" d=" M 384.98 175.73 C 412.90 166.14 440.77 156.41 468.72 146.92 C 461.28 169.42 453.69 191.88 446.27 214.40 C 442.80 215.06 439.31 215.62 435.82 216.18 C 442.20 196.86 448.74 177.60 455.07 158.27 C 431.02 166.61 406.92 174.84 382.88 183.20 C 372.25 175.45 361.70 167.58 351.11 159.78 C 352.38 157.69 353.63 155.59 354.88 153.48 C 364.90 160.91 374.96 168.29 384.98 175.73 Z" />
<path fill="#ffffff" opacity="1.00" d=" M 329.62 153.90 C 345.83 165.86 362.05 177.80 378.23 189.80 C 379.35 190.55 380.61 191.94 382.07 190.85 C 401.40 184.17 420.73 177.46 440.09 170.86 C 434.84 186.49 429.73 202.17 424.40 217.76 C 422.10 219.06 419.01 218.80 416.44 219.53 C 420.91 206.16 425.38 192.79 429.80 179.41 C 412.86 185.34 395.82 191.01 378.92 197.06 C 364.27 186.44 349.85 175.51 335.18 164.91 C 335.79 182.93 335.94 200.96 336.23 218.99 C 333.53 220.87 330.86 222.80 328.16 224.69 C 327.49 223.22 326.83 221.75 326.16 220.29 C 327.70 219.16 329.25 218.03 330.78 216.89 C 330.32 195.90 330.01 174.90 329.62 153.90 Z" />
<path fill="#ffffff" opacity="1.00" d=" M 617.03 181.04 C 624.69 174.83 632.36 168.61 640.00 162.37 L 640.00 170.66 C 635.06 174.87 629.93 178.84 624.96 183.01 C 622.56 185.26 619.02 184.94 616.03 185.63 C 615.81 184.02 615.26 182.00 617.03 181.04 Z" />
<path fill="#ffffff" opacity="1.00" d=" M 342.96 179.87 C 354.21 188.10 365.34 196.49 376.64 204.64 C 389.72 200.08 402.83 195.63 415.90 191.07 C 412.63 201.16 409.17 211.19 405.89 221.29 C 402.68 221.86 399.46 222.38 396.24 222.92 C 398.57 215.81 401.00 208.74 403.30 201.62 C 393.75 204.95 384.15 208.14 374.63 211.57 C 366.37 205.59 358.26 199.42 349.99 193.46 C 350.17 203.62 350.50 213.77 350.49 223.93 C 346.46 226.72 342.59 229.76 338.50 232.45 C 336.57 233.26 334.41 233.36 332.39 233.85 L 332.15 233.33 C 331.74 232.46 331.33 231.58 330.92 230.71 C 335.19 227.68 339.42 224.59 343.72 221.61 C 343.59 207.69 343.38 193.78 342.96 179.87 Z" />
<path fill="#ffffff" opacity="1.00" d=" M 568.03 193.72 C 571.79 192.44 575.34 190.61 579.10 189.32 C 580.31 189.66 581.19 190.66 582.16 191.41 C 577.44 192.13 572.75 193.04 568.03 193.72 Z" />
<path fill="#ffffff" opacity="1.00" d=" M 356.74 206.57 C 362.21 210.22 367.19 214.78 372.84 218.04 C 379.01 216.18 385.01 213.82 391.15 211.84 C 389.77 216.09 388.41 220.35 386.87 224.55 C 374.87 226.51 362.90 228.59 350.92 230.63 C 353.02 229.11 355.13 227.59 357.24 226.07 C 356.78 219.58 357.12 213.07 356.74 206.57 Z" />
<path fill="#ffffff" opacity="1.00" d=" M 490.91 297.63 C 509.75 290.82 530.02 286.10 550.13 288.76 C 553.50 289.37 558.09 289.78 559.50 293.50 C 560.21 296.81 558.07 299.87 557.49 303.05 C 553.99 319.01 551.56 336.31 557.98 351.88 C 566.91 348.44 576.69 348.36 586.12 349.00 C 589.27 348.23 592.37 347.22 595.52 346.39 C 598.71 345.53 599.99 342.24 602.16 340.12 C 603.52 338.85 606.43 338.95 606.85 341.09 C 605.72 345.61 605.28 350.83 601.26 353.89 C 602.88 355.06 604.46 356.29 605.99 357.59 C 610.52 356.38 615.34 355.35 619.99 356.53 C 622.28 357.08 624.62 359.29 623.88 361.84 C 623.11 363.43 621.28 362.66 619.95 362.58 C 616.90 362.25 614.01 363.67 611.35 364.98 C 615.14 372.43 614.68 381.15 612.39 388.97 C 609.91 397.76 605.24 406.19 598.02 411.95 C 590.26 418.01 581.53 422.71 572.53 426.65 C 565.02 436.59 557.77 447.16 547.53 454.54 C 542.31 458.47 534.76 459.06 529.07 455.80 C 525.40 453.79 521.23 453.08 517.10 452.84 C 517.21 455.35 518.24 458.35 516.39 460.50 C 514.36 462.66 511.04 462.10 508.49 461.39 C 500.54 458.84 494.21 452.99 488.72 446.92 C 479.52 445.30 470.06 442.37 463.09 435.88 C 459.07 432.09 456.37 426.67 456.52 421.08 C 457.13 415.62 461.40 411.58 465.46 408.32 C 472.32 403.11 480.10 399.08 488.36 396.61 C 486.62 387.87 483.16 379.40 477.74 372.29 C 472.35 365.08 467.09 357.67 460.47 351.51 C 456.53 347.76 450.12 346.27 448.39 340.53 C 446.82 334.10 450.64 327.95 454.25 322.94 C 463.58 311.07 476.96 302.97 490.91 297.63 M 504.58 295.42 C 487.21 300.21 469.98 308.16 457.86 321.88 C 454.08 326.52 450.20 331.88 450.10 338.11 C 450.44 343.81 456.62 345.65 460.43 348.66 C 467.81 354.98 473.47 363.00 479.28 370.72 C 485.42 378.72 489.21 388.36 490.84 398.27 C 482.56 400.14 474.92 404.21 468.03 409.07 C 464.04 412.15 459.58 415.76 458.67 421.03 C 458.49 426.54 461.48 431.75 465.63 435.23 C 472.44 440.91 481.24 443.49 489.84 444.93 C 495.25 450.99 501.46 456.93 509.38 459.43 C 511.29 459.90 514.46 460.60 515.29 458.15 C 515.56 455.85 514.51 453.45 515.30 451.24 C 517.73 450.12 520.63 451.18 523.19 451.44 C 528.39 452.15 532.61 456.48 538.08 455.73 C 543.20 455.71 547.34 452.28 550.95 449.05 C 558.29 442.21 564.40 434.17 570.16 425.99 C 570.59 425.27 571.21 424.76 572.00 424.47 C 580.27 420.97 588.18 416.58 595.42 411.25 C 604.08 404.90 609.19 394.71 611.27 384.36 C 612.91 377.60 611.98 370.41 608.66 364.31 C 612.50 361.49 617.32 359.79 622.12 360.48 C 617.63 356.14 610.63 358.67 605.36 360.07 C 602.90 357.58 600.04 355.53 596.90 354.00 C 598.91 352.75 601.17 351.54 602.33 349.35 C 603.66 346.76 603.86 343.80 604.48 340.99 C 602.58 342.59 601.35 344.79 599.59 346.50 C 597.19 348.68 593.83 348.96 590.88 349.91 C 588.97 350.40 587.12 351.46 585.09 351.13 C 575.54 350.34 565.60 350.83 556.70 354.68 C 549.35 338.03 551.59 319.25 555.54 302.04 C 556.03 299.35 557.79 296.79 557.45 294.00 C 556.13 291.81 553.30 291.55 551.04 291.08 C 535.48 288.61 519.60 291.20 504.58 295.42 Z" />
<path fill="#ffffff" opacity="1.00" d=" M 595.27 350.38 C 598.09 349.87 600.10 347.74 602.14 345.93 C 601.42 350.67 596.47 351.94 593.02 354.13 C 590.31 355.57 591.37 359.25 589.14 361.06 C 587.57 362.95 585.03 362.71 582.95 362.00 C 582.31 363.23 581.78 364.51 581.33 365.81 C 580.85 365.72 579.88 365.53 579.40 365.44 C 578.41 362.59 579.90 359.89 581.49 357.61 C 583.14 358.70 583.77 356.56 584.73 355.77 C 587.12 352.32 591.39 351.20 595.27 350.38 Z" />
<path fill="#ffffff" opacity="1.00" d=" M 597.81 370.93 C 599.74 363.16 608.29 360.12 615.41 359.23 C 611.19 361.14 606.64 362.86 603.54 366.48 C 601.11 369.45 598.34 372.36 597.15 376.09 C 595.66 380.54 594.51 385.14 592.29 389.30 C 590.21 393.49 585.57 396.19 580.93 396.18 C 579.14 396.06 578.31 394.26 577.06 393.27 C 571.83 392.78 566.36 394.93 563.29 399.27 C 561.47 401.84 559.07 404.60 559.32 407.94 C 559.96 410.47 562.91 410.80 564.98 411.51 C 564.74 415.50 560.94 417.82 557.99 419.88 C 555.34 421.79 552.02 421.94 549.03 422.88 C 546.78 424.86 545.07 427.34 543.11 429.57 C 545.64 434.02 551.82 431.62 555.61 430.34 C 554.16 433.46 551.21 435.19 548.61 437.21 C 548.31 436.99 547.72 436.56 547.42 436.34 C 544.31 438.51 539.64 441.56 536.38 437.93 C 536.33 437.48 536.23 436.59 536.18 436.15 C 531.37 436.20 524.94 436.28 522.38 441.16 C 521.41 439.95 521.07 438.59 521.36 437.09 C 521.98 432.84 523.92 428.91 526.45 425.48 C 527.78 423.04 526.02 419.57 522.98 421.68 C 523.58 418.45 525.91 416.14 527.50 413.42 C 528.66 409.97 528.33 406.17 529.74 402.78 C 530.76 400.16 532.76 398.13 534.63 396.10 C 533.69 398.56 532.26 401.36 533.67 403.94 C 534.70 406.46 536.76 409.64 539.98 408.50 C 544.77 407.52 546.02 402.12 546.54 397.98 C 546.93 395.38 548.12 392.74 547.32 390.12 C 545.77 385.01 549.57 380.26 552.93 376.82 C 559.06 371.82 568.11 369.77 571.57 361.97 C 571.13 363.91 571.06 366.06 569.84 367.72 C 567.93 369.49 565.21 370.28 563.64 372.45 C 560.80 376.34 559.61 381.35 560.02 386.12 C 560.49 388.74 561.43 391.88 564.11 393.02 C 566.04 393.76 567.86 392.47 569.51 391.65 C 567.57 385.19 572.38 379.52 577.83 376.82 C 575.86 379.44 573.10 382.44 574.47 386.00 C 575.63 389.69 580.56 388.61 583.06 387.04 C 589.25 383.12 594.41 377.39 597.81 370.93 Z" />
<path fill="#ffffff" opacity="1.00" d=" M 496.14 441.45 C 498.70 441.21 501.51 440.88 503.88 442.13 C 505.90 443.46 507.33 445.47 508.91 447.28 C 507.56 451.78 502.28 449.14 500.01 446.90 C 498.65 445.20 496.16 443.78 496.14 441.45 Z" />
</g>
<g id="#888888ff">
<path fill="#888888" opacity="1.00" d=" M 353.24 0.00 L 362.79 0.00 C 363.77 1.36 364.69 2.77 365.61 4.17 C 364.41 4.65 363.20 5.12 362.01 5.59 C 359.11 3.69 356.22 1.77 353.24 0.00 Z" />
<path fill="#888888" opacity="1.00" d=" M 634.71 0.00 L 640.00 0.00 L 640.00 6.54 C 638.34 7.82 636.70 9.13 635.19 10.57 C 632.79 8.68 630.42 6.75 628.02 4.87 C 630.25 3.25 632.45 1.58 634.71 0.00 Z" />
<path fill="#888888" opacity="1.00" d=" M 285.03 37.92 C 286.34 38.00 287.65 38.09 288.96 38.22 C 292.97 38.67 297.00 39.00 301.04 38.93 C 301.64 40.16 302.24 41.39 302.85 42.62 L 302.91 42.72 C 300.70 44.33 298.59 46.05 296.57 47.89 L 296.38 47.81 C 291.71 45.78 286.99 43.85 282.34 41.77 C 283.24 40.49 284.13 39.21 285.03 37.92 Z" />
<path fill="#888888" opacity="1.00" d=" M 622.05 57.09 C 627.97 52.63 634.12 48.47 640.00 43.96 L 640.00 50.74 C 633.70 55.39 627.27 59.87 620.99 64.54 C 615.67 62.87 610.52 60.72 605.20 59.05 L 604.84 59.98 C 603.97 57.79 603.17 55.56 602.42 53.33 C 607.90 54.53 612.97 57.03 618.34 58.60 C 619.76 59.15 620.91 57.72 622.05 57.09 Z" />
<path fill="#888888" opacity="1.00" d=" M 608.58 50.55 C 615.17 48.94 621.69 47.09 628.32 45.66 C 625.07 48.56 621.45 50.96 617.96 53.54 C 614.82 52.56 611.75 51.41 608.58 50.55 Z" />
<path fill="#888888" opacity="1.00" d=" M 277.62 48.45 C 281.73 50.01 285.72 51.89 289.88 53.33 C 282.21 59.45 274.69 65.75 267.09 71.95 L 267.60 70.45 C 265.63 70.67 263.66 70.90 261.70 71.14 C 264.17 67.81 266.35 64.27 268.88 60.98 L 268.58 62.46 C 272.58 61.83 276.72 61.72 280.53 60.19 C 277.78 58.74 274.92 57.55 272.03 56.44 C 273.91 53.79 275.76 51.12 277.62 48.45 Z" />
<path fill="#888888" opacity="1.00" d=" M 621.98 69.14 C 626.71 66.14 631.00 62.50 635.76 59.54 C 635.57 65.03 635.46 70.51 635.23 76.00 C 636.83 77.17 638.45 78.33 640.00 79.58 L 640.00 88.82 C 637.61 89.39 635.07 89.67 632.93 90.92 C 630.75 95.90 629.46 101.23 627.64 106.35 C 624.44 102.75 622.18 98.47 619.19 94.72 L 618.79 96.19 C 614.69 85.38 610.51 74.60 606.36 63.80 C 611.70 65.18 616.79 67.31 621.98 69.14 Z" />
<path fill="#888888" opacity="1.00" d=" M 561.41 62.64 C 564.00 61.94 566.56 61.14 569.22 60.74 C 569.56 60.77 570.24 60.84 570.58 60.87 C 571.32 62.05 572.04 63.27 572.76 64.48 L 572.87 64.67 C 570.12 68.29 568.03 72.33 565.61 76.16 C 564.32 71.62 562.75 67.17 561.41 62.64 Z" />
<path fill="#888888" opacity="1.00" d=" M 544.70 95.53 C 547.33 86.64 550.96 78.06 554.10 69.33 C 555.34 72.57 556.42 75.87 557.48 79.18 C 553.41 84.77 549.27 90.33 544.70 95.53 Z" />
<path fill="#888888" opacity="1.00" d=" M 432.84 73.87 C 440.54 73.93 448.23 74.18 455.91 74.85 L 455.55 75.53 C 454.79 76.86 455.09 78.37 455.25 79.81 C 456.59 89.25 457.97 98.69 459.19 108.14 C 459.64 109.60 458.22 110.52 457.38 111.42 C 455.37 113.26 453.38 115.12 451.40 116.99 C 450.86 117.07 449.78 117.22 449.24 117.29 C 449.23 117.64 449.21 118.32 449.21 118.67 C 438.63 129.03 427.12 138.45 416.68 148.95 C 421.87 149.88 427.04 151.31 432.36 151.21 C 425.51 153.53 418.69 155.93 411.84 158.23 C 407.94 156.68 403.69 156.57 399.70 155.38 C 417.03 139.57 434.31 123.72 451.65 107.93 C 451.33 105.29 451.00 102.65 450.67 100.01 C 452.16 99.92 453.65 99.83 455.15 99.74 C 453.40 97.53 451.40 95.54 449.74 93.27 C 448.72 87.10 448.03 80.88 447.08 74.70 C 444.86 74.67 442.63 74.64 440.42 74.62 C 440.70 77.39 440.94 80.16 441.21 82.93 C 437.93 80.41 435.72 76.80 432.84 73.87 Z" />
<path fill="#888888" opacity="1.00" d=" M 267.87 85.61 C 273.71 87.02 279.59 88.29 285.43 89.71 C 284.70 89.78 283.25 89.93 282.52 90.01 C 288.26 96.11 294.58 101.64 300.49 107.57 C 301.31 108.50 302.55 109.54 302.00 110.96 C 300.70 119.51 298.99 128.00 297.85 136.57 C 300.27 135.43 302.65 134.21 305.00 132.92 C 304.79 138.60 305.62 144.24 305.36 149.92 C 305.07 158.41 306.28 166.88 305.73 175.36 C 305.50 174.85 305.04 173.82 304.80 173.31 C 305.43 170.27 305.12 167.17 304.89 164.12 C 303.76 164.84 302.64 165.57 301.52 166.30 C 299.92 162.77 298.29 159.25 296.69 155.72 C 299.36 154.10 302.64 153.21 304.88 151.00 C 305.20 148.08 304.97 145.14 304.93 142.22 C 301.13 144.44 297.04 146.17 293.51 148.82 C 292.18 145.85 290.78 142.92 289.44 139.96 C 290.23 138.74 290.93 137.43 291.09 135.96 C 292.29 128.37 293.58 120.81 294.84 113.24 C 286.50 105.22 278.21 97.16 269.83 89.18 C 268.71 88.28 268.36 86.87 267.87 85.61 Z" />
<path fill="#888888" opacity="1.00" d=" M 461.31 86.19 L 462.48 86.80 C 464.62 89.34 466.28 92.28 467.95 95.15 C 468.76 100.74 469.53 106.35 470.22 111.96 C 468.69 113.38 467.17 114.83 465.61 116.21 C 463.29 116.75 460.87 116.50 458.52 116.62 C 460.49 114.54 462.58 112.57 464.72 110.65 C 463.57 102.50 462.42 94.35 461.31 86.19 Z" />
<path fill="#888888" opacity="1.00" d=" M 294.76 91.94 C 304.08 94.05 313.35 96.35 322.68 98.42 C 325.77 105.68 328.49 113.10 331.36 120.45 C 328.01 118.97 324.78 117.22 321.44 115.71 C 321.48 116.24 321.56 117.32 321.60 117.85 C 316.94 114.37 312.26 110.90 307.52 107.50 C 307.69 107.12 308.01 106.34 308.17 105.96 C 304.02 101.00 298.24 97.45 294.76 91.94 Z" />
<path fill="#888888" opacity="1.00" d=" M 636.31 95.58 C 637.54 95.23 638.77 94.87 640.00 94.50 L 640.00 102.60 C 637.98 108.77 635.85 114.90 633.96 121.11 C 631.19 120.33 627.15 120.47 626.81 116.73 C 627.32 117.08 628.34 117.79 628.85 118.15 C 631.27 110.60 633.61 103.02 636.31 95.58 Z" />
<path fill="#888888" opacity="1.00" d=" M 418.98 101.89 C 427.25 101.04 435.61 101.10 443.90 100.42 C 444.14 102.34 444.40 104.26 444.67 106.18 C 424.84 124.87 404.25 142.77 384.55 161.59 C 388.78 162.38 393.02 163.53 397.37 163.31 C 394.19 164.40 390.98 165.37 387.87 166.63 C 384.21 164.17 380.76 161.44 377.19 158.87 L 377.19 158.73 C 377.19 152.08 375.16 145.64 374.27 139.09 C 373.29 134.83 373.36 130.26 371.32 126.32 L 371.24 126.13 C 372.87 124.07 374.11 121.77 375.32 119.45 L 375.61 119.40 C 376.90 119.43 377.73 118.38 378.60 117.60 C 380.79 115.41 382.94 113.17 385.14 110.97 C 384.36 109.78 383.59 108.58 382.82 107.39 C 383.54 106.20 384.27 105.01 385.02 103.83 C 393.14 103.17 401.29 102.83 409.43 102.59 C 401.60 110.72 393.30 118.37 385.39 126.42 C 384.26 127.82 381.96 128.91 382.36 131.01 C 383.28 137.41 384.65 143.76 385.69 150.15 C 388.36 148.28 390.69 146.01 393.07 143.81 C 392.67 140.76 392.13 137.74 391.54 134.73 C 402.38 123.72 413.60 113.08 424.45 102.08 C 422.62 102.00 420.80 101.91 418.98 101.89 Z" />
<path fill="#888888" opacity="1.00" d=" M 272.67 102.87 C 277.80 107.39 282.57 112.30 287.56 116.98 C 286.88 121.40 286.40 125.88 285.10 130.19 C 283.19 126.14 281.30 122.08 279.46 118.00 C 277.19 112.95 274.80 107.97 272.67 102.87 Z" />
<path fill="#888888" opacity="1.00" d=" M 474.89 106.33 C 477.16 109.25 479.01 112.47 480.95 115.62 C 478.29 115.66 475.64 115.73 472.99 115.92 C 476.26 113.60 475.47 109.72 474.89 106.33 Z" />
<path fill="#888888" opacity="1.00" d=" M 452.30 121.97 C 453.30 123.18 454.32 124.38 455.34 125.57 C 450.23 130.25 445.03 134.84 440.04 139.65 C 446.16 140.50 452.17 142.47 458.39 142.25 C 453.21 144.10 447.90 145.61 442.82 147.72 L 442.71 147.68 C 438.09 145.57 432.90 145.63 428.04 144.39 C 435.93 136.70 444.30 129.54 452.30 121.97 Z" />
<path fill="#888888" opacity="1.00" d=" M 458.25 128.95 C 460.60 131.77 463.15 134.43 465.29 137.43 C 460.78 136.62 456.25 135.94 451.76 135.01 C 453.88 132.94 456.05 130.93 458.25 128.95 Z" />
<path fill="#888888" opacity="1.00" d=" M 361.90 142.20 C 363.23 139.43 364.87 136.80 366.75 134.36 C 368.20 140.70 369.23 147.12 370.25 153.54 C 367.37 151.75 364.73 149.63 361.96 147.68 C 361.91 145.85 361.85 144.03 361.90 142.20 Z" />
<path fill="#888888" opacity="1.00" d=" M 477.97 155.48 C 478.20 154.88 478.67 153.67 478.91 153.06 C 482.76 157.87 487.20 162.21 490.89 167.11 L 489.57 166.89 C 492.05 172.70 494.70 178.44 497.40 184.16 C 498.54 182.18 499.54 180.11 500.36 177.98 C 502.07 180.19 503.85 182.35 505.88 184.27 L 505.76 184.44 C 502.44 188.71 500.56 193.84 497.71 198.41 C 490.84 184.24 484.69 169.72 477.97 155.48 Z" />
<path fill="#888888" opacity="1.00" d=" M 471.23 175.02 C 472.95 170.67 474.26 166.18 475.73 161.74 C 476.13 165.02 477.73 167.94 479.09 170.90 C 484.41 182.66 489.75 194.40 495.10 206.14 C 492.42 206.60 489.73 207.04 487.05 207.53 C 482.69 197.76 478.14 188.06 473.83 178.27 C 473.28 176.95 472.48 175.74 471.23 175.02 Z" />
<path fill="#888888" opacity="1.00" d=" M 464.34 196.09 C 465.88 191.62 467.30 187.11 468.77 182.62 C 468.98 184.40 469.40 186.18 470.17 187.81 C 473.22 194.47 476.30 201.11 479.22 207.83 C 480.05 207.93 481.71 208.14 482.54 208.24 C 478.78 209.46 474.69 209.25 470.88 210.34 C 468.56 205.65 466.48 200.86 464.34 196.09 Z" />
<path fill="#888888" opacity="1.00" d=" M 501.89 205.01 C 504.40 200.70 506.13 195.88 509.44 192.07 C 509.06 196.21 507.57 200.12 506.65 204.16 C 505.06 204.44 503.47 204.72 501.89 205.01 Z" />
</g>
<g id="#dbdcdcff">
<path fill="#dbdcdc" opacity="1.00" d=" M 362.79 0.00 L 375.46 0.00 C 374.79 0.17 373.44 0.52 372.77 0.70 C 370.57 2.22 368.08 3.21 365.61 4.17 C 364.69 2.77 363.77 1.36 362.79 0.00 Z" />
<path fill="#dbdcdc" opacity="1.00" d=" M 635.19 10.57 C 636.70 9.13 638.34 7.82 640.00 6.54 L 640.00 14.38 C 638.43 13.05 636.80 11.83 635.19 10.57 Z" />
<path fill="#dbdcdc" opacity="1.00" d=" M 288.96 38.22 C 295.36 38.58 301.76 38.12 308.16 38.23 C 306.40 39.70 304.63 41.16 302.85 42.62 C 302.24 41.39 301.64 40.16 301.04 38.93 C 297.00 39.00 292.97 38.67 288.96 38.22 Z" />
<path fill="#dbdcdc" opacity="1.00" d=" M 277.62 48.45 C 279.20 46.23 280.76 43.99 282.34 41.77 C 286.99 43.85 291.71 45.78 296.38 47.81 C 294.24 49.68 292.02 51.45 289.88 53.33 C 285.72 51.89 281.73 50.01 277.62 48.45 Z" />
<path fill="#dbdcdc" opacity="1.00" d=" M 628.32 45.66 C 632.15 44.40 636.11 43.61 640.00 42.52 L 640.00 43.96 C 634.12 48.47 627.97 52.63 622.05 57.09 C 620.91 57.72 619.76 59.15 618.34 58.60 C 612.97 57.03 607.90 54.53 602.42 53.33 C 602.32 53.05 602.13 52.50 602.04 52.22 C 604.22 51.68 606.39 51.09 608.58 50.55 C 611.75 51.41 614.82 52.56 617.96 53.54 C 621.45 50.96 625.07 48.56 628.32 45.66 Z" />
<path fill="#dbdcdc" opacity="1.00" d=" M 620.99 64.54 C 627.27 59.87 633.70 55.39 640.00 50.74 L 640.00 79.58 C 638.45 78.33 636.83 77.17 635.23 76.00 C 635.46 70.51 635.57 65.03 635.76 59.54 C 631.00 62.50 626.71 66.14 621.98 69.14 C 616.79 67.31 611.70 65.18 606.36 63.80 C 605.86 62.53 605.32 61.26 604.84 59.98 L 605.20 59.05 C 610.52 60.72 615.67 62.87 620.99 64.54 Z" />
<path fill="#dbdcdc" opacity="1.00" d=" M 268.88 60.98 C 269.81 59.39 270.96 57.93 272.03 56.44 C 274.92 57.55 277.78 58.74 280.53 60.19 C 276.72 61.72 272.58 61.83 268.58 62.46 L 268.88 60.98 Z" />
<path fill="#dbdcdc" opacity="1.00" d=" M 569.22 60.74 C 571.53 60.08 573.85 59.42 576.18 58.81 C 575.00 60.68 573.86 62.57 572.76 64.48 C 572.04 63.27 571.32 62.05 570.58 60.87 C 570.24 60.84 569.56 60.77 569.22 60.74 Z" />
<path fill="#dbdcdc" opacity="1.00" d=" M 555.99 64.00 C 557.80 63.55 559.60 63.10 561.41 62.64 C 562.75 67.17 564.32 71.62 565.61 76.16 C 559.61 85.70 554.04 95.52 547.74 104.86 C 546.95 106.12 545.82 107.24 545.54 108.75 L 544.37 108.54 C 544.50 109.03 544.74 110.02 544.86 110.51 L 543.26 110.36 L 543.90 111.78 C 542.03 111.94 540.15 112.16 538.29 112.36 C 540.41 106.76 542.04 100.90 544.70 95.53 C 549.27 90.33 553.41 84.77 557.48 79.18 C 556.42 75.87 555.34 72.57 554.10 69.33 C 554.70 67.54 555.34 65.77 555.99 64.00 Z" />
<path fill="#dbdcdc" opacity="1.00" d=" M 260.73 77.09 C 258.79 74.94 260.23 72.90 261.70 71.14 C 263.66 70.90 265.63 70.67 267.60 70.45 L 267.09 71.95 C 264.99 73.69 262.82 75.34 260.73 77.09 Z" />
<path fill="#dbdcdc" opacity="1.00" d=" M 440.42 74.62 C 442.63 74.64 444.86 74.67 447.08 74.70 C 448.03 80.88 448.72 87.10 449.74 93.27 C 446.90 89.85 443.38 86.78 441.21 82.93 C 440.94 80.16 440.70 77.39 440.42 74.62 Z" />
<path fill="#dbdcdc" opacity="1.00" d=" M 455.25 79.81 C 455.09 78.37 454.79 76.86 455.55 75.53 C 458.00 79.19 460.39 82.91 462.48 86.80 L 461.31 86.19 C 462.42 94.35 463.57 102.50 464.72 110.65 C 462.58 112.57 460.49 114.54 458.52 116.62 C 456.15 116.89 453.77 117.02 451.40 116.99 C 453.38 115.12 455.37 113.26 457.38 111.42 C 458.22 110.52 459.64 109.60 459.19 108.14 C 457.97 98.69 456.59 89.25 455.25 79.81 Z" />
<path fill="#dbdcdc" opacity="1.00" d=" M 264.28 84.75 C 265.47 85.04 266.67 85.33 267.87 85.61 C 268.36 86.87 268.71 88.28 269.83 89.18 C 278.21 97.16 286.50 105.22 294.84 113.24 C 293.58 120.81 292.29 128.37 291.09 135.96 C 290.93 137.43 290.23 138.74 289.44 139.96 C 287.99 136.70 286.53 133.45 285.10 130.19 C 286.40 125.88 286.88 121.40 287.56 116.98 C 282.57 112.30 277.80 107.39 272.67 102.87 C 270.03 97.62 267.76 92.21 265.26 86.90 C 265.02 86.36 264.53 85.29 264.28 84.75 Z" />
<path fill="#dbdcdc" opacity="1.00" d=" M 632.93 90.92 C 635.07 89.67 637.61 89.39 640.00 88.82 L 640.00 94.50 C 638.77 94.87 637.54 95.23 636.31 95.58 C 633.61 103.02 631.27 110.60 628.85 118.15 C 628.34 117.79 627.32 117.08 626.81 116.73 C 624.10 109.90 621.57 103.00 618.79 96.19 L 619.19 94.72 C 622.18 98.47 624.44 102.75 627.64 106.35 C 629.46 101.23 630.75 95.90 632.93 90.92 Z" />
<path fill="#dbdcdc" opacity="1.00" d=" M 282.52 90.01 C 283.25 89.93 284.70 89.78 285.43 89.71 C 288.54 90.44 291.64 91.22 294.76 91.94 C 298.24 97.45 304.02 101.00 308.17 105.96 C 308.01 106.34 307.69 107.12 307.52 107.50 C 306.76 106.93 305.24 105.77 304.48 105.20 C 304.64 114.44 304.80 123.68 305.00 132.92 C 302.65 134.21 300.27 135.43 297.85 136.57 C 298.99 128.00 300.70 119.51 302.00 110.96 C 302.55 109.54 301.31 108.50 300.49 107.57 C 294.58 101.64 288.26 96.11 282.52 90.01 Z" />
<path fill="#dbdcdc" opacity="1.00" d=" M 467.95 95.15 C 470.30 98.84 472.92 102.41 474.89 106.33 C 475.47 109.72 476.26 113.60 472.99 115.92 C 470.53 116.07 468.07 116.25 465.61 116.21 C 467.17 114.83 468.69 113.38 470.22 111.96 C 469.53 106.35 468.76 100.74 467.95 95.15 Z" />
<path fill="#dbdcdc" opacity="1.00" d=" M 443.90 100.42 C 446.15 100.27 448.41 100.15 450.67 100.01 C 451.00 102.65 451.33 105.29 451.65 107.93 C 434.31 123.72 417.03 139.57 399.70 155.38 C 403.69 156.57 407.94 156.68 411.84 158.23 C 407.02 159.94 402.17 161.55 397.37 163.31 C 393.02 163.53 388.78 162.38 384.55 161.59 C 404.25 142.77 424.84 124.87 444.67 106.18 C 444.40 104.26 444.14 102.34 443.90 100.42 Z" />
<path fill="#dbdcdc" opacity="1.00" d=" M 409.43 102.59 C 412.56 102.01 415.80 102.11 418.98 101.89 C 420.80 101.91 422.62 102.00 424.45 102.08 C 413.60 113.08 402.38 123.72 391.54 134.73 C 392.13 137.74 392.67 140.76 393.07 143.81 C 390.69 146.01 388.36 148.28 385.69 150.15 C 384.65 143.76 383.28 137.41 382.36 131.01 C 381.96 128.91 384.26 127.82 385.39 126.42 C 393.30 118.37 401.60 110.72 409.43 102.59 Z" />
<path fill="#dbdcdc" opacity="1.00" d=" M 633.96 121.11 C 635.85 114.90 637.98 108.77 640.00 102.60 L 640.00 122.53 C 637.99 122.00 635.97 121.56 633.96 121.11 Z" />
<path fill="#dbdcdc" opacity="1.00" d=" M 375.61 119.40 C 377.95 115.36 380.39 111.38 382.82 107.39 C 383.59 108.58 384.36 109.78 385.14 110.97 C 382.94 113.17 380.79 115.41 378.60 117.60 C 377.73 118.38 376.90 119.43 375.61 119.40 Z" />
<path fill="#dbdcdc" opacity="1.00" d=" M 321.44 115.71 C 324.78 117.22 328.01 118.97 331.36 120.45 C 332.22 122.60 333.08 124.74 333.91 126.90 C 329.82 123.86 325.71 120.87 321.60 117.85 C 321.56 117.32 321.48 116.24 321.44 115.71 Z" />
<path fill="#dbdcdc" opacity="1.00" d=" M 449.21 118.67 C 450.28 119.72 451.30 120.84 452.30 121.97 C 444.30 129.54 435.93 136.70 428.04 144.39 C 432.90 145.63 438.09 145.57 442.71 147.68 C 439.21 148.71 435.81 150.04 432.36 151.21 C 427.04 151.31 421.87 149.88 416.68 148.95 C 427.12 138.45 438.63 129.03 449.21 118.67 Z" />
<path fill="#dbdcdc" opacity="1.00" d=" M 440.04 139.65 C 445.03 134.84 450.23 130.25 455.34 125.57 C 456.31 126.70 457.27 127.83 458.25 128.95 C 456.05 130.93 453.88 132.94 451.76 135.01 C 456.25 135.94 460.78 136.62 465.29 137.43 C 465.70 137.89 466.51 138.82 466.92 139.28 C 464.07 140.24 461.22 141.22 458.39 142.25 C 452.17 142.47 446.16 140.50 440.04 139.65 Z" />
<path fill="#dbdcdc" opacity="1.00" d=" M 371.32 126.32 C 373.36 130.26 373.29 134.83 374.27 139.09 C 375.16 145.64 377.19 152.08 377.19 158.73 C 374.83 157.18 372.61 155.45 370.30 153.83 L 370.25 153.54 C 369.23 147.12 368.20 140.70 366.75 134.36 C 367.87 131.49 369.88 129.03 371.32 126.32 Z" />
<path fill="#dbdcdc" opacity="1.00" d=" M 293.51 148.82 C 297.04 146.17 301.13 144.44 304.93 142.22 C 304.97 145.14 305.20 148.08 304.88 151.00 C 302.64 153.21 299.36 154.10 296.69 155.72 C 296.24 154.74 295.79 153.76 295.34 152.79 C 294.73 151.46 294.11 150.14 293.51 148.82 Z" />
<path fill="#dbdcdc" opacity="1.00" d=" M 359.51 145.71 C 360.29 144.53 361.08 143.36 361.90 142.20 C 361.85 144.03 361.91 145.85 361.96 147.68 C 361.14 147.02 360.32 146.36 359.51 145.71 Z" />
<path fill="#dbdcdc" opacity="1.00" d=" M 477.97 155.48 C 484.69 169.72 490.84 184.24 497.71 198.41 C 500.56 193.84 502.44 188.71 505.76 184.44 C 507.32 186.23 508.86 188.06 510.37 189.91 C 510.05 190.63 509.74 191.35 509.44 192.07 C 506.13 195.88 504.40 200.70 501.89 205.01 C 499.62 205.40 497.37 205.78 495.10 206.14 C 489.75 194.40 484.41 182.66 479.09 170.90 C 477.73 167.94 476.13 165.02 475.73 161.74 C 476.41 159.63 477.20 157.56 477.97 155.48 Z" />
<path fill="#dbdcdc" opacity="1.00" d=" M 301.52 166.30 C 302.64 165.57 303.76 164.84 304.89 164.12 C 305.12 167.17 305.43 170.27 304.80 173.31 C 303.65 171.00 302.56 168.66 301.52 166.30 Z" />
<path fill="#dbdcdc" opacity="1.00" d=" M 489.57 166.89 L 490.89 167.11 C 494.11 170.67 497.05 174.49 500.36 177.98 C 499.54 180.11 498.54 182.18 497.40 184.16 C 494.70 178.44 492.05 172.70 489.57 166.89 Z" />
<path fill="#dbdcdc" opacity="1.00" d=" M 471.23 175.02 C 472.48 175.74 473.28 176.95 473.83 178.27 C 478.14 188.06 482.69 197.76 487.05 207.53 C 485.55 207.78 484.05 208.08 482.54 208.24 C 481.71 208.14 480.05 207.93 479.22 207.83 C 476.30 201.11 473.22 194.47 470.17 187.81 C 469.40 186.18 468.98 184.40 468.77 182.62 C 469.65 180.10 470.58 177.61 471.23 175.02 Z" />
</g>
<g id="#e41d16ff">
<path fill="#e41d16" opacity="1.00" d=" M 563.15 378.12 C 571.13 374.35 578.78 368.70 588.06 369.20 C 587.79 373.96 586.95 378.74 585.35 383.23 C 584.48 385.96 581.43 386.70 579.05 387.58 C 575.62 387.27 575.88 382.59 577.31 380.41 C 578.41 377.69 581.19 376.62 583.27 374.85 C 578.44 374.62 573.83 377.10 570.69 380.65 C 568.11 383.77 568.58 388.07 567.79 391.80 C 566.34 391.98 564.65 392.84 563.38 391.69 C 561.49 389.59 561.20 386.61 561.00 383.92 C 560.85 381.82 561.24 379.35 563.15 378.12 Z" />
<path fill="#e41d16" opacity="1.00" d=" M 535.76 404.96 C 533.35 398.41 538.70 393.30 543.00 389.27 C 543.85 390.07 544.70 390.87 545.57 391.68 C 545.88 393.75 545.04 396.27 546.54 397.98 C 543.99 399.51 544.10 403.60 541.31 405.26 C 539.76 407.21 537.53 405.51 535.76 404.96 Z" />
</g>
</svg>
