<?xml version="1.0" encoding="UTF-8" ?>
<!DOCTYPE svg PUBLIC "-//W3C//DTD SVG 1.1//EN" "http://www.w3.org/Graphics/SVG/1.1/DTD/svg11.dtd">
<svg width="400pt" height="168pt" viewBox="0 0 400 168" version="1.1" xmlns="http://www.w3.org/2000/svg">
<g id="#faf9f9fd">
<path fill="#faf9f9" opacity="1.00" d=" M 1.93 0.00 L 4.22 0.00 C 5.18 0.29 7.10 0.86 8.06 1.15 C 13.64 2.45 19.38 2.91 24.96 4.22 C 26.82 4.39 28.68 4.53 30.54 4.64 L 30.48 5.35 C 32.35 5.47 34.21 5.61 36.07 5.77 C 38.37 6.32 40.71 6.62 43.00 7.21 C 44.69 7.43 46.38 7.63 48.07 7.87 C 50.19 8.34 52.35 8.55 54.52 8.67 L 54.51 9.35 C 56.37 9.47 58.22 9.61 60.07 9.76 C 62.58 10.30 65.10 10.79 67.54 11.59 C 67.71 8.13 67.59 4.62 68.47 1.23 C 69.98 1.53 71.48 1.86 72.99 2.20 C 75.67 2.38 78.38 2.53 80.99 3.25 C 85.90 3.87 90.85 4.29 95.70 5.27 C 99.99 5.64 104.21 6.61 108.53 6.64 L 108.55 7.35 C 111.64 7.42 114.77 7.55 117.79 8.31 C 119.68 8.45 121.57 8.57 123.47 8.67 L 123.44 9.38 C 125.65 9.46 127.85 9.59 130.06 9.81 C 132.50 10.43 135.02 10.58 137.53 10.62 L 137.47 11.37 C 140.61 11.40 143.76 11.57 146.83 12.27 C 148.54 12.44 150.26 12.61 151.97 12.83 C 156.76 13.77 161.63 14.39 166.51 14.65 L 166.56 15.33 C 172.03 15.60 177.51 16.25 182.88 17.33 C 184.61 17.48 186.34 17.66 188.08 17.84 C 190.81 18.49 193.63 18.61 196.43 18.70 L 196.45 19.41 C 198.63 19.49 200.81 19.63 202.99 19.87 C 205.92 20.53 208.97 20.50 211.87 21.31 C 213.59 21.48 215.31 21.67 217.03 21.86 C 219.49 22.42 222.01 22.57 224.52 22.63 L 224.53 23.36 C 227.64 23.41 230.77 23.57 233.81 24.32 C 235.68 24.46 237.55 24.57 239.43 24.66 L 239.42 25.38 C 241.64 25.46 243.85 25.60 246.06 25.81 C 251.01 26.66 255.99 27.37 260.98 27.95 C 263.46 28.49 266.00 28.58 268.53 28.66 L 268.47 29.36 C 273.19 29.36 277.80 30.63 282.52 30.65 L 282.52 31.36 C 286.03 31.35 289.57 31.67 292.87 32.96 C 292.42 33.13 291.52 33.47 291.07 33.64 C 288.62 38.02 285.72 42.12 283.17 46.45 C 275.62 58.48 268.33 70.69 260.53 82.56 C 260.51 82.97 260.47 83.79 260.45 84.21 C 265.31 85.99 270.09 87.99 274.96 89.75 C 276.71 90.44 278.44 91.14 280.20 91.79 C 283.08 93.14 286.02 94.35 289.04 95.38 C 289.35 95.43 289.97 95.51 290.28 95.55 C 291.49 96.16 292.71 96.78 293.92 97.40 C 294.25 97.44 294.89 97.50 295.22 97.54 C 296.96 98.27 298.71 99.00 300.46 99.72 C 303.57 100.83 306.65 102.01 309.71 103.26 C 311.47 103.95 313.22 104.66 314.95 105.42 C 315.26 105.46 315.87 105.54 316.18 105.58 C 317.40 106.15 318.63 106.71 319.86 107.28 C 321.61 107.88 323.34 108.51 325.07 109.19 C 326.69 109.84 328.31 110.48 329.94 111.15 C 334.05 112.63 338.09 114.33 342.23 115.77 C 345.11 117.18 348.10 118.35 351.14 119.36 C 351.37 119.43 351.81 119.55 352.03 119.62 C 352.92 119.90 354.70 120.46 355.58 120.75 C 355.62 121.43 355.68 122.81 355.72 123.49 C 354.56 123.64 353.41 123.80 352.27 123.98 C 350.93 124.84 349.56 125.65 348.23 126.50 C 347.91 126.51 347.28 126.53 346.97 126.54 C 344.01 127.66 341.09 128.86 338.25 130.26 C 337.52 130.57 336.79 130.89 336.07 131.22 C 334.65 131.72 333.25 132.24 331.85 132.76 C 329.94 133.61 328.01 134.41 326.11 135.26 C 324.41 135.89 322.72 136.55 321.05 137.26 C 320.38 137.51 319.06 138.02 318.39 138.27 C 317.66 138.62 316.93 138.97 316.21 139.33 C 313.52 140.27 310.94 141.88 308.01 141.85 C 304.98 141.97 302.38 140.17 299.62 139.22 L 299.34 138.75 C 297.40 138.01 295.51 137.17 293.62 136.33 C 291.19 134.99 288.69 133.81 286.11 132.78 C 283.28 131.55 280.48 130.24 277.60 129.14 L 277.45 128.64 C 276.26 128.23 275.08 127.80 273.90 127.38 C 273.16 127.00 272.43 126.63 271.69 126.26 C 268.11 124.58 264.69 122.52 260.91 121.30 C 257.84 119.89 254.79 118.40 251.62 117.24 L 251.33 116.77 C 246.98 115.25 243.03 112.80 238.67 111.27 L 238.43 110.84 C 236.16 110.08 234.03 108.99 231.95 107.82 C 231.45 107.72 230.44 107.52 229.94 107.42 C 230.15 106.65 230.58 105.10 230.80 104.33 C 231.60 104.34 233.19 104.36 233.99 104.37 C 234.45 104.58 235.37 104.99 235.83 105.20 C 239.90 107.09 243.96 109.01 248.08 110.80 C 249.06 111.27 250.06 111.72 251.05 112.18 C 254.39 113.70 257.69 115.29 261.04 116.78 C 267.40 119.83 274.02 122.36 280.19 125.80 C 281.41 126.27 282.63 126.73 283.85 127.22 C 287.96 128.99 291.95 131.02 296.07 132.78 C 296.81 133.12 297.55 133.45 298.30 133.78 C 300.89 134.93 303.44 136.15 305.89 137.58 C 307.29 137.58 308.70 137.55 310.11 137.50 C 313.58 135.62 317.33 134.34 320.95 132.78 C 329.65 129.59 337.92 125.13 346.94 122.90 C 346.32 122.80 345.07 122.59 344.45 122.49 C 344.50 122.03 344.61 121.12 344.66 120.66 C 343.70 120.57 342.74 120.48 341.78 120.39 C 340.59 119.79 339.40 119.18 338.23 118.57 C 337.87 118.51 337.16 118.39 336.80 118.33 C 333.93 117.10 331.02 115.96 328.12 114.79 C 323.71 113.20 319.37 111.45 314.99 109.79 C 311.92 108.58 308.84 107.37 305.75 106.24 C 304.55 105.75 303.36 105.25 302.18 104.75 C 299.06 103.67 296.00 102.44 292.92 101.24 C 288.56 99.52 284.21 97.78 279.80 96.22 C 278.60 95.72 277.40 95.21 276.22 94.70 C 272.81 93.55 269.46 92.22 266.14 90.82 C 262.06 89.33 258.00 87.74 253.96 86.14 C 254.86 84.15 255.83 82.19 257.06 80.38 C 266.28 66.15 274.71 51.39 284.23 37.36 C 284.31 36.93 284.45 36.07 284.53 35.63 C 279.04 34.41 273.43 33.88 267.86 33.27 C 258.26 31.58 248.56 30.49 238.90 29.26 C 236.87 28.78 234.82 28.47 232.75 28.24 C 228.07 27.60 223.37 27.16 218.72 26.27 C 215.79 25.76 212.82 25.52 209.86 25.27 C 200.24 23.72 190.56 22.48 180.90 21.24 C 170.36 19.48 159.70 18.45 149.15 16.72 C 146.82 16.48 144.48 16.22 142.17 15.81 C 130.41 14.15 118.61 12.66 106.88 10.85 C 102.54 10.37 98.23 9.66 93.88 9.25 C 89.26 8.24 84.54 7.70 79.83 7.29 C 77.32 6.64 74.73 6.36 72.14 6.22 C 71.55 9.36 72.05 12.52 72.45 15.64 C 69.65 15.74 66.83 15.57 64.13 14.78 C 60.72 14.28 57.33 13.70 53.93 13.18 C 49.98 12.29 45.94 11.84 41.94 11.18 C 35.27 10.04 28.60 8.64 21.84 8.14 C 22.82 10.33 25.27 10.98 27.09 12.25 C 35.86 17.22 43.93 23.41 52.95 27.91 C 54.63 24.97 56.56 22.18 58.51 19.42 C 59.11 19.50 60.29 19.65 60.89 19.73 C 61.87 20.26 62.86 20.77 63.84 21.28 C 67.67 22.57 71.09 24.79 74.95 25.98 C 78.61 27.14 82.13 28.74 85.42 30.74 C 84.31 32.03 83.41 33.48 82.83 35.09 C 87.45 36.57 91.49 39.37 96.13 40.82 C 99.76 42.29 103.27 44.05 106.93 45.44 C 109.57 46.25 109.90 42.88 111.00 41.34 C 118.54 43.53 125.62 47.12 133.02 49.75 C 134.62 50.35 136.18 51.05 137.54 52.10 C 136.94 53.08 136.24 54.00 135.57 54.93 C 135.42 55.75 135.28 56.57 135.14 57.40 C 136.87 57.84 138.59 58.31 140.31 58.78 C 143.78 62.01 149.53 61.08 152.14 65.44 C 154.01 65.68 155.88 65.90 157.75 66.15 C 159.63 66.95 161.61 67.70 163.10 69.14 C 165.48 71.05 165.92 74.04 165.57 76.91 C 163.57 81.73 160.69 86.41 156.28 89.38 C 153.27 91.42 149.46 90.65 146.11 90.12 C 144.44 89.06 142.72 88.07 140.96 87.15 C 139.27 86.52 137.58 85.87 135.90 85.22 C 134.28 84.50 132.65 83.81 131.01 83.13 C 124.57 80.60 118.25 77.76 111.80 75.27 C 109.89 74.41 107.98 73.59 106.08 72.72 C 104.31 72.15 102.54 71.56 100.81 70.84 C 100.61 70.72 100.21 70.49 100.01 70.37 C 98.48 69.07 96.37 68.12 96.04 65.91 C 96.46 65.54 97.29 64.79 97.71 64.42 C 99.09 64.38 100.47 64.40 101.85 64.40 C 102.62 63.06 103.39 61.72 104.18 60.39 C 104.73 59.46 105.29 58.54 105.85 57.61 C 107.14 56.02 108.32 54.31 109.06 52.38 C 108.02 52.42 105.94 52.49 104.90 52.52 C 98.58 57.77 93.51 64.55 86.18 68.53 C 83.81 68.54 81.44 68.44 79.10 68.09 C 77.80 67.27 76.49 66.45 75.11 65.78 L 73.20 65.52 C 73.24 64.71 73.30 63.10 73.34 62.30 C 73.72 62.26 74.49 62.19 74.88 62.15 C 74.41 61.51 73.93 60.88 73.44 60.26 C 73.38 59.88 73.27 59.12 73.21 58.74 C 72.33 58.63 70.56 58.40 69.68 58.28 C 66.37 56.01 62.58 54.66 58.86 53.25 C 58.02 52.09 57.17 50.89 55.83 50.26 C 57.58 48.58 59.02 46.64 60.40 44.66 C 60.38 44.16 60.36 43.17 60.34 42.67 C 59.93 42.66 59.11 42.63 58.71 42.62 C 56.33 44.66 54.60 47.28 53.09 49.99 C 50.17 49.60 47.46 48.45 44.78 47.30 C 43.31 45.84 41.39 44.13 43.38 42.18 L 43.49 42.01 C 43.75 41.34 44.28 40.00 44.55 39.33 C 46.66 36.81 48.78 34.23 49.85 31.07 C 38.52 24.67 27.73 17.36 16.65 10.54 C 12.61 7.74 8.17 5.57 4.22 2.65 C 3.16 2.13 2.10 1.62 1.03 1.12 L 1.93 0.00 M 58.98 25.47 C 57.98 28.70 55.57 31.16 53.55 33.77 L 53.63 34.64 L 52.47 34.73 C 52.47 35.09 52.46 35.81 52.46 36.17 C 51.33 37.48 50.24 38.83 49.10 40.14 C 48.39 41.47 48.07 42.91 48.15 44.45 C 49.02 44.53 50.75 44.70 51.62 44.79 L 51.63 43.83 C 53.55 42.22 54.00 39.23 56.39 38.20 L 56.61 37.22 C 57.32 37.65 58.02 38.07 58.72 38.50 C 60.47 39.31 62.38 39.49 64.28 39.60 C 65.96 38.45 67.68 37.34 69.30 36.10 C 70.77 33.43 71.86 29.06 68.27 27.60 C 67.15 27.15 66.06 26.63 64.97 26.11 C 63.12 25.12 61.01 25.04 58.98 25.47 M 73.20 33.43 L 72.67 33.52 C 72.24 34.54 71.82 35.55 71.39 36.56 L 70.77 36.50 C 70.13 37.61 69.48 38.72 68.81 39.81 C 66.74 43.43 63.10 46.29 62.20 50.46 C 63.20 50.52 65.19 50.64 66.18 50.70 C 67.64 47.47 70.28 45.02 72.05 41.99 C 73.43 40.04 74.88 38.14 76.33 36.24 C 77.42 34.79 77.95 33.12 77.86 31.28 C 75.73 30.84 73.99 31.34 73.20 33.43 M 79.65 38.35 L 79.47 39.51 C 78.75 39.55 77.30 39.64 76.57 39.69 C 76.50 41.01 76.45 42.33 76.40 43.65 C 78.52 43.04 80.64 42.43 82.84 42.18 C 82.79 43.02 82.69 44.71 82.64 45.55 C 79.66 45.92 76.66 45.55 73.67 45.45 C 72.09 46.66 70.70 48.10 69.50 49.69 C 69.54 51.20 69.60 52.71 69.69 54.23 C 71.75 54.43 73.88 54.19 75.90 54.70 C 76.63 56.47 78.35 56.62 80.02 56.55 C 80.74 54.03 82.74 52.25 84.28 50.23 C 84.51 49.75 84.97 48.79 85.20 48.32 C 86.75 46.49 88.08 44.51 87.50 41.99 C 86.37 41.25 85.26 40.46 84.15 39.69 C 83.57 39.61 82.41 39.45 81.84 39.36 C 81.11 39.03 80.38 38.69 79.65 38.35 M 89.93 44.48 C 89.47 46.44 88.85 48.35 88.26 50.27 C 87.76 51.45 87.29 52.64 86.79 53.82 C 86.31 55.68 85.77 57.52 85.32 59.39 L 84.33 59.34 L 84.56 60.44 C 82.82 60.70 81.09 61.06 79.37 61.42 L 79.28 63.69 C 82.07 63.50 86.18 64.92 87.87 61.89 C 89.14 60.83 90.47 59.84 91.82 58.88 C 95.21 56.08 97.97 52.56 101.67 50.14 C 101.69 49.43 101.72 48.02 101.73 47.31 C 99.21 46.72 97.50 48.25 96.12 50.09 C 94.66 52.47 92.04 53.69 90.43 55.93 C 90.69 54.97 90.91 54.02 91.11 53.05 C 92.29 50.18 94.07 47.41 93.87 44.17 C 92.88 44.25 90.91 44.40 89.93 44.48 M 111.50 50.18 C 112.34 50.28 114.03 50.47 114.87 50.57 C 114.77 52.76 113.57 54.54 112.31 56.22 C 110.97 58.18 109.53 60.07 108.10 61.97 C 106.89 64.03 104.80 65.85 105.21 68.52 C 106.20 68.47 108.19 68.38 109.18 68.33 C 112.17 64.25 114.60 59.76 117.82 55.84 C 118.10 55.26 118.64 54.11 118.92 53.53 C 120.27 53.57 121.69 53.45 122.91 54.19 C 125.39 54.09 127.03 56.32 129.41 56.54 C 130.90 55.78 130.37 53.96 130.60 52.62 C 128.88 52.57 127.15 52.53 125.43 52.51 L 125.70 51.34 L 124.54 51.49 L 124.42 50.69 C 122.77 50.25 121.16 49.74 119.51 49.32 L 119.39 48.69 C 117.50 48.24 115.64 47.59 114.10 46.38 C 111.86 46.37 111.25 48.20 111.50 50.18 M 123.49 57.26 L 123.59 58.52 L 122.77 58.58 C 122.12 59.65 121.46 60.71 120.81 61.78 C 119.97 62.92 119.12 64.04 118.31 65.20 C 117.78 66.03 117.24 66.85 116.71 67.67 C 115.62 69.08 114.29 70.45 114.39 72.36 C 115.35 72.44 117.25 72.58 118.20 72.65 C 118.54 72.28 119.20 71.52 119.53 71.14 C 119.57 70.86 119.64 70.29 119.67 70.01 C 122.87 66.60 124.87 62.29 127.90 58.73 C 126.49 58.07 125.03 57.53 123.49 57.26 M 127.22 64.29 C 126.96 64.75 126.44 65.68 126.18 66.14 C 124.71 68.11 123.18 70.04 121.62 71.93 C 121.46 72.88 121.30 73.82 121.14 74.77 C 122.48 74.77 123.82 74.76 125.16 74.73 C 127.23 71.30 129.37 67.89 131.94 64.81 C 134.60 64.91 133.03 62.01 133.42 60.56 C 130.19 59.23 128.56 61.85 127.22 64.29 M 133.93 63.91 C 137.66 65.54 134.30 68.98 132.73 70.78 C 132.09 71.79 131.45 72.79 130.80 73.78 C 129.71 75.14 128.39 76.48 128.41 78.35 C 130.27 78.20 133.82 79.62 133.60 76.56 L 134.27 76.52 C 134.73 75.57 135.20 74.62 135.68 73.68 C 136.75 72.32 137.80 70.95 138.82 69.55 C 139.09 69.08 139.64 68.14 139.91 67.67 C 140.47 67.68 141.59 67.71 142.15 67.73 C 141.88 66.20 141.09 65.00 139.78 64.14 C 139.22 61.18 135.46 62.32 133.93 63.91 M 142.03 65.37 C 142.14 66.05 142.35 67.41 142.45 68.09 L 143.86 68.84 C 143.37 69.98 142.85 71.11 142.33 72.24 C 140.76 74.11 139.28 76.07 137.86 78.06 C 137.32 79.20 136.78 80.35 136.25 81.50 C 137.86 81.61 139.47 81.62 141.08 81.54 C 141.43 80.19 141.65 78.60 143.22 78.17 C 143.62 77.01 143.60 75.43 145.11 75.15 C 146.65 72.41 148.56 69.84 147.84 66.48 C 146.01 65.67 144.01 65.45 142.03 65.37 M 151.52 70.44 L 151.46 71.49 L 150.39 71.45 L 150.53 72.56 C 150.12 72.58 149.32 72.64 148.91 72.66 C 148.74 74.07 147.68 74.96 146.73 75.87 C 146.27 76.77 145.83 77.67 145.40 78.57 L 144.42 78.52 C 144.36 80.39 144.33 82.25 144.42 84.12 C 145.55 84.88 146.66 85.66 147.76 86.47 C 149.66 86.56 151.57 86.58 153.48 86.58 L 153.51 85.49 C 153.98 85.50 154.92 85.53 155.39 85.55 C 155.45 84.71 155.59 83.04 155.66 82.21 C 153.26 82.30 151.14 83.52 148.76 83.73 C 148.44 82.74 148.10 81.77 147.70 80.81 C 149.08 80.71 149.64 79.71 149.72 78.36 C 153.15 78.13 155.65 81.27 159.17 80.67 C 159.80 79.07 160.56 77.51 161.52 76.07 C 161.55 74.50 161.06 73.07 160.25 71.75 C 157.54 70.32 154.53 70.00 151.52 70.44 Z" />
<path fill="#faf9f9" opacity="1.00" d=" M 58.64 33.80 C 60.13 32.05 61.58 30.25 62.94 28.39 C 64.06 29.26 65.15 30.17 66.33 30.95 C 66.31 31.64 66.28 32.33 66.26 33.02 C 64.95 34.18 63.63 35.33 62.25 36.41 C 61.13 35.64 59.77 35.59 58.48 35.41 C 58.52 35.01 58.60 34.20 58.64 33.80 Z" />
<path fill="#faf9f9" opacity="1.00" d=" M 74.45 48.57 C 76.63 48.29 78.83 48.24 80.96 48.84 C 80.65 49.02 80.02 49.38 79.70 49.57 C 79.37 50.66 78.66 51.39 77.58 51.76 L 77.49 52.53 C 76.67 52.55 75.03 52.57 74.20 52.59 C 74.27 51.58 74.39 49.58 74.45 48.57 Z" />
<path fill="#faf9f9" opacity="1.00" d=" M 152.56 73.56 C 154.16 73.48 155.76 73.43 157.36 73.42 C 157.42 74.41 157.48 75.40 157.55 76.39 C 156.35 76.91 155.12 77.35 153.87 77.71 C 153.52 77.30 152.82 76.47 152.47 76.05 C 152.49 75.22 152.53 74.39 152.56 73.56 Z" />
<path fill="#faf9f9" opacity="1.00" d=" M 125.75 84.37 C 126.39 84.50 127.68 84.76 128.33 84.88 C 133.63 87.71 139.54 89.18 144.83 92.05 C 148.30 94.01 152.25 94.92 155.68 96.97 C 190.82 117.44 226.03 137.81 261.16 158.32 C 263.31 159.39 265.37 161.36 267.91 161.21 C 268.14 155.79 270.26 150.72 270.68 145.34 C 269.10 144.63 267.50 143.95 265.91 143.26 C 261.23 140.87 256.31 138.95 251.81 136.21 C 250.58 135.73 249.36 135.26 248.14 134.77 C 246.81 134.12 245.48 133.47 244.17 132.80 C 238.69 130.43 233.42 127.61 227.97 125.19 C 222.03 122.42 216.21 119.43 210.25 116.71 C 208.89 116.07 207.54 115.41 206.19 114.75 C 205.10 114.25 204.01 113.76 202.93 113.27 C 199.42 111.52 195.76 110.09 192.37 108.12 C 192.53 104.42 195.44 101.62 196.80 98.28 C 197.65 98.51 198.51 98.72 199.37 98.93 C 199.45 99.26 199.60 99.93 199.67 100.27 C 199.72 101.98 198.71 103.31 197.76 104.62 C 197.75 104.96 197.73 105.65 197.72 105.99 C 198.26 106.38 199.36 107.15 199.90 107.54 C 200.27 107.50 201.00 107.44 201.37 107.41 L 201.58 108.53 C 201.92 108.52 202.60 108.50 202.93 108.49 C 207.33 110.76 211.76 113.02 216.37 114.83 L 216.58 115.40 C 217.86 115.79 219.12 116.20 220.40 116.60 L 220.66 117.29 C 221.82 117.71 222.98 118.14 224.14 118.57 C 224.86 118.97 225.58 119.36 226.31 119.75 C 227.39 120.25 228.47 120.77 229.55 121.29 C 230.93 121.93 232.31 122.58 233.68 123.26 C 236.36 124.70 239.10 126.04 241.90 127.25 C 245.99 129.01 249.99 130.97 253.97 132.96 C 255.43 133.58 256.89 134.20 258.36 134.82 L 258.63 135.26 C 259.47 135.66 260.31 136.05 261.17 136.43 L 262.39 136.28 L 262.68 137.21 C 264.62 137.97 266.51 138.82 268.40 139.69 C 270.62 141.00 272.91 142.20 275.42 142.86 C 275.42 143.67 275.43 145.30 275.43 146.11 C 273.99 150.03 273.24 154.16 272.25 158.21 C 271.84 159.77 271.46 161.34 271.04 162.90 C 270.67 164.45 270.44 166.03 270.18 167.61 L 267.42 167.89 L 267.57 166.47 L 266.43 166.56 L 266.37 165.49 C 266.03 165.51 265.36 165.57 265.02 165.59 C 264.13 164.97 263.23 164.36 262.33 163.76 C 261.16 163.07 260.00 162.36 258.84 161.65 L 257.98 161.46 C 251.01 156.82 243.51 153.06 236.36 148.71 C 233.84 147.30 231.44 145.71 228.95 144.27 C 196.87 126.02 165.15 107.15 133.11 88.83 C 131.63 87.82 130.14 86.82 128.65 85.83 C 128.24 85.62 127.42 85.22 127.01 85.02 C 126.70 84.85 126.06 84.53 125.75 84.37 Z" />
</g>
<g id="#000000ff">
<path fill="#000000" opacity="1.00" d=" M 72.14 6.22 C 74.73 6.36 77.32 6.64 79.83 7.29 C 84.54 7.70 89.26 8.24 93.88 9.25 C 98.23 9.66 102.54 10.37 106.88 10.85 C 118.61 12.66 130.41 14.15 142.17 15.81 C 144.48 16.22 146.82 16.48 149.15 16.72 C 159.70 18.45 170.36 19.48 180.90 21.24 C 190.56 22.48 200.24 23.72 209.86 25.27 C 212.82 25.52 215.79 25.76 218.72 26.27 C 223.37 27.16 228.07 27.60 232.75 28.24 C 234.82 28.47 236.87 28.78 238.90 29.26 C 248.56 30.49 258.26 31.58 267.86 33.27 C 273.43 33.88 279.04 34.41 284.53 35.63 C 284.45 36.07 284.31 36.93 284.23 37.36 C 274.71 51.39 266.28 66.15 257.06 80.38 C 255.83 82.19 254.86 84.15 253.96 86.14 C 258.00 87.74 262.06 89.33 266.14 90.82 C 269.46 92.22 272.81 93.55 276.22 94.70 C 277.40 95.21 278.60 95.72 279.80 96.22 C 284.21 97.78 288.56 99.52 292.92 101.24 C 296.00 102.44 299.06 103.67 302.18 104.75 C 303.36 105.25 304.55 105.75 305.75 106.24 C 308.84 107.37 311.92 108.58 314.99 109.79 C 319.37 111.45 323.71 113.20 328.12 114.79 C 331.02 115.96 333.93 117.10 336.80 118.33 C 337.16 118.39 337.87 118.51 338.23 118.57 C 339.40 119.18 340.59 119.79 341.78 120.39 C 342.74 120.48 343.70 120.57 344.66 120.66 C 344.61 121.12 344.50 122.03 344.45 122.49 C 345.07 122.59 346.32 122.80 346.94 122.90 C 337.92 125.13 329.65 129.59 320.95 132.78 C 317.33 134.34 313.58 135.62 310.11 137.50 C 308.70 137.55 307.29 137.58 305.89 137.58 C 303.44 136.15 300.89 134.93 298.30 133.78 C 297.55 133.45 296.81 133.12 296.07 132.78 C 291.95 131.02 287.96 128.99 283.85 127.22 C 282.63 126.73 281.41 126.27 280.19 125.80 C 274.02 122.36 267.40 119.83 261.04 116.78 C 257.69 115.29 254.39 113.70 251.05 112.18 C 250.06 111.72 249.06 111.27 248.08 110.80 C 243.96 109.01 239.90 107.09 235.83 105.20 C 235.37 104.99 234.45 104.58 233.99 104.37 C 233.10 103.96 232.21 103.56 231.33 103.16 C 232.82 99.09 234.61 95.06 235.01 90.69 C 213.20 84.83 191.46 78.69 169.67 72.77 C 167.17 72.21 164.87 71.01 163.10 69.14 C 161.61 67.70 159.63 66.95 157.75 66.15 C 155.88 65.90 154.01 65.68 152.14 65.44 C 149.53 61.08 143.78 62.01 140.31 58.78 C 138.59 58.31 136.87 57.84 135.14 57.40 C 135.28 56.57 135.42 55.75 135.57 54.93 C 136.24 54.00 136.94 53.08 137.54 52.10 C 136.18 51.05 134.62 50.35 133.02 49.75 C 125.62 47.12 118.54 43.53 111.00 41.34 C 109.90 42.88 109.57 46.25 106.93 45.44 C 103.27 44.05 99.76 42.29 96.13 40.82 C 91.49 39.37 87.45 36.57 82.83 35.09 C 83.41 33.48 84.31 32.03 85.42 30.74 C 82.13 28.74 78.61 27.14 74.95 25.98 C 71.09 24.79 67.67 22.57 63.84 21.28 C 62.86 20.77 61.87 20.26 60.89 19.73 C 60.29 19.65 59.11 19.50 58.51 19.42 C 56.56 22.18 54.63 24.97 52.95 27.91 C 43.93 23.41 35.86 17.22 27.09 12.25 C 25.27 10.98 22.82 10.33 21.84 8.14 C 28.60 8.64 35.27 10.04 41.94 11.18 C 45.94 11.84 49.98 12.29 53.93 13.18 C 57.33 13.70 60.72 14.28 64.13 14.78 C 66.83 15.57 69.65 15.74 72.45 15.64 C 72.05 12.52 71.55 9.36 72.14 6.22 Z" />
<path fill="#000000" opacity="1.00" d=" M 58.98 25.47 C 61.01 25.04 63.12 25.12 64.97 26.11 C 66.06 26.63 67.15 27.15 68.27 27.60 C 71.86 29.06 70.77 33.43 69.30 36.10 C 67.68 37.34 65.96 38.45 64.28 39.60 C 62.38 39.49 60.47 39.31 58.72 38.50 C 58.02 38.07 57.32 37.65 56.61 37.22 L 56.39 38.20 C 54.00 39.23 53.55 42.22 51.63 43.83 L 51.62 44.79 C 50.75 44.70 49.02 44.53 48.15 44.45 C 48.07 42.91 48.39 41.47 49.10 40.14 C 50.24 38.83 51.33 37.48 52.46 36.17 C 52.46 35.81 52.47 35.09 52.47 34.73 L 53.63 34.64 L 53.55 33.77 C 55.57 31.16 57.98 28.70 58.98 25.47 M 58.64 33.80 C 58.60 34.20 58.52 35.01 58.48 35.41 C 59.77 35.59 61.13 35.64 62.25 36.41 C 63.63 35.33 64.95 34.18 66.26 33.02 C 66.28 32.33 66.31 31.64 66.33 30.95 C 65.15 30.17 64.06 29.26 62.94 28.39 C 61.58 30.25 60.13 32.05 58.64 33.80 Z" />
<path fill="#000000" opacity="1.00" d=" M 73.20 33.43 C 73.99 31.34 75.73 30.84 77.86 31.28 C 77.95 33.12 77.42 34.79 76.33 36.24 C 74.88 38.14 73.43 40.04 72.05 41.99 C 70.28 45.02 67.64 47.47 66.18 50.70 C 65.19 50.64 63.20 50.52 62.20 50.46 C 63.10 46.29 66.74 43.43 68.81 39.81 C 69.48 38.72 70.13 37.61 70.77 36.50 L 71.39 36.56 C 71.82 35.55 72.24 34.54 72.67 33.52 L 73.20 33.43 Z" />
<path fill="#000000" opacity="1.00" d=" M 79.65 38.35 C 80.38 38.69 81.11 39.03 81.84 39.36 C 82.41 39.45 83.57 39.61 84.15 39.69 C 85.26 40.46 86.37 41.25 87.50 41.99 C 88.08 44.51 86.75 46.49 85.20 48.32 C 84.97 48.79 84.51 49.75 84.28 50.23 C 82.74 52.25 80.74 54.03 80.02 56.55 C 78.35 56.62 76.63 56.47 75.90 54.70 C 73.88 54.19 71.75 54.43 69.69 54.23 C 69.60 52.71 69.54 51.20 69.50 49.69 C 70.70 48.10 72.09 46.66 73.67 45.45 C 76.66 45.55 79.66 45.92 82.64 45.55 C 82.69 44.71 82.79 43.02 82.84 42.18 C 80.64 42.43 78.52 43.04 76.40 43.65 C 76.45 42.33 76.50 41.01 76.57 39.69 C 77.30 39.64 78.75 39.55 79.47 39.51 L 79.65 38.35 M 74.45 48.57 C 74.39 49.58 74.27 51.58 74.20 52.59 C 75.03 52.57 76.67 52.55 77.49 52.53 L 77.58 51.76 C 78.66 51.39 79.37 50.66 79.70 49.57 C 80.02 49.38 80.65 49.02 80.96 48.84 C 78.83 48.24 76.63 48.29 74.45 48.57 Z" />
<path fill="#000000" opacity="1.00" d=" M 41.61 42.25 C 42.05 42.24 42.94 42.20 43.38 42.18 C 41.39 44.13 43.31 45.84 44.78 47.30 C 47.46 48.45 50.17 49.60 53.09 49.99 C 54.60 47.28 56.33 44.66 58.71 42.62 C 59.11 42.63 59.93 42.66 60.34 42.67 C 60.36 43.17 60.38 44.16 60.40 44.66 C 59.02 46.64 57.58 48.58 55.83 50.26 C 57.17 50.89 58.02 52.09 58.86 53.25 C 62.58 54.66 66.37 56.01 69.68 58.28 C 70.56 58.40 72.33 58.63 73.21 58.74 C 73.27 59.12 73.38 59.88 73.44 60.26 C 73.35 60.83 73.16 61.96 73.07 62.53 C 67.62 58.72 59.97 58.30 55.97 52.55 C 51.83 55.07 47.69 50.78 43.82 49.47 C 43.36 47.64 42.48 45.91 40.53 45.37 C 40.89 44.33 41.25 43.29 41.61 42.25 Z" />
<path fill="#000000" opacity="1.00" d=" M 89.93 44.48 C 90.91 44.40 92.88 44.25 93.87 44.17 C 94.07 47.41 92.29 50.18 91.11 53.05 C 90.91 54.02 90.69 54.97 90.43 55.93 C 92.04 53.69 94.66 52.47 96.12 50.09 C 97.50 48.25 99.21 46.72 101.73 47.31 C 101.72 48.02 101.69 49.43 101.67 50.14 C 97.97 52.56 95.21 56.08 91.82 58.88 C 90.47 59.84 89.14 60.83 87.87 61.89 C 86.18 64.92 82.07 63.50 79.28 63.69 L 79.37 61.42 C 81.09 61.06 82.82 60.70 84.56 60.44 L 84.33 59.34 L 85.32 59.39 C 85.77 57.52 86.31 55.68 86.79 53.82 C 87.29 52.64 87.76 51.45 88.26 50.27 C 88.85 48.35 89.47 46.44 89.93 44.48 Z" />
<path fill="#000000" opacity="1.00" d=" M 111.50 50.18 C 111.25 48.20 111.86 46.37 114.10 46.38 C 115.64 47.59 117.50 48.24 119.39 48.69 L 119.51 49.32 C 121.16 49.74 122.77 50.25 124.42 50.69 L 124.54 51.49 L 125.70 51.34 L 125.43 52.51 C 127.15 52.53 128.88 52.57 130.60 52.62 C 130.37 53.96 130.90 55.78 129.41 56.54 C 127.03 56.32 125.39 54.09 122.91 54.19 C 121.69 53.45 120.27 53.57 118.92 53.53 C 118.64 54.11 118.10 55.26 117.82 55.84 C 114.60 59.76 112.17 64.25 109.18 68.33 C 108.19 68.38 106.20 68.47 105.21 68.52 C 104.80 65.85 106.89 64.03 108.10 61.97 C 109.53 60.07 110.97 58.18 112.31 56.22 C 113.57 54.54 114.77 52.76 114.87 50.57 C 114.03 50.47 112.34 50.28 111.50 50.18 Z" />
<path fill="#000000" opacity="1.00" d=" M 104.90 52.52 C 105.94 52.49 108.02 52.42 109.06 52.38 C 108.32 54.31 107.14 56.02 105.85 57.61 C 105.29 58.54 104.73 59.46 104.18 60.39 C 103.39 61.72 102.62 63.06 101.85 64.40 C 100.47 64.40 99.09 64.38 97.71 64.42 C 97.29 64.79 96.46 65.54 96.04 65.91 C 93.94 67.77 91.81 69.60 89.85 71.61 C 92.33 73.72 95.57 75.04 97.44 77.81 C 95.56 77.03 93.79 76.01 92.19 74.74 C 90.36 73.41 88.39 72.08 86.00 72.31 C 82.09 72.37 78.63 70.40 75.06 69.12 C 74.65 68.10 74.25 67.08 73.86 66.05 C 74.17 65.98 74.80 65.85 75.11 65.78 C 76.49 66.45 77.80 67.27 79.10 68.09 C 81.44 68.44 83.81 68.54 86.18 68.53 C 93.51 64.55 98.58 57.77 104.90 52.52 Z" />
<path fill="#000000" opacity="1.00" d=" M 123.49 57.26 C 125.03 57.53 126.49 58.07 127.90 58.73 C 124.87 62.29 122.87 66.60 119.67 70.01 C 119.64 70.29 119.57 70.86 119.53 71.14 C 119.20 71.52 118.54 72.28 118.20 72.65 C 117.25 72.58 115.35 72.44 114.39 72.36 C 114.29 70.45 115.62 69.08 116.71 67.67 C 117.24 66.85 117.78 66.03 118.31 65.20 C 119.12 64.04 119.97 62.92 120.81 61.78 C 121.46 60.71 122.12 59.65 122.77 58.58 L 123.59 58.52 L 123.49 57.26 Z" />
<path fill="#000000" opacity="1.00" d=" M 127.22 64.29 C 128.56 61.85 130.19 59.23 133.42 60.56 C 133.03 62.01 134.60 64.91 131.94 64.81 C 129.37 67.89 127.23 71.30 125.16 74.73 C 123.82 74.76 122.48 74.77 121.14 74.77 C 121.30 73.82 121.46 72.88 121.62 71.93 C 123.18 70.04 124.71 68.11 126.18 66.14 C 126.44 65.68 126.96 64.75 127.22 64.29 Z" />
<path fill="#000000" opacity="1.00" d=" M 133.93 63.91 C 135.46 62.32 139.22 61.18 139.78 64.14 C 141.09 65.00 141.88 66.20 142.15 67.73 C 141.59 67.71 140.47 67.68 139.91 67.67 C 139.64 68.14 139.09 69.08 138.82 69.55 C 137.80 70.95 136.75 72.32 135.68 73.68 C 135.20 74.62 134.73 75.57 134.27 76.52 L 133.60 76.56 C 133.82 79.62 130.27 78.20 128.41 78.35 C 128.39 76.48 129.71 75.14 130.80 73.78 C 131.45 72.79 132.09 71.79 132.73 70.78 C 134.30 68.98 137.66 65.54 133.93 63.91 Z" />
<path fill="#000000" opacity="1.00" d=" M 142.03 65.37 C 144.01 65.45 146.01 65.67 147.84 66.48 C 148.56 69.84 146.65 72.41 145.11 75.15 C 143.60 75.43 143.62 77.01 143.22 78.17 C 141.65 78.60 141.43 80.19 141.08 81.54 C 139.47 81.62 137.86 81.61 136.25 81.50 C 136.78 80.35 137.32 79.20 137.86 78.06 C 139.28 76.07 140.76 74.11 142.33 72.24 C 142.85 71.11 143.37 69.98 143.86 68.84 L 142.45 68.09 C 142.35 67.41 142.14 66.05 142.03 65.37 Z" />
<path fill="#000000" opacity="1.00" d=" M 100.46 73.48 C 100.59 72.60 100.71 71.72 100.81 70.84 C 102.54 71.56 104.31 72.15 106.08 72.72 C 107.98 73.59 109.89 74.41 111.80 75.27 C 118.25 77.76 124.57 80.60 131.01 83.13 C 132.65 83.81 134.28 84.50 135.90 85.22 C 137.58 85.87 139.27 86.52 140.96 87.15 C 142.72 88.07 144.44 89.06 146.11 90.12 C 149.46 90.65 153.27 91.42 156.28 89.38 C 160.69 86.41 163.57 81.73 165.57 76.91 C 166.13 76.13 166.71 75.37 167.32 74.62 C 168.11 78.50 166.80 82.24 165.50 85.84 C 170.80 86.54 175.41 89.36 180.30 91.30 C 185.83 93.55 191.23 96.13 196.80 98.28 C 195.44 101.62 192.53 104.42 192.37 108.12 C 195.76 110.09 199.42 111.52 202.93 113.27 C 204.01 113.76 205.10 114.25 206.19 114.75 C 207.54 115.41 208.89 116.07 210.25 116.71 C 216.21 119.43 222.03 122.42 227.97 125.19 C 233.42 127.61 238.69 130.43 244.17 132.80 C 245.48 133.47 246.81 134.12 248.14 134.77 C 249.36 135.26 250.58 135.73 251.81 136.21 C 256.31 138.95 261.23 140.87 265.91 143.26 C 267.50 143.95 269.10 144.63 270.68 145.34 C 270.26 150.72 268.14 155.79 267.91 161.21 C 265.37 161.36 263.31 159.39 261.16 158.32 C 226.03 137.81 190.82 117.44 155.68 96.97 C 152.25 94.92 148.30 94.01 144.83 92.05 C 139.54 89.18 133.63 87.71 128.33 84.88 C 127.68 84.76 126.39 84.50 125.75 84.37 C 117.58 80.17 108.88 77.14 100.46 73.48 Z" />
<path fill="#000000" opacity="1.00" d=" M 151.52 70.44 C 154.53 70.00 157.54 70.32 160.25 71.75 C 161.06 73.07 161.55 74.50 161.52 76.07 C 160.56 77.51 159.80 79.07 159.17 80.67 C 155.65 81.27 153.15 78.13 149.72 78.36 C 149.64 79.71 149.08 80.71 147.70 80.81 C 148.10 81.77 148.44 82.74 148.76 83.73 C 151.14 83.52 153.26 82.30 155.66 82.21 C 155.59 83.04 155.45 84.71 155.39 85.55 C 154.92 85.53 153.98 85.50 153.51 85.49 L 153.48 86.58 C 151.57 86.58 149.66 86.56 147.76 86.47 C 146.66 85.66 145.55 84.88 144.42 84.12 C 144.33 82.25 144.36 80.39 144.42 78.52 L 145.40 78.57 C 145.83 77.67 146.27 76.77 146.73 75.87 C 147.68 74.96 148.74 74.07 148.91 72.66 C 149.32 72.64 150.12 72.58 150.53 72.56 L 150.39 71.45 L 151.46 71.49 L 151.52 70.44 M 152.56 73.56 C 152.53 74.39 152.49 75.22 152.47 76.05 C 152.82 76.47 153.52 77.30 153.87 77.71 C 155.12 77.35 156.35 76.91 157.55 76.39 C 157.48 75.40 157.42 74.41 157.36 73.42 C 155.76 73.43 154.16 73.48 152.56 73.56 Z" />
</g>
<g id="#ff0000ff">
<path fill="#ff0000" opacity="1.00" d=" M 2.41 11.72 C 7.13 11.11 11.87 10.28 16.65 10.54 C 27.73 17.36 38.52 24.67 49.85 31.07 C 48.78 34.23 46.66 36.81 44.55 39.33 L 43.79 40.20 C 41.49 38.95 39.29 37.52 37.17 35.99 C 25.66 27.79 13.82 20.04 2.41 11.72 Z" />
<path fill="#ff0000" opacity="1.00" d=" M 260.53 82.56 C 268.33 70.69 275.62 58.48 283.17 46.45 C 289.30 47.64 295.54 48.37 301.78 48.61 C 301.73 49.49 301.62 51.25 301.56 52.13 C 295.81 59.93 290.68 68.16 285.18 76.14 C 282.22 80.77 278.81 85.12 276.14 89.95 C 275.85 89.90 275.26 89.80 274.96 89.75 C 270.09 87.99 265.31 85.99 260.45 84.21 C 260.47 83.79 260.51 82.97 260.53 82.56 Z" />
<path fill="#ff0000" opacity="1.00" d=" M 89.85 71.61 C 91.81 69.60 93.94 67.77 96.04 65.91 C 96.37 68.12 98.48 69.07 100.01 70.37 C 100.21 70.49 100.61 70.72 100.81 70.84 C 100.71 71.72 100.59 72.60 100.46 73.48 C 108.88 77.14 117.58 80.17 125.75 84.37 C 126.06 84.53 126.70 84.85 127.01 85.02 C 127.42 85.22 128.24 85.62 128.65 85.83 C 130.14 86.82 131.63 87.82 133.11 88.83 C 165.15 107.15 196.87 126.02 228.95 144.27 C 227.59 146.11 227.41 148.46 226.86 150.61 C 225.93 155.09 224.71 159.50 224.09 164.04 C 220.17 163.74 217.47 160.67 214.32 158.69 C 175.34 131.77 136.49 104.63 97.44 77.81 C 95.57 75.04 92.33 73.72 89.85 71.61 Z" />
<path fill="#ff0000" opacity="1.00" d=" M 163.10 69.14 C 164.87 71.01 167.17 72.21 169.67 72.77 C 191.46 78.69 213.20 84.83 235.01 90.69 C 234.61 95.06 232.82 99.09 231.33 103.16 C 232.21 103.56 233.10 103.96 233.99 104.37 C 233.19 104.36 231.60 104.34 230.80 104.33 C 230.58 105.10 230.15 106.65 229.94 107.42 C 229.56 108.79 229.28 110.18 228.98 111.57 C 226.13 111.27 223.53 109.99 220.98 108.77 C 216.30 106.81 211.66 104.78 207.02 102.76 C 204.67 101.66 202.25 100.64 199.67 100.27 C 199.60 99.93 199.45 99.26 199.37 98.93 C 198.51 98.72 197.65 98.51 196.80 98.28 C 191.23 96.13 185.83 93.55 180.30 91.30 C 175.41 89.36 170.80 86.54 165.50 85.84 C 166.80 82.24 168.11 78.50 167.32 74.62 C 166.71 75.37 166.13 76.13 165.57 76.91 C 165.92 74.04 165.48 71.05 163.10 69.14 Z" />
</g>
</svg>
