<?xml version="1.0" encoding="UTF-8" ?>
<!DOCTYPE svg PUBLIC "-//W3C//DTD SVG 1.1//EN" "http://www.w3.org/Graphics/SVG/1.1/DTD/svg11.dtd">
<svg width="432pt" height="96pt" viewBox="0 0 432 96" version="1.1" xmlns="http://www.w3.org/2000/svg">
<g id="#00000086">
<path fill="#000000" opacity="0.53" d=" M 66.98 0.00 L 78.33 0.00 C 73.17 2.25 67.57 2.47 62.07 3.02 C 55.22 4.75 48.08 4.32 41.23 6.03 C 35.97 6.58 30.69 7.00 25.50 8.16 C 18.60 8.58 11.80 9.86 4.99 11.00 C 4.07 15.62 4.61 20.43 3.54 25.05 C 2.06 31.87 3.31 39.20 0.00 45.59 L 0.00 38.39 C 1.88 32.59 1.67 26.43 2.77 20.48 C 3.36 17.07 3.57 13.62 3.63 10.17 C 11.63 7.22 20.27 7.79 28.49 5.88 C 36.39 5.54 44.05 3.49 51.93 3.05 C 56.91 1.84 62.31 2.28 66.98 0.00 Z" />
</g>
<g id="#000000ff">
<path fill="#000000" opacity="1.00" d=" M 78.33 0.00 L 98.34 0.00 L 97.32 1.44 C 113.99 3.56 130.82 4.48 147.49 6.74 C 147.42 10.81 147.55 14.90 147.16 18.97 C 146.19 26.51 146.67 34.12 146.34 41.70 C 200.90 41.72 255.46 41.54 310.02 41.54 C 314.47 41.70 318.59 39.59 322.99 39.39 C 325.72 39.81 328.19 41.31 330.96 41.53 C 334.18 41.22 336.78 38.78 340.02 38.47 C 342.67 38.18 345.35 38.18 348.01 38.43 C 350.68 38.52 352.32 41.59 354.98 41.50 C 356.78 40.55 358.33 39.22 359.92 37.96 C 360.99 36.93 361.87 35.18 363.58 35.27 C 368.29 35.44 373.01 35.77 377.73 35.32 C 377.98 35.31 378.49 35.29 378.74 35.28 C 373.93 35.85 369.08 35.77 364.26 35.42 C 363.67 36.02 363.10 36.63 362.54 37.24 C 370.76 37.41 379.02 37.26 387.15 35.90 C 392.74 34.79 398.47 35.87 404.07 34.92 C 413.22 33.58 422.42 32.21 431.70 32.53 C 427.99 41.95 426.97 52.14 425.10 62.02 C 425.52 67.81 425.18 73.58 424.44 79.33 C 423.15 84.46 423.68 89.90 421.97 94.94 C 420.53 95.98 418.62 95.49 416.97 95.63 C 406.31 95.25 395.64 95.73 384.99 94.95 C 376.99 95.39 368.97 95.49 360.96 95.48 C 356.78 95.32 354.39 89.92 350.20 90.53 C 346.54 93.04 342.68 95.89 337.99 95.61 C 335.50 94.98 333.17 93.87 330.71 93.18 C 330.15 94.12 329.59 95.06 329.03 96.00 L 304.42 96.00 C 283.28 95.31 262.11 95.71 240.97 95.30 C 229.04 93.89 217.01 95.10 205.06 94.02 C 196.52 94.64 187.96 94.05 179.41 94.40 C 170.92 94.27 162.41 94.60 153.94 93.83 C 145.29 93.39 136.63 94.83 127.98 93.78 C 98.65 93.52 69.31 93.50 39.97 93.27 C 28.18 92.38 16.34 92.72 4.52 92.64 C 5.52 78.33 6.68 64.01 6.75 49.65 C 4.50 49.26 2.25 48.83 0.00 48.42 L 0.00 45.59 C 3.31 39.20 2.06 31.87 3.54 25.05 C 4.61 20.43 4.07 15.62 4.99 11.00 C 11.80 9.86 18.60 8.58 25.50 8.16 C 30.69 7.00 35.97 6.58 41.23 6.03 C 48.08 4.32 55.22 4.75 62.07 3.02 C 67.57 2.47 73.17 2.25 78.33 0.00 M 79.83 5.86 C 79.49 7.71 79.41 9.60 79.26 11.48 L 80.53 11.71 C 82.46 11.64 84.39 11.54 86.33 11.53 C 87.84 9.72 88.59 5.94 86.28 4.53 C 84.07 4.61 81.87 5.03 79.83 5.86 M 113.77 20.97 C 113.41 25.59 112.76 31.06 116.29 34.69 C 119.20 38.13 124.33 36.85 127.87 35.22 C 126.55 41.75 119.02 38.78 114.46 39.31 C 114.43 41.33 114.41 43.34 114.39 45.36 C 95.68 45.63 76.96 45.63 58.25 45.47 C 56.26 44.62 54.16 44.16 52.03 43.82 L 51.82 43.14 C 53.93 43.72 56.86 43.94 58.51 42.25 C 58.52 38.22 58.35 34.14 59.17 30.17 C 59.50 27.05 60.06 23.62 58.45 20.74 C 57.59 19.62 56.62 18.16 54.97 18.34 C 51.28 18.04 47.55 18.18 43.88 18.62 C 42.79 19.11 41.67 19.50 40.51 19.80 C 40.35 21.83 40.27 23.87 40.23 25.91 C 42.26 25.53 44.14 24.66 45.89 23.58 C 47.63 23.58 49.37 23.59 51.12 23.58 C 51.53 24.21 52.35 25.46 52.76 26.08 C 51.87 27.87 49.55 27.40 47.95 27.76 C 46.63 28.17 45.30 28.58 44.05 29.19 C 42.11 29.74 40.43 30.88 39.18 32.47 L 38.73 32.64 C 38.46 33.23 37.91 34.42 37.64 35.02 C 37.47 37.03 37.47 39.05 38.00 41.01 C 38.55 42.20 39.07 43.73 40.66 43.75 C 41.98 44.47 43.36 45.06 44.74 45.67 C 42.27 46.07 39.68 45.51 37.33 46.51 L 37.67 45.32 L 36.58 45.55 C 37.13 41.69 33.77 39.01 32.26 35.79 C 31.19 34.36 30.15 32.86 30.42 30.97 C 35.74 28.84 36.31 22.66 35.54 17.73 C 33.96 16.05 32.68 13.41 30.05 13.40 C 25.01 12.87 19.94 13.51 14.89 13.61 C 14.31 13.90 13.15 14.49 12.58 14.79 L 12.64 16.41 L 11.92 15.29 C 11.74 22.54 11.80 29.79 11.54 37.04 C 11.40 40.06 11.71 43.17 10.67 46.06 C 12.19 49.17 11.30 52.72 11.22 56.02 C 10.27 58.95 10.64 62.06 10.34 65.08 C 9.01 68.79 10.09 72.89 9.50 76.74 C 6.54 79.89 7.56 84.60 7.40 88.52 C 8.86 89.17 10.25 90.25 11.92 90.25 C 52.29 90.58 92.66 90.73 133.03 90.82 C 134.24 90.77 135.42 90.57 136.57 90.21 C 144.58 90.44 152.62 90.45 160.64 90.32 C 163.17 91.83 166.20 91.14 168.98 91.30 C 177.35 91.56 185.73 91.36 194.06 92.24 C 216.69 92.46 239.32 92.56 261.95 92.64 C 276.80 92.13 291.68 92.95 306.52 92.44 C 306.74 92.07 307.16 91.33 307.38 90.96 C 305.86 88.56 302.64 87.71 299.94 87.70 C 241.96 87.59 183.99 86.57 126.01 86.14 C 115.34 85.25 104.61 85.60 93.91 85.54 C 70.59 85.47 47.25 85.43 23.94 84.81 C 20.07 85.11 15.91 83.93 12.27 85.61 C 12.04 85.48 11.58 85.20 11.34 85.07 C 11.38 83.35 11.67 81.66 12.22 80.04 C 12.36 78.63 12.49 77.22 12.65 75.80 C 13.66 70.77 14.40 65.57 14.56 60.42 C 14.77 60.10 15.17 59.46 15.38 59.14 C 15.52 57.30 15.60 55.46 15.66 53.63 C 15.96 53.14 16.57 52.18 16.87 51.69 C 82.93 51.60 149.00 51.31 215.06 51.35 L 215.39 51.21 C 218.89 51.73 222.43 51.57 225.95 51.55 C 247.64 51.49 269.34 51.41 291.03 51.28 C 296.25 51.16 301.52 51.64 306.66 50.49 C 308.12 49.15 308.93 47.40 308.85 45.40 C 251.25 45.43 193.64 45.67 136.03 45.63 C 133.58 45.45 130.86 46.55 128.64 45.14 C 132.40 43.18 135.59 39.62 135.47 35.14 L 136.27 35.99 C 136.33 27.15 137.19 18.35 137.44 9.52 C 133.63 9.31 129.81 9.78 126.00 9.60 C 119.44 8.48 114.53 15.11 113.77 20.97 M 64.46 10.54 C 64.51 12.38 64.49 14.22 64.42 16.06 C 62.46 17.11 61.01 18.88 61.19 21.24 C 61.81 21.62 63.05 22.38 63.68 22.76 C 63.70 28.21 63.33 33.65 63.49 39.10 C 65.66 43.77 71.42 42.57 75.43 41.44 C 75.74 39.76 76.15 38.10 76.55 36.44 C 74.51 36.12 71.81 37.27 70.42 35.23 C 70.24 31.40 70.63 27.56 70.54 23.72 C 70.85 23.19 71.46 22.13 71.77 21.60 C 73.32 21.57 74.87 21.52 76.42 21.50 L 76.47 20.44 L 77.56 20.56 C 77.58 19.51 77.62 17.40 77.64 16.35 C 76.38 16.31 75.12 16.28 73.86 16.25 C 73.23 16.04 71.97 15.62 71.35 15.41 C 71.47 13.38 71.56 11.35 71.61 9.31 C 69.21 9.52 66.56 9.09 64.46 10.54 M 90.59 14.48 C 90.46 18.66 90.47 22.84 90.16 27.00 C 89.20 31.14 89.72 35.44 89.36 39.65 C 91.71 39.43 94.55 40.29 96.43 38.43 C 96.66 33.97 96.00 29.36 97.19 25.02 C 97.35 23.58 97.45 22.14 97.51 20.69 C 99.28 19.71 101.24 19.38 103.23 19.22 C 104.60 20.45 104.40 22.42 104.45 24.07 C 104.37 27.04 104.57 30.07 103.84 32.99 C 103.71 34.37 103.59 35.75 103.50 37.13 C 103.83 37.49 104.48 38.20 104.81 38.56 C 105.62 38.47 107.24 38.30 108.04 38.22 C 108.68 38.01 109.96 37.60 110.60 37.40 C 110.61 34.62 110.39 31.79 111.23 29.10 C 111.46 25.05 111.55 20.99 111.46 16.94 C 111.17 16.34 110.58 15.14 110.29 14.55 L 109.48 14.53 L 109.63 13.49 C 107.38 12.28 104.35 11.68 102.08 13.06 C 98.95 16.14 94.41 13.43 90.59 14.48 M 80.71 15.34 L 79.91 15.96 C 78.77 21.48 80.08 27.31 78.54 32.73 C 78.36 35.40 78.34 38.08 78.38 40.76 C 80.40 40.66 82.43 40.56 84.45 40.47 L 84.45 39.29 L 85.38 39.39 C 85.58 33.94 85.16 28.41 86.17 23.03 C 86.36 20.48 86.42 17.92 86.51 15.36 C 84.58 15.34 82.64 15.37 80.71 15.34 M 409.41 42.35 C 408.25 47.51 409.52 52.85 408.82 58.08 C 408.70 63.08 407.43 68.79 410.86 73.02 C 409.56 74.01 408.18 74.93 406.63 75.46 C 407.02 66.83 408.95 57.72 405.67 49.41 C 403.39 45.22 399.33 40.45 394.02 41.35 C 389.92 41.82 383.82 39.87 381.63 44.61 C 380.74 49.04 381.06 53.61 380.38 58.08 C 379.10 55.39 378.80 52.33 377.23 49.77 C 377.09 48.30 375.85 47.47 374.62 46.95 C 374.36 46.12 373.83 45.56 373.03 45.25 C 371.58 41.95 366.88 42.82 364.06 43.53 C 358.79 46.31 356.00 51.90 353.91 57.22 C 352.14 53.92 351.90 49.74 348.82 47.25 C 346.26 44.33 341.43 43.95 338.46 46.45 C 335.09 49.32 332.68 53.01 331.67 57.35 C 331.14 57.06 330.07 56.48 329.54 56.19 C 329.22 57.16 328.87 58.12 328.49 59.06 C 329.41 54.36 326.96 49.98 323.25 47.26 C 320.67 47.46 317.63 46.77 315.61 48.83 C 309.56 54.07 307.76 62.39 307.39 70.03 C 307.30 74.20 307.30 78.46 308.77 82.42 C 309.70 83.80 310.59 85.22 311.48 86.63 C 311.81 86.63 312.47 86.63 312.80 86.63 C 312.91 89.37 315.62 88.41 317.44 88.53 C 318.35 87.77 319.21 86.94 320.26 86.36 C 322.38 86.21 324.78 88.51 326.48 86.44 C 326.90 82.56 326.78 78.62 327.59 74.78 C 330.68 76.96 329.45 81.48 331.83 84.17 C 333.72 86.42 335.96 88.75 338.99 89.30 C 342.73 88.63 346.65 86.41 348.08 82.70 C 350.50 81.92 349.75 77.05 352.58 77.28 C 353.47 82.26 356.95 86.26 360.97 89.10 C 364.87 90.93 369.00 88.44 371.79 85.75 C 373.83 83.44 374.76 80.24 377.36 78.41 C 377.31 80.97 376.73 83.46 376.47 86.00 C 376.14 87.10 376.68 88.66 378.04 88.58 C 383.33 88.68 388.65 88.60 393.94 88.44 C 400.16 86.72 402.27 80.06 406.23 75.71 C 406.68 78.96 405.04 81.95 404.72 85.13 C 404.90 87.14 406.85 88.91 408.91 88.68 C 411.39 88.72 414.88 88.74 416.04 86.04 C 416.89 83.15 417.29 80.13 417.55 77.13 C 417.94 75.28 416.06 74.27 415.09 73.02 C 418.24 65.69 418.47 57.60 420.51 49.96 C 420.98 47.11 421.84 44.23 421.63 41.33 C 420.53 39.48 417.85 39.69 415.97 39.67 C 413.68 39.89 410.37 39.72 409.41 42.35 Z" />
<path fill="#000000" opacity="1.00" d=" M 122.85 17.92 C 124.28 15.70 127.16 16.26 129.36 16.52 C 128.28 19.88 128.76 23.47 127.91 26.86 C 127.29 29.17 124.70 28.86 122.85 29.24 C 122.18 25.50 122.15 21.67 122.85 17.92 Z" />
<path fill="#000000" opacity="1.00" d=" M 19.35 27.45 C 19.95 24.82 18.83 21.44 20.74 19.33 C 22.90 19.43 25.05 19.48 27.21 19.58 C 27.62 21.06 28.07 22.53 28.49 24.00 C 28.16 24.58 27.51 25.72 27.18 26.29 C 24.91 27.70 21.79 29.56 19.35 27.45 Z" />
<path fill="#000000" opacity="1.00" d=" M 44.49 35.95 C 46.54 34.58 48.48 32.49 51.10 32.44 C 52.46 33.59 51.17 35.67 51.33 37.18 C 49.64 37.92 47.90 39.27 45.96 38.48 C 45.59 37.84 44.86 36.58 44.49 35.95 Z" />
<path fill="#000000" opacity="1.00" d=" M 18.43 46.51 C 18.92 42.57 17.53 37.76 19.75 34.40 C 20.59 34.43 22.28 34.48 23.13 34.50 C 24.10 36.31 25.11 38.11 26.26 39.81 C 26.53 40.29 27.07 41.26 27.34 41.74 C 28.34 43.22 29.40 44.70 29.78 46.49 C 26.00 46.47 22.22 46.45 18.43 46.51 Z" />
<path fill="#000000" opacity="1.00" d=" M 365.38 53.43 C 366.53 53.43 367.68 53.42 368.83 53.41 C 370.40 57.45 369.59 61.83 369.56 66.03 C 369.48 70.17 368.72 74.40 366.24 77.82 C 364.57 77.60 362.25 78.29 361.45 76.28 C 360.85 69.78 361.54 63.23 363.15 56.92 C 363.70 55.65 364.59 54.56 365.38 53.43 Z" />
<path fill="#000000" opacity="1.00" d=" M 389.62 53.63 C 391.72 51.94 394.46 52.22 396.59 53.71 C 397.02 59.85 396.87 66.00 396.51 72.14 C 394.49 74.82 392.14 77.86 388.38 77.67 C 388.31 72.12 388.02 66.50 389.18 61.04 C 389.64 58.60 389.62 56.11 389.62 53.63 Z" />
<path fill="#000000" opacity="1.00" d=" M 339.27 59.23 C 339.52 57.49 340.91 56.28 341.96 54.98 C 343.69 56.54 345.18 58.54 344.53 61.01 C 343.53 65.84 343.35 70.80 342.25 75.60 C 341.74 77.41 339.67 77.63 338.13 77.95 C 336.20 71.76 338.09 65.36 339.27 59.23 Z" />
</g>
<g id="#b2b2b2ff">
<path fill="#b2b2b2" opacity="1.00" d=" M 79.83 5.86 C 81.87 5.03 84.07 4.61 86.28 4.53 C 88.59 5.94 87.84 9.72 86.33 11.53 C 86.25 9.87 86.19 8.22 86.15 6.56 C 84.35 6.58 82.55 6.61 80.75 6.63 C 80.67 8.32 80.60 10.01 80.53 11.71 L 79.26 11.48 C 79.41 9.60 79.49 7.71 79.83 5.86 Z" />
</g>
<g id="#ffffffff">
<path fill="#ffffff" opacity="1.00" d=" M 80.75 6.63 C 82.55 6.61 84.35 6.58 86.15 6.56 C 86.19 8.22 86.25 9.87 86.33 11.53 C 84.39 11.54 82.46 11.64 80.53 11.71 C 80.60 10.01 80.67 8.32 80.75 6.63 Z" />
<path fill="#ffffff" opacity="1.00" d=" M 64.46 10.54 C 66.56 9.09 69.21 9.52 71.61 9.31 C 71.56 11.35 71.47 13.38 71.35 15.41 C 71.97 15.62 73.23 16.04 73.86 16.25 C 75.12 16.28 76.38 16.31 77.64 16.35 C 77.62 17.40 77.58 19.51 77.56 20.56 L 76.47 20.44 L 76.42 21.50 C 74.87 21.52 73.32 21.57 71.77 21.60 C 71.46 22.13 70.85 23.19 70.54 23.72 C 70.63 27.56 70.24 31.40 70.42 35.23 C 71.81 37.27 74.51 36.12 76.55 36.44 C 76.15 38.10 75.74 39.76 75.43 41.44 C 71.42 42.57 65.66 43.77 63.49 39.10 C 63.33 33.65 63.70 28.21 63.68 22.76 C 63.05 22.38 61.81 21.62 61.19 21.24 C 61.01 18.88 62.46 17.11 64.42 16.06 C 64.49 14.22 64.51 12.38 64.46 10.54 Z" />
<path fill="#ffffff" opacity="1.00" d=" M 118.50 13.47 C 120.49 11.72 123.22 10.39 125.93 10.98 C 129.42 11.71 132.88 10.54 136.37 10.39 C 135.21 17.71 135.77 25.14 135.18 32.51 C 134.45 35.26 133.69 38.04 132.38 40.58 C 131.04 43.08 127.95 43.52 125.55 44.50 C 125.50 45.02 125.39 46.07 125.33 46.60 C 129.87 47.02 134.42 46.99 138.97 46.87 C 195.22 46.80 251.48 46.42 307.73 46.70 C 307.07 48.28 305.84 49.62 303.99 49.45 C 282.34 49.89 260.65 48.98 239.03 50.17 C 232.68 50.21 226.34 50.24 220.00 50.21 C 218.40 50.15 216.81 50.48 215.39 51.21 L 215.06 51.35 C 149.00 51.31 82.93 51.60 16.87 51.69 C 16.57 52.18 15.96 53.14 15.66 53.63 C 15.60 55.46 15.52 57.30 15.38 59.14 C 15.17 59.46 14.77 60.10 14.56 60.42 C 11.83 64.61 13.27 70.00 11.53 74.57 C 10.37 67.66 12.37 60.83 13.15 54.01 C 13.90 41.47 12.89 28.94 12.64 16.41 L 12.58 14.79 C 13.15 14.49 14.31 13.90 14.89 13.61 C 19.94 13.51 25.01 12.87 30.05 13.40 C 32.68 13.41 33.96 16.05 35.54 17.73 C 36.31 22.66 35.74 28.84 30.42 30.97 C 30.15 32.86 31.19 34.36 32.26 35.79 C 33.77 39.01 37.13 41.69 36.58 45.55 L 37.67 45.32 L 37.33 46.51 C 43.81 46.43 50.29 46.53 56.78 46.63 C 76.37 46.93 95.97 46.69 115.56 46.55 C 115.58 44.51 115.59 42.48 115.61 40.45 C 118.85 40.46 122.16 41.01 125.34 40.26 C 128.23 39.04 128.96 35.99 128.72 33.14 C 126.31 34.34 123.85 35.94 121.03 35.67 C 117.81 35.84 115.65 32.79 114.95 29.98 C 113.81 24.36 114.45 17.83 118.50 13.47 M 122.85 17.92 C 119.48 21.24 119.78 27.27 123.25 30.43 C 124.35 30.39 125.45 30.36 126.56 30.33 C 127.67 29.04 129.71 28.09 129.54 26.12 C 129.73 22.68 129.95 19.21 129.57 15.77 L 129.36 16.52 C 127.16 16.26 124.28 15.70 122.85 17.92 M 19.35 27.45 C 21.79 29.56 24.91 27.70 27.18 26.29 C 27.51 25.72 28.16 24.58 28.49 24.00 C 28.07 22.53 27.62 21.06 27.21 19.58 C 25.05 19.48 22.90 19.43 20.74 19.33 C 18.83 21.44 19.95 24.82 19.35 27.45 M 18.43 46.51 C 22.22 46.45 26.00 46.47 29.78 46.49 C 29.40 44.70 28.34 43.22 27.34 41.74 C 27.07 41.26 26.53 40.29 26.26 39.81 C 25.11 38.11 24.10 36.31 23.13 34.50 C 22.28 34.48 20.59 34.43 19.75 34.40 C 17.53 37.76 18.92 42.57 18.43 46.51 Z" />
<path fill="#ffffff" opacity="1.00" d=" M 90.59 14.48 C 94.41 13.43 98.95 16.14 102.08 13.06 C 104.35 11.68 107.38 12.28 109.63 13.49 L 109.48 14.53 L 110.29 14.55 C 110.58 15.14 111.17 16.34 111.46 16.94 C 111.55 20.99 111.46 25.05 111.23 29.10 C 110.39 31.79 110.61 34.62 110.60 37.40 C 109.96 37.60 108.68 38.01 108.04 38.22 C 107.24 38.30 105.62 38.47 104.81 38.56 C 104.48 38.20 103.83 37.49 103.50 37.13 C 103.59 35.75 103.71 34.37 103.84 32.99 C 104.57 30.07 104.37 27.04 104.45 24.07 C 104.40 22.42 104.60 20.45 103.23 19.22 C 101.24 19.38 99.28 19.71 97.51 20.69 C 97.45 22.14 97.35 23.58 97.19 25.02 C 96.00 29.36 96.66 33.97 96.43 38.43 C 94.55 40.29 91.71 39.43 89.36 39.65 C 89.72 35.44 89.20 31.14 90.16 27.00 C 90.47 22.84 90.46 18.66 90.59 14.48 Z" />
<path fill="#ffffff" opacity="1.00" d=" M 80.71 15.34 C 82.64 15.37 84.58 15.34 86.51 15.36 C 86.42 17.92 86.36 20.48 86.17 23.03 C 85.16 28.41 85.58 33.94 85.38 39.39 L 84.45 39.29 L 84.45 40.47 C 82.43 40.56 80.40 40.66 78.38 40.76 C 78.34 38.08 78.36 35.40 78.54 32.73 C 80.08 27.31 78.77 21.48 79.91 15.96 L 80.71 15.34 Z" />
<path fill="#ffffff" opacity="1.00" d=" M 40.51 19.80 C 41.67 19.50 42.79 19.11 43.88 18.62 C 47.55 18.18 51.28 18.04 54.97 18.34 C 56.62 18.16 57.59 19.62 58.45 20.74 C 60.06 23.62 59.50 27.05 59.17 30.17 C 58.35 34.14 58.52 38.22 58.51 42.25 C 56.86 43.94 53.93 43.72 51.82 43.14 C 51.69 42.70 51.43 41.83 51.30 41.39 C 48.79 44.69 44.28 43.81 40.66 43.75 C 39.07 43.73 38.55 42.20 38.00 41.01 C 37.47 39.05 37.47 37.03 37.64 35.02 C 37.91 34.42 38.46 33.23 38.73 32.64 L 39.18 32.47 C 40.43 30.88 42.11 29.74 44.05 29.19 C 45.30 28.58 46.63 28.17 47.95 27.76 C 49.55 27.40 51.87 27.87 52.76 26.08 C 52.35 25.46 51.53 24.21 51.12 23.58 C 49.37 23.59 47.63 23.58 45.89 23.58 C 44.14 24.66 42.26 25.53 40.23 25.91 C 40.27 23.87 40.35 21.83 40.51 19.80 M 44.23 35.10 C 43.01 37.90 45.50 40.50 48.25 40.54 C 49.61 39.46 51.08 38.49 52.31 37.26 C 52.86 35.38 52.56 33.39 52.55 31.46 C 49.44 31.15 45.74 32.18 44.23 35.10 Z" />
<path fill="#ffffff" opacity="1.00" d=" M 9.18 83.35 C 9.89 83.94 10.61 84.51 11.34 85.07 C 11.58 85.20 12.04 85.48 12.27 85.61 L 13.71 86.04 C 31.77 86.83 49.89 86.35 67.97 86.84 C 76.65 87.45 85.36 87.05 94.05 87.20 C 124.70 87.22 155.34 87.64 185.99 87.79 C 206.63 88.98 227.32 88.31 247.99 88.77 C 263.98 89.62 280.00 89.37 296.01 89.48 C 299.24 89.61 302.89 88.83 305.58 91.12 C 299.07 91.74 292.53 91.27 286.01 91.28 C 278.38 90.51 270.65 90.19 263.05 91.44 C 249.71 91.41 236.35 91.62 223.03 90.77 C 208.01 90.67 192.99 90.48 177.97 90.36 C 172.18 90.42 166.39 89.21 160.64 90.32 C 152.62 90.45 144.58 90.44 136.57 90.21 C 132.44 89.43 128.22 89.69 124.04 89.68 C 98.35 89.59 72.67 89.49 46.98 89.22 C 34.32 88.24 21.60 89.03 8.93 88.28 C 9.02 86.64 9.12 85.00 9.18 83.35 Z" />
</g>
<g id="#707070ff">
<path fill="#707070" opacity="1.00" d=" M 113.77 20.97 C 114.53 15.11 119.44 8.48 126.00 9.60 C 129.81 9.78 133.63 9.31 137.44 9.52 C 137.19 18.35 136.33 27.15 136.27 35.99 L 135.47 35.14 C 135.36 34.27 135.26 33.39 135.18 32.51 C 135.77 25.14 135.21 17.71 136.37 10.39 C 132.88 10.54 129.42 11.71 125.93 10.98 C 123.22 10.39 120.49 11.72 118.50 13.47 C 114.45 17.83 113.81 24.36 114.95 29.98 C 115.65 32.79 117.81 35.84 121.03 35.67 C 123.85 35.94 126.31 34.34 128.72 33.14 C 128.96 35.99 128.23 39.04 125.34 40.26 C 122.16 41.01 118.85 40.46 115.61 40.45 C 115.59 42.48 115.58 44.51 115.56 46.55 C 95.97 46.69 76.37 46.93 56.78 46.63 C 57.15 46.34 57.88 45.76 58.25 45.47 C 76.96 45.63 95.68 45.63 114.39 45.36 C 114.41 43.34 114.43 41.33 114.46 39.31 C 119.02 38.78 126.55 41.75 127.87 35.22 C 124.33 36.85 119.20 38.13 116.29 34.69 C 112.76 31.06 113.41 25.59 113.77 20.97 Z" />
</g>
<g id="#f3f3f3ff">
<path fill="#f3f3f3" opacity="1.00" d=" M 11.92 15.29 L 12.64 16.41 C 12.89 28.94 13.90 41.47 13.15 54.01 C 12.37 60.83 10.37 67.66 11.53 74.57 C 13.27 70.00 11.83 64.61 14.56 60.42 C 14.40 65.57 13.66 70.77 12.65 75.80 C 12.49 77.22 12.36 78.63 12.22 80.04 C 11.67 81.66 11.38 83.35 11.34 85.07 C 10.61 84.51 9.89 83.94 9.18 83.35 C 9.12 85.00 9.02 86.64 8.93 88.28 C 7.68 84.50 9.53 80.60 9.50 76.74 C 10.09 72.89 9.01 68.79 10.34 65.08 C 10.64 62.06 10.27 58.95 11.22 56.02 C 11.30 52.72 12.19 49.17 10.67 46.06 C 11.71 43.17 11.40 40.06 11.54 37.04 C 11.80 29.79 11.74 22.54 11.92 15.29 Z" />
</g>
<g id="#5c5c5cff">
<path fill="#5c5c5c" opacity="1.00" d=" M 129.36 16.52 L 129.57 15.77 C 129.95 19.21 129.73 22.68 129.54 26.12 C 129.71 28.09 127.67 29.04 126.56 30.33 C 125.45 30.36 124.35 30.39 123.25 30.43 C 119.78 27.27 119.48 21.24 122.85 17.92 C 122.15 21.67 122.18 25.50 122.85 29.24 C 124.70 28.86 127.29 29.17 127.91 26.86 C 128.76 23.47 128.28 19.88 129.36 16.52 Z" />
<path fill="#5c5c5c" opacity="1.00" d=" M 7.40 88.52 C 7.56 84.60 6.54 79.89 9.50 76.74 C 9.53 80.60 7.68 84.50 8.93 88.28 C 21.60 89.03 34.32 88.24 46.98 89.22 C 72.67 89.49 98.35 89.59 124.04 89.68 C 128.22 89.69 132.44 89.43 136.57 90.21 C 135.42 90.57 134.24 90.77 133.03 90.82 C 92.66 90.73 52.29 90.58 11.92 90.25 C 10.25 90.25 8.86 89.17 7.40 88.52 Z" />
</g>
<g id="#898989ff">
<path fill="#898989" opacity="1.00" d=" M 44.23 35.10 C 45.74 32.18 49.44 31.15 52.55 31.46 C 52.56 33.39 52.86 35.38 52.31 37.26 C 51.08 38.49 49.61 39.46 48.25 40.54 C 45.50 40.50 43.01 37.90 44.23 35.10 M 44.49 35.95 C 44.86 36.58 45.59 37.84 45.96 38.48 C 47.90 39.27 49.64 37.92 51.33 37.18 C 51.17 35.67 52.46 33.59 51.10 32.44 C 48.48 32.49 46.54 34.58 44.49 35.95 Z" />
</g>
<g id="#0000007c">
<path fill="#000000" opacity="0.49" d=" M 400.05 33.39 C 403.36 32.75 406.54 31.33 409.99 31.52 C 417.34 31.71 424.67 31.03 432.00 30.47 L 432.00 36.56 C 429.71 41.49 429.05 46.88 429.02 52.26 C 428.69 55.92 427.59 59.44 427.19 63.08 C 427.16 66.66 427.56 70.26 426.88 73.81 C 426.38 75.78 425.48 77.61 424.44 79.33 C 425.18 73.58 425.52 67.81 425.10 62.02 C 426.97 52.14 427.99 41.95 431.70 32.53 C 422.42 32.21 413.22 33.58 404.07 34.92 C 398.47 35.87 392.74 34.79 387.15 35.90 C 379.02 37.26 370.76 37.41 362.54 37.24 C 363.10 36.63 363.67 36.02 364.26 35.42 C 369.08 35.77 373.93 35.85 378.74 35.28 C 378.49 35.29 377.98 35.31 377.73 35.32 C 384.81 32.25 392.62 34.13 400.05 33.39 Z" />
</g>
<g id="#a2a2a2ff">
<path fill="#a2a2a2" opacity="1.00" d=" M 132.38 40.58 C 133.69 38.04 134.45 35.26 135.18 32.51 C 135.26 33.39 135.36 34.27 135.47 35.14 C 135.59 39.62 132.40 43.18 128.64 45.14 C 130.86 46.55 133.58 45.45 136.03 45.63 C 193.64 45.67 251.25 45.43 308.85 45.40 C 308.93 47.40 308.12 49.15 306.66 50.49 C 301.52 51.64 296.25 51.16 291.03 51.28 C 269.34 51.41 247.64 51.49 225.95 51.55 C 222.43 51.57 218.89 51.73 215.39 51.21 C 216.81 50.48 218.40 50.15 220.00 50.21 C 226.34 50.24 232.68 50.21 239.03 50.17 C 260.65 48.98 282.34 49.89 303.99 49.45 C 305.84 49.62 307.07 48.28 307.73 46.70 C 251.48 46.42 195.22 46.80 138.97 46.87 C 134.42 46.99 129.87 47.02 125.33 46.60 C 125.39 46.07 125.50 45.02 125.55 44.50 C 127.95 43.52 131.04 43.08 132.38 40.58 Z" />
</g>
<g id="#00000046">
<path fill="#000000" opacity="0.27" d=" M 429.02 52.26 C 429.05 46.88 429.71 41.49 432.00 36.56 L 432.00 44.45 C 431.10 47.09 429.93 49.63 429.02 52.26 Z" />
</g>
<g id="#510000ff">
<path fill="#510000" opacity="1.00" d=" M 409.41 42.35 C 410.37 39.72 413.68 39.89 415.97 39.67 C 417.85 39.69 420.53 39.48 421.63 41.33 C 421.84 44.23 420.98 47.11 420.51 49.96 C 418.47 57.60 418.24 65.69 415.09 73.02 C 416.06 74.27 417.94 75.28 417.55 77.13 C 417.29 80.13 416.89 83.15 416.04 86.04 C 414.88 88.74 411.39 88.72 408.91 88.68 C 406.85 88.91 404.90 87.14 404.72 85.13 C 405.04 81.95 406.68 78.96 406.23 75.71 C 402.27 80.06 400.16 86.72 393.94 88.44 C 388.65 88.60 383.33 88.68 378.04 88.58 C 376.68 88.66 376.14 87.10 376.47 86.00 C 376.73 83.46 377.31 80.97 377.36 78.41 C 374.76 80.24 373.83 83.44 371.79 85.75 C 369.00 88.44 364.87 90.93 360.97 89.10 C 356.95 86.26 353.47 82.26 352.58 77.28 C 349.75 77.05 350.50 81.92 348.08 82.70 L 346.69 83.11 C 349.19 79.24 349.99 74.62 351.98 70.50 C 354.56 75.10 354.07 81.14 358.13 84.93 C 360.48 87.57 364.53 88.48 367.72 86.82 C 372.20 84.52 374.36 79.66 376.07 75.20 C 376.91 73.75 377.83 72.35 378.73 70.95 C 379.11 73.55 379.53 76.15 379.81 78.77 C 379.30 81.04 378.69 83.29 378.15 85.55 C 382.52 87.38 387.39 86.40 391.99 86.41 C 397.27 86.42 400.65 81.77 402.74 77.51 C 406.37 71.32 405.56 63.89 405.55 57.03 C 405.49 51.81 403.23 45.76 398.07 43.67 C 394.38 43.19 390.63 43.34 386.93 43.63 C 384.99 43.63 383.61 45.27 382.83 46.86 C 380.86 51.61 382.85 57.16 380.02 61.65 C 378.44 57.86 377.78 53.81 377.23 49.77 C 378.80 52.33 379.10 55.39 380.38 58.08 C 381.06 53.61 380.74 49.04 381.63 44.61 C 383.82 39.87 389.92 41.82 394.02 41.35 C 399.33 40.45 403.39 45.22 405.67 49.41 C 408.95 57.72 407.02 66.83 406.63 75.46 C 408.18 74.93 409.56 74.01 410.86 73.02 C 407.43 68.79 408.70 63.08 408.82 58.08 C 409.52 52.85 408.25 47.51 409.41 42.35 M 410.82 44.00 C 410.36 52.80 410.98 61.65 410.43 70.47 C 412.05 70.77 414.43 71.17 414.78 68.93 C 415.78 63.95 416.89 58.99 417.57 53.95 C 418.27 49.80 420.16 45.74 419.49 41.44 C 416.61 41.69 412.17 40.56 410.82 44.00 M 407.17 86.65 C 409.57 86.58 411.98 86.52 414.39 86.44 C 414.78 83.18 415.19 79.91 415.73 76.67 C 413.81 75.84 411.76 75.44 409.69 75.24 C 407.22 78.41 406.55 82.76 407.17 86.65 Z" />
</g>
<g id="#1f1f1fff">
<path fill="#1f1f1f" opacity="1.00" d=" M 40.66 43.75 C 44.28 43.81 48.79 44.69 51.30 41.39 C 51.43 41.83 51.69 42.70 51.82 43.14 L 52.03 43.82 C 54.16 44.16 56.26 44.62 58.25 45.47 C 57.88 45.76 57.15 46.34 56.78 46.63 C 50.29 46.53 43.81 46.43 37.33 46.51 C 39.68 45.51 42.27 46.07 44.74 45.67 C 43.36 45.06 41.98 44.47 40.66 43.75 Z" />
</g>
<g id="#ff0000ff">
<path fill="#ff0000" opacity="1.00" d=" M 410.82 44.00 C 412.17 40.56 416.61 41.69 419.49 41.44 C 420.16 45.74 418.27 49.80 417.57 53.95 C 416.89 58.99 415.78 63.95 414.78 68.93 C 414.43 71.17 412.05 70.77 410.43 70.47 C 410.98 61.65 410.36 52.80 410.82 44.00 Z" />
<path fill="#ff0000" opacity="1.00" d=" M 382.83 46.86 C 383.61 45.27 384.99 43.63 386.93 43.63 C 390.63 43.34 394.38 43.19 398.07 43.67 C 403.23 45.76 405.49 51.81 405.55 57.03 C 405.56 63.89 406.37 71.32 402.74 77.51 C 400.65 81.77 397.27 86.42 391.99 86.41 C 387.39 86.40 382.52 87.38 378.15 85.55 C 378.69 83.29 379.30 81.04 379.81 78.77 C 380.93 74.53 380.72 70.09 381.75 65.83 C 383.27 59.62 382.67 53.19 382.83 46.86 M 389.62 53.63 C 389.62 56.11 389.64 58.60 389.18 61.04 C 388.02 66.50 388.31 72.12 388.38 77.67 C 392.14 77.86 394.49 74.82 396.51 72.14 C 396.87 66.00 397.02 59.85 396.59 53.71 C 394.46 52.22 391.72 51.94 389.62 53.63 Z" />
<path fill="#ff0000" opacity="1.00" d=" M 360.74 47.75 C 363.69 43.98 368.83 44.42 373.03 45.25 C 373.83 45.56 374.36 46.12 374.62 46.95 C 376.31 51.79 377.89 56.82 377.57 62.02 C 377.28 66.43 376.40 70.78 376.07 75.20 C 374.36 79.66 372.20 84.52 367.72 86.82 C 364.53 88.48 360.48 87.57 358.13 84.93 C 354.07 81.14 354.56 75.10 351.98 70.50 C 349.99 74.62 349.19 79.24 346.69 83.11 C 344.23 84.70 342.06 87.22 338.94 87.33 C 334.89 86.74 331.81 82.92 331.17 79.01 C 330.14 72.94 330.69 66.75 330.62 60.62 C 330.96 59.53 331.31 58.44 331.67 57.35 C 332.68 53.01 335.09 49.32 338.46 46.45 C 341.57 46.80 345.40 45.66 347.87 48.13 C 352.62 51.95 349.85 59.21 354.00 63.50 C 357.07 58.57 356.00 51.75 360.74 47.75 M 365.38 53.43 C 364.59 54.56 363.70 55.65 363.15 56.92 C 361.54 63.23 360.85 69.78 361.45 76.28 C 362.25 78.29 364.57 77.60 366.24 77.82 C 368.72 74.40 369.48 70.17 369.56 66.03 C 369.59 61.83 370.40 57.45 368.83 53.41 C 367.68 53.42 366.53 53.43 365.38 53.43 M 337.61 58.34 C 336.28 64.00 334.62 69.82 335.57 75.68 C 336.00 77.74 337.79 79.72 340.07 79.48 C 342.92 78.66 344.01 75.57 344.55 72.96 C 345.44 67.86 346.98 62.82 346.51 57.59 C 345.32 56.37 344.16 55.13 343.01 53.88 C 340.42 54.07 338.19 55.76 337.61 58.34 Z" />
<path fill="#ff0000" opacity="1.00" d=" M 315.61 48.83 C 317.63 46.77 320.67 47.46 323.25 47.26 C 326.96 49.98 329.41 54.36 328.49 59.06 C 326.94 59.74 325.37 60.36 323.80 60.97 C 322.90 59.46 321.99 57.95 321.09 56.44 C 320.28 56.44 318.64 56.46 317.83 56.46 C 313.95 63.02 313.49 71.40 315.33 78.67 C 316.78 78.55 318.23 78.44 319.68 78.33 C 319.52 76.72 319.38 75.12 319.15 73.53 C 318.88 71.30 318.89 69.05 318.97 66.81 C 321.60 66.68 324.25 66.74 326.88 66.97 C 324.79 73.00 325.47 79.44 325.24 85.70 C 323.79 84.92 322.42 83.92 320.79 83.58 C 319.56 84.36 318.62 85.51 317.61 86.54 C 316.00 86.58 314.40 86.60 312.80 86.63 C 312.47 86.63 311.81 86.63 311.48 86.63 C 310.59 85.22 309.70 83.80 308.77 82.42 C 307.30 78.46 307.30 74.20 307.39 70.03 C 307.76 62.39 309.56 54.07 315.61 48.83 Z" />
<path fill="#ff0000" opacity="1.00" d=" M 407.17 86.65 C 406.55 82.76 407.22 78.41 409.69 75.24 C 411.76 75.44 413.81 75.84 415.73 76.67 C 415.19 79.91 414.78 83.18 414.39 86.44 C 411.98 86.52 409.57 86.58 407.17 86.65 Z" />
</g>
<g id="#900000ff">
<path fill="#900000" opacity="1.00" d=" M 353.91 57.22 C 356.00 51.90 358.79 46.31 364.06 43.53 C 366.88 42.82 371.58 41.95 373.03 45.25 C 368.83 44.42 363.69 43.98 360.74 47.75 C 356.00 51.75 357.07 58.57 354.00 63.50 C 349.85 59.21 352.62 51.95 347.87 48.13 C 345.40 45.66 341.57 46.80 338.46 46.45 C 341.43 43.95 346.26 44.33 348.82 47.25 C 351.90 49.74 352.14 53.92 353.91 57.22 Z" />
</g>
<g id="#8e0000ff">
<path fill="#8e0000" opacity="1.00" d=" M 374.62 46.95 C 375.85 47.47 377.09 48.30 377.23 49.77 C 377.78 53.81 378.44 57.86 380.02 61.65 C 382.85 57.16 380.86 51.61 382.83 46.86 C 382.67 53.19 383.27 59.62 381.75 65.83 C 380.72 70.09 380.93 74.53 379.81 78.77 C 379.53 76.15 379.11 73.55 378.73 70.95 C 377.83 72.35 376.91 73.75 376.07 75.20 C 376.40 70.78 377.28 66.43 377.57 62.02 C 377.89 56.82 376.31 51.79 374.62 46.95 Z" />
</g>
<g id="#8f0000ff">
<path fill="#8f0000" opacity="1.00" d=" M 337.61 58.34 C 338.19 55.76 340.42 54.07 343.01 53.88 C 344.16 55.13 345.32 56.37 346.51 57.59 C 346.98 62.82 345.44 67.86 344.55 72.96 C 344.01 75.57 342.92 78.66 340.07 79.48 C 337.79 79.72 336.00 77.74 335.57 75.68 C 334.62 69.82 336.28 64.00 337.61 58.34 M 339.27 59.23 C 338.09 65.36 336.20 71.76 338.13 77.95 C 339.67 77.63 341.74 77.41 342.25 75.60 C 343.35 70.80 343.53 65.84 344.53 61.01 C 345.18 58.54 343.69 56.54 341.96 54.98 C 340.91 56.28 339.52 57.49 339.27 59.23 Z" />
</g>
<g id="#030000ff">
<path fill="#030000" opacity="1.00" d=" M 329.54 56.19 C 330.07 56.48 331.14 57.06 331.67 57.35 C 331.31 58.44 330.96 59.53 330.62 60.62 C 329.86 62.24 329.00 63.81 328.14 65.38 C 325.22 65.27 322.27 64.92 319.37 65.41 C 316.83 66.69 317.41 69.95 317.27 72.29 C 317.74 72.60 318.68 73.22 319.15 73.53 C 319.38 75.12 319.52 76.72 319.68 78.33 C 318.23 78.44 316.78 78.55 315.33 78.67 C 313.49 71.40 313.95 63.02 317.83 56.46 C 318.64 56.46 320.28 56.44 321.09 56.44 C 321.99 57.95 322.90 59.46 323.80 60.97 C 325.37 60.36 326.94 59.74 328.49 59.06 C 328.87 58.12 329.22 57.16 329.54 56.19 Z" />
</g>
<g id="#9c0000ff">
<path fill="#9c0000" opacity="1.00" d=" M 328.14 65.38 C 329.00 63.81 329.86 62.24 330.62 60.62 C 330.69 66.75 330.14 72.94 331.17 79.01 C 331.81 82.92 334.89 86.74 338.94 87.33 C 342.06 87.22 344.23 84.70 346.69 83.11 L 348.08 82.70 C 346.65 86.41 342.73 88.63 338.99 89.30 C 335.96 88.75 333.72 86.42 331.83 84.17 C 329.45 81.48 330.68 76.96 327.59 74.78 C 326.78 78.62 326.90 82.56 326.48 86.44 C 324.78 88.51 322.38 86.21 320.26 86.36 C 319.21 86.94 318.35 87.77 317.44 88.53 C 315.62 88.41 312.91 89.37 312.80 86.63 C 314.40 86.60 316.00 86.58 317.61 86.54 C 318.62 85.51 319.56 84.36 320.79 83.58 C 322.42 83.92 323.79 84.92 325.24 85.70 C 325.47 79.44 324.79 73.00 326.88 66.97 C 324.25 66.74 321.60 66.68 318.97 66.81 C 318.89 69.05 318.88 71.30 319.15 73.53 C 318.68 73.22 317.74 72.60 317.27 72.29 C 317.41 69.95 316.83 66.69 319.37 65.41 C 322.27 64.92 325.22 65.27 328.14 65.38 Z" />
</g>
<g id="#00000083">
<path fill="#000000" opacity="0.51" d=" M 424.44 79.33 C 425.48 77.61 426.38 75.78 426.88 73.81 C 425.75 81.17 425.42 88.62 424.48 96.00 L 356.45 96.00 C 354.82 94.61 353.33 93.07 351.85 91.53 C 349.76 92.71 347.92 94.27 346.27 96.00 L 329.03 96.00 C 329.59 95.06 330.15 94.12 330.71 93.18 C 333.17 93.87 335.50 94.98 337.99 95.61 C 342.68 95.89 346.54 93.04 350.20 90.53 C 354.39 89.92 356.78 95.32 360.96 95.48 C 368.97 95.49 376.99 95.39 384.99 94.95 C 395.64 95.73 406.31 95.25 416.97 95.63 C 418.62 95.49 420.53 95.98 421.97 94.94 C 423.68 89.90 423.15 84.46 424.44 79.33 Z" />
</g>
<g id="#878787ff">
<path fill="#878787" opacity="1.00" d=" M 12.27 85.61 C 15.91 83.93 20.07 85.11 23.94 84.81 C 47.25 85.43 70.59 85.47 93.91 85.54 C 93.95 85.95 94.02 86.78 94.05 87.20 C 85.36 87.05 76.65 87.45 67.97 86.84 C 49.89 86.35 31.77 86.83 13.71 86.04 L 12.27 85.61 Z" />
</g>
<g id="#616161ff">
<path fill="#616161" opacity="1.00" d=" M 93.91 85.54 C 104.61 85.60 115.34 85.25 126.01 86.14 C 183.99 86.57 241.96 87.59 299.94 87.70 C 302.64 87.71 305.86 88.56 307.38 90.96 C 307.16 91.33 306.74 92.07 306.52 92.44 C 291.68 92.95 276.80 92.13 261.95 92.64 C 239.32 92.56 216.69 92.46 194.06 92.24 C 185.73 91.36 177.35 91.56 168.98 91.30 C 166.20 91.14 163.17 91.83 160.64 90.32 C 166.39 89.21 172.18 90.42 177.97 90.36 C 192.99 90.48 208.01 90.67 223.03 90.77 C 236.35 91.62 249.71 91.41 263.05 91.44 C 270.65 90.19 278.38 90.51 286.01 91.28 C 292.53 91.27 299.07 91.74 305.58 91.12 C 302.89 88.83 299.24 89.61 296.01 89.48 C 280.00 89.37 263.98 89.62 247.99 88.77 C 227.32 88.31 206.63 88.98 185.99 87.79 C 155.34 87.64 124.70 87.22 94.05 87.20 C 94.02 86.78 93.95 85.95 93.91 85.54 Z" />
</g>
<g id="#0000003d">
<path fill="#000000" opacity="0.24" d=" M 4.52 92.64 C 16.34 92.72 28.18 92.38 39.97 93.27 C 69.31 93.50 98.65 93.52 127.98 93.78 C 136.63 94.83 145.29 93.39 153.94 93.83 C 162.41 94.60 170.92 94.27 179.41 94.40 C 176.40 94.82 173.45 95.58 170.44 96.00 L 144.54 96.00 C 142.04 95.66 139.52 95.35 136.99 95.36 C 124.00 95.40 111.01 94.64 98.02 95.15 C 67.15 94.81 36.27 94.71 5.40 94.51 C 5.18 94.04 4.74 93.10 4.52 92.64 Z" />
</g>
<g id="#00000063">
<path fill="#000000" opacity="0.39" d=" M 179.41 94.40 C 187.96 94.05 196.52 94.64 205.06 94.02 C 217.01 95.10 229.04 93.89 240.97 95.30 C 262.11 95.71 283.28 95.31 304.42 96.00 L 170.44 96.00 C 173.45 95.58 176.40 94.82 179.41 94.40 Z" />
</g>
</svg>
