<?xml version="1.0" encoding="UTF-8" ?>
<!DOCTYPE svg PUBLIC "-//W3C//DTD SVG 1.1//EN" "http://www.w3.org/Graphics/SVG/1.1/DTD/svg11.dtd">
<svg width="288pt" height="204pt" viewBox="0 0 288 204" version="1.1" xmlns="http://www.w3.org/2000/svg">
<g id="#f9f8f8fd">
<path fill="#f9f8f8" opacity="1.00" d=" M 275.40 5.15 C 279.64 3.67 283.46 1.08 287.83 0.01 C 287.92 3.05 286.55 5.78 285.90 8.67 C 282.70 23.04 279.67 37.45 276.35 51.80 C 274.05 62.34 271.91 72.92 269.38 83.41 C 265.45 84.66 261.47 85.74 257.46 86.67 C 234.52 92.40 211.62 98.26 188.69 104.01 C 183.51 105.28 178.39 106.95 173.06 107.51 C 172.84 106.60 172.41 104.78 172.19 103.87 C 203.40 95.85 234.71 88.25 265.89 80.09 C 270.66 58.86 275.21 37.57 279.95 16.33 C 280.62 13.28 281.39 10.23 281.74 7.11 C 202.31 40.80 123.05 74.90 43.68 108.73 C 37.44 111.64 30.62 113.42 25.03 117.59 C 36.08 115.76 47.35 116.17 58.45 114.73 C 62.85 114.35 67.27 114.33 71.68 114.36 C 70.67 119.46 70.18 124.66 70.34 129.87 C 72.97 129.04 75.59 128.15 78.21 127.27 C 78.16 123.04 78.20 118.80 78.01 114.56 C 82.25 113.21 86.55 111.67 91.04 111.48 C 94.09 111.12 96.20 113.91 98.99 114.50 C 101.40 114.22 103.73 113.52 106.13 113.16 C 106.22 111.34 106.33 109.53 106.44 107.71 C 110.04 106.70 113.68 105.82 117.35 105.10 C 117.81 106.61 118.27 108.11 118.71 109.62 C 121.45 109.32 124.21 109.41 126.96 109.25 C 130.03 108.40 132.64 105.94 136.01 106.29 C 138.98 106.46 141.85 105.69 144.44 104.29 C 147.82 102.36 152.00 104.26 155.33 102.23 C 158.51 100.27 162.32 99.68 165.96 100.53 C 171.07 103.38 170.87 109.97 170.64 115.04 C 170.87 120.71 165.74 126.15 159.97 125.70 C 155.38 125.10 151.64 128.23 147.30 128.96 C 141.14 130.06 135.13 131.84 128.90 132.51 C 120.81 135.68 112.05 136.43 103.78 139.09 C 95.20 140.41 86.94 143.42 78.26 144.05 C 78.58 140.04 78.22 136.03 77.53 132.08 C 73.52 133.18 69.50 134.27 65.36 134.79 C 65.45 129.32 66.56 123.93 66.59 118.45 C 59.68 118.56 52.85 119.80 45.93 119.71 C 37.95 120.65 29.88 120.32 21.92 121.47 C 15.94 121.44 10.05 122.85 4.06 122.49 C 4.70 119.36 8.68 119.41 11.01 118.05 C 99.18 80.51 187.26 42.75 275.40 5.15 M 158.20 105.36 C 156.52 106.38 155.88 108.35 154.92 109.94 C 152.35 107.61 148.98 106.45 145.63 107.86 C 143.68 109.50 142.59 111.85 141.21 113.94 C 140.33 112.73 139.75 111.27 138.60 110.28 C 135.72 109.93 132.69 110.48 130.57 112.59 C 130.07 114.02 130.36 115.56 130.36 117.04 C 132.42 115.66 134.02 113.47 136.59 113.04 C 136.59 114.15 136.58 115.26 136.56 116.37 C 133.97 117.88 130.88 119.15 129.48 122.00 C 129.35 123.64 129.51 125.29 129.62 126.94 C 130.21 127.34 131.40 128.15 131.99 128.55 C 134.62 127.37 137.26 126.02 140.23 126.19 C 140.73 125.14 141.24 124.09 141.75 123.04 C 144.33 124.50 147.39 125.29 150.26 124.13 C 152.26 122.69 153.50 120.49 154.95 118.55 C 155.80 119.63 156.65 120.71 157.51 121.78 C 159.14 121.69 160.81 121.74 162.42 121.37 C 164.71 119.87 167.97 116.81 165.10 114.19 C 163.84 115.60 162.65 117.07 161.48 118.56 C 160.94 118.58 159.87 118.61 159.33 118.63 C 158.96 117.34 158.61 116.05 158.30 114.74 C 161.20 113.73 164.07 112.62 166.84 111.29 C 166.57 108.99 165.93 106.78 165.18 104.61 C 162.86 104.38 160.18 103.75 158.20 105.36 M 110.54 110.53 C 110.29 115.35 110.53 120.17 110.44 124.99 C 110.54 127.68 110.09 130.59 111.62 132.98 C 112.37 132.54 113.87 131.66 114.62 131.22 C 114.09 124.33 114.36 117.43 114.40 110.53 C 113.43 110.53 111.50 110.53 110.54 110.53 M 118.93 114.92 C 114.96 118.15 116.63 123.70 116.46 128.13 C 117.29 128.99 118.12 129.85 118.95 130.73 C 123.21 131.47 127.51 128.72 127.96 124.26 C 125.23 123.53 123.96 125.75 122.68 127.66 C 122.10 127.61 120.95 127.51 120.37 127.47 C 120.36 125.89 120.38 124.31 120.41 122.74 C 122.84 122.38 125.22 121.76 127.63 121.32 C 127.81 118.50 128.00 115.38 125.69 113.31 C 123.40 113.49 120.57 112.86 118.93 114.92 M 82.35 118.22 C 82.07 125.36 82.21 132.55 82.46 139.70 C 83.29 139.37 84.95 138.71 85.78 138.38 C 85.75 135.18 85.74 131.99 85.82 128.79 C 87.31 128.70 88.80 128.63 90.29 128.57 C 91.05 131.21 91.50 133.91 91.51 136.67 C 92.52 136.63 94.53 136.57 95.54 136.53 C 95.90 132.82 94.50 129.43 93.30 126.02 C 94.53 123.04 95.10 119.90 94.43 116.69 C 90.59 114.65 85.75 116.14 82.35 118.22 M 99.48 119.49 C 96.29 122.43 97.37 127.19 97.41 131.04 C 97.39 133.99 100.94 136.73 103.69 134.96 C 106.71 134.14 108.18 131.40 108.67 128.49 C 106.07 127.73 104.95 130.05 103.67 131.78 C 103.02 131.74 101.71 131.66 101.06 131.62 C 99.12 126.88 105.63 126.35 108.67 125.18 C 108.49 122.97 108.57 120.61 107.25 118.70 C 105.22 116.38 101.44 117.63 99.48 119.49 Z" />
<path fill="#f9f8f8" opacity="1.00" d=" M 159.61 107.46 C 160.62 107.43 161.62 107.40 162.63 107.37 C 162.56 108.74 162.49 110.10 162.43 111.47 C 161.00 111.29 158.90 112.07 158.45 110.12 C 158.74 109.46 159.32 108.13 159.61 107.46 Z" />
<path fill="#f9f8f8" opacity="1.00" d=" M 146.59 110.25 C 149.30 110.64 151.87 111.84 154.68 111.41 C 154.65 112.54 154.57 114.79 154.54 115.91 C 151.84 114.96 149.11 114.10 146.33 113.42 C 146.41 112.36 146.50 111.30 146.59 110.25 Z" />
<path fill="#f9f8f8" opacity="1.00" d=" M 140.58 113.98 C 143.34 116.02 146.29 117.81 149.79 118.13 C 149.71 119.37 149.61 120.61 149.50 121.85 C 146.49 121.25 143.67 119.71 140.51 120.66 C 140.55 118.43 140.53 116.20 140.58 113.98 Z" />
<path fill="#f9f8f8" opacity="1.00" d=" M 120.45 116.47 C 122.04 116.50 124.16 115.88 124.66 117.98 C 123.99 119.72 122.04 120.08 120.57 120.85 C 120.47 119.39 120.43 117.93 120.45 116.47 Z" />
<path fill="#f9f8f8" opacity="1.00" d=" M 85.75 119.68 C 87.36 119.56 88.97 119.47 90.59 119.41 C 90.47 121.40 91.38 124.15 89.28 125.38 C 88.14 125.90 86.84 125.56 85.64 125.62 C 85.66 123.64 85.69 121.66 85.75 119.68 Z" />
<path fill="#f9f8f8" opacity="1.00" d=" M 133.23 124.88 C 132.85 122.37 133.60 120.03 136.16 119.10 C 136.48 119.85 137.10 121.36 137.41 122.11 C 136.68 123.91 135.11 124.78 133.23 124.88 Z" />
<path fill="#f9f8f8" opacity="1.00" d=" M 101.12 124.84 C 101.37 123.17 100.88 120.90 103.00 120.32 C 104.88 120.69 104.68 122.53 104.84 124.01 C 103.60 124.30 102.36 124.57 101.12 124.84 Z" />
</g>
<g id="#000000ff">
<path fill="#000000" opacity="1.00" d=" M 43.68 108.73 C 123.05 74.90 202.31 40.80 281.74 7.11 C 281.39 10.23 280.62 13.28 279.95 16.33 C 275.21 37.57 270.66 58.86 265.89 80.09 C 234.71 88.25 203.40 95.85 172.19 103.87 C 172.41 104.78 172.84 106.60 173.06 107.51 C 174.86 112.29 174.64 117.55 173.00 122.33 C 170.68 126.07 166.43 128.52 161.99 128.28 C 157.68 127.82 154.22 130.87 150.07 131.32 C 144.31 131.89 138.92 134.28 133.14 134.63 C 129.74 135.33 126.67 137.21 123.15 137.49 C 116.28 138.36 109.80 140.98 102.98 142.08 C 96.62 143.17 90.45 145.16 84.11 146.29 C 82.05 145.86 80.19 144.82 78.26 144.05 C 86.94 143.42 95.20 140.41 103.78 139.09 C 112.05 136.43 120.81 135.68 128.90 132.51 C 135.13 131.84 141.14 130.06 147.30 128.96 C 151.64 128.23 155.38 125.10 159.97 125.70 C 165.74 126.15 170.87 120.71 170.64 115.04 C 170.87 109.97 171.07 103.38 165.96 100.53 C 162.32 99.68 158.51 100.27 155.33 102.23 C 152.00 104.26 147.82 102.36 144.44 104.29 C 141.85 105.69 138.98 106.46 136.01 106.29 C 132.64 105.94 130.03 108.40 126.96 109.25 C 124.21 109.41 121.45 109.32 118.71 109.62 C 118.27 108.11 117.81 106.61 117.35 105.10 C 113.68 105.82 110.04 106.70 106.44 107.71 C 106.33 109.53 106.22 111.34 106.13 113.16 C 103.73 113.52 101.40 114.22 98.99 114.50 C 96.20 113.91 94.09 111.12 91.04 111.48 C 86.55 111.67 82.25 113.21 78.01 114.56 C 78.20 118.80 78.16 123.04 78.21 127.27 C 75.59 128.15 72.97 129.04 70.34 129.87 C 70.18 124.66 70.67 119.46 71.68 114.36 C 67.27 114.33 62.85 114.35 58.45 114.73 C 47.35 116.17 36.08 115.76 25.03 117.59 C 30.62 113.42 37.44 111.64 43.68 108.73 Z" />
<path fill="#000000" opacity="1.00" d=" M 158.20 105.36 C 160.18 103.75 162.86 104.38 165.18 104.61 C 165.93 106.78 166.57 108.99 166.84 111.29 C 164.07 112.62 161.20 113.73 158.30 114.74 C 158.61 116.05 158.96 117.34 159.33 118.63 C 159.87 118.61 160.94 118.58 161.48 118.56 C 162.65 117.07 163.84 115.60 165.10 114.19 C 167.97 116.81 164.71 119.87 162.42 121.37 C 160.81 121.74 159.14 121.69 157.51 121.78 C 156.65 120.71 155.80 119.63 154.95 118.55 C 153.50 120.49 152.26 122.69 150.26 124.13 C 147.39 125.29 144.33 124.50 141.75 123.04 C 141.24 124.09 140.73 125.14 140.23 126.19 C 137.26 126.02 134.62 127.37 131.99 128.55 C 131.40 128.15 130.21 127.34 129.62 126.94 C 129.51 125.29 129.35 123.64 129.48 122.00 C 130.88 119.15 133.97 117.88 136.56 116.37 C 136.58 115.26 136.59 114.15 136.59 113.04 C 134.02 113.47 132.42 115.66 130.36 117.04 C 130.36 115.56 130.07 114.02 130.57 112.59 C 132.69 110.48 135.72 109.93 138.60 110.28 C 139.75 111.27 140.33 112.73 141.21 113.94 C 142.59 111.85 143.68 109.50 145.63 107.86 C 148.98 106.45 152.35 107.61 154.92 109.94 C 155.88 108.35 156.52 106.38 158.20 105.36 M 159.61 107.46 C 159.32 108.13 158.74 109.46 158.45 110.12 C 158.90 112.07 161.00 111.29 162.43 111.47 C 162.49 110.10 162.56 108.74 162.63 107.37 C 161.62 107.40 160.62 107.43 159.61 107.46 M 146.59 110.25 C 146.50 111.30 146.41 112.36 146.33 113.42 C 149.11 114.10 151.84 114.96 154.54 115.91 C 154.57 114.79 154.65 112.54 154.68 111.41 C 151.87 111.84 149.30 110.64 146.59 110.25 M 140.58 113.98 C 140.53 116.20 140.55 118.43 140.51 120.66 C 143.67 119.71 146.49 121.25 149.50 121.85 C 149.61 120.61 149.71 119.37 149.79 118.13 C 146.29 117.81 143.34 116.02 140.58 113.98 M 133.23 124.88 C 135.11 124.78 136.68 123.91 137.41 122.11 C 137.10 121.36 136.48 119.85 136.16 119.10 C 133.60 120.03 132.85 122.37 133.23 124.88 Z" />
<path fill="#000000" opacity="1.00" d=" M 110.54 110.53 C 111.50 110.53 113.43 110.53 114.40 110.53 C 114.36 117.43 114.09 124.33 114.62 131.22 C 113.87 131.66 112.37 132.54 111.62 132.98 C 110.09 130.59 110.54 127.68 110.44 124.99 C 110.53 120.17 110.29 115.35 110.54 110.53 Z" />
<path fill="#000000" opacity="1.00" d=" M 118.93 114.92 C 120.57 112.86 123.40 113.49 125.69 113.31 C 128.00 115.38 127.81 118.50 127.63 121.32 C 125.22 121.76 122.84 122.38 120.41 122.74 C 120.38 124.31 120.36 125.89 120.37 127.47 C 120.95 127.51 122.10 127.61 122.68 127.66 C 123.96 125.75 125.23 123.53 127.96 124.26 C 127.51 128.72 123.21 131.47 118.95 130.73 C 118.12 129.85 117.29 128.99 116.46 128.13 C 116.63 123.70 114.96 118.15 118.93 114.92 M 120.45 116.47 C 120.43 117.93 120.47 119.39 120.57 120.85 C 122.04 120.08 123.99 119.72 124.66 117.98 C 124.16 115.88 122.04 116.50 120.45 116.47 Z" />
<path fill="#000000" opacity="1.00" d=" M 82.35 118.22 C 85.75 116.14 90.59 114.65 94.43 116.69 C 95.10 119.90 94.53 123.04 93.30 126.02 C 94.50 129.43 95.90 132.82 95.54 136.53 C 94.53 136.57 92.52 136.63 91.51 136.67 C 91.50 133.91 91.05 131.21 90.29 128.57 C 88.80 128.63 87.31 128.70 85.82 128.79 C 85.74 131.99 85.75 135.18 85.78 138.38 C 84.95 138.71 83.29 139.37 82.46 139.70 C 82.21 132.55 82.07 125.36 82.35 118.22 M 85.75 119.68 C 85.69 121.66 85.66 123.64 85.64 125.62 C 86.84 125.56 88.14 125.90 89.28 125.38 C 91.38 124.15 90.47 121.40 90.59 119.41 C 88.97 119.47 87.36 119.56 85.75 119.68 Z" />
<path fill="#000000" opacity="1.00" d=" M 99.48 119.49 C 101.44 117.63 105.22 116.38 107.25 118.70 C 108.57 120.61 108.49 122.97 108.67 125.18 C 105.63 126.35 99.12 126.88 101.06 131.62 C 101.71 131.66 103.02 131.74 103.67 131.78 C 104.95 130.05 106.07 127.73 108.67 128.49 C 108.18 131.40 106.71 134.14 103.69 134.96 C 100.94 136.73 97.39 133.99 97.41 131.04 C 97.37 127.19 96.29 122.43 99.48 119.49 M 101.12 124.84 C 102.36 124.57 103.60 124.30 104.84 124.01 C 104.68 122.53 104.88 120.69 103.00 120.32 C 100.88 120.90 101.37 123.17 101.12 124.84 Z" />
</g>
<g id="#ff0000ff">
<path fill="#ff0000" opacity="1.00" d=" M 276.35 51.80 C 280.13 50.65 283.95 49.59 287.89 49.17 C 287.96 52.06 287.17 54.83 286.43 57.59 C 283.72 72.87 281.33 88.21 278.54 103.47 C 268.37 106.02 257.89 106.91 247.63 109.03 C 233.72 111.22 219.95 114.28 206.02 116.34 C 198.27 117.11 190.71 119.16 183.01 120.26 C 179.61 120.59 176.24 121.26 173.00 122.33 C 174.64 117.55 174.86 112.29 173.06 107.51 C 178.39 106.95 183.51 105.28 188.69 104.01 C 211.62 98.26 234.52 92.40 257.46 86.67 C 261.47 85.74 265.45 84.66 269.38 83.41 C 271.91 72.92 274.05 62.34 276.35 51.80 Z" />
<path fill="#ff0000" opacity="1.00" d=" M 45.93 119.71 C 52.85 119.80 59.68 118.56 66.59 118.45 C 66.56 123.93 65.45 129.32 65.36 134.79 C 69.50 134.27 73.52 133.18 77.53 132.08 C 78.22 136.03 78.58 140.04 78.26 144.05 C 77.95 142.09 77.74 140.11 77.55 138.14 C 71.49 138.71 65.63 140.82 59.48 140.63 C 59.51 137.33 60.18 134.10 60.41 130.82 C 60.10 130.49 59.47 129.83 59.15 129.50 C 46.40 129.93 33.78 132.43 21.00 132.44 C 16.56 132.47 12.24 133.89 7.79 133.48 C 11.59 130.02 16.71 128.70 21.21 126.42 C 23.91 125.01 27.32 124.37 28.97 121.55 C 26.62 121.38 24.27 121.40 21.92 121.47 C 29.88 120.32 37.95 120.65 45.93 119.71 Z" />
<path fill="#ff0000" opacity="1.00" d=" M 167.96 141.76 C 181.86 140.81 195.69 138.72 209.62 138.36 C 206.32 146.94 202.40 155.28 199.15 163.89 C 197.99 166.52 197.23 169.51 195.05 171.51 C 152.20 171.84 109.34 171.45 66.49 171.72 C 68.59 180.95 71.84 189.97 72.88 199.40 C 64.52 199.57 56.33 201.41 47.99 201.80 C 44.98 202.02 42.08 202.92 39.28 204.00 L 29.01 204.00 C 23.97 187.60 17.71 171.58 12.11 155.36 C 11.54 153.59 11.38 151.74 11.19 149.90 C 24.45 148.63 37.49 145.55 50.66 143.72 C 55.64 145.32 58.44 152.50 64.37 151.29 C 73.50 149.72 82.79 149.87 91.96 148.64 C 104.25 147.97 116.42 145.85 128.73 145.38 C 141.76 143.64 154.90 143.26 167.96 141.76 Z" />
</g>
</svg>
