<?xml version="1.0" encoding="UTF-8" ?>
<!DOCTYPE svg PUBLIC "-//W3C//DTD SVG 1.1//EN" "http://www.w3.org/Graphics/SVG/1.1/DTD/svg11.dtd">
<svg width="640pt" height="480pt" viewBox="0 0 640 480" version="1.1" xmlns="http://www.w3.org/2000/svg">
<g id="#ff0000ff">
<path fill="#ff0000" opacity="1.00" d=" M 0.00 0.00 L 36.12 0.00 C 23.15 13.76 11.10 28.39 0.00 43.70 L 0.00 0.00 Z" />
<path fill="#ff0000" opacity="1.00" d=" M 106.14 0.00 L 167.22 0.00 C 129.44 24.18 96.22 55.45 69.67 91.60 C 37.20 135.73 14.88 187.30 5.11 241.22 C 2.65 254.19 1.22 267.31 0.00 280.44 L 0.00 138.46 C 24.66 85.27 61.21 37.65 106.14 0.00 Z" />
<path fill="#ff0000" opacity="1.00" d=" M 129.69 78.67 C 158.16 49.30 192.31 25.52 229.56 8.66 C 230.19 10.05 230.83 11.43 231.47 12.82 C 236.64 24.17 241.77 35.54 247.04 46.85 C 193.14 71.01 147.16 112.35 117.44 163.39 C 94.59 202.35 81.31 246.84 78.99 291.95 C 75.16 358.83 95.85 426.87 136.72 480.00 L 85.78 480.00 C 75.35 463.35 66.52 445.70 59.32 427.42 C 34.90 365.81 30.12 296.73 45.24 232.25 C 58.65 174.63 88.24 120.89 129.69 78.67 Z" />
<path fill="#ff0000" opacity="1.00" d=" M 177.27 154.23 C 200.88 125.38 231.28 102.18 265.27 86.91 C 267.76 92.20 270.02 97.61 272.66 102.85 C 274.78 107.97 277.21 112.95 279.47 118.01 C 253.49 129.67 229.92 146.69 210.76 167.76 C 188.22 192.46 171.74 222.69 163.41 255.09 C 153.91 291.59 154.62 330.68 165.42 366.82 C 179.06 412.80 209.34 453.62 249.39 480.00 L 195.18 480.00 C 165.09 450.56 142.78 413.19 131.49 372.61 C 120.25 332.48 119.64 289.44 129.66 249.00 C 138.17 214.37 154.65 181.77 177.27 154.23 Z" />
<path fill="#ff0000" opacity="1.00" d=" M 233.69 199.64 C 250.30 179.58 271.54 163.38 295.35 152.79 C 295.79 153.77 296.24 154.76 296.70 155.74 C 298.30 159.27 299.92 162.79 301.53 166.32 C 302.57 168.68 303.65 171.03 304.84 173.33 C 305.06 173.84 305.49 174.85 305.71 175.36 C 306.12 176.44 306.55 177.51 306.99 178.59 C 282.28 189.39 260.94 207.63 246.20 230.18 C 231.09 253.08 223.03 280.50 223.23 307.93 C 223.25 336.49 232.27 364.96 248.76 388.27 C 262.54 407.83 281.32 423.89 302.92 434.21 C 340.47 452.56 386.25 452.67 423.99 434.78 C 428.06 443.26 431.81 451.89 435.79 460.41 C 394.61 479.88 345.50 481.54 303.06 465.04 C 263.53 449.90 230.26 419.27 211.89 381.15 C 197.90 352.44 192.42 319.72 196.09 288.01 C 199.66 255.72 212.94 224.62 233.69 199.64 Z" />
<path fill="#ff0000" opacity="1.00" d=" M 276.36 257.32 C 287.01 238.56 303.88 223.36 323.72 214.85 C 324.50 216.67 325.33 218.47 326.16 220.28 C 326.83 221.75 327.49 223.23 328.16 224.71 C 329.07 226.71 330.01 228.71 330.92 230.72 C 331.38 231.72 331.83 232.74 332.30 233.75 C 333.57 236.53 334.83 239.33 336.15 242.10 C 324.35 247.49 313.73 255.66 306.27 266.35 C 296.28 280.31 291.74 298.03 293.68 315.08 C 295.61 333.94 305.64 351.75 320.66 363.30 C 341.31 379.67 371.30 382.65 394.90 371.04 C 399.21 380.09 403.23 389.27 407.46 398.36 C 388.81 407.41 367.28 410.24 346.88 406.74 C 324.77 403.06 304.07 391.62 289.12 374.93 C 275.08 359.50 266.08 339.59 263.79 318.85 C 261.41 297.70 265.69 275.79 276.36 257.32 Z" />
<path fill="#ff0000" opacity="1.00" d=" M 0.00 333.57 C 3.75 384.63 18.07 434.98 42.51 480.00 L 1.76 480.00 C 1.70 478.73 1.21 477.45 0.00 476.88 L 0.00 333.57 Z" />
</g>
<g id="#000000ff">
<path fill="#000000" opacity="1.00" d=" M 36.12 0.00 L 106.14 0.00 C 61.21 37.65 24.66 85.27 0.00 138.46 L 0.00 43.70 C 11.10 28.39 23.15 13.76 36.12 0.00 Z" />
<path fill="#000000" opacity="1.00" d=" M 167.22 0.00 L 229.92 0.00 C 235.84 2.82 242.37 3.99 248.52 6.21 C 250.39 12.21 252.09 18.29 254.28 24.19 C 257.86 19.02 261.50 13.90 265.10 8.75 C 271.41 8.74 277.72 8.78 284.03 8.72 C 281.84 5.82 279.72 2.85 277.44 0.00 L 287.40 0.00 C 291.07 4.80 294.69 9.64 298.31 14.48 C 288.53 14.61 278.77 14.44 269.00 14.22 C 263.20 22.17 257.88 30.48 251.87 38.26 C 248.75 28.96 246.12 19.49 242.87 10.24 C 237.97 8.83 233.13 7.25 228.25 5.80 C 228.68 6.76 229.12 7.71 229.56 8.66 C 192.31 25.52 158.16 49.30 129.69 78.67 C 88.24 120.89 58.65 174.63 45.24 232.25 C 30.12 296.73 34.90 365.81 59.32 427.42 C 66.52 445.70 75.35 463.35 85.78 480.00 L 42.51 480.00 C 18.07 434.98 3.75 384.63 0.00 333.57 L 0.00 280.44 C 1.22 267.31 2.65 254.19 5.11 241.22 C 14.88 187.30 37.20 135.73 69.67 91.60 C 96.22 55.45 129.44 24.18 167.22 0.00 Z" />
<path fill="#000000" opacity="1.00" d=" M 243.56 0.00 L 272.24 0.00 C 273.35 1.30 274.22 2.77 275.14 4.22 C 271.10 4.28 267.06 4.24 263.02 4.25 C 260.52 7.57 258.39 11.17 255.66 14.31 C 254.37 10.38 253.23 6.40 251.83 2.50 C 249.06 1.72 246.32 0.82 243.56 0.00 Z" />
<path fill="#000000" opacity="1.00" d=" M 297.71 0.00 L 309.08 0.00 C 315.87 8.99 322.66 17.98 329.42 26.99 C 312.02 26.78 294.62 26.66 277.22 26.46 C 269.09 37.77 261.13 49.19 253.21 60.65 C 254.08 62.44 254.93 64.25 255.76 66.07 C 263.99 54.51 272.05 42.84 280.26 31.26 C 300.62 31.27 320.97 31.67 341.33 31.76 C 333.41 21.14 325.53 10.49 317.44 0.00 L 334.07 0.00 C 343.18 5.79 352.28 11.62 361.34 17.49 C 375.33 11.77 389.20 5.73 403.18 0.00 L 408.63 0.00 C 404.73 15.96 400.27 31.85 396.27 47.82 C 407.62 60.89 419.04 73.90 430.14 87.17 C 412.90 88.27 395.56 88.92 378.38 90.35 C 369.12 104.95 360.42 119.93 351.35 134.67 C 344.90 118.63 338.65 102.50 332.47 86.35 C 315.61 82.14 298.62 78.44 281.75 74.31 C 294.75 63.41 307.99 52.77 321.08 41.98 C 322.35 41.23 321.63 39.64 321.73 38.49 C 319.97 38.48 318.21 38.47 316.46 38.47 C 316.00 39.33 315.42 40.09 314.74 40.76 C 299.60 53.14 284.46 65.51 269.38 77.95 C 288.92 82.60 308.48 87.14 328.03 91.73 C 335.41 110.45 342.63 129.23 350.04 147.93 C 360.45 130.72 370.92 113.54 381.28 96.30 C 401.34 95.20 421.39 93.94 441.45 92.84 C 428.42 77.65 415.43 62.41 402.16 47.42 C 405.99 31.55 410.33 15.80 414.46 0.00 L 421.42 0.00 C 420.99 1.38 420.61 2.78 420.24 4.18 C 421.44 2.79 422.61 1.36 423.85 0.00 L 436.08 0.00 C 429.03 8.65 421.72 17.10 414.80 25.85 C 413.33 29.63 412.69 33.68 411.55 37.57 C 432.70 38.43 453.85 39.20 474.99 40.03 C 487.58 59.70 499.99 79.48 512.50 99.21 C 520.64 77.34 528.60 55.41 536.72 33.53 C 559.22 27.68 581.78 22.07 604.28 16.19 C 597.76 10.50 590.71 5.45 583.99 0.00 L 596.42 0.00 C 606.06 7.48 615.65 15.03 625.19 22.64 C 614.66 25.27 604.16 28.01 593.63 30.67 C 594.76 33.95 596.05 37.17 597.30 40.40 C 611.53 36.77 625.76 33.13 640.00 29.50 L 640.00 42.54 C 636.10 43.61 632.13 44.39 628.30 45.67 C 621.77 47.04 615.36 48.92 608.87 50.47 C 606.59 51.08 604.31 51.67 602.03 52.21 C 602.12 52.49 602.31 53.04 602.41 53.31 C 603.15 55.50 603.92 57.69 604.78 59.85 C 605.28 61.18 605.85 62.49 606.38 63.82 C 610.47 74.58 614.70 85.30 618.73 96.09 C 621.60 102.97 624.10 109.99 626.90 116.90 C 627.22 120.58 631.25 120.28 633.93 121.10 C 635.95 121.56 637.98 122.01 640.00 122.51 L 640.00 129.96 C 633.81 128.35 627.55 127.01 621.34 125.46 C 611.42 100.02 601.72 74.49 591.75 49.06 C 577.59 72.40 563.34 95.70 549.06 118.97 C 521.97 120.45 494.89 121.95 467.81 123.39 C 469.21 125.86 471.23 127.89 473.05 130.05 C 488.91 148.59 504.83 167.09 520.67 185.64 C 519.13 191.27 517.63 196.91 516.16 202.56 C 518.77 202.15 521.38 201.70 523.98 201.18 C 525.55 194.81 527.38 188.51 528.98 182.14 C 513.73 164.24 498.38 146.44 483.15 128.53 C 506.59 126.98 530.09 126.09 553.52 124.50 C 566.01 104.55 578.01 84.28 590.47 64.31 C 598.93 86.26 607.44 108.20 615.89 130.16 C 623.91 132.16 631.97 133.98 640.00 135.96 L 640.00 142.58 C 630.02 139.97 619.76 138.13 609.95 135.13 C 602.81 117.15 596.03 99.02 588.94 81.02 C 578.75 97.52 568.64 114.06 558.62 130.67 C 539.21 132.07 519.73 132.67 500.31 134.08 C 512.90 148.83 525.54 163.55 538.17 178.27 C 536.35 185.47 534.35 192.62 532.48 199.81 C 534.45 199.47 536.44 199.12 538.42 198.74 C 540.32 191.01 542.52 183.36 544.48 175.65 C 533.63 163.08 522.88 150.43 512.06 137.83 C 528.66 136.71 545.29 136.05 561.89 134.98 C 570.54 120.77 579.21 106.57 587.90 92.38 C 593.94 107.91 599.89 123.47 605.95 138.99 C 617.29 141.72 628.66 144.35 640.00 147.14 L 640.00 151.90 C 627.19 148.78 614.34 145.87 601.56 142.66 C 596.67 129.94 591.89 117.17 586.75 104.56 C 579.63 116.16 572.53 127.77 565.45 139.41 C 551.87 140.46 538.23 140.70 524.66 141.88 C 533.29 152.41 542.39 162.54 551.11 172.99 C 548.92 181.24 546.70 189.47 544.55 197.73 C 546.52 197.40 548.50 197.08 550.48 196.74 C 552.81 187.90 555.16 179.07 557.52 170.24 C 550.41 162.04 543.40 153.75 536.30 145.54 C 547.13 145.01 557.96 144.39 568.78 143.79 C 574.44 134.57 580.08 125.34 585.70 116.09 C 589.85 126.11 593.52 136.33 597.55 146.40 C 608.05 148.85 618.54 151.39 629.03 153.90 C 620.78 160.85 612.35 167.58 603.96 174.35 C 604.16 178.73 604.60 183.09 604.90 187.46 C 606.70 187.18 608.51 186.91 610.32 186.65 C 610.12 183.80 609.92 180.96 609.74 178.11 C 619.90 170.03 629.88 161.73 640.00 153.59 L 640.00 162.39 C 632.33 168.60 624.69 174.86 617.01 181.06 C 615.17 181.96 615.83 184.03 616.08 185.62 C 619.05 184.90 622.60 185.30 624.95 183.02 C 629.92 178.84 635.05 174.87 640.00 170.68 L 640.00 480.00 L 249.39 480.00 C 209.34 453.62 179.06 412.80 165.42 366.82 C 154.62 330.68 153.91 291.59 163.41 255.09 C 171.74 222.69 188.22 192.46 210.76 167.76 C 229.92 146.69 253.49 129.67 279.47 118.01 C 281.31 122.08 283.17 126.15 285.11 130.18 C 286.51 133.49 288.05 136.75 289.48 140.05 C 290.77 142.92 292.16 145.74 293.44 148.62 C 294.07 150.00 294.71 151.40 295.35 152.79 C 271.54 163.38 250.30 179.58 233.69 199.64 C 212.94 224.62 199.66 255.72 196.09 288.01 C 192.42 319.72 197.90 352.44 211.89 381.15 C 230.26 419.27 263.53 449.90 303.06 465.04 C 345.50 481.54 394.61 479.88 435.79 460.41 C 431.81 451.89 428.06 443.26 423.99 434.78 C 386.25 452.67 340.47 452.56 302.92 434.21 C 281.32 423.89 262.54 407.83 248.76 388.27 C 232.27 364.96 223.25 336.49 223.23 307.93 C 223.03 280.50 231.09 253.08 246.20 230.18 C 260.94 207.63 282.28 189.39 306.99 178.59 C 306.55 177.51 306.12 176.44 305.71 175.36 C 306.06 166.56 305.11 157.75 305.36 148.93 C 305.63 143.59 304.73 138.27 305.00 132.93 C 304.80 123.69 304.63 114.46 304.50 105.22 C 305.25 105.79 306.76 106.92 307.52 107.49 C 312.21 110.86 316.86 114.30 321.48 117.78 C 325.65 120.82 329.83 123.84 333.94 126.96 C 333.09 124.71 332.17 122.48 331.26 120.25 C 328.46 112.95 325.74 105.63 322.69 98.44 C 313.42 96.35 304.18 94.09 294.91 91.97 C 291.63 91.21 288.37 90.41 285.10 89.64 C 279.40 88.27 273.68 87.01 267.99 85.63 C 266.76 85.34 265.52 85.05 264.29 84.76 C 264.53 85.30 265.02 86.37 265.27 86.91 C 231.28 102.18 200.88 125.38 177.27 154.23 C 154.65 181.77 138.17 214.37 129.66 249.00 C 119.64 289.44 120.25 332.48 131.49 372.61 C 142.78 413.19 165.09 450.56 195.18 480.00 L 136.72 480.00 C 95.85 426.87 75.16 358.83 78.99 291.95 C 81.31 246.84 94.59 202.35 117.44 163.39 C 147.16 112.35 193.14 71.01 247.04 46.85 C 241.77 35.54 236.64 24.17 231.47 12.82 C 233.46 13.41 235.44 14.02 237.43 14.63 C 241.58 27.36 245.34 40.21 249.62 52.89 C 257.56 42.05 265.07 30.90 272.88 19.97 C 286.28 20.48 299.69 20.08 313.08 20.50 C 307.99 13.64 302.89 6.79 297.71 0.00 M 334.91 6.72 C 336.95 9.41 338.74 12.36 341.15 14.74 C 347.66 19.03 354.28 23.16 360.83 27.40 C 372.14 22.64 383.46 17.91 394.75 13.12 C 391.68 25.01 388.56 36.88 385.44 48.76 C 393.45 58.06 401.56 67.28 409.46 76.67 C 397.23 77.32 385.00 78.07 372.78 78.79 C 366.31 89.20 360.30 99.90 353.57 110.13 C 349.61 99.92 345.58 89.73 341.64 79.50 C 341.06 78.33 340.96 76.84 339.93 75.96 C 328.12 73.05 316.23 70.47 304.42 67.53 C 313.88 59.91 323.11 51.98 332.72 44.55 C 332.81 42.52 332.64 40.51 332.43 38.50 C 330.98 38.49 329.54 38.47 328.10 38.44 C 328.20 39.95 328.32 41.46 328.46 42.97 C 317.35 52.13 306.20 61.25 295.04 70.37 C 309.04 73.49 322.97 76.94 336.96 80.10 C 342.32 93.42 347.34 106.87 352.73 120.17 C 359.80 108.66 366.74 97.08 373.73 85.52 C 374.35 84.71 374.74 83.30 376.00 83.34 C 389.99 82.57 403.97 81.70 417.97 80.93 C 408.63 70.15 399.44 59.24 389.94 48.60 C 393.24 34.57 397.15 20.68 400.76 6.72 C 387.52 12.22 374.32 17.83 361.10 23.36 C 352.33 17.88 343.74 12.11 334.91 6.72 M 360.57 32.88 C 356.72 30.60 353.15 27.87 349.16 25.85 C 352.70 29.94 355.03 35.37 360.17 37.77 C 366.60 35.22 372.87 32.31 379.33 29.84 C 377.65 36.57 375.75 43.23 374.15 49.98 C 378.73 55.17 383.28 60.39 387.72 65.70 C 380.81 65.89 373.93 66.50 367.02 66.78 C 363.31 72.65 359.90 78.72 356.15 84.54 C 353.55 78.18 351.13 71.75 348.61 65.35 C 341.89 63.55 335.05 62.21 328.31 60.46 C 333.65 56.19 338.80 51.68 344.26 47.56 C 344.32 44.59 343.95 41.63 343.66 38.68 C 341.91 38.56 340.16 38.48 338.41 38.44 C 338.52 40.88 338.72 43.32 339.01 45.76 C 331.69 51.84 324.28 57.81 316.95 63.87 C 326.20 65.99 335.43 68.21 344.68 70.36 C 348.04 79.20 351.51 87.99 354.99 96.78 C 359.90 88.73 364.77 80.66 369.65 72.59 C 379.07 71.85 388.51 71.39 397.95 70.90 C 391.97 63.55 385.57 56.55 379.47 49.30 C 381.94 40.18 384.21 31.02 386.69 21.91 C 377.96 25.49 369.26 29.17 360.57 32.88 M 543.18 43.53 C 534.45 66.80 526.03 90.18 517.35 113.48 C 520.51 113.39 523.66 113.19 526.81 112.95 C 534.07 92.86 541.56 72.85 548.89 52.79 C 561.10 49.64 573.31 46.52 585.54 43.42 C 588.24 39.21 590.68 34.85 593.46 30.69 C 576.71 35.01 559.96 39.31 543.18 43.53 M 285.01 37.92 C 284.13 39.15 283.32 40.43 282.59 41.74 L 282.36 41.63 C 280.79 43.98 279.17 46.28 277.54 48.58 C 275.72 51.18 273.90 53.78 272.09 56.39 C 270.87 58.09 269.60 59.75 268.45 61.50 C 266.25 64.65 264.03 67.79 261.88 70.97 C 261.08 72.06 260.28 73.13 259.48 74.21 C 259.81 74.92 260.46 76.34 260.78 77.06 C 263.12 75.15 265.44 73.21 267.82 71.36 L 267.94 71.48 C 274.98 65.16 282.51 59.42 289.78 53.38 C 291.98 51.49 294.23 49.65 296.48 47.82 C 298.55 46.15 300.61 44.46 302.68 42.79 C 304.48 41.26 306.32 39.77 308.15 38.27 C 301.72 38.17 295.29 38.70 288.86 38.22 C 287.58 38.08 286.29 37.98 285.01 37.92 M 359.97 42.60 C 357.96 41.36 355.97 40.09 354.03 38.76 C 352.33 38.75 350.64 38.75 348.95 38.75 C 349.13 42.08 349.45 45.41 349.73 48.74 C 346.52 51.31 343.33 53.91 340.15 56.51 C 340.14 56.74 340.12 57.19 340.11 57.42 C 344.21 58.47 348.38 59.27 352.47 60.39 C 354.02 64.54 355.59 68.70 357.37 72.77 C 359.62 68.91 362.01 65.13 364.29 61.29 C 368.73 61.03 373.18 60.92 377.60 60.40 C 374.70 57.18 372.00 53.78 369.02 50.64 C 369.74 46.13 371.24 41.79 372.29 37.36 C 368.19 39.13 364.04 40.78 359.97 42.60 M 411.63 49.23 C 415.02 52.83 417.85 57.11 421.58 60.29 C 435.25 61.08 449.00 61.12 462.66 62.11 C 473.63 79.74 484.79 97.26 495.95 114.77 C 499.95 114.30 504.00 114.44 508.00 113.91 C 494.76 93.16 481.67 72.31 468.46 51.53 C 449.52 50.65 430.56 50.15 411.63 49.23 M 569.10 60.78 C 566.48 61.14 563.96 61.97 561.42 62.64 C 559.60 63.09 557.80 63.55 555.99 64.01 C 555.31 65.80 554.67 67.60 554.09 69.42 C 550.93 78.08 547.34 86.63 544.72 95.46 C 542.07 100.85 540.44 106.71 538.28 112.32 C 540.17 112.47 541.99 111.62 543.88 111.89 L 543.28 110.42 L 544.57 110.51 C 544.75 108.90 545.88 107.91 546.59 106.55 C 553.37 96.66 559.31 86.23 565.65 76.06 C 568.02 72.28 570.20 68.37 572.73 64.69 C 573.76 62.65 574.96 60.70 576.22 58.80 C 573.83 59.42 571.47 60.12 569.10 60.78 M 433.06 74.27 C 435.82 76.92 437.91 80.19 440.84 82.66 C 443.38 86.46 446.73 89.81 449.74 93.30 C 451.42 95.54 453.40 97.53 455.17 99.72 C 453.67 99.82 452.17 99.92 450.68 100.02 C 448.42 100.14 446.15 100.28 443.89 100.43 C 435.57 101.08 427.20 101.08 418.90 101.89 C 415.75 102.15 412.50 101.99 409.42 102.61 C 401.27 102.80 393.12 103.21 385.00 103.82 C 384.28 104.97 383.59 106.13 382.90 107.29 C 380.34 111.33 377.99 115.50 375.42 119.54 L 375.28 119.56 C 374.10 121.76 372.90 123.95 371.42 125.96 L 371.47 126.09 C 369.85 128.75 368.31 131.47 366.61 134.08 L 366.75 134.66 C 363.78 137.87 362.17 142.10 359.38 145.49 C 362.43 148.64 366.51 150.70 369.98 153.42 C 372.36 155.35 374.80 157.21 377.40 158.84 L 377.40 158.94 C 380.77 161.59 384.27 164.07 387.73 166.62 C 390.80 165.52 393.87 164.43 396.98 163.42 C 401.94 161.61 406.96 160.00 411.91 158.17 L 412.03 158.21 C 418.67 155.88 425.34 153.61 432.00 151.33 C 435.67 150.09 439.28 148.67 443.01 147.61 C 447.95 145.70 452.99 144.08 458.01 142.40 C 460.95 141.27 463.95 140.31 466.93 139.27 C 466.47 138.79 465.56 137.82 465.11 137.34 C 463.19 134.27 460.51 131.79 458.26 128.97 C 457.26 127.81 456.25 126.65 455.25 125.49 C 454.27 124.33 453.29 123.16 452.31 122.00 C 451.33 120.86 450.32 119.73 449.25 118.68 C 449.22 118.32 449.17 117.59 449.14 117.23 C 449.69 117.18 450.79 117.06 451.34 117.01 C 453.75 117.03 456.18 116.90 458.58 116.60 C 460.90 116.45 463.32 116.81 465.58 116.20 C 468.09 116.29 470.60 116.07 473.11 115.88 C 475.74 115.72 478.37 115.65 481.01 115.65 C 479.07 112.64 477.34 109.49 475.09 106.70 C 473.08 102.63 470.36 98.95 467.95 95.11 C 466.24 92.19 464.50 89.25 462.34 86.64 L 462.36 86.60 C 460.34 82.63 457.66 79.07 455.55 75.16 C 454.96 74.73 453.87 74.54 453.04 74.58 C 446.39 74.45 439.69 73.42 433.06 74.27 M 313.75 123.16 C 314.19 147.38 314.56 171.62 315.09 195.84 C 317.45 201.40 320.01 206.89 322.62 212.35 C 322.15 187.50 321.88 162.67 321.20 137.83 C 329.27 143.41 336.95 149.54 344.99 155.16 C 343.39 151.27 341.94 147.31 340.35 143.41 C 339.99 142.28 338.91 141.71 338.04 141.03 C 329.91 135.11 321.88 129.07 313.75 123.16 M 584.56 128.15 C 580.51 134.87 576.41 141.55 572.30 148.23 C 564.48 148.69 556.65 149.06 548.83 149.56 C 553.75 155.64 558.97 161.49 564.06 167.45 C 562.16 175.10 560.04 182.69 558.05 190.32 C 565.37 187.45 572.58 184.31 579.86 181.33 C 584.21 184.05 588.46 186.92 592.81 189.63 C 594.95 189.21 597.12 188.83 599.29 188.49 C 599.13 182.45 597.78 176.29 598.28 170.33 C 604.17 165.33 610.32 160.63 616.21 155.61 C 608.59 153.57 600.68 152.21 593.21 149.88 C 590.16 142.71 587.82 135.23 584.56 128.15 M 384.98 175.73 C 374.96 168.30 364.92 160.91 354.89 153.50 C 353.62 155.59 352.37 157.69 351.11 159.78 C 361.69 167.58 372.24 175.42 382.84 183.19 C 406.91 174.87 431.00 166.60 455.06 158.27 C 448.75 177.60 442.19 196.86 435.83 216.18 C 439.31 215.61 442.80 215.08 446.27 214.39 C 453.70 191.89 461.27 169.42 468.72 146.92 C 440.76 156.40 412.90 166.15 384.98 175.73 M 477.97 155.35 C 477.18 157.62 476.36 159.88 475.60 162.16 C 474.16 166.41 473.00 170.76 471.20 174.88 L 471.35 174.99 C 470.50 177.72 469.55 180.41 468.62 183.11 C 467.25 187.47 465.75 191.79 464.34 196.13 C 466.49 200.87 468.57 205.64 470.84 210.32 C 474.55 209.53 478.32 209.13 482.05 208.43 C 483.72 208.13 485.40 207.79 487.09 207.51 C 489.75 207.05 492.43 206.60 495.11 206.14 C 497.41 205.78 499.71 205.38 502.02 204.96 C 503.56 204.70 505.11 204.43 506.66 204.15 C 507.48 200.69 508.54 197.30 509.32 193.83 L 508.71 192.82 L 509.57 192.35 C 509.72 191.37 509.88 190.39 510.03 189.41 C 508.54 187.70 507.08 185.97 505.62 184.24 C 503.97 182.20 502.09 180.28 500.47 178.20 C 497.00 174.34 493.76 170.27 490.25 166.45 C 490.35 165.45 489.17 164.90 488.67 164.20 C 485.13 160.66 482.14 156.62 478.77 152.94 C 478.57 153.54 478.17 154.75 477.97 155.35 M 329.60 153.88 C 330.03 174.89 330.32 195.89 330.77 216.90 C 329.24 218.04 327.70 219.16 326.16 220.28 C 325.33 218.47 324.50 216.67 323.72 214.85 C 303.88 223.36 287.01 238.56 276.36 257.32 C 265.69 275.79 261.41 297.70 263.79 318.85 C 266.08 339.59 275.08 359.50 289.12 374.93 C 304.07 391.62 324.77 403.06 346.88 406.74 C 367.28 410.24 388.81 407.41 407.46 398.36 C 403.23 389.27 399.21 380.09 394.90 371.04 C 371.30 382.65 341.31 379.67 320.66 363.30 C 305.64 351.75 295.61 333.94 293.68 315.08 C 291.74 298.03 296.28 280.31 306.27 266.35 C 313.73 255.66 324.35 247.49 336.15 242.10 C 334.83 239.33 333.57 236.53 332.30 233.75 C 334.77 233.22 337.60 233.41 339.66 231.72 C 343.28 229.13 346.87 226.50 350.50 223.92 C 350.50 213.77 350.17 203.62 350.01 193.48 C 358.26 199.42 366.37 205.56 374.59 211.56 C 384.13 208.18 393.73 204.95 403.30 201.63 C 401.01 208.75 398.53 215.81 396.26 222.94 C 399.42 222.38 402.59 221.83 405.78 221.38 C 409.24 211.30 412.57 201.18 415.90 191.06 C 402.83 195.63 389.71 200.08 376.64 204.64 C 365.34 196.49 354.21 188.10 342.97 179.88 C 343.37 193.78 343.58 207.69 343.73 221.60 C 339.43 224.59 335.19 227.67 330.92 230.72 C 330.01 228.71 329.07 226.71 328.16 224.71 C 330.85 222.79 333.55 220.87 336.24 218.96 C 335.92 200.95 335.80 182.92 335.18 164.91 C 349.69 175.42 364.02 186.19 378.48 196.79 L 379.08 196.91 C 395.99 191.08 412.90 185.26 429.80 179.41 C 425.38 192.79 420.91 206.16 416.44 219.53 C 419.11 219.03 421.82 218.67 424.46 217.98 C 429.54 202.24 434.89 186.58 440.09 170.87 C 420.25 177.65 400.40 184.43 380.63 191.41 C 363.49 179.09 346.64 166.35 329.60 153.88 M 568.01 193.69 C 572.78 193.08 577.48 192.09 582.24 191.40 C 581.18 190.73 580.28 189.43 578.99 189.36 C 575.27 190.63 571.77 192.49 568.01 193.69 M 356.76 206.56 C 357.12 213.05 356.75 219.58 357.27 226.06 C 355.14 227.59 353.02 229.12 350.89 230.64 C 362.88 228.59 374.86 226.51 386.87 224.55 C 388.41 220.36 389.77 216.10 391.14 211.85 C 384.83 213.85 378.69 216.36 372.31 218.14 C 367.24 214.13 361.95 210.40 356.76 206.56 Z" />
<path fill="#000000" opacity="1.00" d=" M 342.70 0.00 L 353.18 0.00 C 356.20 1.77 359.13 3.69 362.06 5.60 C 363.23 5.13 364.40 4.66 365.57 4.18 C 368.01 3.17 370.58 2.35 372.70 0.70 C 373.40 0.52 374.80 0.17 375.50 0.00 L 390.72 0.00 C 381.10 4.04 371.47 8.02 361.90 12.17 C 355.41 8.26 349.15 3.97 342.70 0.00 Z" />
<path fill="#000000" opacity="1.00" d=" M 444.59 0.00 L 456.10 0.00 C 450.50 6.45 445.21 13.15 439.67 19.66 C 455.01 20.41 470.37 20.82 485.71 21.52 C 494.02 34.44 502.08 47.53 510.45 60.41 C 515.80 46.06 521.07 31.68 526.33 17.29 C 541.18 13.27 556.16 9.72 571.02 5.73 C 568.63 3.79 566.20 1.92 563.79 0.00 L 575.36 0.00 C 580.43 3.84 585.35 7.87 590.38 11.76 C 571.03 16.70 551.69 21.65 532.34 26.59 C 525.43 45.31 518.57 64.05 511.65 82.76 C 500.94 65.96 490.28 49.12 479.67 32.25 C 459.74 31.35 439.80 30.60 419.87 29.94 C 427.92 19.81 436.32 9.95 444.59 0.00 Z" />
<path fill="#000000" opacity="1.00" d=" M 466.34 0.00 L 476.03 0.00 L 475.19 1.72 C 482.33 1.96 489.46 2.31 496.60 2.53 C 500.58 8.62 504.32 14.85 508.34 20.91 C 510.81 14.17 513.30 7.44 515.76 0.70 C 516.20 0.53 517.08 0.18 517.52 0.00 L 554.29 0.00 C 543.69 3.28 532.80 5.57 522.10 8.48 C 520.69 8.56 520.61 10.17 520.12 11.15 C 516.61 20.87 513.01 30.56 509.42 40.26 C 503.09 30.94 497.30 21.26 491.21 11.78 C 480.10 11.59 469.00 10.92 457.88 10.63 C 460.28 6.77 463.52 3.54 466.34 0.00 Z" />
<path fill="#000000" opacity="1.00" d=" M 607.82 0.00 L 634.75 0.00 C 632.47 1.57 630.26 3.25 628.02 4.87 C 630.39 6.73 632.74 8.62 635.10 10.51 C 636.74 11.78 638.40 13.03 640.00 14.36 L 640.00 25.31 C 629.29 16.85 618.59 8.38 607.82 0.00 Z" />
<path fill="#000000" opacity="1.00" d=" M 574.93 152.98 C 577.96 148.38 580.53 143.49 583.71 138.98 C 585.69 144.05 587.58 149.15 589.61 154.20 C 594.79 155.62 600.27 156.27 605.26 158.24 C 601.08 161.70 596.77 165.01 592.69 168.59 C 593.32 173.91 593.65 179.27 594.03 184.62 C 589.33 181.80 584.86 178.62 580.16 175.80 C 575.20 177.99 570.17 180.04 565.15 182.08 C 566.53 176.79 568.00 171.53 569.33 166.22 C 565.93 162.04 562.07 158.19 558.97 153.79 C 564.29 153.50 569.60 153.07 574.93 152.98 Z" />
</g>
<g id="#ffffffff">
<path fill="#ffffff" opacity="1.00" d=" M 229.92 0.00 L 243.56 0.00 C 246.32 0.82 249.06 1.72 251.83 2.50 C 253.23 6.40 254.37 10.38 255.66 14.31 C 258.39 11.17 260.52 7.57 263.02 4.25 C 267.06 4.24 271.10 4.28 275.14 4.22 C 274.22 2.77 273.35 1.30 272.24 0.00 L 277.44 0.00 C 279.72 2.85 281.84 5.82 284.03 8.72 C 277.72 8.78 271.41 8.74 265.10 8.75 C 261.50 13.90 257.86 19.02 254.28 24.19 C 252.09 18.29 250.39 12.21 248.52 6.21 C 242.37 3.99 235.84 2.82 229.92 0.00 Z" />
<path fill="#ffffff" opacity="1.00" d=" M 287.40 0.00 L 297.71 0.00 C 302.89 6.79 307.99 13.64 313.08 20.50 C 299.69 20.08 286.28 20.48 272.88 19.97 C 265.07 30.90 257.56 42.05 249.62 52.89 C 245.34 40.21 241.58 27.36 237.43 14.63 C 235.44 14.02 233.46 13.41 231.47 12.82 C 230.83 11.43 230.19 10.05 229.56 8.66 C 229.12 7.71 228.68 6.76 228.25 5.80 C 233.13 7.25 237.97 8.83 242.87 10.24 C 246.12 19.49 248.75 28.96 251.87 38.26 C 257.88 30.48 263.20 22.17 269.00 14.22 C 278.77 14.44 288.53 14.61 298.31 14.48 C 294.69 9.64 291.07 4.80 287.40 0.00 Z" />
<path fill="#ffffff" opacity="1.00" d=" M 309.08 0.00 L 317.44 0.00 C 325.53 10.49 333.41 21.14 341.33 31.76 C 320.97 31.67 300.62 31.27 280.26 31.26 C 272.05 42.84 263.99 54.51 255.76 66.07 C 254.93 64.25 254.08 62.44 253.21 60.65 C 261.13 49.19 269.09 37.77 277.22 26.46 C 294.62 26.66 312.02 26.78 329.42 26.99 C 322.66 17.98 315.87 8.99 309.08 0.00 Z" />
<path fill="#ffffff" opacity="1.00" d=" M 334.07 0.00 L 342.70 0.00 C 349.15 3.97 355.41 8.26 361.90 12.17 C 371.47 8.02 381.10 4.04 390.72 0.00 L 403.18 0.00 C 389.20 5.73 375.33 11.77 361.34 17.49 C 352.28 11.62 343.18 5.79 334.07 0.00 Z" />
<path fill="#ffffff" opacity="1.00" d=" M 408.63 0.00 L 414.46 0.00 C 410.33 15.80 405.99 31.55 402.16 47.42 C 415.43 62.41 428.42 77.65 441.45 92.84 C 421.39 93.94 401.34 95.20 381.28 96.30 C 370.92 113.54 360.45 130.72 350.04 147.93 C 342.63 129.23 335.41 110.45 328.03 91.73 C 308.48 87.14 288.92 82.60 269.38 77.95 C 284.46 65.51 299.60 53.14 314.74 40.76 C 315.42 40.09 316.00 39.33 316.46 38.47 C 318.21 38.47 319.97 38.48 321.73 38.49 C 321.63 39.64 322.35 41.23 321.08 41.98 C 307.99 52.77 294.75 63.41 281.75 74.31 C 298.62 78.44 315.61 82.14 332.47 86.35 C 338.65 102.50 344.90 118.63 351.35 134.67 C 360.42 119.93 369.12 104.95 378.38 90.35 C 395.56 88.92 412.90 88.27 430.14 87.17 C 419.04 73.90 407.62 60.89 396.27 47.82 C 400.27 31.85 404.73 15.96 408.63 0.00 Z" />
<path fill="#ffffff" opacity="1.00" d=" M 421.42 0.00 L 423.85 0.00 C 422.61 1.36 421.44 2.79 420.24 4.18 C 420.61 2.78 420.99 1.38 421.42 0.00 Z" />
<path fill="#ffffff" opacity="1.00" d=" M 436.08 0.00 L 444.59 0.00 C 436.32 9.95 427.92 19.81 419.87 29.94 C 439.80 30.60 459.74 31.35 479.67 32.25 C 490.28 49.12 500.94 65.96 511.65 82.76 C 518.57 64.05 525.43 45.31 532.34 26.59 C 551.69 21.65 571.03 16.70 590.38 11.76 C 585.35 7.87 580.43 3.84 575.36 0.00 L 583.99 0.00 C 590.71 5.45 597.76 10.50 604.28 16.19 C 581.78 22.07 559.22 27.68 536.72 33.53 C 528.60 55.41 520.64 77.34 512.50 99.21 C 499.99 79.48 487.58 59.70 474.99 40.03 C 453.85 39.20 432.70 38.43 411.55 37.57 C 412.69 33.68 413.33 29.63 414.80 25.85 C 421.72 17.10 429.03 8.65 436.08 0.00 Z" />
<path fill="#ffffff" opacity="1.00" d=" M 456.10 0.00 L 466.34 0.00 C 463.52 3.54 460.28 6.77 457.88 10.63 C 469.00 10.92 480.10 11.59 491.21 11.78 C 497.30 21.26 503.09 30.94 509.42 40.26 C 513.01 30.56 516.61 20.87 520.12 11.15 C 520.61 10.17 520.69 8.56 522.10 8.48 C 532.80 5.57 543.69 3.28 554.29 0.00 L 563.79 0.00 C 566.20 1.92 568.63 3.79 571.02 5.73 C 556.16 9.72 541.18 13.27 526.33 17.29 C 521.07 31.68 515.80 46.06 510.45 60.41 C 502.08 47.53 494.02 34.44 485.71 21.52 C 470.37 20.82 455.01 20.41 439.67 19.66 C 445.21 13.15 450.50 6.45 456.10 0.00 Z" />
<path fill="#ffffff" opacity="1.00" d=" M 476.03 0.00 L 517.52 0.00 C 517.08 0.18 516.20 0.53 515.76 0.70 C 513.30 7.44 510.81 14.17 508.34 20.91 C 504.32 14.85 500.58 8.62 496.60 2.53 C 489.46 2.31 482.33 1.96 475.19 1.72 L 476.03 0.00 Z" />
<path fill="#ffffff" opacity="1.00" d=" M 596.42 0.00 L 607.82 0.00 C 618.59 8.38 629.29 16.85 640.00 25.31 L 640.00 29.50 C 625.76 33.13 611.53 36.77 597.30 40.40 C 596.05 37.17 594.76 33.95 593.63 30.67 C 604.16 28.01 614.66 25.27 625.19 22.64 C 615.65 15.03 606.06 7.48 596.42 0.00 Z" />
<path fill="#ffffff" opacity="1.00" d=" M 334.91 6.72 C 343.74 12.11 352.33 17.88 361.10 23.36 C 374.32 17.83 387.52 12.22 400.76 6.72 C 397.15 20.68 393.24 34.57 389.94 48.60 C 399.44 59.24 408.63 70.15 417.97 80.93 C 403.97 81.70 389.99 82.57 376.00 83.34 C 374.74 83.30 374.35 84.71 373.73 85.52 C 366.74 97.08 359.80 108.66 352.73 120.17 C 347.34 106.87 342.32 93.42 336.96 80.10 C 322.97 76.94 309.04 73.49 295.04 70.37 C 306.20 61.25 317.35 52.13 328.46 42.97 C 328.32 41.46 328.20 39.95 328.10 38.44 C 329.54 38.47 330.98 38.49 332.43 38.50 C 332.64 40.51 332.81 42.52 332.72 44.55 C 323.11 51.98 313.88 59.91 304.42 67.53 C 316.23 70.47 328.12 73.05 339.93 75.96 C 340.96 76.84 341.06 78.33 341.64 79.50 C 345.58 89.73 349.61 99.92 353.57 110.13 C 360.30 99.90 366.31 89.20 372.78 78.79 C 385.00 78.07 397.23 77.32 409.46 76.67 C 401.56 67.28 393.45 58.06 385.44 48.76 C 388.56 36.88 391.68 25.01 394.75 13.12 C 383.46 17.91 372.14 22.64 360.83 27.40 C 354.28 23.16 347.66 19.03 341.15 14.74 C 338.74 12.36 336.95 9.41 334.91 6.72 Z" />
<path fill="#ffffff" opacity="1.00" d=" M 360.57 32.88 C 369.26 29.17 377.96 25.49 386.69 21.91 C 384.21 31.02 381.94 40.18 379.47 49.30 C 385.57 56.55 391.97 63.55 397.95 70.90 C 388.51 71.39 379.07 71.85 369.65 72.59 C 364.77 80.66 359.90 88.73 354.99 96.78 C 351.51 87.99 348.04 79.20 344.68 70.36 C 335.43 68.21 326.20 65.99 316.95 63.87 C 324.28 57.81 331.69 51.84 339.01 45.76 C 338.72 43.32 338.52 40.88 338.41 38.44 C 340.16 38.48 341.91 38.56 343.66 38.68 C 343.95 41.63 344.32 44.59 344.26 47.56 C 338.80 51.68 333.65 56.19 328.31 60.46 C 335.05 62.21 341.89 63.55 348.61 65.35 C 351.13 71.75 353.55 78.18 356.15 84.54 C 359.90 78.72 363.31 72.65 367.02 66.78 C 373.93 66.50 380.81 65.89 387.72 65.70 C 383.28 60.39 378.73 55.17 374.15 49.98 C 375.75 43.23 377.65 36.57 379.33 29.84 C 372.87 32.31 366.60 35.22 360.17 37.77 C 355.03 35.37 352.70 29.94 349.16 25.85 C 353.15 27.87 356.72 30.60 360.57 32.88 Z" />
<path fill="#ffffff" opacity="1.00" d=" M 543.18 43.53 C 559.96 39.31 576.71 35.01 593.46 30.69 C 590.68 34.85 588.24 39.21 585.54 43.42 C 573.31 46.52 561.10 49.64 548.89 52.79 C 541.56 72.85 534.07 92.86 526.81 112.95 C 523.66 113.19 520.51 113.39 517.35 113.48 C 526.03 90.18 534.45 66.80 543.18 43.53 Z" />
<path fill="#ffffff" opacity="1.00" d=" M 359.97 42.60 C 364.04 40.78 368.19 39.13 372.29 37.36 C 371.24 41.79 369.74 46.13 369.02 50.64 C 372.00 53.78 374.70 57.18 377.60 60.40 C 373.18 60.92 368.73 61.03 364.29 61.29 C 362.01 65.13 359.62 68.91 357.37 72.77 C 355.59 68.70 354.02 64.54 352.47 60.39 C 348.38 59.27 344.21 58.47 340.11 57.42 C 340.12 57.19 340.14 56.74 340.15 56.51 C 343.33 53.91 346.52 51.31 349.73 48.74 C 349.45 45.41 349.13 42.08 348.95 38.75 C 350.64 38.75 352.33 38.75 354.03 38.76 C 355.97 40.09 357.96 41.36 359.97 42.60 Z" />
<path fill="#ffffff" opacity="1.00" d=" M 411.63 49.23 C 430.56 50.15 449.52 50.65 468.46 51.53 C 481.67 72.31 494.76 93.16 508.00 113.91 C 504.00 114.44 499.95 114.30 495.95 114.77 C 484.79 97.26 473.63 79.74 462.66 62.11 C 449.00 61.12 435.25 61.08 421.58 60.29 C 417.85 57.11 415.02 52.83 411.63 49.23 Z" />
<path fill="#ffffff" opacity="1.00" d=" M 591.75 49.06 C 601.72 74.49 611.42 100.02 621.34 125.46 C 627.55 127.01 633.81 128.35 640.00 129.96 L 640.00 135.96 C 631.97 133.98 623.91 132.16 615.89 130.16 C 607.44 108.20 598.93 86.26 590.47 64.31 C 578.01 84.28 566.01 104.55 553.52 124.50 C 530.09 126.09 506.59 126.98 483.15 128.53 C 498.38 146.44 513.73 164.24 528.98 182.14 C 527.38 188.51 525.55 194.81 523.98 201.18 C 521.38 201.70 518.77 202.15 516.16 202.56 C 517.63 196.91 519.13 191.27 520.67 185.64 C 504.83 167.09 488.91 148.59 473.05 130.05 C 471.23 127.89 469.21 125.86 467.81 123.39 C 494.89 121.95 521.97 120.45 549.06 118.97 C 563.34 95.70 577.59 72.40 591.75 49.06 Z" />
<path fill="#ffffff" opacity="1.00" d=" M 558.62 130.67 C 568.64 114.06 578.75 97.52 588.94 81.02 C 596.03 99.02 602.81 117.15 609.95 135.13 C 619.76 138.13 630.02 139.97 640.00 142.58 L 640.00 147.14 C 628.66 144.35 617.29 141.72 605.95 138.99 C 599.89 123.47 593.94 107.91 587.90 92.38 C 579.21 106.57 570.54 120.77 561.89 134.98 C 545.29 136.05 528.66 136.71 512.06 137.83 C 522.88 150.43 533.63 163.08 544.48 175.65 C 542.52 183.36 540.32 191.01 538.42 198.74 C 536.44 199.12 534.45 199.47 532.48 199.81 C 534.35 192.62 536.35 185.47 538.17 178.27 C 525.54 163.55 512.90 148.83 500.31 134.08 C 519.73 132.67 539.21 132.07 558.62 130.67 Z" />
<path fill="#ffffff" opacity="1.00" d=" M 586.75 104.56 C 591.89 117.17 596.67 129.94 601.56 142.66 C 614.34 145.87 627.19 148.78 640.00 151.90 L 640.00 153.59 C 629.88 161.73 619.90 170.03 609.74 178.11 C 609.92 180.96 610.12 183.80 610.32 186.65 C 608.51 186.91 606.70 187.18 604.90 187.46 C 604.60 183.09 604.16 178.73 603.96 174.35 C 612.35 167.58 620.78 160.85 629.03 153.90 C 618.54 151.39 608.05 148.85 597.55 146.40 C 593.52 136.33 589.85 126.11 585.70 116.09 C 580.08 125.34 574.44 134.57 568.78 143.79 C 557.96 144.39 547.13 145.01 536.30 145.54 C 543.40 153.75 550.41 162.04 557.52 170.24 C 555.16 179.07 552.81 187.90 550.48 196.74 C 548.50 197.08 546.52 197.40 544.55 197.73 C 546.70 189.47 548.92 181.24 551.11 172.99 C 542.39 162.54 533.29 152.41 524.66 141.88 C 538.23 140.70 551.87 140.46 565.45 139.41 C 572.53 127.77 579.63 116.16 586.75 104.56 Z" />
<path fill="#ffffff" opacity="1.00" d=" M 313.75 123.16 C 321.88 129.07 329.91 135.11 338.04 141.03 C 338.91 141.71 339.99 142.28 340.35 143.41 C 341.94 147.31 343.39 151.27 344.99 155.16 C 336.95 149.54 329.27 143.41 321.20 137.83 C 321.88 162.67 322.15 187.50 322.62 212.35 C 320.01 206.89 317.45 201.40 315.09 195.84 C 314.56 171.62 314.19 147.38 313.75 123.16 Z" />
<path fill="#ffffff" opacity="1.00" d=" M 584.56 128.15 C 587.82 135.23 590.16 142.71 593.21 149.88 C 600.68 152.21 608.59 153.57 616.21 155.61 C 610.32 160.63 604.17 165.33 598.28 170.33 C 597.78 176.29 599.13 182.45 599.29 188.49 C 597.12 188.83 594.95 189.21 592.81 189.63 C 588.46 186.92 584.21 184.05 579.86 181.33 C 572.58 184.31 565.37 187.45 558.05 190.32 C 560.04 182.69 562.16 175.10 564.06 167.45 C 558.97 161.49 553.75 155.64 548.83 149.56 C 556.65 149.06 564.48 148.69 572.30 148.23 C 576.41 141.55 580.51 134.87 584.56 128.15 M 574.93 152.98 C 569.60 153.07 564.29 153.50 558.97 153.79 C 562.07 158.19 565.93 162.04 569.33 166.22 C 568.00 171.53 566.53 176.79 565.15 182.08 C 570.17 180.04 575.20 177.99 580.16 175.80 C 584.86 178.62 589.33 181.80 594.03 184.62 C 593.65 179.27 593.32 173.91 592.69 168.59 C 596.77 165.01 601.08 161.70 605.26 158.24 C 600.27 156.27 594.79 155.62 589.61 154.20 C 587.58 149.15 585.69 144.05 583.71 138.98 C 580.53 143.49 577.96 148.38 574.93 152.98 Z" />
<path fill="#ffffff" opacity="1.00" d=" M 384.98 175.73 C 412.90 166.15 440.76 156.40 468.72 146.92 C 461.27 169.42 453.70 191.89 446.27 214.39 C 442.80 215.08 439.31 215.61 435.83 216.18 C 442.19 196.86 448.75 177.60 455.06 158.27 C 431.00 166.60 406.91 174.87 382.84 183.19 C 372.24 175.42 361.69 167.58 351.11 159.78 C 352.37 157.69 353.62 155.59 354.89 153.50 C 364.92 160.91 374.96 168.30 384.98 175.73 Z" />
<path fill="#ffffff" opacity="1.00" d=" M 329.60 153.88 C 346.64 166.35 363.49 179.09 380.63 191.41 C 400.40 184.43 420.25 177.65 440.09 170.87 C 434.89 186.58 429.54 202.24 424.46 217.98 C 421.82 218.67 419.11 219.03 416.44 219.53 C 420.91 206.16 425.38 192.79 429.80 179.41 C 412.90 185.26 395.99 191.08 379.08 196.91 L 378.48 196.79 C 364.02 186.19 349.69 175.42 335.18 164.91 C 335.80 182.92 335.92 200.95 336.24 218.96 C 333.55 220.87 330.85 222.79 328.16 224.71 C 327.49 223.23 326.83 221.75 326.16 220.28 C 327.70 219.16 329.24 218.04 330.77 216.90 C 330.32 195.89 330.03 174.89 329.60 153.88 Z" />
<path fill="#ffffff" opacity="1.00" d=" M 617.01 181.06 C 624.69 174.86 632.33 168.60 640.00 162.39 L 640.00 170.68 C 635.05 174.87 629.92 178.84 624.95 183.02 C 622.60 185.30 619.05 184.90 616.08 185.62 C 615.83 184.03 615.17 181.96 617.01 181.06 Z" />
<path fill="#ffffff" opacity="1.00" d=" M 342.97 179.88 C 354.21 188.10 365.34 196.49 376.64 204.64 C 389.71 200.08 402.83 195.63 415.90 191.06 C 412.57 201.18 409.24 211.30 405.78 221.38 C 402.59 221.83 399.42 222.38 396.26 222.94 C 398.53 215.81 401.01 208.75 403.30 201.63 C 393.73 204.95 384.13 208.18 374.59 211.56 C 366.37 205.56 358.26 199.42 350.01 193.48 C 350.17 203.62 350.50 213.77 350.50 223.92 C 346.87 226.50 343.28 229.13 339.66 231.72 C 337.60 233.41 334.77 233.22 332.30 233.75 C 331.83 232.74 331.38 231.72 330.92 230.72 C 335.19 227.67 339.43 224.59 343.73 221.60 C 343.58 207.69 343.37 193.78 342.97 179.88 Z" />
<path fill="#ffffff" opacity="1.00" d=" M 568.01 193.69 C 571.77 192.49 575.27 190.63 578.99 189.36 C 580.28 189.43 581.18 190.73 582.24 191.40 C 577.48 192.09 572.78 193.08 568.01 193.69 Z" />
<path fill="#ffffff" opacity="1.00" d=" M 356.76 206.56 C 361.95 210.40 367.24 214.13 372.31 218.14 C 378.69 216.36 384.83 213.85 391.14 211.85 C 389.77 216.10 388.41 220.36 386.87 224.55 C 374.86 226.51 362.88 228.59 350.89 230.64 C 353.02 229.12 355.14 227.59 357.27 226.06 C 356.75 219.58 357.12 213.05 356.76 206.56 Z" />
</g>
<g id="#888888ff">
<path fill="#888888" opacity="1.00" d=" M 353.18 0.00 L 362.84 0.00 C 363.79 1.36 364.67 2.78 365.57 4.18 C 364.40 4.66 363.23 5.13 362.06 5.60 C 359.13 3.69 356.20 1.77 353.18 0.00 Z" />
<path fill="#888888" opacity="1.00" d=" M 634.75 0.00 L 640.00 0.00 L 640.00 6.59 C 638.30 7.81 636.65 9.10 635.10 10.51 C 632.74 8.62 630.39 6.73 628.02 4.87 C 630.26 3.25 632.47 1.57 634.75 0.00 Z" />
<path fill="#888888" opacity="1.00" d=" M 285.01 37.92 C 286.29 37.98 287.58 38.08 288.86 38.22 C 292.95 38.83 297.08 38.63 301.20 38.72 C 301.69 40.08 302.18 41.43 302.68 42.79 C 300.61 44.46 298.55 46.15 296.48 47.82 C 291.86 45.77 287.09 44.05 282.59 41.74 C 283.32 40.43 284.13 39.15 285.01 37.92 Z" />
<path fill="#888888" opacity="1.00" d=" M 619.66 58.67 C 626.53 53.92 633.24 48.92 640.00 44.01 L 640.00 50.75 C 633.67 55.38 627.27 59.90 620.96 64.55 C 615.64 62.84 610.47 60.72 605.15 59.04 L 604.78 59.85 C 603.92 57.69 603.15 55.50 602.41 53.31 C 608.35 54.39 613.77 57.87 619.66 58.67 Z" />
<path fill="#888888" opacity="1.00" d=" M 608.87 50.47 C 615.36 48.92 621.77 47.04 628.30 45.67 C 625.10 48.62 621.40 50.93 617.94 53.55 C 614.89 52.61 611.88 51.52 608.87 50.47 Z" />
<path fill="#888888" opacity="1.00" d=" M 277.54 48.58 C 281.76 49.81 285.65 51.90 289.78 53.38 C 282.51 59.42 274.98 65.16 267.94 71.48 L 267.82 71.36 C 266.39 69.69 263.78 71.16 261.88 70.97 C 264.03 67.79 266.25 64.65 268.45 61.50 L 268.84 62.43 C 272.72 61.71 276.93 61.89 280.52 60.10 C 277.77 58.75 274.93 57.57 272.09 56.39 C 273.90 53.78 275.72 51.18 277.54 48.58 Z" />
<path fill="#888888" opacity="1.00" d=" M 621.90 68.97 C 626.87 66.48 630.81 62.24 635.79 59.67 C 635.55 65.14 635.41 70.61 635.27 76.09 C 636.85 77.23 638.46 78.36 640.00 79.58 L 640.00 88.85 C 637.60 89.38 635.10 89.70 632.91 90.87 C 630.81 95.92 629.39 101.24 627.64 106.42 C 624.49 102.78 622.19 98.53 619.24 94.74 L 618.73 96.09 C 614.70 85.30 610.47 74.58 606.38 63.82 C 611.71 65.03 616.64 67.50 621.90 68.97 Z" />
<path fill="#888888" opacity="1.00" d=" M 561.42 62.64 C 563.96 61.97 566.48 61.14 569.10 60.78 C 569.49 60.85 570.26 60.99 570.65 61.06 C 571.37 62.25 572.05 63.47 572.73 64.69 C 570.20 68.37 568.02 72.28 565.65 76.06 C 564.27 71.57 562.74 67.14 561.42 62.64 Z" />
<path fill="#888888" opacity="1.00" d=" M 544.72 95.46 C 547.34 86.63 550.93 78.08 554.09 69.42 C 555.42 72.61 556.44 75.92 557.47 79.22 C 553.36 84.73 549.35 90.37 544.72 95.46 Z" />
<path fill="#888888" opacity="1.00" d=" M 433.06 74.27 C 439.69 73.42 446.39 74.45 453.04 74.58 C 453.87 74.54 454.96 74.73 455.55 75.16 C 454.53 76.54 455.13 78.26 455.25 79.80 C 456.63 89.56 458.10 99.32 459.27 109.11 C 457.26 112.24 453.85 114.27 451.34 117.01 C 450.79 117.06 449.69 117.18 449.14 117.23 C 449.17 117.59 449.22 118.32 449.25 118.68 C 438.55 128.96 427.19 138.56 416.58 148.93 C 421.70 149.83 426.78 151.21 432.00 151.33 C 425.34 153.61 418.67 155.88 412.03 158.21 L 411.91 158.17 C 408.03 156.71 403.85 156.48 399.82 155.62 C 402.06 152.93 404.83 150.76 407.38 148.37 C 422.14 134.90 436.85 121.37 451.66 107.95 C 451.34 105.30 451.01 102.66 450.68 100.02 C 452.17 99.92 453.67 99.82 455.17 99.72 C 453.40 97.53 451.42 95.54 449.74 93.30 C 448.71 87.09 448.04 80.83 447.06 74.61 C 444.83 74.58 442.61 74.58 440.39 74.60 C 440.77 77.27 440.93 79.96 440.84 82.66 C 437.91 80.19 435.82 76.92 433.06 74.27 Z" />
<path fill="#888888" opacity="1.00" d=" M 267.99 85.63 C 273.68 87.01 279.40 88.27 285.10 89.64 C 284.43 89.69 283.09 89.80 282.43 89.85 C 288.58 96.64 295.76 102.43 301.92 109.20 C 301.35 118.33 298.86 127.46 297.83 136.64 C 300.24 135.45 302.63 134.20 305.00 132.93 C 304.73 138.27 305.63 143.59 305.36 148.93 C 305.11 157.75 306.06 166.56 305.71 175.36 C 305.49 174.85 305.06 173.84 304.84 173.33 C 305.60 170.27 305.38 167.12 305.19 164.01 C 303.96 164.78 302.75 165.55 301.53 166.32 C 299.92 162.79 298.30 159.27 296.70 155.74 C 299.30 154.28 302.06 153.10 304.59 151.50 C 305.63 148.61 304.82 145.30 304.81 142.25 C 301.06 144.44 297.14 146.33 293.44 148.62 C 292.16 145.74 290.77 142.92 289.48 140.05 C 290.27 139.09 290.76 137.99 290.95 136.76 C 292.19 128.93 293.51 121.11 294.85 113.29 C 287.43 106.02 279.89 98.88 272.44 91.64 C 270.68 89.86 268.16 88.40 267.99 85.63 Z" />
<path fill="#888888" opacity="1.00" d=" M 461.94 90.98 C 461.56 89.50 461.81 88.04 462.34 86.64 C 464.50 89.25 466.24 92.19 467.95 95.11 C 468.74 100.73 469.53 106.34 470.22 111.97 C 468.67 113.38 467.15 114.82 465.58 116.20 C 463.32 116.81 460.90 116.45 458.58 116.60 C 460.50 114.48 462.59 112.54 464.73 110.65 C 463.75 104.10 462.92 97.53 461.94 90.98 Z" />
<path fill="#888888" opacity="1.00" d=" M 294.91 91.97 C 304.18 94.09 313.42 96.35 322.69 98.44 C 325.74 105.63 328.46 112.95 331.26 120.25 C 327.85 119.07 324.78 117.14 321.49 115.70 C 321.49 116.22 321.48 117.26 321.48 117.78 C 316.86 114.30 312.21 110.86 307.52 107.49 C 307.68 107.12 308.02 106.38 308.19 106.01 C 305.91 103.24 303.02 101.05 300.57 98.44 C 298.63 96.34 295.89 94.80 294.91 91.97 Z" />
<path fill="#888888" opacity="1.00" d=" M 636.29 95.62 C 637.52 95.26 638.76 94.88 640.00 94.49 L 640.00 102.54 C 637.98 108.73 635.87 114.88 633.93 121.10 C 631.25 120.28 627.22 120.58 626.90 116.90 C 627.37 117.24 628.31 117.92 628.77 118.26 C 631.30 110.72 633.58 103.09 636.29 95.62 Z" />
<path fill="#888888" opacity="1.00" d=" M 418.90 101.89 C 427.20 101.08 435.57 101.08 443.89 100.43 C 444.14 102.34 444.40 104.25 444.68 106.16 C 424.86 124.88 404.23 142.76 384.55 161.61 C 388.67 162.28 392.76 163.51 396.98 163.42 C 393.87 164.43 390.80 165.52 387.73 166.62 C 384.27 164.07 380.77 161.59 377.40 158.94 L 377.40 158.84 C 376.88 151.45 375.00 144.24 373.89 136.92 C 373.15 133.30 372.98 129.52 371.47 126.09 L 371.42 125.96 C 372.90 123.95 374.10 121.76 375.28 119.56 L 375.42 119.54 C 375.74 119.48 376.38 119.37 376.69 119.31 C 379.64 116.69 382.30 113.78 385.10 111.01 C 384.36 109.77 383.63 108.53 382.90 107.29 C 383.59 106.13 384.28 104.97 385.00 103.82 C 393.12 103.21 401.27 102.80 409.42 102.61 C 400.60 111.75 391.19 120.31 382.42 129.51 C 382.69 136.41 384.74 143.24 385.70 150.11 C 388.46 148.38 390.64 145.91 393.09 143.79 C 392.68 140.77 392.14 137.76 391.53 134.78 C 402.32 123.71 413.63 113.12 424.43 102.06 C 422.58 101.98 420.74 101.89 418.90 101.89 Z" />
<path fill="#888888" opacity="1.00" d=" M 272.66 102.85 C 277.81 107.37 282.56 112.32 287.58 116.99 C 286.79 121.39 286.51 125.91 285.11 130.18 C 283.17 126.15 281.31 122.08 279.47 118.01 C 277.21 112.95 274.78 107.97 272.66 102.85 Z" />
<path fill="#888888" opacity="1.00" d=" M 475.09 106.70 C 477.34 109.49 479.07 112.64 481.01 115.65 C 478.37 115.65 475.74 115.72 473.11 115.88 C 476.14 113.62 475.45 109.95 475.09 106.70 Z" />
<path fill="#888888" opacity="1.00" d=" M 452.31 122.00 C 453.29 123.16 454.27 124.33 455.25 125.49 C 450.31 130.35 445.00 134.81 440.03 139.64 C 446.02 140.51 451.93 142.29 458.01 142.40 C 452.99 144.08 447.95 145.70 443.01 147.61 C 438.21 145.73 432.98 145.59 428.00 144.38 C 435.96 136.76 444.25 129.50 452.31 122.00 Z" />
<path fill="#888888" opacity="1.00" d=" M 458.26 128.97 C 460.51 131.79 463.19 134.27 465.11 137.34 C 460.69 136.68 456.29 135.92 451.91 135.07 C 453.75 132.76 456.12 130.98 458.26 128.97 Z" />
<path fill="#888888" opacity="1.00" d=" M 359.38 145.49 C 362.17 142.10 363.78 137.87 366.75 134.66 C 368.23 140.83 369.43 147.10 369.98 153.42 C 366.51 150.70 362.43 148.64 359.38 145.49 Z" />
<path fill="#888888" opacity="1.00" d=" M 477.97 155.35 C 478.17 154.75 478.57 153.54 478.77 152.94 C 482.14 156.62 485.13 160.66 488.67 164.20 C 489.17 164.90 490.35 165.45 490.25 166.45 C 489.62 167.96 490.63 169.33 491.17 170.69 C 493.31 175.15 495.22 179.72 497.40 184.17 C 498.49 182.22 499.52 180.22 500.47 178.20 C 502.09 180.28 503.97 182.20 505.62 184.24 C 502.52 188.71 500.77 193.98 497.46 198.31 C 491.02 183.96 484.45 169.67 477.97 155.35 Z" />
<path fill="#888888" opacity="1.00" d=" M 471.20 174.88 C 473.00 170.76 474.16 166.41 475.60 162.16 C 475.83 163.24 476.15 164.29 476.56 165.32 C 482.74 178.93 488.90 192.55 495.11 206.14 C 492.43 206.60 489.75 207.05 487.09 207.51 C 482.52 197.56 477.98 187.61 473.51 177.62 C 473.10 176.47 472.38 175.60 471.35 174.99 L 471.20 174.88 Z" />
<path fill="#888888" opacity="1.00" d=" M 464.34 196.13 C 465.75 191.79 467.25 187.47 468.62 183.11 C 469.18 186.48 471.05 189.41 472.35 192.53 C 474.74 197.63 476.85 202.87 479.42 207.89 C 480.08 208.02 481.39 208.29 482.05 208.43 C 478.32 209.13 474.55 209.53 470.84 210.32 C 468.57 205.64 466.49 200.87 464.34 196.13 Z" />
<path fill="#888888" opacity="1.00" d=" M 502.02 204.96 C 504.14 200.86 506.03 196.60 508.71 192.82 L 509.32 193.83 C 508.54 197.30 507.48 200.69 506.66 204.15 C 505.11 204.43 503.56 204.70 502.02 204.96 Z" />
</g>
<g id="#dbdcdcff">
<path fill="#dbdcdc" opacity="1.00" d=" M 362.84 0.00 L 375.50 0.00 C 374.80 0.17 373.40 0.52 372.70 0.70 C 370.58 2.35 368.01 3.17 365.57 4.18 C 364.67 2.78 363.79 1.36 362.84 0.00 Z" />
<path fill="#dbdcdc" opacity="1.00" d=" M 635.10 10.51 C 636.65 9.10 638.30 7.81 640.00 6.59 L 640.00 14.36 C 638.40 13.03 636.74 11.78 635.10 10.51 Z" />
<path fill="#dbdcdc" opacity="1.00" d=" M 288.86 38.22 C 295.29 38.70 301.72 38.17 308.15 38.27 C 306.32 39.77 304.48 41.26 302.68 42.79 C 302.18 41.43 301.69 40.08 301.20 38.72 C 297.08 38.63 292.95 38.83 288.86 38.22 Z" />
<path fill="#dbdcdc" opacity="1.00" d=" M 282.36 41.63 L 282.59 41.74 C 287.09 44.05 291.86 45.77 296.48 47.82 C 294.23 49.65 291.98 51.49 289.78 53.38 C 285.65 51.90 281.76 49.81 277.54 48.58 C 279.17 46.28 280.79 43.98 282.36 41.63 Z" />
<path fill="#dbdcdc" opacity="1.00" d=" M 628.30 45.67 C 632.13 44.39 636.10 43.61 640.00 42.54 L 640.00 44.01 C 633.24 48.92 626.53 53.92 619.66 58.67 C 613.77 57.87 608.35 54.39 602.41 53.31 C 602.31 53.04 602.12 52.49 602.03 52.21 C 604.31 51.67 606.59 51.08 608.87 50.47 C 611.88 51.52 614.89 52.61 617.94 53.55 C 621.40 50.93 625.10 48.62 628.30 45.67 Z" />
<path fill="#dbdcdc" opacity="1.00" d=" M 620.96 64.55 C 627.27 59.90 633.67 55.38 640.00 50.75 L 640.00 79.58 C 638.46 78.36 636.85 77.23 635.27 76.09 C 635.41 70.61 635.55 65.14 635.79 59.67 C 630.81 62.24 626.87 66.48 621.90 68.97 C 616.64 67.50 611.71 65.03 606.38 63.82 C 605.85 62.49 605.28 61.18 604.78 59.85 L 605.15 59.04 C 610.47 60.72 615.64 62.84 620.96 64.55 Z" />
<path fill="#dbdcdc" opacity="1.00" d=" M 268.45 61.50 C 269.60 59.75 270.87 58.09 272.09 56.39 C 274.93 57.57 277.77 58.75 280.52 60.10 C 276.93 61.89 272.72 61.71 268.84 62.43 L 268.45 61.50 Z" />
<path fill="#dbdcdc" opacity="1.00" d=" M 569.10 60.78 C 571.47 60.12 573.83 59.42 576.22 58.80 C 574.96 60.70 573.76 62.65 572.73 64.69 C 572.05 63.47 571.37 62.25 570.65 61.06 C 570.26 60.99 569.49 60.85 569.10 60.78 Z" />
<path fill="#dbdcdc" opacity="1.00" d=" M 555.99 64.01 C 557.80 63.55 559.60 63.09 561.42 62.64 C 562.74 67.14 564.27 71.57 565.65 76.06 C 559.31 86.23 553.37 96.66 546.59 106.55 C 545.88 107.91 544.75 108.90 544.57 110.51 L 543.28 110.42 L 543.88 111.89 C 541.99 111.62 540.17 112.47 538.28 112.32 C 540.44 106.71 542.07 100.85 544.72 95.46 C 549.35 90.37 553.36 84.73 557.47 79.22 C 556.44 75.92 555.42 72.61 554.09 69.42 C 554.67 67.60 555.31 65.80 555.99 64.01 Z" />
<path fill="#dbdcdc" opacity="1.00" d=" M 259.48 74.21 C 260.28 73.13 261.08 72.06 261.88 70.97 C 263.78 71.16 266.39 69.69 267.82 71.36 C 265.44 73.21 263.12 75.15 260.78 77.06 C 260.46 76.34 259.81 74.92 259.48 74.21 Z" />
<path fill="#dbdcdc" opacity="1.00" d=" M 440.39 74.60 C 442.61 74.58 444.83 74.58 447.06 74.61 C 448.04 80.83 448.71 87.09 449.74 93.30 C 446.73 89.81 443.38 86.46 440.84 82.66 C 440.93 79.96 440.77 77.27 440.39 74.60 Z" />
<path fill="#dbdcdc" opacity="1.00" d=" M 455.25 79.80 C 455.13 78.26 454.53 76.54 455.55 75.16 C 457.66 79.07 460.34 82.63 462.36 86.60 L 462.34 86.64 C 461.81 88.04 461.56 89.50 461.94 90.98 C 462.92 97.53 463.75 104.10 464.73 110.65 C 462.59 112.54 460.50 114.48 458.58 116.60 C 456.18 116.90 453.75 117.03 451.34 117.01 C 453.85 114.27 457.26 112.24 459.27 109.11 C 458.10 99.32 456.63 89.56 455.25 79.80 Z" />
<path fill="#dbdcdc" opacity="1.00" d=" M 264.29 84.76 C 265.52 85.05 266.76 85.34 267.99 85.63 C 268.16 88.40 270.68 89.86 272.44 91.64 C 279.89 98.88 287.43 106.02 294.85 113.29 C 293.51 121.11 292.19 128.93 290.95 136.76 C 290.76 137.99 290.27 139.09 289.48 140.05 C 288.05 136.75 286.51 133.49 285.11 130.18 C 286.51 125.91 286.79 121.39 287.58 116.99 C 282.56 112.32 277.81 107.37 272.66 102.85 C 270.02 97.61 267.76 92.20 265.27 86.91 C 265.02 86.37 264.53 85.30 264.29 84.76 Z" />
<path fill="#dbdcdc" opacity="1.00" d=" M 632.91 90.87 C 635.10 89.70 637.60 89.38 640.00 88.85 L 640.00 94.49 C 638.76 94.88 637.52 95.26 636.29 95.62 C 633.58 103.09 631.30 110.72 628.77 118.26 C 628.31 117.92 627.37 117.24 626.90 116.90 C 624.10 109.99 621.60 102.97 618.73 96.09 L 619.24 94.74 C 622.19 98.53 624.49 102.78 627.64 106.42 C 629.39 101.24 630.81 95.92 632.91 90.87 Z" />
<path fill="#dbdcdc" opacity="1.00" d=" M 282.43 89.85 C 283.09 89.80 284.43 89.69 285.10 89.64 C 288.37 90.41 291.63 91.21 294.91 91.97 C 295.89 94.80 298.63 96.34 300.57 98.44 C 303.02 101.05 305.91 103.24 308.19 106.01 C 308.02 106.38 307.68 107.12 307.52 107.49 C 306.76 106.92 305.25 105.79 304.50 105.22 C 304.63 114.46 304.80 123.69 305.00 132.93 C 302.63 134.20 300.24 135.45 297.83 136.64 C 298.86 127.46 301.35 118.33 301.92 109.20 C 295.76 102.43 288.58 96.64 282.43 89.85 Z" />
<path fill="#dbdcdc" opacity="1.00" d=" M 467.95 95.11 C 470.36 98.95 473.08 102.63 475.09 106.70 C 475.45 109.95 476.14 113.62 473.11 115.88 C 470.60 116.07 468.09 116.29 465.58 116.20 C 467.15 114.82 468.67 113.38 470.22 111.97 C 469.53 106.34 468.74 100.73 467.95 95.11 Z" />
<path fill="#dbdcdc" opacity="1.00" d=" M 443.89 100.43 C 446.15 100.28 448.42 100.14 450.68 100.02 C 451.01 102.66 451.34 105.30 451.66 107.95 C 436.85 121.37 422.14 134.90 407.38 148.37 C 404.83 150.76 402.06 152.93 399.82 155.62 C 403.85 156.48 408.03 156.71 411.91 158.17 C 406.96 160.00 401.94 161.61 396.98 163.42 C 392.76 163.51 388.67 162.28 384.55 161.61 C 404.23 142.76 424.86 124.88 444.68 106.16 C 444.40 104.25 444.14 102.34 443.89 100.43 Z" />
<path fill="#dbdcdc" opacity="1.00" d=" M 409.42 102.61 C 412.50 101.99 415.75 102.15 418.90 101.89 C 420.74 101.89 422.58 101.98 424.43 102.06 C 413.63 113.12 402.32 123.71 391.53 134.78 C 392.14 137.76 392.68 140.77 393.09 143.79 C 390.64 145.91 388.46 148.38 385.70 150.11 C 384.74 143.24 382.69 136.41 382.42 129.51 C 391.19 120.31 400.60 111.75 409.42 102.61 Z" />
<path fill="#dbdcdc" opacity="1.00" d=" M 633.93 121.10 C 635.87 114.88 637.98 108.73 640.00 102.54 L 640.00 122.51 C 637.98 122.01 635.95 121.56 633.93 121.10 Z" />
<path fill="#dbdcdc" opacity="1.00" d=" M 375.42 119.54 C 377.99 115.50 380.34 111.33 382.90 107.29 C 383.63 108.53 384.36 109.77 385.10 111.01 C 382.30 113.78 379.64 116.69 376.69 119.31 C 376.38 119.37 375.74 119.48 375.42 119.54 Z" />
<path fill="#dbdcdc" opacity="1.00" d=" M 321.49 115.70 C 324.78 117.14 327.85 119.07 331.26 120.25 C 332.17 122.48 333.09 124.71 333.94 126.96 C 329.83 123.84 325.65 120.82 321.48 117.78 C 321.48 117.26 321.49 116.22 321.49 115.70 Z" />
<path fill="#dbdcdc" opacity="1.00" d=" M 449.25 118.68 C 450.32 119.73 451.33 120.86 452.31 122.00 C 444.25 129.50 435.96 136.76 428.00 144.38 C 432.98 145.59 438.21 145.73 443.01 147.61 C 439.28 148.67 435.67 150.09 432.00 151.33 C 426.78 151.21 421.70 149.83 416.58 148.93 C 427.19 138.56 438.55 128.96 449.25 118.68 Z" />
<path fill="#dbdcdc" opacity="1.00" d=" M 440.03 139.64 C 445.00 134.81 450.31 130.35 455.25 125.49 C 456.25 126.65 457.26 127.81 458.26 128.97 C 456.12 130.98 453.75 132.76 451.91 135.07 C 456.29 135.92 460.69 136.68 465.11 137.34 C 465.56 137.82 466.47 138.79 466.93 139.27 C 463.95 140.31 460.95 141.27 458.01 142.40 C 451.93 142.29 446.02 140.51 440.03 139.64 Z" />
<path fill="#dbdcdc" opacity="1.00" d=" M 371.47 126.09 C 372.98 129.52 373.15 133.30 373.89 136.92 C 375.00 144.24 376.88 151.45 377.40 158.84 C 374.80 157.21 372.36 155.35 369.98 153.42 C 369.43 147.10 368.23 140.83 366.75 134.66 L 366.61 134.08 C 368.31 131.47 369.85 128.75 371.47 126.09 Z" />
<path fill="#dbdcdc" opacity="1.00" d=" M 304.81 142.25 C 304.82 145.30 305.63 148.61 304.59 151.50 C 302.06 153.10 299.30 154.28 296.70 155.74 C 296.24 154.76 295.79 153.77 295.35 152.79 C 294.71 151.40 294.07 150.00 293.44 148.62 C 297.14 146.33 301.06 144.44 304.81 142.25 Z" />
<path fill="#dbdcdc" opacity="1.00" d=" M 477.97 155.35 C 484.45 169.67 491.02 183.96 497.46 198.31 C 500.77 193.98 502.52 188.71 505.62 184.24 C 507.08 185.97 508.54 187.70 510.03 189.41 C 509.88 190.39 509.72 191.37 509.57 192.35 L 508.71 192.82 C 506.03 196.60 504.14 200.86 502.02 204.96 C 499.71 205.38 497.41 205.78 495.11 206.14 C 488.90 192.55 482.74 178.93 476.56 165.32 C 476.15 164.29 475.83 163.24 475.60 162.16 C 476.36 159.88 477.18 157.62 477.97 155.35 Z" />
<path fill="#dbdcdc" opacity="1.00" d=" M 301.53 166.32 C 302.75 165.55 303.96 164.78 305.19 164.01 C 305.38 167.12 305.60 170.27 304.84 173.33 C 303.65 171.03 302.57 168.68 301.53 166.32 Z" />
<path fill="#dbdcdc" opacity="1.00" d=" M 491.17 170.69 C 490.63 169.33 489.62 167.96 490.25 166.45 C 493.76 170.27 497.00 174.34 500.47 178.20 C 499.52 180.22 498.49 182.22 497.40 184.17 C 495.22 179.72 493.31 175.15 491.17 170.69 Z" />
<path fill="#dbdcdc" opacity="1.00" d=" M 471.35 174.99 C 472.38 175.60 473.10 176.47 473.51 177.62 C 477.98 187.61 482.52 197.56 487.09 207.51 C 485.40 207.79 483.72 208.13 482.05 208.43 C 481.39 208.29 480.08 208.02 479.42 207.89 C 476.85 202.87 474.74 197.63 472.35 192.53 C 471.05 189.41 469.18 186.48 468.62 183.11 C 469.55 180.41 470.50 177.72 471.35 174.99 Z" />
</g>
<g id="#560000ff">
<path fill="#560000" opacity="1.00" d=" M 0.00 476.88 C 1.21 477.45 1.70 478.73 1.76 480.00 L 0.00 480.00 L 0.00 476.88 Z" />
</g>
</svg>
