<?xml version="1.0" encoding="utf-8"?>
<!-- Generator: Adobe Illustrator 25.4.0, SVG Export Plug-In . SVG Version: 6.00 Build 0)  -->
<svg version="1.1" id="레이어_1" xmlns="http://www.w3.org/2000/svg" xmlns:xlink="http://www.w3.org/1999/xlink" x="0px"
	 y="0px" viewBox="0 0 64 64" style="enable-background:new 0 0 64 64;" xml:space="preserve">
<g>
	<path style="fill:#FFFFFF;" d="M11.4,32.1c0.4,0,0.7-0.2,0.8-0.5c0.2-0.3,0.2-0.6,0.2-1s-0.1-0.7-0.3-0.9c-0.1-0.3-0.3-0.5-0.6-0.7
		c-0.2-0.2-0.5-0.4-0.7-0.5s-0.4-0.3-0.7-0.5c-1-0.6-1.8-1.2-2.3-1.9c-0.4-0.6-0.7-1.4-0.8-2.4c-0.1-1.4,0.2-2.5,0.9-3.4
		c0.8-0.9,1.8-1.4,3.1-1.6c1.3-0.1,2.7,0.1,4,0.8l-0.9,2.9c0,0-0.2-0.1-0.4-0.1c-0.2-0.1-0.3-0.1-0.4-0.1c-0.1,0-0.2-0.1-0.3-0.1
		C12.8,22,12.7,22,12.6,22l-0.1-0.3c-0.3-0.1-0.6-0.1-0.9-0.1c-0.3,0-0.5,0.2-0.7,0.5c-0.1,0.3-0.2,0.6-0.2,1s0.1,0.7,0.2,0.9
		c0.1,0.2,0.3,0.4,0.5,0.6c0.4,0.3,0.8,0.6,1.3,0.9c1,0.6,1.8,1.2,2.4,1.8c0.6,0.7,0.9,1.5,1,2.5c0.2,1.5-0.1,2.7-0.9,3.6
		c-0.7,0.9-1.8,1.4-3.3,1.6s-2.8,0-4-0.5l-0.4-3.6C9.3,31.8,10.6,32.2,11.4,32.1z"/>
	<path style="fill:#FFFFFF;" d="M25.4,23.5l-2.7-0.2L22,34.9l-3.3-0.2l0.7-11.6l-2.7-0.2l0.2-2.7l8.7,0.5L25.4,23.5z"/>
	<path style="fill:#FFFFFF;" d="M35.5,34.8h-3.1l-0.8-3.1H29l-0.7,3.2h-3.1l3.2-13.1h3.9L35.5,34.8z M31.1,29.2l-0.8-3.4
		c-0.1,0.5-0.3,1.6-0.8,3.4H31.1z"/>
	<path style="fill:#FFFFFF;" d="M36.3,20.3l4-0.1c1.6-0.1,2.9,0.3,3.7,1s1.2,1.8,1.3,3.4c0.1,1.8-0.5,3.1-1.7,3.9l3.1,6.4L42.9,35
		l-2.5-5.6h-0.2l0.2,5.7l-3.6,0.1L36.3,20.3z M40,22.9l0.1,3.8h0.3c0.5,0,0.8-0.2,1-0.5s0.3-0.8,0.3-1.5s-0.2-1.1-0.4-1.4
		s-0.6-0.4-1-0.4H40z"/>
	<path style="fill:#FFFFFF;" d="M56,23.3l-2.8-0.2l-1,12.4l-3.6-0.3l1-12.4l-2.8-0.2l0.2-2.9l9.3,0.7L56,23.3z"/>
	<g>
		<polygon points="56.1,43.5 9,42.9 3.7,47.4 2.9,53.2 8.2,57.2 56.1,56.6 61.1,51.6 60.1,44.6 		"/>
		<path style="fill:#FFFFFF;" d="M9,42.9l47.1,0.6l4,1.1l1,7l-5,5L8.2,57.2l-5.4-4l0.8-5.8L9,42.9 M8.1,40.2l-0.8,0.6l-5.4,4.5
			L1.1,46L1,47l-0.8,5.8L0,54.4l1.3,1l5.4,4L7.4,60h0.9l47.8-0.6h1.1l0.8-0.8l5-5l1-1l-0.2-1.4l-1-7l-0.3-1.8l-1.7-0.5l-4-1.1
			l-0.3-0.1h-0.4l-47-0.5L8.1,40.2L8.1,40.2z"/>
	</g>
</g>
</svg>
