<?xml version="1.0" encoding="utf-8"?>
<!-- Generator: Adobe Illustrator 25.4.0, SVG Export Plug-In . SVG Version: 6.00 Build 0)  -->
<svg version="1.1" id="레이어_1" xmlns="http://www.w3.org/2000/svg" xmlns:xlink="http://www.w3.org/1999/xlink" x="0px"
	 y="0px" viewBox="0 0 64 64" style="enable-background:new 0 0 64 64;" xml:space="preserve">
<path style="fill:#FFFFFF;" d="M32,12C17.6,12,6,23.6,6,38s11.6,26,26,26s26-11.6,26-26S46.4,12,32,12L32,12z"/>
<path d="M32,15.7c-12.3,0-22.3,10-22.3,22.3s10,22.3,22.3,22.3s22.3-10,22.3-22.3S44.3,15.7,32,15.7z M43.6,45.7l-3,3.4l-8.5-7.3
	l-7.5,8.5l-3.3-2.1l6.9-9.4L19,31.3l4.7-4l7.7,7.1l6.9-8.8l5.8,3.4l-8.4,8.7L43.6,45.7z"/>
</svg>
