<?xml version="1.0" encoding="utf-8"?>
<!-- Generator: Adobe Illustrator 25.4.0, SVG Export Plug-In . SVG Version: 6.00 Build 0)  -->
<svg version="1.1" id="레이어_1" xmlns="http://www.w3.org/2000/svg" xmlns:xlink="http://www.w3.org/1999/xlink" x="0px"
	 y="0px" viewBox="0 0 64 64" style="enable-background:new 0 0 64 64;" xml:space="preserve">
<g>
	<path style="fill:#FFFFFF;" d="M10.2,32.1c0.4,0,0.7-0.2,0.8-0.4c0.2-0.3,0.3-0.6,0.2-1c0-0.4-0.1-0.7-0.2-0.9
		c-0.1-0.3-0.3-0.5-0.5-0.7s-0.4-0.4-0.6-0.5c-0.2-0.1-0.4-0.3-0.7-0.5c-1-0.6-1.7-1.2-2.2-1.9c-0.5-0.7-0.8-1.5-0.9-2.5
		c-0.1-1.4,0.2-2.5,1-3.4s1.8-1.4,3.1-1.4c1.3-0.1,2.6,0.2,4,0.9l-0.9,2.8c0,0-0.2-0.1-0.3-0.1c-0.2-0.1-0.3-0.1-0.4-0.2
		c-0.1,0-0.2-0.1-0.3-0.1c-0.2-0.1-0.3-0.1-0.3-0.1L11.7,22c-0.3-0.1-0.6-0.1-0.9-0.1c-0.3,0-0.5,0.2-0.7,0.4
		c-0.1,0.3-0.2,0.6-0.2,1s0.1,0.7,0.2,0.9c0.1,0.2,0.3,0.5,0.5,0.6c0.4,0.3,0.8,0.6,1.3,0.9c1,0.6,1.8,1.2,2.3,1.9
		c0.5,0.7,0.8,1.5,0.9,2.5c0.1,1.5-0.2,2.7-0.9,3.5c-0.7,0.9-1.9,1.3-3.3,1.4c-1.5,0.1-2.8-0.1-3.9-0.6l-0.3-3.5
		C8.1,31.8,9.4,32.2,10.2,32.1z"/>
	<path style="fill:#FFFFFF;" d="M23,23.2h-3.7v2.9h3.4v2.6h-3.4v3.4H23v2.7h-7V20.6h7V23.2z"/>
	<path style="fill:#FFFFFF;" d="M27.3,31.9l3.4,0.2l-0.2,2.5l-6.6-0.5l0.9-13.4l3.2,0.2L27.3,31.9z"/>
	<path style="fill:#FFFFFF;" d="M38.6,23L35,23.2l0.2,2.9l3.4-0.2l0.1,2.7l-3.4,0.1l0.2,3.4l3.7-0.2l0.1,2.7L32.2,35l-0.8-14.3
		l7.1-0.4L38.6,23z"/>
	<path style="fill:#FFFFFF;" d="M46.2,35.2c-0.8,0.1-1.5,0.1-2.1-0.1c-0.6-0.2-1.2-0.5-1.6-0.9c-0.4-0.4-0.8-0.9-1.2-1.5
		c-0.6-1.1-1-2.4-1.3-4.1c-0.2-1.3-0.2-2.5,0-3.6s0.6-2.1,1.3-2.9s1.7-1.3,3-1.5c0.6-0.1,1.1-0.1,1.7,0c0.6,0.1,1.2,0.3,1.8,0.6
		l-0.6,2.5c-0.1,0-0.2-0.1-0.4-0.2s-0.4-0.2-0.6-0.2c-0.5-0.1-0.9-0.2-1.3-0.1c-0.4,0.1-0.7,0.2-0.9,0.5s-0.4,0.5-0.5,0.9
		s-0.1,0.7-0.2,1.2c0,0.7,0,1.5,0.1,2.4c0.4,3,1.3,4.5,2.7,4.3c0.6-0.1,1.5-0.5,2.6-1.4l0.4,2.9C48.3,34.6,47.3,35,46.2,35.2z"/>
	<path style="fill:#FFFFFF;" d="M58.4,22.9l-2.8-0.1l-0.5,12.4l-3.6-0.1l0.4-12.4l-2.8-0.1l0.1-2.9l9.3,0.4L58.4,22.9z"/>
	<g>
		<polygon points="56.1,43.5 9,42.9 3.7,47.4 2.9,53.2 8.2,57.2 56.1,56.6 61.1,51.6 60.1,44.6 		"/>
		<path style="fill:#FFFFFF;" d="M9,42.9l47.1,0.6l4,1.1l1,7l-5,5L8.2,57.2l-5.4-4l0.8-5.8L9,42.9 M8.1,40.2l-0.8,0.6l-5.4,4.5
			L1.1,46L1,47l-0.8,5.8L0,54.4l1.3,1l5.4,4L7.4,60h0.9l47.8-0.6h1.1l0.8-0.8l5-5l1-1l-0.2-1.4l-1-7l-0.3-1.8l-1.7-0.5l-4-1.1
			l-0.3-0.1h-0.4l-47-0.5L8.1,40.2L8.1,40.2z"/>
	</g>
</g>
</svg>
