<?xml version="1.0" encoding="utf-8"?>
<!-- Generator: Adobe Illustrator 25.4.0, SVG Export Plug-In . SVG Version: 6.00 Build 0)  -->
<svg version="1.1" id="레이어_1" xmlns="http://www.w3.org/2000/svg" xmlns:xlink="http://www.w3.org/1999/xlink" x="0px"
	 y="0px" viewBox="0 0 64 64" style="enable-background:new 0 0 64 64;" xml:space="preserve">
<path style="fill:#FFFFFF;" d="M32,12C17.6,12,6,23.6,6,38s11.6,26,26,26s26-11.6,26-26S46.4,12,32,12L32,12z"/>
<g>
	<path d="M33.1,35c0.9,0,1.6-0.2,1.9-0.7c0.4-0.5,0.6-0.9,0.6-1.5c0-1.4-0.8-2.1-2.6-2.1h-4.3l0.4,4.3H33.1z"/>
	<path d="M33,40.4h-4l0.5,4.6h3.8c0.9,0,1.7-0.2,2-0.7c0.5-0.5,0.6-1,0.6-1.6s-0.2-1.1-0.6-1.6C34.9,40.7,34.1,40.4,33,40.4z"/>
	<path d="M54.3,37.3c-0.4-11.6-9.9-21.2-21.5-21.5c-12.9-0.4-23.4,10.1-23,23c0.4,11.6,9.9,21.2,21.5,21.5
		C44.2,60.7,54.7,50.2,54.3,37.3z M41.8,48.5c-1.1,1.5-3.6,2.2-7.4,2.2H23.3l-1.9-24.4l13.8-0.9c2.7,0,4.6,0.7,5.8,2
		s1.9,2.9,1.9,4.6c0,1.3-0.4,2.4-1,3.4c-0.7,1-1.8,1.8-3.2,2.1c3.2,0.8,4.9,2.8,4.9,5.9C43.5,45.3,43,47,41.8,48.5z"/>
</g>
</svg>
