<?xml version="1.0" encoding="utf-8"?>
<!-- Generator: Adobe Illustrator 25.3.1, SVG Export Plug-In . SVG Version: 6.00 Build 0)  -->
<svg version="1.1" id="레이어_1" xmlns="http://www.w3.org/2000/svg" xmlns:xlink="http://www.w3.org/1999/xlink" x="0px"
	 y="0px" width="64px" height="64px" viewBox="0 0 64 64" style="enable-background:new 0 0 64 64;" xml:space="preserve">
<g>
	<polygon style="fill:#FFFFFF;" points="0,11.8 64,11.8 64,36.9 61.6,48 55.1,52.2 10,51.5 5.3,48 1.1,40.8 	"/>
	<polygon points="3.7,15.1 61.2,16 60.1,36.9 57.7,45 52.4,47.6 12.9,48.5 7.9,45.4 4.6,39.7 	"/>
	<path style="fill:#FFFFFF;" d="M33.4,19.2H9c0,0-0.2,16,0,19.6c0.2,3.5,3.1,3.5,3.1,3.5l9.6,2.4c0,0,13.3,0.2,21.6,0
		c8.3-0.2,13.3-4.8,13.3-4.8l0.2-20.7H33.4z M32.5,38.2H19.4v-14h5.9v10.3l7.2,0.9V38.2z M45.3,38.2h-5.7v-8.5l-3.7,0.6L35,27.1
		c4.3-0.7,4.9-3,4.9-3l5.4,0.2V38.2z"/>
</g>
</svg>
