<?xml version="1.0" encoding="utf-8"?>
<!-- Generator: Adobe Illustrator 25.4.0, SVG Export Plug-In . SVG Version: 6.00 Build 0)  -->
<svg version="1.1" id="레이어_1" xmlns="http://www.w3.org/2000/svg" xmlns:xlink="http://www.w3.org/1999/xlink" x="0px"
	 y="0px" viewBox="0 0 64 64" style="enable-background:new 0 0 64 64;" xml:space="preserve">
<path style="fill:#FFFFFF;" d="M32,12C17.6,12,6,23.6,6,38s11.6,26,26,26s26-11.6,26-26S46.4,12,32,12L32,12z"/>
<g>
	<polygon points="29.2,40.4 33.3,39.5 31.3,33.1 	"/>
	<path d="M54.3,37.3c-0.4-11.6-9.9-21.2-21.5-21.5c-12.9-0.4-23.4,10.1-23,23c0.4,11.6,9.9,21.2,21.5,21.5
		C44.2,60.7,54.7,50.2,54.3,37.3z M36.1,50.9L34.7,45l-6.8,0.9l-0.6,4.5L21,50.9l6.4-25.2l7.8-1.1l9,25.3L36.1,50.9z"/>
</g>
</svg>
