<?xml version="1.0" encoding="utf-8"?>
<!-- Generator: Adobe Illustrator 25.3.1, SVG Export Plug-In . SVG Version: 6.00 Build 0)  -->
<svg version="1.1" id="레이어_1" xmlns="http://www.w3.org/2000/svg" xmlns:xlink="http://www.w3.org/1999/xlink" x="0px"
	 y="0px" width="64px" height="64px" viewBox="0 0 64 64" style="enable-background:new 0 0 64 64;" xml:space="preserve">
<path id="outline" style="fill:none;stroke:#FFFFFF;stroke-width:2;stroke-linejoin:round;" d="M15,19h34c7.2,0,13,5.8,13,13
	s-5.8,13-13,13H15C7.8,45,2,39.2,2,32S7.8,19,15,19z"/>
<g>
	<polygon style="fill:#FFFFFF;" points="64,11.8 0.4,12.6 0,36.9 2.4,48 8.9,52.2 54,51.5 58.7,48 62.9,40.8 	"/>
	<polygon points="60.3,15.1 2.8,16.5 3.9,36.9 6.3,45 11.6,47.6 51.1,48.5 56.1,45.4 59.4,39.7 	"/>
	<g>
		<path style="fill:#FFFFFF;" d="M24.4,27.2h-3.2v2.7c0,0,1.9,0.2,3.2,0c1.2-0.2,1.5,0,1.5-1.4S24.4,27.2,24.4,27.2z"/>
		<path style="fill:#FFFFFF;" d="M55,19.2H30.6H7.8l0,21c0,0,4.6,4.3,12.9,4.5c8.3,0.2,21.6,0,21.6,0l9.6-2.4c0,0,3,0,3.1-3.5
			C55.1,35.2,55,19.2,55,19.2z M26,37.9l-3.1-5.3l-1.2-0.1l-0.3,5.3h-5.2V24c0,0,6.7,0,9.8,0.2c3.1,0.2,5.5,1.3,5.4,4.4
			c0,3.1-3.1,3.3-3.1,3.3l4.4,5.9H26z M40.3,38.2v-9l-4,1.4l-0.9-3.4c4.1-0.4,4.9-2.8,4.9-2.8h5.1l0.4,13.8H40.3z"/>
	</g>
</g>
</svg>
