<?xml version="1.0" encoding="utf-8"?>
<!-- Generator: Adobe Illustrator 25.4.0, SVG Export Plug-In . SVG Version: 6.00 Build 0)  -->
<svg version="1.1" id="레이어_1" xmlns="http://www.w3.org/2000/svg" xmlns:xlink="http://www.w3.org/1999/xlink" x="0px"
	 y="0px" viewBox="0 0 64 64" style="enable-background:new 0 0 64 64;" xml:space="preserve">
<polygon style="fill:#FFFFFF;" points="6.6,22.9 17.4,22.9 18.5,12.3 46.9,13.5 47.6,22.9 58.4,23.7 58.4,52 46.2,52.6 46.3,62.3 
	17.3,62.3 18,52 5.6,52.7 "/>
<polygon points="21.2,15.9 21.2,26.2 9.3,26.2 10.4,49.3 21.2,49.3 21.2,59.6 42.6,58.4 42.6,49 54.9,49 56,26.4 43.9,26.2 
	43.9,17.2 "/>
<path style="fill:#FFFFFF;" d="M38.5,19.8H26.6V30l5.9,5l5.7-4.5L38.5,19.8L38.5,19.8z"/>
<path style="fill:#FFFFFF;" d="M23.7,33.9l2.6,3.4l-2.6,3.6h-6.8l-0.2-7H23.7 M24.9,31.4H14.1l0.3,12H25l4.5-6.2L24.9,31.4
	L24.9,31.4z"/>
<path style="fill:#FFFFFF;" d="M32.6,40.4l-5.9,4.5v10.6h11.6V45.1L32.6,40.4L32.6,40.4z"/>
<path style="fill:#FFFFFF;" d="M48.1,33.9v7.3h-6.9l-2.6-3.7l2.9-3.6H48.1 M50.6,31.4H40.3l-4.8,6l4.5,6.3h10.6V31.4L50.6,31.4z"/>
</svg>
