<?xml version="1.0" encoding="utf-8"?>
<!-- Generator: Adobe Illustrator 25.4.0, SVG Export Plug-In . SVG Version: 6.00 Build 0)  -->
<svg version="1.1" id="레이어_1" xmlns="http://www.w3.org/2000/svg" xmlns:xlink="http://www.w3.org/1999/xlink" x="0px"
	 y="0px" viewBox="0 0 64 64" style="enable-background:new 0 0 64 64;" xml:space="preserve">
<polygon style="fill:#FFFFFF;" points="6.6,23 17.4,23 18.6,12.4 46.8,13.6 47.5,23 58.3,23.8 58.3,52 46.1,52.8 46.3,62.4 
	17.4,62.4 18,52 5.7,52.8 "/>
<polygon points="21.1,16 21.1,26.4 9.3,26.4 10.5,49.3 21.1,49.3 21.1,59.6 42.5,58.5 42.5,49.1 54.8,49 56,26.5 43.8,26.4 
	43.8,17.3 "/>
<polygon style="fill:#FFFFFF;" points="26.7,19.9 38.4,19.9 38.2,30.6 32.6,35 26.7,30.1 "/>
<polygon style="fill:#FFFFFF;" points="14.2,31.6 24.9,31.6 29.5,37.3 25,43.5 14.5,43.5 "/>
<polygon style="fill:#FFFFFF;" points="32.6,40.5 26.7,44.9 26.7,55.6 38.2,55.6 38.2,45.1 "/>
<polygon style="fill:#FFFFFF;" points="35.5,37.6 40.2,31.6 50.6,31.6 50.6,43.7 39.9,43.7 "/>
</svg>
